<?xml version="1.0" encoding="UTF-8"?>
<svg width="237px" height="244px" viewBox="0 0 237 244" version="1.1" xmlns="http://www.w3.org/2000/svg" xmlns:xlink="http://www.w3.org/1999/xlink">
    <!-- Generator: Sketch 57.1 (83088) - https://sketch.com -->
    <title>Mind map-bro</title>
    <desc>Created with Sketch.</desc>
    <g id="Webdesign-quick-fix" stroke="none" stroke-width="1" fill="none" fill-rule="evenodd">
        <g id="Labs---UI" transform="translate(-404.000000, -2500.000000)">
            <g id="Mind-map-bro" transform="translate(405.000000, 2501.000000)">
                <g id="freepik--background-simple--inject-166" transform="translate(1.000000, 1.000000)" fill-rule="nonzero">
                    <path d="M15.8413288,73.0881757 C15.8413288,73.0881757 1.08502252,111.196284 21.8221847,149.569032 C42.5593468,187.941779 85.2721847,208.213176 119.458333,225.547072 C153.644482,242.880968 189.143243,234.438964 206.011374,206.048423 C222.879505,177.657883 199.744707,157.391779 199.71295,116.907207 C199.681194,76.4226351 205.773198,65.7047297 183.834572,31.5027027 C161.895946,-2.69932432 108.115878,-10.2733108 67.4460586,15.095045 C26.7762387,40.4634009 15.8413288,73.0881757 15.8413288,73.0881757 Z" id="Path" fill="#FFFFFF" opacity="0.7"></path>
                    <path d="M91.8722973,230.427027 C26.8873874,219.439189 36.1709459,183.585811 16.3018018,142.704279 C-3.56734234,101.822748 -5.72150901,85.0922297 15.147973,49.4399775 C36.017455,13.7877252 80.2493243,-6.84887387 120.76036,22.0233108 C161.271396,50.8954955 191.307995,41.2361486 215.697185,63.8363739 C240.086374,86.4365991 242.939189,118.558559 213.114302,147.668919 C183.289414,176.779279 172.015766,243.997748 91.8722973,230.427027 Z" id="Path" fill="#3087DF"></path>
                    <path d="M91.8722973,230.427027 C26.8873874,219.439189 36.1709459,183.585811 16.3018018,142.704279 C-3.56734234,101.822748 -5.72150901,85.0922297 15.147973,49.4399775 C36.017455,13.7877252 80.2493243,-6.84887387 120.76036,22.0233108 C161.271396,50.8954955 191.307995,41.2361486 215.697185,63.8363739 C240.086374,86.4365991 242.939189,118.558559 213.114302,147.668919 C183.289414,176.779279 172.015766,243.997748 91.8722973,230.427027 Z" id="Path" fill="#FFFFFF" opacity="0.7"></path>
                </g>
                <g id="freepik--Character--inject-166" transform="translate(77.000000, 116.000000)">
                    <path d="M71.2067391,115.464167 C71.2067391,115.464167 59.6007971,112.908292 57.4002174,107.055708 C55.1996377,101.203125 59.420942,86.3070833 60.336087,71.6332917 L12.663913,71.6332917 C13.579058,86.3070833 17.8003623,101.197833 15.5997826,107.055708 C13.3992029,112.913583 1.79326087,115.464167 1.79326087,115.464167 C1.79326087,115.464167 25.9361594,126.740708 34.6273913,126.878292 C44.2073188,127.03175 71.2067391,115.464167 71.2067391,115.464167 Z" id="Path" fill="#FFFFFF" fill-rule="nonzero"></path>
                    <path d="M6.45362319,114.024833 C8.2892029,114.506375 10.473913,115.035542 12.6215942,115.464167 C16.0758696,116.157375 19.4349275,116.575417 21.0853623,116.099167 C21.538868,115.970853 21.9629461,115.755147 22.3337681,115.464167 C25.147971,113.289292 24.5872464,107.404958 24.5872464,107.404958 C46.4555072,105.780417 55.7656522,86.20125 56.0513043,85.5927083 C53.7925362,94.2128333 48.4127536,108.346875 49.9256522,114.01425 C50.0554038,114.574232 50.3546583,115.080552 50.7826087,115.464167 C51.9146377,116.443125 53.8295652,116.17325 55.770942,115.464167 C58.0375718,114.554224 60.1908669,113.383979 62.1875362,111.976958 C60.0398551,110.71225 58.1513768,109.077125 57.3896377,107.050417 C55.189058,101.197833 59.4103623,86.3070833 60.3255072,71.6332917 L12.663913,71.6332917 C13.579058,86.3070833 17.8003623,101.197833 15.5997826,107.050417 C14.3302174,110.421208 9.94492754,112.7125 6.45362319,114.024833 Z" id="Path" fill="#3087DF" fill-rule="nonzero" opacity="0.4"></path>
                    <path d="M71.2067391,115.464167 C71.2067391,115.464167 59.6007971,112.908292 57.4002174,107.055708 C55.1996377,101.203125 59.420942,86.3070833 60.336087,71.6332917 L12.663913,71.6332917 C13.579058,86.3070833 17.8003623,101.197833 15.5997826,107.055708 C13.3992029,112.913583 1.79326087,115.464167 1.79326087,115.464167" id="Path" stroke="#263238"></path>
                    <path d="M58.4476087,80.5550417 C58.4476087,80.5550417 46.3232609,95.7791667 42.9906522,97.8958333 C38.615942,100.695125 29.1365217,100.541667 26.9147826,98.1762917 C24.6930435,95.8109167 14.0339855,82.4970833 14.1292029,79.375 C14.309058,73.6811667 58.4476087,80.5550417 58.4476087,80.5550417 Z" id="Path" fill="#263238" fill-rule="nonzero"></path>
                    <path d="M9.77565217,50.32375 C9.77565217,50.32375 6.07275362,45.1432083 4.1207971,44.7251667 C2.95702899,44.4764583 0.449637681,46.101 0.269782609,47.5244583 C0.0899275362,48.9479167 1.92021739,56.8325 1.37007246,58.4835 C0.819927536,60.1345 3.78753623,64.7647083 5.9457971,67.262375 C8.10405797,69.7600417 8.69652174,71.2205417 10.1776812,69.2044167" id="Path" fill="#FFFFFF" fill-rule="nonzero"></path>
                    <path d="M1.37007246,58.4835 C0.841086957,60.1345 3.79282609,64.7647083 5.9457971,67.2570833 C8.09876812,69.7494583 8.69652174,71.2205417 10.1776812,69.2044167 C8.59072464,69.802375 7.36347826,66.4950833 8.09347826,65.8547917 C8.82347826,65.2145 8.26804348,57.261125 7.23123188,56.0281667 C6.19442029,54.7952083 4.97775362,46.5031667 3.14217391,45.974 C2.41217391,45.75175 1.37536232,46.3444167 0.39673913,47.1381667 C0.340991107,47.2685567 0.301890818,47.4054546 0.280362319,47.545625 C0.0846376812,48.9479167 1.91492754,56.8325 1.37007246,58.4835 Z" id="Path" fill="#3087DF" fill-rule="nonzero" opacity="0.4"></path>
                    <path d="M9.77565217,50.32375 C9.77565217,50.32375 6.07275362,45.1432083 4.1207971,44.7251667 C2.95702899,44.4764583 0.449637681,46.101 0.269782609,47.5244583 C0.0899275362,48.9479167 1.92021739,56.8325 1.37007246,58.4835 C0.819927536,60.1345 3.78753623,64.7647083 5.9457971,67.262375 C8.10405797,69.7600417 8.69652174,71.2205417 10.1776812,69.2044167" id="Path" stroke="#263238" stroke-linecap="round" stroke-linejoin="round"></path>
                    <path d="M1.92021739,51.6043333 C1.92021739,51.6043333 1.39123188,49.2495417 2.56028986,48.641 C3.72934783,48.0324583 5.26869565,55.4937083 6.23144928,56.1922083 C7.1942029,56.8907083 6.50652174,58.6687083 6.23144928,59.6794167 C5.95637681,60.690125 7.05666667,60.96 7.1465942,61.6955417 C7.23652174,62.4310833 7.33173913,63.2830417 6.7815942,63.4365 C6.23144928,63.5899583 4.30594203,62.245875 3.7557971,61.1452083 C3.20565217,60.0445417 2.92528986,56.7425417 2.92528986,56.7425417" id="Path" stroke="#263238" stroke-linecap="round" stroke-linejoin="round"></path>
                    <path d="M5.28985507,54.3295417 C4.94057845,54.1725391 4.53482337,54.2084794 4.2185593,54.4244333 C3.90229522,54.6403871 3.72101264,55.0052923 3.73992754,55.387875" id="Path" stroke="#263238" stroke-linecap="round" stroke-linejoin="round"></path>
                    <path d="M63.2243478,50.32375 C63.2243478,50.32375 66.9272464,45.1432083 68.8792029,44.7251667 C70.042971,44.4764583 72.5503623,46.101 72.7302174,47.5244583 C72.9100725,48.9479167 71.0797826,56.8325 71.6299275,58.4835 C72.1800725,60.1345 69.2124638,64.7647083 67.0542029,67.262375 C64.895942,69.7600417 64.3034783,71.2205417 62.8223188,69.2044167" id="Path" fill="#FFFFFF" fill-rule="nonzero"></path>
                    <path d="M62.8434783,69.2044167 C64.3034783,71.21525 64.895942,69.7600417 67.0753623,67.2570833 C69.2547826,64.754125 72.2012319,60.1345 71.651087,58.4835 C71.100942,56.8325 72.9365217,48.9585 72.7566667,47.5244583 C72.7362999,47.3880561 72.698982,47.2547325 72.6455797,47.1275833 C71.6616667,46.3285417 70.6195652,45.7305833 69.8842754,45.9528333 C68.0486957,46.482 66.832029,54.8005 65.7952174,56.007 C64.7584058,57.2135 64.2082609,65.1933333 64.9276812,65.833625 C65.6471014,66.4739167 64.4198551,69.770625 62.8434783,69.2044167 Z" id="Path" fill="#3087DF" fill-rule="nonzero" opacity="0.4"></path>
                    <path d="M63.2243478,50.32375 C63.2243478,50.32375 66.9272464,45.1432083 68.8792029,44.7251667 C70.042971,44.4764583 72.5503623,46.101 72.7302174,47.5244583 C72.9100725,48.9479167 71.0797826,56.8325 71.6299275,58.4835 C72.1800725,60.1345 69.2124638,64.7647083 67.0542029,67.262375 C64.895942,69.7600417 64.3034783,71.2205417 62.8223188,69.2044167" id="Path" stroke="#263238" stroke-linecap="round" stroke-linejoin="round"></path>
                    <path d="M71.0797826,51.6043333 C71.0797826,51.6043333 71.6087681,49.2495417 70.4397101,48.641 C69.2706522,48.0324583 67.7313043,55.4937083 66.7685507,56.1922083 C65.8057971,56.8907083 66.4934783,58.6687083 66.7685507,59.6794167 C67.0436232,60.690125 65.9433333,60.96 65.8534058,61.6955417 C65.7634783,62.4310833 65.6682609,63.2830417 66.2184058,63.4365 C66.7685507,63.5899583 68.694058,62.245875 69.2442029,61.1452083 C69.7943478,60.0445417 70.0747101,56.7425417 70.0747101,56.7425417" id="Path" stroke="#263238" stroke-linecap="round" stroke-linejoin="round"></path>
                    <path d="M67.7101449,54.3295417 C68.0594216,54.1725391 68.4651766,54.2084794 68.7814407,54.4244333 C69.0977048,54.6403871 69.2789874,55.0052923 69.2600725,55.387875" id="Path" stroke="#263238" stroke-linecap="round" stroke-linejoin="round"></path>
                    <path d="M66.5886957,29.2840833 C65.9380435,21.193125 60.6587681,4.18570833 36.5846377,4.079875 L36.4153623,4.079875 C12.3412319,4.18570833 7.06195652,21.193125 6.41130435,29.2840833 C5.76065217,37.3750417 9.19376812,67.4422917 10.4104348,73.1255417 C11.7117391,79.21625 17.8638406,83.708875 24.2698551,90.3975417 C28.8984783,95.2447083 29.6178986,95.8638333 36.4365217,95.9379167 L36.6057971,95.9379167 C43.4032609,95.8638333 44.1226812,95.2447083 48.7724638,90.3975417 C55.1784783,83.693 61.3305797,79.21625 62.6318841,73.1255417 C63.8062319,67.4422917 67.2393478,37.3909167 66.5886957,29.2840833 Z" id="Path" fill="#FFFFFF" fill-rule="nonzero"></path>
                    <g id="Group" transform="translate(5.818841, 22.225000)" fill="#3087DF" fill-rule="nonzero" opacity="0.4">
                        <path d="M30.7234783,44.03725 C28.0150725,44.03725 26.8565942,42.2539583 25.9996377,42.2539583 C25.2175909,42.299854 24.4407788,42.4113709 23.6773913,42.5873333 C23.6773913,42.5873333 23.9418841,39.9785417 25.4865217,38.9202083 C25.4865217,38.9202083 20.8631884,41.2961667 20.365942,42.5873333 C19.8686957,43.8785 20.365942,49.4082917 20.365942,49.4082917 C20.365942,49.4082917 22.4184058,45.3601667 22.8944928,45.7835 C24.4978971,47.1019223 26.4908875,47.8551289 28.5652174,47.926625 L28.0362319,49.4082917 L30.4113768,50.466625 C30.4113768,50.466625 29.8823913,48.3499583 30.6811594,47.9477917 C31.4799275,47.545625 32.7971014,48.387 32.7971014,48.387 C32.7971014,48.387 37.1718116,47.3286667 38.4678261,45.8046667 C39.1237681,45.037375 40.2663768,49.4294583 40.2663768,49.4294583 C40.2663768,49.4294583 40.88,43.8890833 40.2663768,42.021125 C39.6527536,40.1531667 36.2989855,38.9625417 36.2989855,38.9625417 C36.2989855,38.9625417 38.362029,41.163875 37.6849275,42.6296667 C37.6849275,42.6296667 36.7010145,42.06875 34.8019565,42.433875 C34.6644203,42.418 32.4532609,44.03725 30.7234783,44.03725 Z" id="Path"></path>
                        <path d="M39.8907971,53.8850417 C39.8907971,53.8850417 40.5573188,52.86375 33.542971,51.7313333 L30.6811594,52.5885833 L27.8034783,51.7313333 C27.8034783,51.7313333 21.7994928,52.578 20.9266667,53.8850417 C23.6223014,54.0801879 26.3295103,54.0500975 29.0201449,53.7950833 L30.6811594,54.3983333 L32.3421739,53.7950833 C32.3421739,53.7950833 38.7323188,54.0490833 39.8907971,53.8850417 Z" id="Path"></path>
                        <path d="M38.4678261,56.4144583 C38.4678261,56.4144583 37.8436232,58.3988333 36.0556522,59.0602917 C34.2676812,59.72175 27.2057246,60.1609583 25.5976087,59.0602917 C24.5671103,58.3212258 23.6555523,57.428985 22.8944928,56.4144583 C25.4363724,57.0768597 28.0884829,57.2012199 30.6811594,56.7795833 C35.1775362,56.0916667 35.9710145,57.8220417 38.4678261,56.4144583 Z" id="Path"></path>
                        <path d="M44.127971,20.4840417 C43.8,19.6902917 38.1504348,19.954875 37.6373188,20.4840417 C37.1242029,21.0132083 34.3152899,24.5692083 33.6434783,27.0933333 C33.0519246,29.6275747 32.7975753,32.2288756 32.887029,34.82975 C33.0034058,36.2320417 35.4526087,33.528 36.462971,32.019875 C37.4733333,30.51175 36.7803623,28.2627917 37.1718116,27.0933333 C37.5632609,25.923875 39.9066667,28.7284583 39.9066667,28.7284583 C39.9066667,28.7284583 37.8594928,25.923875 38.4889855,24.5480417 C39.1184783,23.1722083 44.127971,20.4840417 44.127971,20.4840417 Z" id="Path"></path>
                        <path d="M26.6502899,25.7439583 C26.6502899,25.7439583 23.7408696,20.7274583 22.8944928,20.2829583 C22.0481159,19.8384583 19.7734783,19.78025 19.2233333,20.2829583 C18.6731884,20.7856667 17.8902899,22.6007083 18.7895652,22.4737083 C19.6888406,22.3467083 26.7455072,28.400375 26.6502899,25.7439583 Z" id="Path"></path>
                        <path d="M56.7707246,50.9005417 C55.9031884,54.9645417 52.8773913,58.308875 49.0581159,62.0765417 C50.116087,57.5733333 50.4916667,51.831875 50.4969565,47.2069583 C50.4969565,39.6822083 53.9671014,35.0943333 55.1943478,32.1680417 C56.4215942,29.24175 52.9302899,27.6013333 52.9302899,27.6013333 C52.9302899,27.6013333 49.7563768,23.7278333 50.6662319,23.1722083 C51.576087,22.6165833 53.1683333,18.2192083 53.1683333,18.2192083 L55.1943478,18.1239583 C54.02,15.763875 52.5018116,11.064875 53.1683333,9.05933333 C53.8348551,7.05379167 51.9516667,0.243416667 51.9516667,0.243416667 L60.4154348,4.32858333 C60.5819446,5.23199649 60.7020058,6.1433613 60.7751449,7.05908333 C61.4205072,15.1659167 57.9873913,45.2172917 56.7707246,50.9005417 Z" id="Path"></path>
                        <path d="M12.3042029,62.0765417 C8.48492754,58.308875 5.45913043,54.9645417 4.5915942,50.9005417 C3.37492754,45.2172917 -0.0581884058,15.1659167 0.597753623,7.05908333 C0.670892758,6.1433613 0.790953979,5.23199649 0.957463768,4.32858333 L9.42123188,0.243416667 C9.42123188,0.243416667 7.53804348,7.0485 8.20456522,9.05933333 C8.87108696,11.0701667 7.35289855,15.763875 6.17855072,18.1239583 L8.20456522,18.2192083 C8.20456522,18.2192083 9.79152174,22.621875 10.7066667,23.1722083 C11.6218116,23.7225417 8.4426087,27.6013333 8.4426087,27.6013333 C8.4426087,27.6013333 4.94601449,29.2311667 6.17855072,32.1680417 C7.41108696,35.1049167 10.8547826,39.6822083 10.875942,47.2069583 C10.8706522,51.8583333 11.2250725,57.5733333 12.3042029,62.0765417 Z" id="Path"></path>
                    </g>
                    <path d="M66.5886957,29.2840833 C65.9380435,21.193125 60.6587681,4.18570833 36.5846377,4.079875 L36.4153623,4.079875 C12.3412319,4.18570833 7.06195652,21.193125 6.41130435,29.2840833 C5.76065217,37.3750417 9.19376812,67.4422917 10.4104348,73.1255417 C11.7117391,79.21625 17.8638406,83.708875 24.2698551,90.3975417 C28.8984783,95.2447083 29.6178986,95.8638333 36.4365217,95.9379167 L36.6057971,95.9379167 C43.4032609,95.8638333 44.1226812,95.2447083 48.7724638,90.3975417 C55.1784783,83.693 61.3305797,79.21625 62.6318841,73.1255417 C63.8062319,67.4422917 67.2393478,37.3909167 66.5886957,29.2840833 Z" id="Path" stroke="#263238" stroke-linecap="round" stroke-linejoin="round"></path>
                    <path d="M43.6307246,40.8569583 C43.9110243,39.8076753 44.7768766,39.0180122 45.8471739,38.8355417 C48.6613768,38.274625 52.4965217,37.4385417 55.9507971,38.4862917 C60.7910145,39.957375 60.6111594,42.719625 60.6111594,42.719625 C59.6368179,41.1091245 57.8231912,40.2030302 55.9507971,40.3912917 C52.7239855,40.6982083 43.4561594,41.6189583 43.4561594,41.6189583 L43.6307246,40.8569583 Z" id="Path" fill="#263238" fill-rule="nonzero"></path>
                    <path d="M55.9719565,49.6940417 C55.9719565,49.6940417 54.3003623,52.0805833 50.1795652,52.0435417 C46.0587681,52.0065 44.8103623,49.6781667 44.8103623,49.6781667 L46.5771739,50.2972917 C49.0677269,51.282455 51.8542205,51.1963045 54.2792029,50.0591667 L55.9719565,49.6940417 Z" id="Path" fill="#263238" fill-rule="nonzero"></path>
                    <path d="M45.7202174,47.6990833 C45.7202174,47.6990833 47.7356522,45.5295 49.4231159,45.4607083" id="Path" stroke="#263238" stroke-linecap="round" stroke-linejoin="round"></path>
                    <path d="M39.1449275,50.32375 C37.9547101,53.62575 39.1449275,61.1452083 39.1449275,61.1452083" id="Path" stroke="#263238" stroke-linecap="round" stroke-linejoin="round"></path>
                    <path d="M46.0693478,49.2707083 C46.0693478,49.2707083 50.4652174,51.101625 54.131087,49.2707083" id="Path" stroke="#263238" stroke-linecap="round" stroke-linejoin="round"></path>
                    <path d="M42.4881159,44.7251667 C42.4881159,44.7251667 43.9163768,42.2804167 45.1330435,42.0793333" id="Path" stroke="#263238" stroke-linecap="round" stroke-linejoin="round"></path>
                    <path d="M29.3692754,40.8569583 C29.0889757,39.8076753 28.2231234,39.0180122 27.1528261,38.8355417 C24.3386232,38.274625 20.5034783,37.4385417 17.0492029,38.4862917 C12.2089855,39.957375 12.3888406,42.719625 12.3888406,42.719625 C13.3631821,41.1091245 15.1768088,40.2030302 17.0492029,40.3912917 C20.2760145,40.6982083 29.5438406,41.6189583 29.5438406,41.6189583 L29.3692754,40.8569583 Z" id="Path" fill="#263238" fill-rule="nonzero"></path>
                    <path d="M17.557029,49.6940417 C17.557029,49.6940417 19.2286232,52.0805833 23.3494203,52.0435417 C27.4702174,52.0065 28.7186232,49.6781667 28.7186232,49.6781667 L26.9782609,50.2972917 C24.4877079,51.282455 21.7012142,51.1963045 19.2762319,50.0591667 L17.557029,49.6940417 Z" id="Path" fill="#263238" fill-rule="nonzero"></path>
                    <path d="M27.8087681,47.6990833 C27.8087681,47.6990833 25.7933333,45.5295 24.1058696,45.4607083" id="Path" stroke="#263238" stroke-linecap="round" stroke-linejoin="round"></path>
                    <path d="M27.4596377,49.2707083 C27.4596377,49.2707083 23.0637681,51.101625 19.3978986,49.2707083" id="Path" stroke="#263238" stroke-linecap="round" stroke-linejoin="round"></path>
                    <path d="M27.8722464,42.06875 C31.792029,42.7090417 33.8550725,50.32375 33.8550725,50.32375 C35.0452899,53.62575 33.8550725,61.1452083 33.8550725,61.1452083" id="Path" stroke="#263238" stroke-linecap="round" stroke-linejoin="round"></path>
                    <path d="M32.8658696,64.8864167 C33.8762748,65.8061171 35.2031807,66.2991367 36.5687681,66.26225 C37.902458,66.3065566 39.1975635,65.8104701 40.1605797,64.8864167" id="Path" stroke="#263238" stroke-linecap="round" stroke-linejoin="round"></path>
                    <path d="M38.4096377,68.881625 C38.8873736,68.3026085 39.446927,67.7963423 40.0706522,67.3787917 C40.9064493,66.881375 41.4671739,67.7968333 41.4671739,67.7968333 C41.4671739,67.7968333 40.4092029,68.8075417 39.5786957,68.6435 L38.4096377,68.881625 Z" id="Path" fill="#263238" fill-rule="nonzero"></path>
                    <path d="M34.5903623,68.881625 C34.1126264,68.3026085 33.553073,67.7963423 32.9293478,67.3787917 C32.0935507,66.881375 31.5328261,67.7968333 31.5328261,67.7968333 C31.5328261,67.7968333 32.5907971,68.8075417 33.4213043,68.6435 L34.5903623,68.881625 Z" id="Path" fill="#263238" fill-rule="nonzero"></path>
                    <path d="M31.3053623,68.6540833 C31.3053623,68.6540833 28.8138406,67.9344167 28.723913,66.7385 C28.6803846,66.0132052 28.9637427,65.3065089 29.4962319,64.8123333" id="Path" stroke="#263238" stroke-linecap="round" stroke-linejoin="round"></path>
                    <path d="M41.6946377,68.6540833 C41.6946377,68.6540833 44.1861594,67.9344167 44.276087,66.7385 C44.3196154,66.0132052 44.0362573,65.3065089 43.5037681,64.8123333" id="Path" stroke="#263238" stroke-linecap="round" stroke-linejoin="round"></path>
                    <path d="M46.8152174,76.8138333 C46.8152174,76.8138333 46.3126812,75.7025833 45.7096377,76.1100417 C45.1065942,76.5175 38.4625362,75.8295833 38.1610145,76.0200833 C38.0128986,76.1153333 36.5,76.6233333 36.5,76.6233333 C36.5,76.6233333 34.9871014,76.0941667 34.8389855,76.0200833 C34.5374638,75.8295833 27.8934058,76.5122083 27.2903623,76.1100417 C26.6873188,75.707875 26.1847826,76.8138333 26.1847826,76.8138333" id="Path" stroke="#263238" stroke-linecap="round" stroke-linejoin="round"></path>
                    <path d="M45.0642754,77.9039167 C45.0642754,77.9039167 43.8423188,79.375 42.4934058,79.375 C41.1444928,79.375 39.673913,79.0045833 36.5,79.0045833 C33.326087,79.0045833 31.8502174,79.375 30.5065942,79.375 C29.162971,79.375 27.9357246,77.9039167 27.9357246,77.9039167" id="Path" stroke="#263238" stroke-linecap="round" stroke-linejoin="round"></path>
                    <path d="M45.0642754,75.057 C45.0642754,75.057 40.5414493,73.9986667 39.3776812,73.9563333 L36.5,74.8135833 L33.6223188,73.9563333 C32.4585507,74.0198333 27.9357246,75.057 27.9357246,75.057" id="Path" stroke="#263238" stroke-linecap="round" stroke-linejoin="round"></path>
                    <path d="M65.7846377,11.176 C60.701087,4.85775 47.1907971,-0.09525 34.3258696,1.83091667 C34.3258696,1.83091667 37.9547101,0.449791667 39.9754348,0.449791667 C39.9754348,0.449791667 30.2897101,0.121708333 27.2797826,3.02154167 L30.295,0.121708333 C30.295,0.121708333 19.8528261,3.03741667 17.5993478,7.000875 L19.8422464,3.063875 C19.8422464,3.063875 18.3028986,3.70416667 16.3192029,4.7625 L16.3192029,4.7625 C12.3147826,6.48229167 9.04565217,8.73654167 7.06724638,11.2024583 C1.98369565,17.5207083 4.35355072,31.3107917 4.35355072,31.3107917 C3.52833333,46.9159167 8.47963768,58.6845833 8.47963768,58.6845833 C8.00355072,52.9060833 9.40536232,38.0153333 9.40536232,38.0153333 C9.40536232,38.0153333 12.0502899,36.4278333 12.0502899,33.8878333 C12.0502899,31.3478333 13.6372464,23.5955417 16.5519565,23.4103333 C19.4666667,23.225125 35.9710145,26.63825 35.9710145,26.63825 L36.4100725,26.4689167 L36.8491304,26.63825 C36.8491304,26.63825 53.3534783,23.1986667 56.284058,23.383875 C59.2146377,23.5690833 60.8174638,31.321375 60.7910145,33.861375 C60.7645652,36.401375 63.435942,37.988875 63.435942,37.988875 C63.435942,37.988875 64.8430435,52.879625 64.3669565,58.658125 C64.3669565,58.658125 69.312971,46.8894583 68.4930435,31.2843333 C68.4983333,31.2843333 70.884058,17.49425 65.7846377,11.176 Z" id="Path" fill="#263238" fill-rule="nonzero"></path>
                    <path d="M37.0289855,23.2833333 C37.0289855,23.2833333 31.866087,16.113125 35.7435507,9.41916667" id="Path" stroke="#FFFFFF" opacity="0.3" stroke-linecap="round" stroke-linejoin="round"></path>
                    <path d="M33.0245652,23.2833333 C33.0245652,23.2833333 25.7668841,17.9281667 25.8673913,12.0702917" id="Path" stroke="#FFFFFF" opacity="0.3" stroke-linecap="round" stroke-linejoin="round"></path>
                    <path d="M27.8722464,22.57425 C27.8722464,22.57425 18.0172464,20.081875 16.8957971,15.2505833" id="Path" stroke="#FFFFFF" opacity="0.3" stroke-linecap="round" stroke-linejoin="round"></path>
                    <path d="M42.4881159,23.2833333 C42.4881159,23.2833333 42.4881159,16.5735 47.2807246,13.0439583" id="Path" stroke="#FFFFFF" opacity="0.3" stroke-linecap="round" stroke-linejoin="round"></path>
                    <path d="M47.2807246,22.57425 C48.6765637,20.1178757 51.0843725,18.4024021 53.8613043,17.8858333" id="Path" stroke="#FFFFFF" opacity="0.3" stroke-linecap="round" stroke-linejoin="round"></path>
                </g>
                <g id="freepik--mind-map--inject-166">
                    <path d="M184.26,43.8513158 L184.26,40.5942434 L181.823286,40.3824013 C181.682175,39.8725378 181.479839,39.3817139 181.220714,38.9206908 L182.806429,37.0511842 L180.507143,34.7526974 L178.641286,36.3415132 C178.180539,36.0831688 177.690832,35.8805026 177.182429,35.7377632 L176.971,33.3015789 L173.725571,33.3015789 L173.514143,35.7377632 C173.00574,35.8805026 172.516032,36.0831688 172.055286,36.3415132 L170.189429,34.7526974 L167.879571,37.0723684 L169.465286,38.941875 C169.206161,39.4028981 169.003825,39.893722 168.862714,40.4035855 L166.426,40.6154276 L166.426,43.8725 L168.862714,44.0790461 C169.002873,44.5892371 169.205255,45.0801748 169.465286,45.5407566 L167.879571,47.4102632 L170.178857,49.7140461 L172.044714,48.1252303 C172.505661,48.3818331 172.995371,48.5827224 173.503571,48.7236842 L173.715,51.1651645 L176.960429,51.1651645 L177.171857,48.7236842 C177.680058,48.5827224 178.169767,48.3818331 178.630714,48.1252303 L180.496571,49.7140461 L182.795857,47.4102632 L181.210143,45.5407566 C181.470173,45.0801748 181.672556,44.5892371 181.812714,44.0790461 L184.26,43.8513158 Z M175.337714,46.0015132 C173.253392,46.0015132 171.563714,44.308531 171.563714,42.2201316 C171.563714,40.1317322 173.253392,38.43875 175.337714,38.43875 C177.422037,38.43875 179.111714,40.1317322 179.111714,42.2201316 C179.111714,44.308531 177.422037,46.0015132 175.337714,46.0015132 L175.337714,46.0015132 Z" id="Shape" stroke="#263238" stroke-linecap="round" stroke-linejoin="round"></path>
                    <path d="M196.591571,51.1122039 L196.591571,48.7978289 L194.857857,48.6495395 C194.760962,48.2795692 194.617072,47.9235905 194.429714,47.5903289 L195.550286,46.2557237 L193.917,44.6192434 L192.585,45.7367105 C192.250222,45.5535326 191.895504,45.4095911 191.527857,45.3077303 L191.379857,43.5759211 L189.064714,43.5759211 L188.916714,45.3077303 C188.549067,45.4095911 188.19435,45.5535326 187.859571,45.7367105 L186.585714,44.6404276 L184.947143,46.2769079 L186.057143,47.6115132 C185.869785,47.9447747 185.725895,48.3007534 185.629,48.6707237 L183.895286,48.8190132 L183.895286,51.1333882 L185.629,51.2869737 C185.726872,51.6566182 185.870713,52.0124758 186.057143,52.3461842 L184.936571,53.6754934 L186.575143,55.3119737 L187.901857,54.1945066 C188.236635,54.3776845 188.591353,54.521626 188.959,54.6234868 L189.107,56.3605921 L191.422143,56.3605921 L191.570143,54.6234868 C191.93779,54.521626 192.292508,54.3776845 192.627286,54.1945066 L193.959286,55.3119737 L195.592571,53.6754934 L194.472,52.3461842 C194.65843,52.0124758 194.802271,51.6566182 194.900143,51.2869737 L196.591571,51.1122039 Z M190.248714,52.6480644 C189.162675,52.6480644 188.183575,51.9925656 187.767966,50.987234 C187.352357,49.9819024 187.582086,48.8247156 188.350032,48.0552681 C189.117977,47.2858206 190.272905,47.0556419 191.276274,47.4720638 C192.279643,47.8884858 192.933857,48.8695014 192.933857,49.9576645 C192.933857,50.6721201 192.650235,51.3572363 192.145529,51.8619357 C191.640823,52.3666351 190.956488,52.6494656 190.243429,52.6480644 L190.248714,52.6480644 Z" id="Shape" stroke="#263238" stroke-linecap="round" stroke-linejoin="round"></path>
                    <path d="M183.699714,58.0976974 L183.699714,56.450625 L182.468143,56.3447039 C182.394439,56.0866731 182.291583,55.8379141 182.161571,55.6032566 L182.954429,54.6552632 L181.791571,53.4901316 L180.850714,54.2898355 C180.617147,54.1582619 180.368717,54.0551398 180.110714,53.9826645 L180.005,52.7486842 L178.361143,52.7486842 L178.255429,53.9826645 C177.997102,54.0541999 177.748561,54.1573682 177.515429,54.2898355 L176.569286,53.4901316 L175.406429,54.6552632 L176.199286,55.6032566 C176.070975,55.8380891 175.969889,56.0868546 175.898,56.3447039 L174.666429,56.450625 L174.666429,58.0976974 L175.898,58.2036184 C175.970822,58.4611472 176.071865,58.7098099 176.199286,58.9450658 L175.406429,59.8930592 L176.569286,61.0581908 L177.515429,60.2584868 C177.748561,60.3909542 177.997102,60.4941224 178.255429,60.5656579 L178.361143,61.7996382 L180.005,61.7996382 L180.110714,60.5656579 C180.368717,60.4931826 180.617147,60.3900604 180.850714,60.2584868 L181.791571,61.0581908 L182.954429,59.8930592 L182.161571,58.9450658 C182.290698,58.7099813 182.393512,58.4613242 182.468143,58.2036184 L183.699714,58.0976974 Z M179.185714,59.1886842 C178.128957,59.1886842 177.272286,58.3303375 177.272286,57.2715132 C177.272286,56.2126888 178.128957,55.3543421 179.185714,55.3543421 C180.242472,55.3543421 181.099143,56.2126888 181.099143,57.2715132 C181.099143,58.3303375 180.242472,59.1886842 179.185714,59.1886842 L179.185714,59.1886842 Z" id="Shape" stroke="#263238" stroke-linecap="round" stroke-linejoin="round"></path>
                    <path d="M158.169714,47.5426645 C158.168312,41.3409226 160.626514,35.3927846 165.003247,31.0074908 C169.379981,26.622197 175.316507,24.1591869 181.506143,24.1605915" id="Path" stroke="#263238" stroke-linecap="round" stroke-linejoin="round"></path>
                    <path d="M188.916714,69.7172368 C182.512447,71.8596755 175.496098,71.119283 169.677795,67.6870714 C163.859492,64.2548597 159.809049,58.4669604 158.571429,51.8165789" id="Path" stroke="#263238" stroke-linecap="round" stroke-linejoin="round"></path>
                    <path d="M195.402286,66.3277632 C194.348749,67.1080005 193.233266,67.8005631 192.067,68.3985197" id="Path" stroke="#263238" stroke-linecap="round" stroke-linejoin="round"></path>
                    <path d="M204.842586,47.5426645 C204.849562,53.746986 202.390232,59.6986581 198.008143,64.0822368" id="Path" stroke="#263238" stroke-linecap="round" stroke-linejoin="round"></path>
                    <path d="M186.205143,24.6319408 C192.211241,25.8715095 197.489481,29.4289245 200.899429,34.5355592" id="Path" stroke="#263238" stroke-linecap="round" stroke-linejoin="round"></path>
                    <path d="M37.8774286,38.84125 L36.5877143,40.6154276" id="Path" stroke="#263238" stroke-linecap="round" stroke-linejoin="round"></path>
                    <path d="M35.2345714,39.6250658 L36.5242857,37.8508882" id="Path" stroke="#263238" stroke-linecap="round" stroke-linejoin="round"></path>
                    <ellipse id="Oval" stroke="#263238" stroke-linecap="round" stroke-linejoin="round" transform="translate(42.341458, 31.275186) rotate(-10.410000) translate(-42.341458, -31.275186) " cx="42.3414578" cy="31.2751861" rx="8.7378442" ry="8.75381759"></ellipse>
                    <path d="M26.6452857,52.8704934 L26.6452857,52.8704934 C26.3555303,52.6605364 26.161341,52.3434364 26.1057747,51.9895025 C26.0502084,51.6355686 26.1378567,51.2740479 26.3492857,50.9850987 L34.2038571,40.1758553 C34.6420273,39.5737909 35.4840832,39.4410736 36.0855714,39.8792763 L36.0855714,39.8792763 C36.3753269,40.0892333 36.5695161,40.4063333 36.6250824,40.7602672 C36.6806487,41.1142011 36.5930004,41.4757218 36.3815714,41.7646711 L28.5428571,52.5739145 C28.3331062,52.8688636 28.0135184,53.0666114 27.6563804,53.1224299 C27.2992423,53.1782485 26.9347279,53.0874217 26.6452857,52.8704934 L26.6452857,52.8704934 Z" id="Path" stroke="#263238" stroke-linecap="round" stroke-linejoin="round"></path>
                    <path d="M48.47,35.7430592 C46.6686208,38.2313567 43.5478281,39.3862332 40.5646569,38.6685001 C37.5814856,37.9507671 35.324329,35.5019885 34.8470077,32.4654493 C34.3696864,29.4289101 35.766346,26.4035299 38.3849145,24.8017972 C41.0034831,23.2000645 44.3274805,23.3379011 46.805,25.1509539 C50.1776705,27.6190798 50.9222344,32.3557165 48.47,35.7430592 Z" id="Path" stroke="#263238" stroke-linecap="round" stroke-linejoin="round"></path>
                    <path d="M28.7542857,58.8815132 C17.0709833,53.4330297 12.0069952,39.527244 17.4428571,27.8201645" id="Path" stroke="#263238" stroke-linecap="round" stroke-linejoin="round"></path>
                    <path d="M61.79,40.2976645 C61.0314218,47.0264367 57.4006066,53.0959291 51.835532,56.9381612 C46.2704575,60.7803932 39.3169732,62.0185001 32.7714286,60.3326316" id="Path" stroke="#263238" stroke-linecap="round" stroke-linejoin="round"></path>
                    <path d="M61.4517143,32.9785197 C61.7172389,34.2641043 61.8746008,35.5697509 61.9221429,36.8817105" id="Path" stroke="#263238" stroke-linecap="round" stroke-linejoin="round"></path>
                    <path d="M48.433,16.4813158 C54.048364,19.088404 58.3950452,23.8305024 60.5108571,29.6578947" id="Path" stroke="#263238" stroke-linecap="round" stroke-linejoin="round"></path>
                    <path d="M19.8478571,23.7475 C22.6133031,20.0121429 26.4285947,17.188874 30.8051429,15.6392434 C32.1691221,15.1593162 33.57387,14.8047833 35.002,14.5800329" id="Path" stroke="#263238" stroke-linecap="round" stroke-linejoin="round"></path>
                    <path d="M0.116284915,96.0439145 C0.114883579,91.3923647 1.95811464,86.9308496 5.24034078,83.6412105 C8.52256692,80.3515714 12.974816,78.5033882 17.6172857,78.5033882" id="Path" stroke="#263238" stroke-linecap="round" stroke-linejoin="round"></path>
                    <path d="M23.1778571,112.67352 C18.3731594,114.282138 13.1086966,113.727862 8.74267136,111.153693 C4.37664608,108.579523 1.33665531,104.237568 0.407,99.2480263" id="Path" stroke="#263238" stroke-linecap="round" stroke-linejoin="round"></path>
                    <path d="M28.0407143,110.157895 C27.250958,110.745331 26.4127984,111.264447 25.5352857,111.709638" id="Path" stroke="#263238" stroke-linecap="round" stroke-linejoin="round"></path>
                    <path d="M35.1182992,96.0439145 C35.1240507,100.695575 33.2787987,105.15762 29.9911429,108.441974" id="Path" stroke="#263238" stroke-linecap="round" stroke-linejoin="round"></path>
                    <path d="M21.1428571,78.8635197 C25.6452274,79.7900726 29.6035189,82.4531167 32.1635714,86.2779934" id="Path" stroke="#263238" stroke-linecap="round" stroke-linejoin="round"></path>
                    <path d="M24.6472894,92.4637829 C24.6507468,89.0330972 22.1868731,86.0988982 18.8127525,85.5155041 C15.4386319,84.93211 12.1357803,86.8692272 10.9914921,90.102661 C9.84720391,93.3360948 11.1943472,96.9252544 14.1815714,98.6019079 L14.4141429,99.5022368 L20.8204286,99.5022368 L21.0477143,98.6019079 C23.2688155,97.3603586 24.6458863,95.0121256 24.6472894,92.4637829 Z" id="Path" stroke="#263238" stroke-linecap="round" stroke-linejoin="round"></path>
                    <path d="M19.5571429,105.333201 L15.6457143,105.333201 C15.1309895,105.330625 14.7006065,104.940469 14.6467143,104.427566 L14.1657143,99.5022368 L21.0371429,99.5022368 L20.5561429,104.427566 C20.5069461,104.942846 20.0737592,105.335543 19.5571429,105.333201 Z" id="Path" stroke="#263238" stroke-linecap="round" stroke-linejoin="round"></path>
                    <path d="M19.647,105.423224 C19.647,106.106414 18.7378571,106.6625 17.6172857,106.6625 C16.4967143,106.6625 15.5875714,106.106414 15.5875714,105.423224" id="Path" stroke="#263238" stroke-linecap="round" stroke-linejoin="round"></path>
                    <polyline id="Path" stroke="#263238" stroke-linecap="round" stroke-linejoin="round" points="14.1815714 94.1585197 15.8148571 94.1585197 16.8297143 92.0136184 18.0137143 96.1339474 19.2505714 92.4637829 19.869 94.0737829 21.0477143 94.0737829"></polyline>
                    <path d="M108.018857,1.23927632 C113.34948,-1.13072339 119.588699,1.27221132 121.962571,6.60947368" id="Path" stroke="#263238" stroke-linecap="round" stroke-linejoin="round"></path>
                    <path d="M104.519714,18.0648355 C102.451225,15.803797 101.4625,12.7553747 101.809232,9.70791594 C102.155964,6.66045721 103.804104,3.91322547 106.327429,2.17667763" id="Path" stroke="#263238" stroke-linecap="round" stroke-linejoin="round"></path>
                    <path d="M107.109714,20.125 C106.593544,19.8319556 106.102104,19.4971932 105.640286,19.1240461" id="Path" stroke="#263238" stroke-linecap="round" stroke-linejoin="round"></path>
                    <path d="M116.602857,20.5857566 C114.043798,21.7299893 111.134951,21.8043299 108.521,20.7923026" id="Path" stroke="#263238" stroke-linecap="round" stroke-linejoin="round"></path>
                    <path d="M122.628571,8.64845395 C123.212551,11.3659554 122.71573,14.2045163 121.243714,16.5607566" id="Path" stroke="#263238" stroke-linecap="round" stroke-linejoin="round"></path>
                    <polygon id="Path" stroke="#263238" stroke-linecap="round" stroke-linejoin="round" points="113.198857 13.5578947 111.422857 13.5578947 110.365714 4.82470395 114.256 4.82470395"></polygon>
                    <polygon id="Path" stroke="#263238" stroke-linecap="round" stroke-linejoin="round" points="113.198857 15.1467105 111.422857 15.1467105 110.894286 17.0003289 113.727429 17.0003289"></polygon>
                    <path d="M213.495286,117.148684 C207.822307,118.512767 202.118878,115.014332 200.751429,109.331711" id="Path" stroke="#263238" stroke-linecap="round" stroke-linejoin="round"></path>
                    <path d="M219.980857,101.234046 C221.600075,103.831236 222.018211,107.003476 221.127447,109.932804 C220.236684,112.862132 218.124205,115.261838 215.334714,116.513158" id="Path" stroke="#263238" stroke-linecap="round" stroke-linejoin="round"></path>
                    <path d="M217.803143,98.7343092 C218.259014,99.1160314 218.681634,99.5359348 219.066429,99.9894737" id="Path" stroke="#263238" stroke-linecap="round" stroke-linejoin="round"></path>
                    <path d="M208.553143,96.5629276 C211.277433,95.9035514 214.15166,96.359067 216.539857,97.8286842" id="Path" stroke="#263238" stroke-linecap="round" stroke-linejoin="round"></path>
                    <path d="M200.460714,107.207993 C200.385748,105.104782 200.937795,103.02687 202.046429,101.239342 C202.394086,100.683043 202.7922,100.160051 203.235714,99.6770066" id="Path" stroke="#263238" stroke-linecap="round" stroke-linejoin="round"></path>
                    <path d="M214.346286,102.616316 C213.084389,102.210209 211.709509,102.727894 211.026857,103.866184 C210.340461,102.726216 208.961827,102.208766 207.696857,102.616316 C205.778143,103.209474 205.112143,105.661546 206.729571,107.912368 C207.809754,109.253389 209.172522,110.338502 210.720286,111.09 L211.026857,111.238289 L211.328143,111.09 C212.876562,110.339548 214.239543,109.254266 215.318857,107.912368 C216.936286,105.661546 216.265,103.209474 214.346286,102.616316 Z" id="Path" stroke="#263238" stroke-linecap="round" stroke-linejoin="round"></path>
                    <path d="M170.945286,128.868849 C174.465042,127.045366 178.563831,126.698369 182.33905,127.904272 C186.114268,129.110175 189.25632,131.770085 191.073286,135.298257" id="Path" stroke="#263238" stroke-linecap="round" stroke-linejoin="round"></path>
                    <path d="M167.388,152.907632 C164.287356,149.887457 162.644014,145.669882 162.882201,141.343666 C163.120388,137.01745 165.21676,133.006578 168.630143,130.346447" id="Path" stroke="#263238" stroke-linecap="round" stroke-linejoin="round"></path>
                    <path d="M171.220143,155.608618 C170.467248,155.235621 169.745996,154.801669 169.063571,154.311086" id="Path" stroke="#263238" stroke-linecap="round" stroke-linejoin="round"></path>
                    <path d="M184.656429,155.465625 C181.138915,157.293195 177.039315,157.640103 173.265714,156.429507" id="Path" stroke="#263238" stroke-linecap="round" stroke-linejoin="round"></path>
                    <path d="M192.188571,138.115757 C192.991258,140.983679 192.92132,144.026387 191.987714,146.854243 C191.700801,147.736506 191.330902,148.58947 190.883,149.401645" id="Path" stroke="#263238" stroke-linecap="round" stroke-linejoin="round"></path>
                    <ellipse id="Oval" stroke="#263238" stroke-linecap="round" stroke-linejoin="round" cx="178.149714" cy="141.791217" rx="7.03528571" ry="7.04904605"></ellipse>
                    <path d="M179.603286,143.305888 C178.988365,143.905761 178.072535,144.073669 177.285453,143.73084 C176.498371,143.388011 175.996215,142.602471 176.014569,141.742752 C176.032923,140.883032 176.568145,140.119725 177.369138,139.810932 C178.170131,139.502139 179.077957,139.709132 179.666714,140.334803 C180.458682,141.176424 180.430447,142.498968 179.603286,143.305888 Z" id="Path" stroke="#263238" stroke-linecap="round" stroke-linejoin="round"></path>
                    <path d="M181.215429,144.995329 C179.447975,146.689698 176.644333,146.627788 174.953098,144.857044 C173.261863,143.086299 173.323378,140.277168 175.0905,138.582451 C176.857622,136.887735 179.661276,136.949094 181.352857,138.719507 C182.165396,139.569911 182.607415,140.708944 182.581641,141.885942 C182.555867,143.06294 182.064412,144.181451 181.215429,144.995329 Z" id="Path" stroke="#263238" stroke-linecap="round" stroke-linejoin="round"></path>
                    <path d="M178.149714,141.791217 L185.808714,134.445592" id="Path" stroke="#263238" stroke-linecap="round" stroke-linejoin="round"></path>
                    <polyline id="Path" stroke="#263238" stroke-linecap="round" stroke-linejoin="round" points="185.866857 132.591974 185.829857 134.424408 187.658714 134.46148"></polyline>
                    <polyline id="Path" stroke="#263238" stroke-linecap="round" stroke-linejoin="round" points="184.725143 133.688257 184.682857 135.520691 186.511714 135.563059"></polyline>
                    <polyline id="Path" stroke="#263238" stroke-linecap="round" stroke-linejoin="round" points="183.578143 134.789836 183.541143 136.62227 185.37 136.659342"></polyline>
                    <path d="M42.4548571,160.189704 C36.7818782,161.553787 31.0784491,158.055352 29.711,152.37273" id="Path" stroke="#263238" stroke-linecap="round" stroke-linejoin="round"></path>
                    <path d="M48.9404286,144.275066 C50.5634608,146.873042 50.9837604,150.048067 50.0927788,152.980143 C49.2017971,155.912219 47.0868981,158.313847 44.2942857,159.56477" id="Path" stroke="#263238" stroke-linecap="round" stroke-linejoin="round"></path>
                    <path d="M46.7627143,141.775329 C47.2185854,142.157051 47.6412057,142.576954 48.026,143.030493" id="Path" stroke="#263238" stroke-linecap="round" stroke-linejoin="round"></path>
                    <path d="M37.5285714,139.603947 C40.2485506,138.949962 43.1164612,139.407286 45.4994286,140.875" id="Path" stroke="#263238" stroke-linecap="round" stroke-linejoin="round"></path>
                    <path d="M29.4202857,150.249013 C29.3361018,147.464454 30.3501778,144.758767 32.2428571,142.718026" id="Path" stroke="#263238" stroke-linecap="round" stroke-linejoin="round"></path>
                    <polyline id="Path" stroke="#263238" stroke-linecap="round" stroke-linejoin="round" points="35.4248571 146.017467 35.4248571 153.770888 44.5427143 153.770888"></polyline>
                    <rect id="Rectangle" stroke="#263238" stroke-linecap="round" stroke-linejoin="round" x="37.3065714" y="148.194145" width="1.35842857" height="5.57674342"></rect>
                    <rect id="Rectangle" stroke="#263238" stroke-linecap="round" stroke-linejoin="round" x="39.9494286" y="149.782961" width="1.35842857" height="3.98792763"></rect>
                    <rect id="Rectangle" stroke="#263238" stroke-linecap="round" stroke-linejoin="round" x="42.5922857" y="146.605329" width="1.35842857" height="7.16555921"></rect>
                    <polyline id="Path" stroke="#263238" stroke-linecap="round" stroke-linejoin="round" points="50.5525714 141.791217 113.114286 82.5760526 36.0855714 92.6014803"></polyline>
                    <polyline id="Path" stroke="#263238" stroke-linecap="round" stroke-linejoin="round" points="60.5161429 52.6480592 113.114286 82.5760526 112.125857 23.0696053"></polyline>
                    <polyline id="Path" stroke="#263238" stroke-linecap="round" stroke-linejoin="round" points="160.019714 61.3706579 113.114286 82.5760526 198.008143 103.4425"></polyline>
                    <path d="M113.114286,82.5760526 L165.744143,130.346447" id="Path" stroke="#263238" stroke-linecap="round" stroke-linejoin="round"></path>
                    <path d="M147.556,80.9077961 C147.55826,62.1547264 132.61322,46.832277 113.901649,46.403568 C95.190078,45.974859 79.5616437,60.5968262 78.7083812,79.3303982 C77.8551187,98.0639702 92.0893784,114.051427 110.762143,115.332138 L113.114286,124.335428 L115.466429,115.332138 C133.532471,114.095647 147.556,99.0513567 147.556,80.9077961 Z" id="Path" fill="#FFFFFF" fill-rule="nonzero"></path>
                    <path d="M147.556,80.9077961 C147.55826,62.1547264 132.61322,46.832277 113.901649,46.403568 C95.190078,45.974859 79.5616437,60.5968262 78.7083812,79.3303982 C77.8551187,98.0639702 92.0893784,114.051427 110.762143,115.332138 L113.114286,124.335428 L115.466429,115.332138 C133.532471,114.095647 147.556,99.0513567 147.556,80.9077961 Z" id="Path" fill="#3087DF" fill-rule="nonzero" opacity="0"></path>
                    <path d="M147.556,80.9077961 C147.55826,62.1547264 132.61322,46.832277 113.901649,46.403568 C95.190078,45.974859 79.5616437,60.5968262 78.7083812,79.3303982 C77.8551187,98.0639702 92.0893784,114.051427 110.762143,115.332138 L113.114286,124.335428 L115.466429,115.332138 C133.532471,114.095647 147.556,99.0513567 147.556,80.9077961 Z" id="Path" stroke="#263238" stroke-linecap="round" stroke-linejoin="round"></path>
                    <path d="M133.728571,84.5302961 C133.548857,85.3723684 133.411429,86.3521382 133.274,87.3001316 C133.129257,88.6457738 132.869299,89.9764536 132.497,91.2774671 C132.259793,91.8251388 131.897721,92.3094502 131.439857,92.6915132 C131.439857,93.2846711 131.154429,96.7482895 128.733571,97.8551645 C128.667488,98.540353 128.273247,99.1506463 127.676429,99.4916447 C127.586571,99.5446053 119.177,104.115303 116.185286,104.115303 C115.995917,104.117845 115.807164,104.092866 115.625,104.040954 C114.187286,103.564309 113.510714,102.669276 113.563571,101.218158 C113.594092,100.582393 113.709648,99.95361 113.907143,99.3486513 C113.336286,98.5595395 113.463143,97.5532895 113.579429,96.6635526 C113.688092,96.1602822 113.700647,95.6409449 113.616429,95.1329934 C113.331,94.0420066 113.738,92.273125 113.849,91.8388487 C113.489571,91.2774671 113.595286,89.6780592 113.790857,87.5066776 C113.859571,86.7652303 113.923,86.0608553 113.923,85.631875 C113.950662,85.1557753 114.15638,84.707607 114.499143,84.3767105 C114.366632,83.1693188 114.366632,81.9510101 114.499143,80.7436184 C113.901857,78.4822039 114.409286,75.1933553 114.499143,74.7008224 C113.756652,72.703527 113.715636,70.5123393 114.382857,68.4885526 C113.394429,66.5607895 113.901857,62.8482566 113.96,62.4510526 C113.917714,62.1438816 113.658714,59.8983553 114.721143,58.8709211 C115.232452,58.4125134 115.939078,58.2414779 116.602857,58.4154605 C118.437,58.7544079 119.589286,58.9874342 120.424429,59.2151645 C120.895484,59.3382382 121.355237,59.5012381 121.798714,59.7024013 C122.544544,60.1707197 123.105012,60.883906 123.384429,61.7201974 C124.420041,61.423185 125.53481,61.6332266 126.392,62.286875 C127.581286,63.2083882 127.628857,64.0504605 127.586571,64.4052961 C130.176571,65.9941118 131.154429,72.5188487 131.286571,73.3238487 C132.122064,74.2295776 132.424706,75.5067783 132.084714,76.6921382 C132.888609,77.5211315 133.171087,78.7265565 132.819429,79.8274013 C132.739703,80.0891333 132.631581,80.3413194 132.497,80.5794408 C132.512857,80.6482895 134.188429,82.3165461 133.728571,84.5302961 Z" id="Path" fill="#3087DF" fill-rule="nonzero"></path>
                    <path d="M133.728571,84.5302961 C133.548857,85.3723684 133.411429,86.3521382 133.274,87.3001316 C133.129257,88.6457738 132.869299,89.9764536 132.497,91.2774671 C132.259793,91.8251388 131.897721,92.3094502 131.439857,92.6915132 C131.439857,93.2846711 131.154429,96.7482895 128.733571,97.8551645 C128.667488,98.540353 128.273247,99.1506463 127.676429,99.4916447 C127.586571,99.5446053 119.177,104.115303 116.185286,104.115303 C115.995917,104.117845 115.807164,104.092866 115.625,104.040954 C114.187286,103.564309 113.510714,102.669276 113.563571,101.218158 C113.677706,101.285747 113.76536,101.390389 113.812,101.514737 C114.573143,103.04 116.016143,103.198882 117.231857,102.960559 C118.447571,102.722237 118.748857,101.271118 118.748857,101.271118 L116.634571,99.9576974 C116.634571,99.9576974 119.034286,99.1897697 120.519571,98.6336842 C120.898134,98.5330517 121.201171,98.2490297 121.326618,97.8772784 C121.452065,97.5055272 121.383226,97.0955245 121.143286,96.7853618 C120.371567,96.9720648 119.557024,96.8219266 118.902143,96.3722697 C119.016436,95.8508995 119.355075,95.4069003 119.827143,95.1594737 C120.540714,94.8946711 123.035571,93.4223684 122.073571,92.6544408 C121.111571,91.8865132 119.827143,92.6014803 119.827143,92.6014803 C117.897857,92.9086513 117.210714,91.7964803 117.210714,91.7964803 C117.210714,91.7964803 122.628571,90.2076645 122.549286,88.34875 C122.567746,87.4157835 122.387553,86.4895875 122.020714,85.631875 C122.020714,85.631875 124.193143,85.0069408 124.600143,83.4816776 C125.007143,81.9564145 123.284,80.1504605 123.284,80.1504605 C124.161429,80.3728947 124.737571,79.09125 124.600143,78.5934211 C124.462714,78.0955921 126.339143,76.5915132 126.254571,75.5481908 C126.17,74.5048684 124.600143,74.3777632 124.600143,74.3777632 C125.578,72.3228947 123.918286,67.9748355 123.918286,67.9748355 C124.378143,65.6922368 122.332571,63.7379934 122.332571,63.7379934 C122.464714,62.0167763 121.370571,60.3591118 120.382143,59.2257566 C120.853198,59.3488303 121.312951,59.5118302 121.756429,59.7129934 C122.502259,60.1813118 123.062726,60.8944981 123.342143,61.7307895 C124.377755,61.4337771 125.492524,61.6438187 126.349714,62.2974671 C127.539,63.2189803 127.586571,64.0610526 127.544286,64.4158882 C130.134286,66.0047039 131.112143,72.5294408 131.244286,73.3344408 C132.079778,74.2401698 132.382421,75.5173704 132.042429,76.7027303 C132.846323,77.5317236 133.128801,78.7371486 132.777143,79.8379934 C132.697417,80.0997254 132.589295,80.3519115 132.454714,80.5900329 C132.512857,80.6482895 134.188429,82.3165461 133.728571,84.5302961 Z" id="Path" fill="#000000" fill-rule="nonzero" opacity="0.2"></path>
                    <path d="M112.347857,99.3486513 C113.140714,101.943717 112.606857,103.389539 110.63,104.040954 C110.447836,104.092866 110.259083,104.117845 110.069714,104.115303 C108.933286,104.115303 107.014571,103.453092 105.064143,102.632204 C101.892714,101.292303 98.6314286,99.5234211 98.5785714,99.4916447 C97.9817525,99.1506463 97.5875118,98.540353 97.5214286,97.8551645 C95.1005714,96.7482895 94.8362857,93.2846711 94.8151429,92.6915132 C94.3572794,92.3094502 93.9952075,91.8251388 93.758,91.2774671 C93.3857007,89.9764536 93.1257432,88.6457738 92.981,87.3001316 C92.8435714,86.3521382 92.7061429,85.3723684 92.5264286,84.5302961 C92.0612857,82.3165461 93.7368571,80.6482895 93.8108571,80.5794408 C93.6762763,80.3413194 93.5681543,80.0891333 93.4884286,79.8274013 C93.13677,78.7265565 93.419248,77.5211315 94.2231429,76.6921382 C93.8831508,75.5067783 94.1857936,74.2295776 95.0212857,73.3238487 C95.1322857,72.5188487 96.1101429,66.0047039 98.7212857,64.4052961 C98.679,64.0557566 98.7212857,63.2136842 99.9158571,62.286875 C100.773047,61.6332266 101.887817,61.423185 102.923429,61.7201974 C103.202845,60.883906 103.763313,60.1707197 104.509143,59.7024013 C105.434143,59.2734211 106.597,58.9874342 109.705,58.4154605 C110.323386,58.2621765 110.977787,58.3964258 111.486286,58.7808882 L111.586714,58.8709211 C112.643857,59.8983553 112.390143,62.1438816 112.347857,62.4510526 C112.406,62.8482566 112.913429,66.5607895 111.925,68.4885526 C112.592221,70.5123393 112.551205,72.703527 111.808714,74.7008224 C111.888,75.1933553 112.395429,78.4822039 111.808714,80.7436184 C111.941225,81.9510101 111.941225,83.1693188 111.808714,84.3767105 C112.151477,84.707607 112.357195,85.1557753 112.384857,85.631875 C112.384857,86.0608553 112.448286,86.7652303 112.511714,87.5066776 C112.712571,89.6780592 112.818286,91.2774671 112.458857,91.8388487 C112.569857,92.273125 112.987429,94.0420066 112.691429,95.1329934 C112.60721,95.6409449 112.619765,96.1602822 112.728429,96.6635526 C112.791857,97.5532895 112.918714,98.5595395 112.347857,99.3486513 Z" id="Path" fill="#3087DF" fill-rule="nonzero"></path>
                    <path d="M112.347857,99.3486513 C113.140714,101.943717 112.606857,103.389539 110.63,104.040954 C110.447836,104.092866 110.259083,104.117845 110.069714,104.115303 C108.933286,104.115303 107.014571,103.453092 105.064143,102.632204 C105.877011,102.828269 106.730679,102.765322 107.506143,102.452138 C109.742,101.165197 108.193286,99.9576974 108.193286,99.9576974 C111.116286,100.24898 110.497857,96.7800658 110.730429,95.1594737 C110.963,93.5388816 109.023143,92.0612829 109.023143,92.0612829 C110.534857,92.2943092 110.180714,88.8836513 110.836143,87.6178947 C111.491571,86.3521382 110.355143,83.5664145 110.355143,83.5664145 C110.112,81.3526645 109.218714,80.6482895 110.355143,79.1442105 C111.491571,77.6401316 110.355143,73.959375 110.355143,73.959375 C110.355143,73.959375 111.137429,72.3175987 110.836143,71.0041776 C110.534857,69.6907566 110.836143,67.116875 110.836143,67.116875 C109.779,65.7504934 110.836143,61.2541447 110.836143,61.2541447 C110.841778,60.3900614 111.059615,59.5406533 111.470429,58.7808882 L111.570857,58.8709211 C112.628,59.8983553 112.374286,62.1438816 112.332,62.4510526 C112.390143,62.8482566 112.897571,66.5607895 111.909143,68.4885526 C112.576364,70.5123393 112.535348,72.703527 111.792857,74.7008224 C111.872143,75.1933553 112.379571,78.4822039 111.792857,80.7436184 C111.925368,81.9510101 111.925368,83.1693188 111.792857,84.3767105 C112.13562,84.707607 112.341338,85.1557753 112.369,85.631875 C112.369,86.0608553 112.432429,86.7652303 112.495857,87.5066776 C112.696714,89.6780592 112.802429,91.2774671 112.443,91.8388487 C112.554,92.273125 112.971571,94.0420066 112.675571,95.1329934 C112.591353,95.6409449 112.603908,96.1602822 112.712571,96.6635526 C112.791857,97.5532895 112.918714,98.5595395 112.347857,99.3486513 Z" id="Path" fill="#000000" fill-rule="nonzero" opacity="0.2"></path>
                    <path d="M118.807,63.7326974 C118.807,63.7326974 118.278429,66.7355592 119.864143,67.9695395 C119.864143,67.9695395 119.541714,71.6767763 120.503714,73.3768092 C120.503714,73.3768092 118.918,76.7980592 120.503714,78.9376645 C120.503714,78.9376645 118.585,84.0642434 120.503714,85.3458882 C122.422429,86.6275329 127.539,83.1056579 129.568714,82.6978618 C131.598429,82.2900658 134.045714,79.0647697 131.794,76.7609868" id="Path" stroke="#263238" stroke-linecap="round" stroke-linejoin="round"></path>
                    <path d="M125.715429,74.1447368 C125.715429,74.1447368 125.715429,73.0855263 125.715429,71.5761513 C125.715429,70.0667763 124.563143,67.9854276 124.563143,67.9854276 C125.091714,66.6402303 123.072571,63.7485855 123.072571,63.7485855 C123.923571,62.4298684 122.544,60.3220395 121.650714,59.8983553 C120.757429,59.4746711 119.536429,59.1886842 116.502429,58.6325987 C113.468429,58.0765132 114.097429,62.4669408 114.097429,62.4669408 C114.097429,62.4669408 113.473714,66.5607895 114.541429,68.4832566 C113.85831,70.5039074 113.89567,72.6993836 114.647143,74.6955263 C114.647143,74.6955263 114.007571,78.3603947 114.647143,80.7436184 C114.647143,80.7436184 114.414571,83.4234211 114.689429,84.4508553" id="Path" stroke="#263238" stroke-linecap="round" stroke-linejoin="round"></path>
                    <path d="M123.595857,74.6743421 C125.138867,74.051134 126.862847,74.051134 128.405857,74.6743421" id="Path" stroke="#263238" stroke-linecap="round" stroke-linejoin="round"></path>
                    <path d="M116.671571,83.1745066 C116.671571,83.1745066 114.097429,84.2019408 114.097429,85.631875 C114.097429,87.0618092 113.436714,91.1874342 114.039286,91.7964803 C114.641857,92.4055263 119.964571,92.0824671 123.595857,89.6250987 C123.595857,89.6250987 128.189143,90.0540789 129.151143,88.8783553 C130.113143,87.7026316 131.735857,87.4007566 131.936714,86.6434211" id="Path" stroke="#263238" stroke-linecap="round" stroke-linejoin="round"></path>
                    <path d="M132.301429,80.7277303 C132.301429,80.7277303 133.977,82.3589145 133.522429,84.4879276 C133.067857,86.6169408 132.882857,89.5615461 132.301429,91.2139145 C131.72,92.8662829 127.930143,95.1065132 125.715429,94.4498026 C125.715429,94.4498026 119.340857,96.9495395 117.739286,96.2822368" id="Path" stroke="#263238" stroke-linecap="round" stroke-linejoin="round"></path>
                    <path d="M114.039286,91.7964803 C114.039286,91.7964803 113.473714,93.9149013 113.785571,95.0747368 C114.097429,96.2345724 113.124857,98.1040789 114.097429,99.3115789 C115.07,100.519079 122.966857,99.8782566 124.140286,98.5966118" id="Path" stroke="#263238" stroke-linecap="round" stroke-linejoin="round"></path>
                    <path d="M128.405857,96.3881579 C128.405857,96.3881579 129.066571,98.4483224 127.549571,99.3115789 C126.032571,100.174836 117.644143,104.491118 115.667286,103.839704 C113.690429,103.188289 113.341571,101.721283 114.081571,99.3115789" id="Path" stroke="#263238" stroke-linecap="round" stroke-linejoin="round"></path>
                    <path d="M131.228429,92.6014803 C131.228429,92.6014803 131.143857,96.6158882 128.548571,97.7174671" id="Path" stroke="#263238" stroke-linecap="round" stroke-linejoin="round"></path>
                    <path d="M123.215286,61.9638158 C124.234431,61.6104491 125.362306,61.7891967 126.222857,62.4404605 C127.660571,63.5420395 127.317,64.4900329 127.317,64.4900329 C130.065571,65.9782237 131.017,73.4085855 131.017,73.4085855 C131.864887,74.2907898 132.161243,75.5680202 131.788714,76.7345066 C131.260143,78.9217763 128.173286,78.3974671 125.699571,79.7532566 C123.225857,81.1090461 120.498429,78.9323684 120.498429,78.9323684" id="Path" stroke="#263238" stroke-linecap="round" stroke-linejoin="round"></path>
                    <path d="M120.514286,85.3511842 C119.798369,86.5581747 118.587748,87.3875024 117.205429,87.6178947" id="Path" stroke="#263238" stroke-linecap="round" stroke-linejoin="round"></path>
                    <path d="M119.821857,77.4441776 C118.593125,77.2728598 117.341846,77.4972694 116.248714,78.085" id="Path" stroke="#263238" stroke-linecap="round" stroke-linejoin="round"></path>
                    <path d="M114.647143,74.6743421 C114.647143,74.6743421 116.888286,72.953125 117.739286,73.2708882" id="Path" stroke="#263238" stroke-linecap="round" stroke-linejoin="round"></path>
                    <path d="M119.821857,69.43125 C119.821857,69.43125 116.994,69.1081908 116.248714,70.2839145" id="Path" stroke="#263238" stroke-linecap="round" stroke-linejoin="round"></path>
                    <path d="M114.541429,68.4673684 C114.541429,68.4673684 114.858571,66.9738816 116.248714,66.7620395" id="Path" stroke="#263238" stroke-linecap="round" stroke-linejoin="round"></path>
                    <path d="M114.097429,62.4510526 C114.097429,62.4510526 114.969571,60.9151974 116.248714,61.1641118" id="Path" stroke="#263238" stroke-linecap="round" stroke-linejoin="round"></path>
                    <path d="M125.715429,94.4498026 C125.715429,94.4498026 125.953286,92.7868421 124.991286,92.0612829" id="Path" stroke="#263238" stroke-linecap="round" stroke-linejoin="round"></path>
                    <path d="M123.595857,89.6250987 C123.595857,89.6250987 124.351714,87.3319079 124.124429,86.7705263" id="Path" stroke="#263238" stroke-linecap="round" stroke-linejoin="round"></path>
                    <path d="M118.722429,91.8282566 C119.30761,92.0867401 119.721708,92.6253222 119.821857,93.2581908" id="Path" stroke="#263238" stroke-linecap="round" stroke-linejoin="round"></path>
                    <path d="M127.227143,79.1442105 C127.227143,79.1442105 128.083429,80.5423684 127.660571,81.50625" id="Path" stroke="#263238" stroke-linecap="round" stroke-linejoin="round"></path>
                    <path d="M131.032857,73.4191776 C131.032857,73.4191776 129.362571,72.1004605 128.39,71.8886184" id="Path" stroke="#263238" stroke-linecap="round" stroke-linejoin="round"></path>
                    <path d="M124.563143,67.9748355 C125.386635,67.5869054 126.309019,67.4612159 127.206,67.6147039" id="Path" stroke="#263238" stroke-linecap="round" stroke-linejoin="round"></path>
                    <path d="M107.421571,63.7326974 C107.421571,63.7326974 107.950143,66.7355592 106.364429,67.9695395 C106.364429,67.9695395 106.686857,71.6767763 105.724857,73.3768092 C105.724857,73.3768092 107.310571,76.7980592 105.724857,78.9376645 C105.724857,78.9376645 107.643571,84.0642434 105.724857,85.3458882 C103.806143,86.6275329 98.6895714,83.1056579 96.6598571,82.6978618 C94.6301429,82.2900658 92.1828571,79.0647697 94.4345714,76.7609868" id="Path" stroke="#263238" stroke-linecap="round" stroke-linejoin="round"></path>
                    <path d="M100.513143,74.1447368 C100.513143,74.1447368 100.513143,73.0855263 100.513143,71.5761513 C100.513143,70.0667763 101.665429,67.9854276 101.665429,67.9854276 C101.136857,66.6402303 103.156,63.7485855 103.156,63.7485855 C102.305,62.4298684 103.684571,60.3220395 104.577857,59.8983553 C105.471143,59.4746711 106.692143,59.1886842 109.726143,58.6325987 C112.760143,58.0765132 112.131143,62.4669408 112.131143,62.4669408 C112.131143,62.4669408 112.754857,66.5607895 111.687143,68.4832566 C112.370262,70.5039074 112.332901,72.6993836 111.581429,74.6955263 C111.581429,74.6955263 112.221,78.3603947 111.581429,80.7436184 C111.581429,80.7436184 111.814,83.4234211 111.539143,84.4508553" id="Path" stroke="#263238" stroke-linecap="round" stroke-linejoin="round"></path>
                    <path d="M102.632714,74.6743421 C101.089704,74.051134 99.3657243,74.051134 97.8227143,74.6743421" id="Path" stroke="#263238" stroke-linecap="round" stroke-linejoin="round"></path>
                    <path d="M109.557,83.1745066 C109.557,83.1745066 112.131143,84.2019408 112.131143,85.631875 C112.131143,87.0618092 112.791857,91.1874342 112.184,91.7964803 C111.576143,92.4055263 106.264,92.0824671 102.632714,89.6250987 C102.632714,89.6250987 98.0394286,90.0540789 97.0774286,88.8783553 C96.1154286,87.7026316 94.4927143,87.4007566 94.2918571,86.6434211" id="Path" stroke="#263238" stroke-linecap="round" stroke-linejoin="round"></path>
                    <path d="M93.9271429,80.7277303 C93.9271429,80.7277303 92.2515714,82.3589145 92.7061429,84.4879276 C93.1607143,86.6169408 93.3457143,89.5615461 93.9271429,91.2139145 C94.5085714,92.8662829 98.2984286,95.1065132 100.513143,94.4498026 C100.513143,94.4498026 106.887714,96.9495395 108.489286,96.2822368" id="Path" stroke="#263238" stroke-linecap="round" stroke-linejoin="round"></path>
                    <path d="M112.184,91.7964803 C112.184,91.7964803 112.754857,93.9149013 112.443,95.0747368 C112.131143,96.2345724 113.103714,98.1040789 112.131143,99.3115789 C111.158571,100.519079 103.261714,99.8782566 102.088286,98.5966118" id="Path" stroke="#263238" stroke-linecap="round" stroke-linejoin="round"></path>
                    <path d="M97.8227143,96.3881579 C97.8227143,96.3881579 97.162,98.4483224 98.679,99.3115789 C100.196,100.174836 108.584429,104.491118 110.561286,103.839704 C112.538143,103.188289 112.887,101.721283 112.147,99.3115789" id="Path" stroke="#263238" stroke-linecap="round" stroke-linejoin="round"></path>
                    <path d="M95.0001429,92.6014803 C95.0001429,92.6014803 95.0847143,96.6158882 97.68,97.7174671" id="Path" stroke="#263238" stroke-linecap="round" stroke-linejoin="round"></path>
                    <path d="M103.013286,61.9638158 C101.994141,61.6104491 100.866265,61.7891967 100.005714,62.4404605 C98.568,63.5420395 98.9115714,64.4900329 98.9115714,64.4900329 C96.163,65.9782237 95.2115714,73.4085855 95.2115714,73.4085855 C94.3636846,74.2907898 94.0673286,75.5680202 94.4398571,76.7345066 C94.9684286,78.9217763 98.0552857,78.3974671 100.529,79.7532566 C103.002714,81.1090461 105.730143,78.9323684 105.730143,78.9323684" id="Path" stroke="#263238" stroke-linecap="round" stroke-linejoin="round"></path>
                    <path d="M105.714286,85.3511842 C106.430203,86.5581747 107.640823,87.3875024 109.023143,87.6178947" id="Path" stroke="#263238" stroke-linecap="round" stroke-linejoin="round"></path>
                    <path d="M106.406714,77.4441776 C107.635446,77.2728598 108.886725,77.4972694 109.979857,78.085" id="Path" stroke="#263238" stroke-linecap="round" stroke-linejoin="round"></path>
                    <path d="M111.581429,74.6743421 C111.581429,74.6743421 109.340286,72.953125 108.489286,73.2708882" id="Path" stroke="#263238" stroke-linecap="round" stroke-linejoin="round"></path>
                    <path d="M106.406714,69.43125 C106.406714,69.43125 109.234571,69.1081908 109.979857,70.2839145" id="Path" stroke="#263238" stroke-linecap="round" stroke-linejoin="round"></path>
                    <path d="M111.687143,68.4673684 C111.687143,68.4673684 111.37,66.9738816 109.979857,66.7620395" id="Path" stroke="#263238" stroke-linecap="round" stroke-linejoin="round"></path>
                    <path d="M112.131143,62.4510526 C112.131143,62.4510526 111.259,60.9151974 109.979857,61.1641118" id="Path" stroke="#263238" stroke-linecap="round" stroke-linejoin="round"></path>
                    <path d="M100.513143,94.4498026 C100.513143,94.4498026 100.275286,92.7868421 101.237286,92.0612829" id="Path" stroke="#263238" stroke-linecap="round" stroke-linejoin="round"></path>
                    <path d="M102.632714,89.6250987 C102.632714,89.6250987 101.876857,87.3319079 102.104143,86.7705263" id="Path" stroke="#263238" stroke-linecap="round" stroke-linejoin="round"></path>
                    <path d="M107.506143,91.8282566 C106.920962,92.0867401 106.506864,92.6253222 106.406714,93.2581908" id="Path" stroke="#263238" stroke-linecap="round" stroke-linejoin="round"></path>
                    <path d="M99.0014286,79.1442105 C99.0014286,79.1442105 98.1451429,80.5423684 98.568,81.50625" id="Path" stroke="#263238" stroke-linecap="round" stroke-linejoin="round"></path>
                    <path d="M95.1957143,73.4191776 C95.1957143,73.4191776 96.866,72.1004605 97.8385714,71.8886184" id="Path" stroke="#263238" stroke-linecap="round" stroke-linejoin="round"></path>
                    <path d="M101.665429,67.9748355 C100.841936,67.5869054 99.9195528,67.4612159 99.0225714,67.6147039" id="Path" stroke="#263238" stroke-linecap="round" stroke-linejoin="round"></path>
                </g>
            </g>
        </g>
    </g>
</svg>