<?xml version="1.0" encoding="UTF-8"?>
<svg width="241px" height="262px" viewBox="0 0 241 262" version="1.1" xmlns="http://www.w3.org/2000/svg" xmlns:xlink="http://www.w3.org/1999/xlink">
    <!-- Generator: Sketch 57.1 (83088) - https://sketch.com -->
    <title>Wind turbine-bro</title>
    <desc>Created with Sketch.</desc>
    <g id="Webdesign-quick-fix" stroke="none" stroke-width="1" fill="none" fill-rule="evenodd">
        <g id="Labs---UI" transform="translate(-300.000000, -1374.000000)">
            <g id="Wind-turbine-bro" transform="translate(300.000000, 1374.000000)">
                <g id="freepik--background-simple--inject-223" transform="translate(0.000000, 41.000000)" fill-rule="nonzero">
                    <path d="M203.782089,122.788065 C202.918433,124.265258 202.043185,125.707419 201.144752,127.120387 C200.565117,128.002032 200.014465,128.872 199.440627,129.736129 C198.478433,131.172452 197.500783,132.571796 196.507676,133.934161 L196.409138,134.062613 C195.96282,134.681516 195.499112,135.294581 195.046997,135.895968 C194.594883,136.497355 194.223916,136.97029 193.80658,137.495774 C193.626893,137.717645 193.453003,137.945355 193.273316,138.161387 L193.053055,138.441645 C192.713003,138.87371 192.365222,139.299935 192.009713,139.720323 C191.540209,140.304194 191.076501,140.841355 190.601201,141.396032 C190.125901,141.95071 189.737546,142.388613 189.30282,142.879065 C189.076762,143.135968 188.856501,143.381194 188.624648,143.632258 C188.184125,144.128548 187.73201,144.613161 187.279896,145.097774 C186.827781,145.582387 186.236554,146.207129 185.709086,146.74429 L185.668512,146.791 C185.158433,147.304806 184.648355,147.824452 184.138277,148.326581 C183.378956,149.073935 182.619634,149.803774 181.848721,150.521935 C180.892324,151.415258 179.924334,152.273548 178.950548,153.137677 C178.922629,153.157776 178.897315,153.181314 178.875196,153.207742 C177.750705,154.182806 176.614621,155.122839 175.466945,156.039516 C173.697128,157.456376 171.904125,158.803172 170.087937,160.079903 C169.485117,160.504183 168.876501,160.92457 168.262089,161.341065 C167.062245,162.158484 165.845013,162.940871 164.616188,163.676548 L164.506057,163.746613 C163.926423,164.108613 163.317807,164.470613 162.714987,164.826774 L162.593264,164.891 C161.368303,165.622785 160.129817,166.321484 158.877807,166.987097 L157.55624,167.687742 L156.785326,168.084774 C156.205692,168.388387 155.626057,168.668645 155.011645,168.972258 C153.713264,169.608677 152.414883,170.210065 151.099112,170.793935 C150.438329,171.080032 149.777546,171.377806 149.116762,171.640548 C148.455979,171.90329 147.795196,172.189387 147.12282,172.452129 C146.450444,172.714871 145.795457,172.971774 145.128877,173.222839 C144.462298,173.473903 143.894256,173.678258 143.274047,173.900129 L142.601671,174.133677 C142.103185,174.314677 141.598903,174.478161 141.094621,174.653323 C140.416449,174.875194 139.738277,175.097065 139.060104,175.307258 L139.01953,175.307258 C137.087415,175.914484 135.1553,176.465269 133.223185,176.959613 C131.177076,177.496774 129.113577,177.958032 127.044282,178.372581 L127.044282,178.372581 C97.8886684,184.269677 67.0057441,179.458581 41.2989556,167.489226 C40.632376,167.173935 39.9715927,166.858645 39.3166057,166.525839 L38.3370235,166.02371 C37.4965535,165.591645 36.6618799,165.130387 35.838799,164.651613 C35.4620366,164.441419 35.0852742,164.219548 34.7143081,163.997677 C34.343342,163.775806 34.1346736,163.647355 33.8332637,163.460516 C33.5318538,163.273677 33.3347781,163.156903 33.0913316,162.993419 C32.8478851,162.829935 32.5116971,162.643097 32.256658,162.462097 C30.4868407,161.294355 28.7691906,160.068226 27.1037076,158.78371 C26.7849086,158.538484 26.4661097,158.287419 26.1589034,158.030516 L25.5097128,157.505032 L24.7040209,156.827742 C24.1243864,156.343129 23.544752,155.852677 23.0114883,155.34471 C22.8433943,155.198742 22.686893,155.052774 22.518799,154.895129 C22.350705,154.737484 22.031906,154.451387 21.7942559,154.223677 C20.7740992,153.262237 19.7848564,152.273548 18.8265274,151.257613 L18.3164491,150.708774 C17.0296606,149.325 15.8066319,147.888677 14.6415666,146.417323 C14.328564,146.031968 14.0619321,145.640774 13.7373368,145.249581 C12.7925326,144.017613 11.8998956,142.750613 11.0478329,141.460258 C10.8101828,141.092419 10.5667363,140.724581 10.3348825,140.356742 C9.52339426,139.078065 8.76407311,137.78771 8.01634465,136.468161 C7.78449086,136.047774 7.55843342,135.621548 7.33817232,135.195323 C7.11791123,134.769097 6.94402089,134.430452 6.75853786,134.027581 C6.07070496,132.649645 5.43117493,131.246409 4.83994778,129.817871 C4.68924282,129.450032 4.53853786,129.076355 4.39362924,128.696839 C3.55403892,126.565516 2.82845517,124.390396 2.22,122.180839 C2.12725849,121.842194 2.04031332,121.503548 1.9475718,121.170742 C1.95036877,121.137716 1.95036877,121.10451 1.9475718,121.071484 C1.88381201,120.808742 1.81425587,120.557677 1.75629243,120.294935 C1.66355091,119.903742 1.5708094,119.518387 1.48386423,119.127194 C1.39691906,118.736 1.2983812,118.274742 1.21143603,117.854355 C1.10710183,117.328871 1.00276762,116.79171 0.915822454,116.254548 C0.828877285,115.717387 0.759321149,115.337871 0.689765013,114.870774 C0.620208877,114.403677 0.550652742,113.919065 0.48689295,113.44029 C-1.10130548,101.143968 1.32736292,87.3704516 7.9062141,76.5279677 C8.81126066,75.0308818 9.80218466,73.5882192 10.8739426,72.2073226 C12.1649377,70.5428642 13.581519,68.9812391 15.1110705,67.5363548 C15.1729029,67.46798 15.2408093,67.4054403 15.3139426,67.3495161 C17.8450979,64.9880131 20.6892266,62.9916106 23.7650131,61.4173871 L25.9096606,60.3313871 C27.2891906,59.6424194 28.6223499,58.9826452 29.9323238,58.3579032 L31.1321671,57.7740323 L31.3118538,57.6864516 C32.2199478,57.262172 33.114517,56.8534624 33.9955614,56.4603226 C35.6417232,55.7129677 37.2376501,55.0162151 38.783342,54.3700645 C39.1716971,54.2007419 39.5600522,54.0430968 39.942611,53.8854516 C41.1018799,53.4008387 42.2611488,52.9337419 43.3682507,52.4958387 C44.214517,52.1571935 45.0491906,51.8302258 45.8780679,51.5207742 L46.1678851,51.404 C46.9098172,51.1237419 47.6401567,50.820129 48.3646997,50.5865806 C51.2222977,49.5122581 53.952376,48.5430323 56.6071018,47.603 C70.8023499,42.5583548 83.0500261,38.1676452 102.508355,23.3431613 C120.29154,9.81487097 141.00188,-1.67570968 164.036554,0.291935484 C193.122611,2.77922581 218.191802,20.0968387 221.060992,50.6683226 C223.257807,74.0873871 215.46752,102.702903 203.782089,122.788065 Z" id="Path" fill="#3087DF"></path>
                    <path d="M203.782089,122.788065 C202.918433,124.265258 202.043185,125.707419 201.144752,127.120387 C200.565117,128.002032 200.014465,128.872 199.440627,129.736129 C198.478433,131.172452 197.500783,132.571796 196.507676,133.934161 L196.409138,134.062613 C195.96282,134.681516 195.499112,135.294581 195.046997,135.895968 C194.594883,136.497355 194.223916,136.97029 193.80658,137.495774 C193.626893,137.717645 193.453003,137.945355 193.273316,138.161387 L193.053055,138.441645 C192.713003,138.87371 192.365222,139.299935 192.009713,139.720323 C191.540209,140.304194 191.076501,140.841355 190.601201,141.396032 C190.125901,141.95071 189.737546,142.388613 189.30282,142.879065 C189.076762,143.135968 188.856501,143.381194 188.624648,143.632258 C188.184125,144.128548 187.73201,144.613161 187.279896,145.097774 C186.827781,145.582387 186.236554,146.207129 185.709086,146.74429 L185.668512,146.791 C185.158433,147.304806 184.648355,147.824452 184.138277,148.326581 C183.378956,149.073935 182.619634,149.803774 181.848721,150.521935 C180.892324,151.415258 179.924334,152.273548 178.950548,153.137677 C178.922629,153.157776 178.897315,153.181314 178.875196,153.207742 C177.750705,154.176968 176.608825,155.122839 175.466945,156.039516 C173.697128,157.456376 171.904125,158.803172 170.087937,160.079903 C169.485117,160.504183 168.876501,160.92457 168.262089,161.341065 C167.062245,162.152645 165.845013,162.935032 164.616188,163.676548 L164.506057,163.746613 C163.926423,164.108613 163.317807,164.470613 162.714987,164.826774 L162.593264,164.891 C161.370235,165.620839 160.124021,166.321484 158.877807,166.987097 L157.55624,167.687742 L156.785326,168.084774 C156.205692,168.388387 155.626057,168.668645 155.011645,168.972258 C153.713264,169.608677 152.409086,170.210065 151.099112,170.793935 C150.438329,171.080032 149.777546,171.377806 149.116762,171.640548 C148.455979,171.90329 147.795196,172.189387 147.12282,172.452129 C146.450444,172.714871 145.795457,172.971774 145.128877,173.222839 C144.462298,173.473903 143.894256,173.678258 143.274047,173.900129 L142.601671,174.133677 C142.103185,174.314677 141.598903,174.478161 141.094621,174.653323 C140.416449,174.875194 139.738277,175.097065 139.060104,175.307258 L139.01953,175.307258 C137.087415,175.914484 135.1553,176.465269 133.223185,176.959613 C131.177076,177.496774 129.113577,177.958032 127.044282,178.372581 L127.044282,178.372581 C97.8886684,184.269677 67.0057441,179.458581 41.2989556,167.489226 C40.632376,167.173935 39.9715927,166.858645 39.3166057,166.525839 L38.3370235,166.02371 C37.4965535,165.591645 36.6618799,165.130387 35.838799,164.651613 C35.4620366,164.441419 35.0852742,164.219548 34.7143081,163.997677 C34.343342,163.775806 34.1346736,163.647355 33.8332637,163.460516 C33.5318538,163.273677 33.3347781,163.156903 33.0913316,162.993419 C32.8478851,162.829935 32.5116971,162.643097 32.256658,162.462097 C30.4868407,161.294355 28.7691906,160.068226 27.1037076,158.78371 C26.7849086,158.538484 26.4661097,158.287419 26.1589034,158.030516 L25.5097128,157.505032 L24.7040209,156.827742 C24.1243864,156.343129 23.544752,155.852677 23.0114883,155.34471 C22.8433943,155.198742 22.686893,155.052774 22.518799,154.895129 C22.350705,154.737484 22.031906,154.451387 21.7942559,154.223677 C20.7740992,153.262237 19.7848564,152.273548 18.8265274,151.257613 L18.3164491,150.708774 C17.0296606,149.325 15.8066319,147.888677 14.6415666,146.417323 C14.328564,146.031968 14.0619321,145.640774 13.7373368,145.249581 C12.7925326,144.017613 11.8998956,142.750613 11.0478329,141.460258 C10.8101828,141.092419 10.5667363,140.724581 10.3348825,140.356742 C9.52339426,139.078065 8.76407311,137.78771 8.01634465,136.468161 C7.78449086,136.047774 7.55843342,135.621548 7.33817232,135.195323 C7.11791123,134.769097 6.94402089,134.430452 6.75853786,134.027581 C6.07070496,132.649645 5.43117493,131.246409 4.83994778,129.817871 C4.68924282,129.450032 4.53853786,129.076355 4.39362924,128.696839 C3.55403892,126.565516 2.82845517,124.390396 2.22,122.180839 C2.12725849,121.842194 2.04031332,121.503548 1.9475718,121.170742 C1.95036877,121.137716 1.95036877,121.10451 1.9475718,121.071484 C1.88381201,120.808742 1.81425587,120.557677 1.75629243,120.294935 C1.66355091,119.903742 1.5708094,119.518387 1.48386423,119.127194 C1.39691906,118.736 1.2983812,118.274742 1.21143603,117.854355 C1.10710183,117.328871 1.00276762,116.79171 0.915822454,116.254548 C0.828877285,115.717387 0.759321149,115.337871 0.689765013,114.870774 C0.620208877,114.403677 0.550652742,113.919065 0.48689295,113.44029 C-1.10130548,101.143968 1.32736292,87.3704516 7.9062141,76.5279677 C8.81126066,75.0308818 9.80218466,73.5882192 10.8739426,72.2073226 C12.1649377,70.5428642 13.581519,68.9812391 15.1110705,67.5363548 C15.1729029,67.46798 15.2408093,67.4054403 15.3139426,67.3495161 C17.8450979,64.9880131 20.6892266,62.9916106 23.7650131,61.4173871 L25.9096606,60.3313871 C27.2891906,59.6424194 28.6223499,58.9826452 29.9323238,58.3579032 L31.1321671,57.7740323 L31.3118538,57.6864516 C32.2199478,57.262172 33.114517,56.8534624 33.9955614,56.4603226 C35.6417232,55.7129677 37.2376501,55.0162151 38.783342,54.3700645 C39.1716971,54.2007419 39.5600522,54.0430968 39.942611,53.8854516 C41.1018799,53.4008387 42.2611488,52.9337419 43.3682507,52.4958387 C44.214517,52.1571935 45.0491906,51.8302258 45.8780679,51.5207742 L46.1678851,51.404 C46.9098172,51.1237419 47.6401567,50.820129 48.3646997,50.5865806 C51.2222977,49.5122581 53.952376,48.5430323 56.6071018,47.603 C70.8023499,42.5583548 83.0500261,38.1676452 102.508355,23.3431613 C120.29154,9.81487097 141.00188,-1.67570968 164.036554,0.291935484 C193.122611,2.77922581 218.191802,20.0968387 221.060992,50.6683226 C223.257807,74.0873871 215.46752,102.702903 203.782089,122.788065 Z" id="Path" fill="#FFFFFF" opacity="0.7"></path>
                    <path d="M196.496084,133.934161 C180.932898,155.257129 160.767415,168.534355 139.048512,175.330613 L139.007937,175.330613 C137.075822,175.937839 135.143708,176.488624 133.211593,176.982968 C131.167415,177.516237 129.107781,177.987226 127.032689,178.395935 L127.032689,178.395935 C97.8770757,184.287194 66.9999478,179.481935 41.2873629,167.506742 C26.7774105,160.766887 14.8575576,149.426397 7.34976501,135.218677 C14.7864752,129.858742 28.6803133,124.773226 52.5148825,131.27171 C93.390705,142.411968 124.719948,168.721194 151.92799,149.541032 C171.189243,135.983548 185.303342,131.265871 196.496084,133.934161 Z" id="Path" fill="#3087DF"></path>
                </g>
                <g id="freepik--Shadow--inject-223" transform="translate(32.000000, 243.000000)" fill-rule="nonzero">
                    <ellipse id="Oval" fill="#3087DF" cx="78" cy="9.7315625" rx="77.8370149" ry="9.2209375"></ellipse>
                    <ellipse id="Oval" fill="#FFFFFF" opacity="0.5" cx="78" cy="9.7315625" rx="77.8370149" ry="9.2209375"></ellipse>
                </g>
                <g id="freepik--wind-turbine-2--inject-223" transform="translate(107.000000, 78.000000)">
                    <path d="M72.6,92.5231293 L72.5653846,92.4821769 L72.4326923,92.3008163 C72.3461538,92.1896599 72.2711538,92.0843537 72.1903846,91.9907483 L72.1903846,91.9907483 L69.6346154,89.3639456 L69.5769231,89.3112925 L60.9807692,80.4831293 C60.9506425,80.4549265 60.9235665,80.4235474 60.9,80.3895238 C60.4615385,79.8629932 57.2423077,75.990068 55.8634615,73.8195918 C55.8478871,73.7975079 55.8343676,73.7740057 55.8230769,73.7493878 C55.697508,73.5607619 55.5819589,73.3654727 55.4769231,73.1643537 C55.2735019,72.7956068 55.0338204,72.4486709 54.7615385,72.1288435 C54.7389939,72.1084601 54.719552,72.0848019 54.7038462,72.0586395 C52.9466987,70.1175784 50.8912654,68.4777734 48.6173077,67.2028571 L48.5076923,67.1502041 C48.051347,66.8957359 47.5813895,66.6672193 47.1,66.4657143 L47.0019231,66.4247619 C47.8710709,65.9492242 48.3686485,64.9863692 48.2596154,63.9910204 C48.2623871,63.9423081 48.2623871,63.8934742 48.2596154,63.8447619 C48.2651155,63.8098814 48.2651155,63.7743363 48.2596154,63.7394558 L48.2596154,63.6517007 C47.8961538,62.1832653 46.0673077,60.1941497 44.4346154,59.0533333 L44.025,58.7783673 C43.907485,58.7001065 43.7861793,58.6278618 43.6615385,58.5619048 L43.5057692,58.4741497 L43.5057692,58.4741497 L43.0557692,54.0629932 L42.2653846,54.0629932 L42.0346154,51.3484354 C42.0346154,51.3484354 42.0346154,50.2778231 42.0923077,48.5695238 C42.0923077,48.4759184 42.0923077,48.3881633 42.0923077,48.2945578 C42.1961538,44.1993197 42.4326923,36.8103401 42.8653846,31.5333333 L42.8653846,31.5333333 C43.4826923,23.8459864 44.3884615,15.3044898 44.7288462,10.6183673 C44.7288462,10.5657143 44.7288462,10.5189116 44.7288462,10.4721088 C44.7259826,10.4448845 44.7259826,10.4174285 44.7288462,10.3902041 C44.7288462,10.1210884 44.7692308,9.85782313 44.7865385,9.59455782 C44.8038462,9.33129252 44.8269231,9.12653061 44.8442308,8.89836735 C45.1384615,5.54027211 45.4961538,2.4629932 44.9769231,1.10571429 C44.8980365,0.868831972 44.7463968,0.663803181 44.5442308,0.520680272 C43.4942308,-0.146258503 41.85,4.13034014 40.6096154,8.31333333 L40.6096154,8.31333333 C40.3730769,9.13238095 40.1480769,9.95142857 39.9461538,10.7236735 C39.9173077,10.8289796 39.8884615,10.9284354 39.8538462,11.0395918 C38.9596154,14.4912925 36.8019231,23.0035374 35.6019231,29.7606803 C35.0860756,32.249147 34.8097786,34.7825356 34.7769231,37.3251701 C35.0365385,42.7308844 35.4057692,43.1755102 36.7096154,47.2707483 C37.4179275,49.3996727 37.916516,51.5945176 38.1980769,53.8231293 L38.1980769,53.8231293 L37.575,53.9401361 L37.0788462,54.0337415 L36.675,56.6020408 C35.7714284,56.5813988 34.8746819,56.7652682 34.05,57.1402721 C33.5904866,57.3487584 33.1839977,57.6609127 32.8615385,58.0529252 L32.8615385,58.0529252 L32.2846154,57.9242177 L32.2846154,57.9242177 C30.9006054,57.6609925 29.4980635,57.5103542 28.0903846,57.4737415 C26.5098997,57.4376072 24.9292389,57.5374204 23.3653846,57.7721088 L23.3134615,57.7721088 C18.5769231,58.5092517 14.4346154,60.0595918 12.9288462,60.9839456 C12.8768227,61.0116833 12.8267084,61.0429564 12.7788462,61.077551 L12.7788462,61.077551 C12.7229974,61.108596 12.6707493,61.1458801 12.6230769,61.1887075 C12.5940057,61.2047402 12.5684811,61.2266416 12.5480769,61.2530612 L12.4961538,61.2940136 C12.4723461,61.310332 12.4509739,61.3300344 12.4326923,61.352517 L12.375,61.4168707 C11.8961538,62.0019048 11.5038462,63.3533333 11.3596154,64.7515646 L11.3596154,64.7515646 C11.2603863,65.5995989 11.291526,66.458112 11.4519231,67.2964626 C11.4776017,67.4325435 11.5162444,67.5657758 11.5673077,67.6942857 L17.25,68.0336054 L19.8519231,68.1915646 L23.3596154,68.3963265 L23.3596154,68.3963265 L22.8403846,80.3134694 C22.8403846,80.3134694 21.3980769,81.3840816 19.6673077,82.8934694 C18.2934892,84.0779163 17.0144786,85.370996 15.8423077,86.7605442 C15.7384615,86.877551 15.6519231,87.0004082 15.5538462,87.1291156 L15.1961538,87.6146939 C15.1602669,87.655704 15.1292829,87.7008696 15.1038462,87.7492517 C13.5507189,90.1267372 12.1218269,92.5853177 10.8230769,95.1148299 C9.39807692,97.782585 8.16346154,100.175374 7.64423077,100.912517 C7.03269231,101.784218 5.91346154,104.030748 4.75961538,106.084218 C3.84230769,107.751565 2.91346154,109.301905 2.24423077,109.881088 L2.24423077,109.881088 C0.761538462,111.168163 -0.15,112.554694 0.605769231,112.911565 C1.36153846,113.268435 2.59038462,113.057823 4.85192308,111.156463 C4.88055361,111.142283 4.90606394,111.122384 4.92692308,111.097959 C7.16538462,109.22585 12.8769231,101.526803 13.2288462,101.052925 C13.5807692,100.579048 14.0480769,100.029116 14.4692308,99.5201361 C14.6365385,99.3095238 14.8096154,99.0872109 14.9884615,98.8765986 C16.0096154,97.6304762 17.2961538,96.0333333 18.45,94.6409524 C18.7326923,94.2782313 19.0269231,93.9213605 19.3269231,93.5586395 C19.4961538,93.3480272 19.6692308,93.137415 19.8461538,92.9268027 C20.2211538,92.4587755 20.6019231,91.9965986 21,91.5344218 C22.1538462,90.1712925 22.4307692,90.3643537 22.4307692,90.3643537 L22.3442308,92.4997279 L22.2807692,93.8745578 L22.2807692,93.8745578 L20.1692308,171.537823 C22.0557692,171.157551 23.9365385,172.023401 25.8057692,171.537823 C27.5826923,171.075646 31.0730769,172.093605 32.8269231,171.537823 L32.8673077,171.537823 L30.0346154,80.7639456 L30.0346154,80.6235374 L30.1153846,80.5416327 L31.3673077,79.137551 L37.8288462,71.929932 C37.8457557,71.9061659 37.8673704,71.88624 37.8923077,71.8714286 C37.9857941,71.9392278 38.0841447,71.99985 38.1865385,72.0527891 C38.526036,72.269203 38.9519907,72.2913539 39.3115385,72.1112925 C39.8884615,71.7134694 41.1692308,68.9287075 41.1692308,68.9287075 L42.8365385,68.4957823 L42.8769231,68.4957823 L42.8769231,68.4957823 L43.6903846,68.2851701 L44.3884615,68.9462585 L48.6346154,73.1292517 L48.8134615,73.2989116 L72.3346154,95.4658503 L72.3692308,95.495102 C72.5134615,95.6647619 73.8519231,97.1331973 74.7173077,96.7002721 C75.4269231,96.355102 73.4942308,93.6814966 72.6,92.5231293 Z M30.8480769,73.7142857 L30.4788462,74.1413605 L30.4326923,74.1940136 L29.9711538,74.7205442 L29.9423077,74.7205442 L29.9423077,69.0340136 L30.4788462,69.0340136 L33.5711538,69.0340136 L33.7384615,69.7302041 L33.7384615,69.8296599 L33.3980769,70.3444898 C32.6046777,71.5106563 31.7535893,72.63536 30.8480769,73.7142857 Z" id="Shape" fill="#FFFFFF" fill-rule="nonzero"></path>
                    <path d="M45.1038462,67.6884354 L44.3307692,69.092517 L43.6326923,68.4489796 L42.7961538,68.6654422 L42.7557692,68.6654422 L41.0884615,69.0983673 C41.0884615,69.0983673 39.8365385,71.8831293 39.2307692,72.2809524 C38.8712215,72.4610138 38.4452668,72.4388629 38.1057692,72.222449 L38.4923077,71.1810884 C37.9153126,69.528606 36.3156813,68.4751875 34.5923077,68.6127891 L34.3269231,70.2918367 C34.3269231,70.2918367 33.1730769,68.3319728 33.2019231,68.0570068 C33.2307692,67.7820408 31.5692308,65.9859864 31.3096154,63.347483 C31.05,60.7089796 32.3307692,55.5489796 38.9884615,56.9472109 C38.9884615,56.9472109 36.8365385,57.1578231 35.9653846,60.7616327 C35.0942308,64.3654422 40.3846154,66.9161905 45.1038462,67.6884354 Z" id="Path" fill="#3087DF" fill-rule="nonzero"></path>
                    <polygon id="Path" fill="#3087DF" fill-rule="nonzero" points="22.1192308 94.1261224 28.4538462 87.4333333 27.8480769 83.2971429 22.5173077 89.9665306"></polygon>
                    <path d="M26.6423077,63.7043537 L26.6423077,62.8385034 L30.2711538,66.4715646 L29.9769231,68.8760544 L29.9769231,74.9311565 C29.0307692,75.8906122 27.4269231,77.2010884 26.6769231,77.7978231 C26.7576923,69.5195918 26.7576923,63.9793197 26.6423077,63.7043537 Z" id="Path" fill="#3087DF" fill-rule="nonzero"></path>
                    <path d="M32.7865385,171.701633 L32.7461538,171.701633 C31.0153846,172.257415 27.5019231,171.239456 25.725,171.701633 C25.9153846,160.638639 26.1692308,115.649524 26.3711538,101.836871 C26.4288462,97.8586395 26.4807692,93.9623129 26.5326923,90.2882993 C26.5326923,90.0016327 26.5326923,89.7032653 26.5326923,89.4458503 C26.5326923,87.8721088 26.5730769,86.3393197 26.5903846,84.8591837 L26.5903846,84.829932 L27.0461538,84.3034014 L27.8480769,83.3731973 L29.9423077,80.9394558 L29.9423077,80.9394558 L32.7865385,171.701633 Z" id="Path" fill="#3087DF" fill-rule="nonzero"></path>
                    <path d="M74.7173077,96.7178231 C73.8,97.18 72.3576923,95.5009524 72.3576923,95.5009524 L43.6326923,68.4489796 L42.7961538,68.6654422 C44.3458566,68.2024059 45.8028155,67.4656653 47.1,66.4891156 C50.1923077,67.7527891 54.4038462,71.1693878 55.4769231,73.1877551 C56.55,75.2061224 60.9519231,80.4655782 60.9519231,80.4655782 L72.1903846,92.002449 C72.1903846,92.002449 75.6288462,96.2556463 74.7173077,96.7178231 Z" id="Path" fill="#3087DF" fill-rule="nonzero"></path>
                    <path d="M31.4769231,61.2589116 C31.4769231,61.2589116 14.5384615,60.2468027 12.7269231,61.1009524 C10.9153846,61.955102 10.9673077,66.2492517 11.5153846,67.7761905 L33.1788462,69.0691156 L33.1788462,68.0511565 L33.2307692,67.7761905 C33.2307692,67.7761905 31.0153846,66.1907483 31.4769231,61.2589116 Z" id="Path" fill="#3087DF" fill-rule="nonzero"></path>
                    <path d="M36.6807692,68.8760544 C36.6807692,68.8760544 33.5538462,75.7385034 29.4288462,78.7046259 C25.3038462,81.6707483 17.2269231,87.3221769 10.275,95.7934694 C10.275,95.7934694 13.8807692,87.737551 17.8615385,84.3911565 C21.8423077,81.0447619 27.2076923,77.8329252 28.8230769,76.1070748 C30.4384615,74.3812245 34.5923077,68.6069388 34.5923077,68.6069388 L36.6807692,68.8760544 Z" id="Path" fill="#3087DF" fill-rule="nonzero"></path>
                    <path d="M40.5461538,8.47129252 C38.1173077,20.8681633 37.4538462,38.150068 39.0173077,44.2285714 C40.5807692,50.3070748 40.0615385,54.0629932 40.0615385,54.0629932 L37.5807692,54.0629932 L37.5807692,53.9693878 L38.1980769,53.852381 C37.9150438,51.6098501 37.4066306,49.4025433 36.6807692,47.264898 C35.3711538,43.1696599 35.0076923,42.7133333 34.7423077,37.3193197 C34.4769231,31.9253061 38.6653846,15.4682993 39.9,10.7470748 C40.1076923,9.96312925 40.3384615,9.13238095 40.5807692,8.30163265 L40.5461538,8.47129252 Z" id="Path" fill="#3087DF" fill-rule="nonzero"></path>
                    <path d="M36.6807692,56.6254422 C34.6903846,56.7014966 33.1557692,57.1695238 32.2096154,59.0884354 C30.8134615,61.9082993 30.9576923,65.670068 33.2480769,67.7761905" id="Path" stroke="#263238" stroke-linecap="round" stroke-linejoin="round"></path>
                    <path d="M41.0884615,69.092517 C44.8096154,68.3436735 48.1211538,66.2668027 48.2538462,64.3595918 C48.3865385,62.452381 46.1826923,59.9718367 43.1596154,58.3161905" id="Path" stroke="#263238" stroke-linecap="round" stroke-linejoin="round"></path>
                    <path d="M43.4480769,58.5034014 L42.9923077,54.0863946 L37.0730769,54.0863946 L36.6807692,56.6488435 C37.8281306,56.6925272 38.9648242,56.8892293 40.0615385,57.2338776" id="Path" stroke="#263238" stroke-linecap="round" stroke-linejoin="round"></path>
                    <path d="M38.175,54.0629932 C38.175,54.0629932 38.6942308,51.1378231 35.8673077,45.5565986 C33.0403846,39.9753741 35.8673077,26.7711565 38.175,17.2702041 C40.4826923,7.7692517 42.5019231,0.889251701 44.475,0.485578231 C46.4480769,0.0819047619 42.8134615,24.6591837 42.6057692,35.3185034 C42.3980769,45.9778231 41.6538462,48.6514286 42.0288462,54.0395918" id="Path" stroke="#263238" stroke-linecap="round" stroke-linejoin="round"></path>
                    <path d="M38.4980769,71.1752381 C38.4980769,71.1752381 36.9634615,67.7878912 34.5923077,68.6069388 C32.5846154,71.7485714 30.2019231,75.3289796 27.1615385,77.5053061 C23.9596154,79.7927891 20.6019231,81.4601361 17.8615385,84.3911565 C15.2407633,87.3185915 12.9977692,90.5721303 11.1865385,94.0734694 C7.96730769,99.9940136 5.30769231,106.318231 1.02692308,111.501633 C0.663461538,111.940408 0.271153846,112.537143 0.559615385,113.028571 C0.848076923,113.52 1.71346154,113.402993 2.29038462,113.092925 C5.80384615,111.197415 7.95,107.634558 10.4076923,104.604082 C12.3576923,102.199592 14.2961538,99.7892517 16.2461538,97.3906122 C20.7288462,91.8854422 25.2288462,86.3978231 29.8038462,80.9745578 C31.5346154,78.9210884 33.2653846,76.8793197 35.0538462,74.8726531 C35.3134615,74.5742857 38.5788462,71.3741497 38.4980769,71.1752381 Z" id="Path" stroke="#263238" stroke-linecap="round" stroke-linejoin="round"></path>
                    <path d="M33.8942308,69.6892517 C33.5780594,69.1838319 33.3424729,68.6310087 33.1961538,68.0511565 C33.1961538,67.5304762 34.35,65.8631293 34.35,65.8631293" id="Path" stroke="#263238" stroke-linecap="round" stroke-linejoin="round"></path>
                    <path d="M37.8057692,72.0293878 C37.8057692,72.0293878 38.9596154,72.567619 39.3807692,72.0293878 C39.8019231,71.4911565 41.2615385,68.7590476 41.2615385,68.7590476 C41.2615385,68.7590476 39.3,66.1907483 37.8,65.8631293" id="Path" stroke="#263238" stroke-linecap="round" stroke-linejoin="round"></path>
                    <path d="M43.7596154,68.3787755 C49.5288462,73.995102 72.6519231,96.7178231 74.1288462,96.7178231 C75.825,96.7178231 73.4307692,93.5937415 72.1903846,91.9907483 C70.95,90.3877551 59.0942308,79.705034 55.8173077,73.7493878 C53.7346154,69.9466667 49.4711538,67.4953741 47.0019231,66.4306122" id="Path" stroke="#263238" stroke-linecap="round" stroke-linejoin="round"></path>
                    <path d="M33.5711538,69.092517 L28.6269231,68.8 L25.9961538,68.6361905 L19.8,68.2734694 L17.2038462,68.1155102 L11.5153846,67.7761905 C11.5153846,67.7761905 10.5461538,62.5108844 12.7269231,61.1009524 C14.2038462,60.1531973 18.675,58.8368707 22.0903846,58.0587755 C23.3225357,57.7471551 24.5760807,57.5300786 25.8403846,57.4093878 C26.6109434,57.401218 27.3813562,57.4363739 28.1480769,57.5146939 C29.2442308,57.6082993 30.4211538,57.7545578 31.3673077,57.877415 C31.8057692,57.9359184 32.5557692,57.947619 32.8557692,57.9944218" id="Path" stroke="#263238" stroke-linecap="round" stroke-linejoin="round"></path>
                    <path d="M22.7884615,80.4012245 L23.3076923,68.4782313" id="Path" stroke="#263238" stroke-linecap="round" stroke-linejoin="round"></path>
                    <polyline id="Path" stroke="#263238" stroke-linecap="round" stroke-linejoin="round" points="32.7461538 171.701633 20.0884615 171.701633 22.2 94.0383673 22.2 94.032517 22.2634615 92.6576871 22.2692308 92.5991837 22.3788462 89.9197279"></polyline>
                    <path d="M32.7461538,171.701633 C32.5211538,160.767347 30.4961538,114.567211 30.2711538,101.497551 C30.1961538,97.4023129 30.1326923,93.412381 30.075,89.7559184 C30.0288462,86.549932 29.9826923,83.5779592 29.9538462,80.9804082 L29.9538462,80.8458503 L29.9538462,80.8458503" id="Path" stroke="#263238" stroke-linecap="round" stroke-linejoin="round"></path>
                    <path d="M30,68.8760544 C29.9134615,68.8760544 29.925,71.0172789 29.9538462,74.9955102" id="Path" stroke="#263238" stroke-linecap="round" stroke-linejoin="round"></path>
                    <path d="M28.1538462,57.5146939 C26.7173077,57.9768707 21.15,59.8548299 20.55,60.8669388 C19.7134615,62.3002721 19.7480769,66.5066667 19.8,68.2734694 L17.2038462,68.1155102 C17.1519231,65.962585 17.175,61.8673469 18.0288462,60.4223129 C18.7269231,59.5798639 20.4230769,58.7315646 22.0673077,58.0821769 C23.2994587,57.7705564 24.5530038,57.5534799 25.8173077,57.4327891 C26.5970515,57.415754 27.3771237,57.4430986 28.1538462,57.5146939 Z" id="Path" fill="#263238" fill-rule="nonzero"></path>
                    <path d="M32.8846154,58.0880272 C32.8846154,58.0880272 29.5384615,59.6383673 28.9326923,61.2881633 C28.425,62.6629932 28.5807692,67.2789116 28.65,68.8 L26.0192308,68.6361905 C26.0192308,66.7172789 26.0769231,62.1598639 26.3423077,60.9722449 C26.6769231,59.4628571 31.3961538,57.877415 31.3961538,57.877415 L32.5211538,58.0353741 L32.8846154,58.0880272 Z" id="Path" fill="#263238" fill-rule="nonzero"></path>
                    <path d="M30.075,89.7266667 C28.5447341,90.0674154 26.9895508,90.2806886 25.425,90.3643537 L25.425,101.754966 C27.0437919,101.96074 28.6860147,101.86558 30.2711538,101.47415" id="Path" stroke="#263238" stroke-linecap="round" stroke-linejoin="round"></path>
                    <path d="M23.3076923,68.4782313 C25.0432675,70.4523712 27.4161091,71.7342957 30,72.0937415 L29.9653846,68.7473469 L23.3076923,68.4782313 Z" id="Path" fill="#263238" fill-rule="nonzero"></path>
                    <path d="M29.9538462,80.9277551 L27.8596154,83.3614966 L27.8596154,83.3614966 L27.8596154,83.2971429 L27.075,84.2858503 L27.075,84.2858503 L26.6192308,84.812381 L26.6192308,84.8533333 L22.5,89.9665306 L22.1019231,94.1261224 L26.5269231,89.4458503 C26.5269231,89.7266667 26.5269231,90.0308844 26.5269231,90.282449 C26.475,93.9564626 26.4230769,97.8527891 26.3653846,101.83102 C26.1634615,115.643673 25.9096154,160.632789 25.7192308,171.695782 C27.4961538,171.233605 30.9865385,172.251565 32.7403846,171.695782 L32.7807692,171.695782 L29.9538462,80.9160544 L29.9538462,80.9277551 Z" id="Path" fill="#000000" fill-rule="nonzero" opacity="0.1"></path>
                    <path d="M72.1903846,91.984898 L60.9519231,80.4480272 C60.9519231,80.4480272 56.5615385,75.2119728 55.4769231,73.1702041 C54.3923077,71.1284354 50.1923077,67.7352381 47.1,66.4715646 C46.46745,66.9512925 45.7935734,67.3722678 45.0865385,67.7293878 L45.0865385,67.6884354 C40.3384615,66.9161905 35.0769231,64.3654422 35.9480769,60.7557823 C36.8192308,57.1461224 38.9711538,56.9413605 38.9711538,56.9413605 C33.8307692,55.8590476 31.8980769,58.6964626 31.4019231,61.2530612 C30.3519231,61.1945578 14.4634615,60.2760544 12.7096154,61.1009524 C10.9557692,61.9258503 10.95,66.2492517 11.4980769,67.7761905 L26.7173077,68.6829932 C26.7173077,71.052381 26.7173077,74.1589116 26.6596154,77.7978231 C27.2653846,77.3180952 28.4307692,76.3644898 29.3538462,75.5103401 C29.1576923,75.7385034 28.9788462,75.9432653 28.8230769,76.0953741 C27.1903846,77.8504762 21.8307692,81.0330612 17.8615385,84.3794558 C13.8923077,87.7258503 10.275,95.7817687 10.275,95.7817687 C17.2269231,87.3104762 25.3038462,81.6590476 29.4288462,78.6929252 C33.2365385,75.954966 36.1846154,69.917415 36.6230769,68.9872109 C37.4859407,69.4586024 38.1503049,70.2321149 38.4923077,71.1635374 L38.1057692,72.204898 C38.4452668,72.4213118 38.8712215,72.4434628 39.2307692,72.2634014 C39.8365385,71.8655782 41.0884615,69.0808163 41.0884615,69.0808163 L42.7557692,68.6478912 L42.7961538,68.6478912 L43.6326923,68.4314286 L72.3576923,95.5009524 C72.3576923,95.5009524 73.8,97.18 74.7173077,96.7178231 C75.6346154,96.2556463 72.1903846,91.984898 72.1903846,91.984898 Z M32.8326923,67.3608163 C32.3484575,66.7612213 31.9928141,66.0658372 31.7884615,65.3190476 C32.0683192,66.033341 32.4181483,66.7173567 32.8326923,67.3608163 L32.8326923,67.3608163 Z M29.9480769,74.7790476 L29.9480769,68.8760544 L33.15,69.0691156 L33.15,68.0511565 L33.15,68.0511565 C33.309386,68.5869425 33.5466058,69.0956568 33.8538462,69.5605442 C32.9769231,70.8417687 31.2807692,73.1585034 30,74.7790476 L29.9480769,74.7790476 Z M34.5634615,68.6069388 L34.5634615,68.6069388 C35.1062219,68.5648847 35.6517644,68.6345337 36.1673077,68.8117007 L34.5634615,68.6069388 Z" id="Shape" fill="#000000" fill-rule="nonzero" opacity="0.1"></path>
                    <path d="M36.6807692,47.264898 C37.4066306,49.4025433 37.9150438,51.6098501 38.1980769,53.852381 L37.5807692,53.9693878 L37.5807692,54.0629932 L40.0615385,54.0629932 C40.0615385,54.0629932 40.5807692,50.3070748 39.0173077,44.2285714 C37.4538462,38.150068 38.1173077,20.8681633 40.5461538,8.47129252 L40.5807692,8.28408163 C40.3384615,9.11482993 40.1076923,9.94557823 39.9,10.7295238 C38.6653846,15.4507483 34.4711538,31.9019048 34.7423077,37.3017687 C35.0134615,42.7016327 35.3711538,43.1755102 36.6807692,47.264898 Z" id="Path" fill="#000000" fill-rule="nonzero" opacity="0.1"></path>
                </g>
                <g id="freepik--wind-turbine-1--inject-223" transform="translate(55.000000, 0.000000)">
                    <polygon id="Path" points="36.0290698 123.446262 38.1860465 120.893692 36.0232558 123.276869"></polygon>
                    <path d="M95.7848837,122.663551 L88.0290698,116.308411 C88.0290698,116.308411 76.494186,104.626168 74.6569767,101.25 C72.8197674,97.8738318 69.9593023,95.2161215 64.7732558,93.125 L64.6104651,93.0549065 C66.0623237,92.2633057 66.8938999,90.6685425 66.7151163,89.0186916 C66.4593023,86.0981308 61.8372093,81.4719626 58.6395349,79.8598131 L57.877907,72.5350467 L56.5639535,72.5350467 L56.1686047,68.0315421 C56.1686047,68.0315421 56.5290698,47.8738318 57.5813953,35.1285047 C58.6337209,22.3831776 59.5639535,15.9754673 60.1337209,8.2067757 C60.7034884,0.438084112 61.7325581,1.96845794 59.627907,0.648364486 C57.8837209,-0.443925234 53.3081395,12.2313084 52.9651163,13.4988318 C50.8895349,21.3376168 45.2616279,36.9859813 45.2616279,45.9579439 C45.2616279,53.6214953 44.127907,56.536215 47.2906977,61.2324766 C51.2616279,67.1320093 49.8313953,72.161215 49.8313953,72.161215 L48.7965116,72.353972 L47.9534884,72.5058411 L47.5697674,74.9240654 L47.2906977,76.7640187 C47.2906977,76.7640187 42.994186,76.5712617 40.8953488,79.1880841 C35.6276284,78.0371766 30.1939691,77.8708508 24.8662791,78.6974299 C15.872093,80.0584112 8.13372093,83.1834112 6.62209302,84.5385514 C5.11046512,85.8936916 3.95930233,92.0735981 5.0755814,95.239486 L24.8430233,96.4077103 L24.8430233,96.5070093 L35.9767442,97.4299065 L35.9767442,97.3890187 L36.877907,97.3890187 L42.0697674,97.4182243 L42.1918605,97.9380841 L42.7732558,97.9848131 L42.1918605,97.9380841 L43.3546512,99.1764019 C41.9709302,101.343458 39.4127907,103.709112 38,105.350467 C37.4491836,105.983995 36.7636874,106.485049 35.994186,106.816589 L35.994186,106.71729 C34.2093023,108.568925 31.1976744,111.542056 28.8081395,113.078271 C26.9593023,114.246495 24.6569767,115.823598 22.8313953,117.067757 C20.505814,118.878505 16.8313953,123.014019 13.5290698,128.75 C10.0755814,134.754673 3.81976744,144.994159 0.494186047,149.147196 C-1.01744186,153.452103 7.15697674,147.640187 7.15697674,147.640187 C7.15697674,147.640187 18.8197674,133.989486 21.0581395,131.285047 C22.0348837,130.116822 35.1337209,115.595794 35.1337209,115.595794 L41.7209302,108.440421 L48.4360465,101.682243 C48.8390517,102.008929 49.2581879,102.315002 49.6918605,102.599299 C50.2658167,102.956599 50.98302,102.989753 51.5872093,102.686916 C52.5930233,102.03271 54.6976744,97.4299065 54.6976744,97.4299065 L57.5,96.7114486 L57.5639535,96.7114486 L59.3837209,96.2383178 L60.255814,97.2488318 L98.2093023,128.528037 L99.6627907,128.59229 L99.0406977,126.699766 L95.7848837,122.663551 Z" id="Path" fill="#FFFFFF" fill-rule="nonzero"></path>
                    <polygon id="Path" fill="#FFFFFF" fill-rule="nonzero" points="29.3255814 122.301402 28.1453488 149.334112 26.3081395 191.372664 24.377907 235.426402 44.3372093 235.426402 41.7267442 108.498832"></polygon>
                    <path d="M36,113.265187 C36,113.265187 36.6162791,112.587617 37.5174419,111.547897 C37.5174419,111.547897 36.9360465,112.207944 36,113.165888 L36,113.265187 Z" id="Path"></path>
                    <path d="M37.5174419,111.565421 C39.290843,109.547497 40.9355911,107.419038 42.4418605,105.192757 L42.244186,104.386682 L42.122093,103.866822 L36.9302326,103.866822 L36.0290698,103.866822 L36.0290698,113.212617 C36.9186047,112.207944 37.5174419,111.565421 37.5174419,111.565421 Z" id="Path"></path>
                    <path d="M41.7209302,107.114486 L41.7209302,97.8212617 L30.5872093,96.8983645 L29.7209302,116.582944 C29.7209302,116.582944 29.2848837,116.904206 28.5581395,117.464953 C30.3837209,116.220794 32.6918605,114.667056 34.5348837,113.481308 C36.9244186,111.945093 39.9418605,108.966121 41.7209302,107.114486 Z" id="Path" fill="#FFFFFF" fill-rule="nonzero"></path>
                    <polygon id="Path" points="42.0930233 103.866822 36.9011628 103.837617 36 103.831776 36 103.872664 42.2151163 104.386682"></polygon>
                    <path d="M37.5174419,111.565421 C39.290843,109.547497 40.9355911,107.419038 42.4418605,105.192757 L42.244186,104.386682 L36.0290698,103.872664 L36.0290698,113.265187 C36.0290698,113.265187 36.627907,112.587617 37.5174419,111.565421 Z" id="Path"></path>
                    <path d="M61.4476744,95.146028 L60.1802326,95.8761682 L58.9709302,96.3726636 L57.5697674,96.728972 L57.505814,96.728972 L54.7034884,97.4474299 C54.7034884,97.4474299 52.5988372,102.067757 51.5930233,102.704439 C50.9593023,103.113318 48.8197674,102.39486 48.3313953,102.120327 L50.1860465,99.8306075 C50.1860465,99.8306075 49.6686047,96.3259346 45.0697674,96.7464953 L43.3604651,99.3808411 C43.3604651,99.3808411 41.377907,96.1331776 41.4651163,95.6775701 C41.5523256,95.2219626 38.7325581,92.2371495 38.2965116,87.8563084 C37.8604651,83.4754673 40.0116279,74.9182243 51.1802326,77.2429907 C51.1802326,77.2429907 47.5697674,77.5934579 46.1046512,83.5747664 C44.6395349,89.5560748 53.4883721,93.8551402 61.4476744,95.146028 Z" id="Path" fill="#3087DF" fill-rule="nonzero"></path>
                    <polygon id="Path" fill="#3087DF" fill-rule="nonzero" points="28.8139535 129.450935 39.4418605 118.352804 38.5116279 112.079439 29.4825581 122.55257"></polygon>
                    <path d="M36.3953488,88.5280374 L36.3953488,87.0969626 L42.4883721,93.125 L41.994186,97.114486 L41.994186,107.155374 C40.231067,108.835813 38.3837012,110.424719 36.4593023,111.915888 C36.5930233,98.1775701 36.627907,88.9836449 36.3953488,88.5280374 Z" id="Path" fill="#3087DF" fill-rule="nonzero"></path>
                    <path d="M44.3372093,249.702103 L34.4069767,249.702103 C34.6569767,235.946262 36.8197674,154.544393 37.3139535,113.265187 L41.6860465,109.053738 L44.3372093,249.702103 Z" id="Path" fill="#3087DF" fill-rule="nonzero"></path>
                    <path d="M99.2732558,128.796729 C97.7383721,129.561916 59.5930233,96.1156542 59.5930233,96.1156542 L58.8139535,95.7242991 C61.0612215,95.2913943 63.1689821,94.3128018 64.9534884,92.8738318 C70.1395349,94.9649533 74.0348837,99.614486 75.8372093,102.955607 C77.6395349,106.296729 87.75,114.929907 87.75,114.929907 L97.2848837,124.339953 C97.2848837,124.339953 100.802326,128.025701 99.2732558,128.796729 Z" id="Path" fill="#3087DF" fill-rule="nonzero"></path>
                    <path d="M38.5755814,84.4742991 C38.5755814,84.4742991 10.1569767,82.7920561 7.11627907,84.2114486 C4.0755814,85.6308411 4.15697674,92.7570093 5.08139535,95.3095794 L41.4360465,97.4474299 L41.4360465,95.7593458 L41.5232558,95.3037383 C41.5232558,95.3037383 37.7906977,92.6577103 38.5755814,84.4742991 Z" id="Path" fill="#3087DF" fill-rule="nonzero"></path>
                    <path d="M47.3081395,97.114486 C47.3081395,97.114486 42.9883721,110.198598 35.1395349,113.417056 C20.8023256,119.304907 14.9069767,131.705607 3.23255814,145.765187 C3.23255814,145.765187 11.5406977,131.933411 16.1686047,124.567757 C23.0116279,113.662383 30.3488372,110.549065 33.75,108.498832 C38.4486702,105.632687 42.3441457,101.612472 45.0697674,96.8165888 L47.3081395,97.114486 Z" id="Path" fill="#3087DF" fill-rule="nonzero"></path>
                    <path d="M51.2267442,56.2266355 C54.1337209,66.2266355 52.9709302,72.5350467 52.9709302,72.5350467 L48.8372093,72.5350467 L48.8372093,72.3831776 L49.872093,72.1904206 C49.872093,72.1904206 51.1104651,69.4158879 47.8895349,63.0665888 C46.3488372,60.0292056 45.8139535,60.8936916 45.1744186,51.9684579 C44.5348837,43.0432243 52.3837209,11.4778037 57.3837209,2.75116822 C57.994186,1.57126168 45.8197674,37.6226636 51.2267442,56.2266355 Z" id="Path" fill="#3087DF" fill-rule="nonzero"></path>
                    <path d="M47.3081395,76.7932243 C43.9651163,76.9158879 41.3953488,77.6985981 39.8023256,80.8820093 C37.4767442,85.5549065 37.7034884,91.7932243 41.5465116,95.286215" id="Path" stroke="#263238" stroke-width="1.02126861" stroke-linecap="round" stroke-linejoin="round"></path>
                    <path d="M54.7034884,97.4707944 C60.9476744,96.2324766 66.5,92.7978972 66.7267442,89.6203271 C66.9534884,86.442757 63.2383721,82.3422897 58.1802326,79.5969626" id="Path" stroke="#263238" stroke-width="1.02126861" stroke-linecap="round" stroke-linejoin="round"></path>
                    <path d="M58.6569767,79.8598131 L57.8953488,72.5350467 L47.9709302,72.5350467 L47.3081395,76.7932243 C47.3081395,76.7932243 49.1976744,76.728972 52.9825581,77.7570093" id="Path" stroke="#263238" stroke-width="1.02126861" stroke-linecap="round" stroke-linejoin="round"></path>
                    <path d="M50.1162791,72.5350467 C50.1162791,72.5350467 50.8953488,68.6331776 46.6802326,61.1273364 C42.4651163,53.6214953 46.6337209,35.9170561 50.1686047,23.1600467 C53.7034884,10.4030374 56.6744186,1.20327103 59.6453488,0.636682243 C62.6162791,0.0700934579 57.1453488,33.0724299 56.8313953,47.3656542 C56.5174419,61.6588785 55.4011628,65.2511682 55.9883721,72.5116822" id="Path" stroke="#263238" stroke-width="1.02126861" stroke-linecap="round" stroke-linejoin="round"></path>
                    <path d="M50.1860465,99.8831776 C50.1860465,99.8831776 48.1744186,95.7943925 45.0697674,96.7990654 C42.4476744,100.57243 39.3313953,104.859813 35.3430233,107.470794 C31.1569767,110.216121 26.7616279,112.219626 23.1802326,115.73014 C19.7846865,119.204831 16.853146,123.108255 14.4593023,127.34229 C10.25,134.450935 6.76744186,142.03271 1.15697674,148.247664 C0.686046512,148.773364 0.168604651,149.491822 0.546511628,150.081776 C0.924418605,150.671729 2.0755814,150.525701 2.81395349,150.163551 C7.4127907,147.885514 10.2267442,143.609813 13.4418605,139.976636 C15.994186,137.096963 18.5290698,134.205607 21.0813953,131.325935 C26.9476744,124.719626 32.8372093,118.136682 38.8255814,111.635514 C41.0872093,109.176402 43.3662791,106.723131 45.6918605,104.310748 C46.0174419,103.971963 50.2906977,100.116822 50.1860465,99.8831776 Z" id="Path" stroke="#263238" stroke-width="1.02126861" stroke-linecap="round" stroke-linejoin="round"></path>
                    <path d="M42.6337209,98.4579439 C42.6337209,98.4579439 41.5116279,96.6063084 41.4709302,95.7418224 C41.4302326,94.8773364 43.3662791,92.1203271 43.3662791,92.1203271" id="Path" stroke="#263238" stroke-width="1.02126861" stroke-linecap="round" stroke-linejoin="round"></path>
                    <path d="M49.1976744,102.348131 C49.1976744,102.348131 51.1104651,103.241822 51.8372093,102.348131 C52.5639535,101.454439 55,96.921729 55,96.921729 C55,96.921729 51.6976744,92.6635514 49.1860465,92.1203271" id="Path" stroke="#263238" stroke-width="1.02126861" stroke-linecap="round" stroke-linejoin="round"></path>
                    <path d="M59.3895349,96.1098131 C66.9069767,102.751168 96.9709302,128.820093 98.9244186,128.820093 C101.139535,128.820093 98.0116279,125.128505 96.3837209,123.23014 C94.755814,121.331776 79.2616279,108.726636 74.9825581,101.682243 C72.5246664,97.7835308 68.9111616,94.757865 64.6511628,93.0315421" id="Path" stroke="#263238" stroke-width="1.02126861" stroke-linecap="round" stroke-linejoin="round"></path>
                    <path d="M42.0872093,97.4707944 L33.7906977,96.9626168 L29.3837209,96.6939252 L18.9883721,96.1098131 L14.622093,95.8528037 L5.08139535,95.2686916 C5.08139535,95.2686916 3.45348837,86.5070093 7.11627907,84.1705607 C9.59302326,82.6051402 17.0930233,80.4205607 22.8139535,79.1238318 C24.8788185,78.6062748 26.9798192,78.2469866 29.0988372,78.0490654 C30.393595,78.0335137 31.6882158,78.0900646 32.9767442,78.2184579 C34.8197674,78.3820093 36.7965116,78.6214953 38.3837209,78.8317757 C39.122093,78.9193925 40.377907,78.942757 40.8837209,79.0186916" id="Path" stroke="#263238" stroke-width="1.02126861" stroke-linecap="round" stroke-linejoin="round"></path>
                    <path d="M30.2325581,110.426402 L30.8023256,97.2897196" id="Path" stroke="#263238" stroke-width="1.02126861" stroke-linecap="round" stroke-linejoin="round"></path>
                    <path d="M41.7267442,108.498832 C42.1860465,147.926402 44.3372093,249.702103 44.3372093,249.702103 L24.3837209,249.702103 L29.3255814,122.301402" id="Path" stroke="#263238" stroke-width="1.02126861" stroke-linecap="round" stroke-linejoin="round"></path>
                    <path d="M32.994186,78.271028 C30.5930233,79.0420561 21.25,82.1320093 20.2383721,83.8376168 C18.8313953,86.2149533 18.8953488,93.1834112 18.9883721,96.103972 L14.622093,95.8469626 C14.5406977,92.2721963 14.5813953,85.4848131 16.0174419,83.0841121 C17.1802326,81.682243 20.0290698,80.2803738 22.8313953,79.1588785 C24.8962604,78.6413215 26.997261,78.2820333 29.1162791,78.0841121 C30.4113594,78.0743822 31.7059809,78.1367833 32.994186,78.271028 Z" id="Path" fill="#263238" fill-rule="nonzero"></path>
                    <path d="M40.9011628,79.2172897 C40.9011628,79.2172897 35.2906977,81.7757009 34.3023256,84.521028 C33.4476744,86.7990654 33.7209302,94.4509346 33.8197674,96.9859813 L29.4127907,96.7172897 C29.4127907,93.5280374 29.5,85.9696262 29.9476744,84.0070093 C30.5290698,81.5011682 38.4302326,78.8726636 38.4302326,78.8726636 L40.3197674,79.1296729 L40.9011628,79.2172897 Z" id="Path" fill="#263238" fill-rule="nonzero"></path>
                    <path d="M42.1627907,138.101636 C39.595847,138.672695 36.9860773,139.028282 34.3604651,139.16472 L34.3604651,158.054907 C37.0792755,158.4 39.8380153,158.241621 42.5,157.587617" id="Path" stroke="#263238" stroke-width="1.02126861" stroke-linecap="round" stroke-linejoin="round"></path>
                    <path d="M41.9709302,101.168224 C41.4186047,101.781542 40.8081395,102.412383 40.2790698,102.96729 C36.5086829,101.96177 33.1423211,99.8043337 30.6453488,96.7932243 L41.9360465,97.739486 L41.9709302,101.168224 Z" id="Path" fill="#263238" fill-rule="nonzero"></path>
                </g>
                <g id="freepik--Plants--inject-223" transform="translate(67.000000, 217.000000)">
                    <path d="M85.5874324,36.641746 C85.9825676,33.5407937 86.1685135,27.8322222 83.1062162,24.7195238 C78.7190541,20.2853968 72.1412162,27.4857143 70.4967568,27.4857143 C68.8522973,27.4857143 68.3002703,23.0574603 63.3668919,19.1753968 C58.4335135,15.2933333 52.4018919,20.2853968 49.112973,19.1753968 C45.8240541,18.0653968 51.8556757,0.892698413 42.5351351,0.340634921 C33.2145946,-0.211428571 29.9256757,23.6095238 23.3594595,23.6095238 C16.7932432,23.6095238 15.6833784,19.1753968 9.10554054,23.0574603 C3.95135135,26.0938095 1.15635135,33.5466667 0.185945946,36.641746 L85.5874324,36.641746 Z" id="Path" fill="#3087DF" fill-rule="nonzero"></path>
                    <path d="M85.5874324,36.641746 C85.9825676,33.5407937 86.1685135,27.8322222 83.1062162,24.7195238 C78.7190541,20.2853968 72.1412162,27.4857143 70.4967568,27.4857143 C68.8522973,27.4857143 68.3002703,23.0574603 63.3668919,19.1753968 C58.4335135,15.2933333 52.4018919,20.2853968 49.112973,19.1753968 C45.8240541,18.0653968 51.8556757,0.892698413 42.5351351,0.340634921 C33.2145946,-0.211428571 29.9256757,23.6095238 23.3594595,23.6095238 C16.7932432,23.6095238 15.6833784,19.1753968 9.10554054,23.0574603 C3.95135135,26.0938095 1.15635135,33.5466667 0.185945946,36.641746 L85.5874324,36.641746 Z" id="Path" fill="#000000" fill-rule="nonzero" opacity="0.2"></path>
                    <path d="M18.0541892,36.265873 L12.4816216,27.1098413" id="Path" stroke="#263238" stroke-linecap="round" stroke-linejoin="round"></path>
                    <path d="M39.4495946,36.0250794 L42.3898649,8.0284127" id="Path" stroke="#263238" stroke-linecap="round" stroke-linejoin="round"></path>
                    <path d="M56.4345946,36.265873 L59.3051351,25.6239683" id="Path" stroke="#263238" stroke-linecap="round" stroke-linejoin="round"></path>
                    <path d="M77.3012162,36.265873 L80.1427027,29.3357143" id="Path" stroke="#263238" stroke-linecap="round" stroke-linejoin="round"></path>
                    <polyline id="Path" stroke="#263238" stroke-linecap="round" stroke-linejoin="round" points="18.8560811 27.3565079 15.9158108 32.56 9.05324324 29.8349206"></polyline>
                    <polyline id="Path" stroke="#263238" stroke-linecap="round" stroke-linejoin="round" points="37.9794595 10.2601587 41.4078378 16.4561905 46.0681081 10.7534921"></polyline>
                    <polyline id="Path" stroke="#263238" stroke-linecap="round" stroke-linejoin="round" points="36.0154054 20.1738095 40.4316216 25.6239683 44.842027 22.1530159"></polyline>
                    <path d="M58.0790541,30.328254 L63.9595946,26.8631746" id="Path" stroke="#263238" stroke-linecap="round" stroke-linejoin="round"></path>
                    <path d="M57.5909459,32.3133333 L54.6448649,24.6314286" id="Path" stroke="#263238" stroke-linecap="round" stroke-linejoin="round"></path>
                    <path d="M78.6725676,33.0533333 L77.1966216,28.0965079" id="Path" stroke="#263238" stroke-linecap="round" stroke-linejoin="round"></path>
                    <path d="M78.1786486,34.045873 L82.345,32.3133333" id="Path" stroke="#263238" stroke-linecap="round" stroke-linejoin="round"></path>
                </g>
                <g id="freepik--Clouds--inject-223" transform="translate(1.000000, 38.000000)" stroke="#263238">
                    <path d="M214.622,32.0831034 L238.661902,32.0831034 C238.661902,32.0831034 239.827756,28.5189655 235.566561,26.18 C231.305366,23.8410345 229.35839,25.7872414 227.807805,23.8351724 C226.25722,21.8831034 232.074829,16.8006897 220.43961,11.7417241 C220.43961,11.7417241 219.658488,0.779655172 203.750415,0.422068966 C187.842341,0.0644827586 192.091878,11.3841379 187.848171,14.1275862 C183.604463,16.8710345 182.397805,12.5624138 178.142439,15.3 C173.887073,18.0375862 175.810732,23.5068966 172.313171,24.2689655 C168.81561,25.0310345 164.152195,20.7517241 159.896829,23.4951724 C155.641463,26.2386207 155.623976,28.5658621 153.682829,28.5658621 C151.741683,28.5658621 147.853561,27.0006897 145.521854,28.5658621 C143.190146,30.1310345 140.473707,32.0831034 140.473707,32.0831034 L209.707927,32.0831034" id="Path"></path>
                    <path d="M0.635390244,102 L55.6520244,102 C55.6520244,102 54.1422439,100.903793 52.819,100.030345 C51.4957561,99.1568966 49.321439,100.030345 48.2371951,100.030345 C47.1529512,100.030345 47.1354634,98.7172414 44.7396341,97.1872414 C42.3438049,95.6572414 39.738122,98.0431034 37.7853171,97.6268966 C35.8325122,97.2106897 36.9050976,94.1096552 34.5267561,92.5972414 C32.1484146,91.0848276 31.483878,93.4765517 29.0880488,91.9406897 C26.6922195,90.4048276 29.0880488,84.067931 20.1750976,84.2672414 C11.2621463,84.4665517 10.8482683,90.61 10.8482683,90.61 C4.32531707,93.4472414 7.58970732,96.2962069 6.71531707,97.3865517 C5.84092683,98.4768966 4.75668293,97.3865517 2.3725122,98.6937931 C-0.0116585366,100.001034 0.635390244,102 0.635390244,102 Z" id="Path"></path>
                </g>
                <g id="freepik--Wind--inject-223" transform="translate(159.000000, 101.000000)" stroke="#263238" stroke-linecap="round" stroke-linejoin="round">
                    <path d="M25.3810526,0.0404444444 C30.1419503,-0.052942225 34.892632,0.516843553 39.4957895,1.73333333 C45.9626316,3.432 52.1631579,6.24577778 58.7863158,7.14711111 C65.4094737,8.04844444 72.9357895,6.56933333 77,1.28844444" id="Path"></path>
                    <path d="M0.370526316,8.84577778 C6.07894737,4.004 13.2,1.28844444 20.6336842,0.375555556" id="Path"></path>
                    <path d="M65.6584211,15.6 C70.1105263,15.0222222 74.3136842,13.1964444 77,9.69511111" id="Path"></path>
                    <path d="M0.370526316,17.2524444 C10.8726316,8.34311111 26.1684211,6.62711111 39.4957895,10.1342222 C45.9626316,11.8328889 52.1631579,14.6466667 58.7863158,15.548 C60.0275523,15.7181516 61.2792228,15.8011703 62.5321053,15.7964444" id="Path"></path>
                    <path d="M50.0615789,21.8573333 C52.9046652,22.803143 55.8235256,23.5048058 58.7863158,23.9546667 C65.4210526,24.8444444 72.9473684,23.3942222 77,18.096" id="Path"></path>
                    <path d="M30.3947368,16.9982222 C33.4684839,17.2402722 36.5143341,17.7565566 39.4957895,18.5408889 C42.4657895,19.3208889 45.3778947,20.3377778 48.2957895,21.2911111" id="Path"></path>
                    <path d="M0.370526316,25.6591111 C6.84315789,20.1702222 15.1336842,17.4084444 23.6615789,16.9231111" id="Path"></path>
                </g>
            </g>
        </g>
    </g>
</svg>