<?xml version="1.0" encoding="UTF-8"?>
<svg width="255px" height="225px" viewBox="0 0 255 225" version="1.1" xmlns="http://www.w3.org/2000/svg" xmlns:xlink="http://www.w3.org/1999/xlink">
    <!-- Generator: Sketch 57.1 (83088) - https://sketch.com -->
    <title>Group 31</title>
    <desc>Created with Sketch.</desc>
    <g id="Leaftech-webdesign" stroke="none" stroke-width="1" fill="none" fill-rule="evenodd">
        <g id="Labs---UI" transform="translate(-355.000000, -1422.000000)">
            <g id="Wind-Profile-analysis" transform="translate(355.000000, 1409.000000)">
                <g id="Group-31" transform="translate(0.000000, 13.000000)">
                    <g id="freepik--background-simple--inject-2" transform="translate(16.000000, 40.000000)" fill-rule="nonzero">
                        <g id="Group-30">
                            <path d="M186.078413,15.8372198 C186.078413,15.8372198 164.703144,-4.68136741 133.131294,0.991655856 C101.559444,6.66467912 85.8515097,31.0459956 66.2902499,47.1137962 C56.0474521,55.5080258 42.0842019,57.7507149 30.3566894,63.8964901 C-7.14246507,83.4926345 -7.81838575,134.630558 16.9364867,156.013935 C38.3464184,174.520444 67.2839111,178.682967 106.568189,169.631497 C145.852468,160.580027 173.836739,155.512357 201.358842,122.494669 C228.880945,89.4769822 212.173573,43.4297903 186.078413,15.8372198 Z" id="Path" fill="#D0E1F5"></path>
                            <path d="M36.0377694,65.1823923 C36.4033896,63.9439938 37.509622,63.071116 38.7979903,63.0044273 C39.0663018,63.0017526 39.3320436,63.0569335 39.5771518,63.166219 C40.2238711,62.2715003 41.2434623,61.7214859 42.3456617,61.6727573 C42.9027257,61.63899 43.4472387,61.8475596 43.8394749,62.2449458 C44.2317111,62.6423319 44.4334896,63.1898523 44.3930327,63.7470097 C45.5659194,63.8258313 46.2497579,64.8131754 45.9347777,66.0245388 C45.5604728,67.3220575 44.4058785,68.2396367 43.0585115,68.310365 L35.7973898,68.310365 C35.3935819,68.3289416 35.0071707,68.1444776 34.7674362,67.8186883 C34.5277017,67.492899 34.4663025,67.0688072 34.6037808,66.6882996 C34.8126489,65.9850693 35.3460399,65.4249272 36.0377694,65.1823923 L36.0377694,65.1823923 Z" id="Path" fill="#FFFFFF"></path>
                        </g>
                    </g>
                    <g id="freepik--background-simple--inject-2-copy" transform="translate(213.000000, 70.000000)" fill-rule="nonzero">
                        <g id="Group-30">
                            <path d="M22.3342683,4.27993548 C22.7490682,2.86034348 24.0041005,1.85975253 25.4657678,1.78330645 C25.77017,1.78024036 26.0716568,1.84349489 26.3497346,1.96877032 C27.0834444,0.94314291 28.2401814,0.312654303 29.490638,0.256796129 C30.1226331,0.218088281 30.7403887,0.457174271 31.1853848,0.912703073 C31.6303809,1.36823188 31.8593007,1.99586149 31.813402,2.63453806 C33.1440541,2.72489226 33.9198761,3.85669742 33.5625278,5.24529871 C33.1378749,6.73266094 31.8279756,7.78449358 30.2993737,7.86557032 L22.0615551,7.86557032 C21.6034308,7.88686494 21.1650433,7.6754115 20.893062,7.30195509 C20.6210807,6.92849868 20.5514227,6.44235688 20.7073932,6.00617613 C20.9443562,5.20005431 21.549494,4.55795624 22.3342683,4.27993548 L22.3342683,4.27993548 Z" id="Path" fill="#D0E1F5"></path>
                            <path d="M3.39290636,44.1902344 C4.21654685,41.3531139 6.70858077,39.3533865 9.61091603,39.2006055 C10.2153471,39.1944778 10.8139894,39.3208949 11.36615,39.5712636 C12.8230286,37.5214997 15.119884,36.261439 17.6028324,36.1498038 C18.8577428,36.0724444 20.0843789,36.5502688 20.9679779,37.4606643 C21.851577,38.3710597 22.3061278,39.6254066 22.2149897,40.9018313 C24.857177,41.0824084 26.3976749,43.3443735 25.6881122,46.1195575 C24.8449073,49.0921199 22.2439276,51.1942562 19.2086847,51.3562918 L2.85139801,51.3562918 C1.94173118,51.3988501 1.0712543,50.9762506 0.53119916,50.2298806 C-0.00885598087,49.4835107 -0.147171232,48.5119338 0.162528958,47.6402063 C0.633050671,46.0291345 1.83463233,44.7458717 3.39290636,44.1902344 L3.39290636,44.1902344 Z" id="Path-Copy-44" fill="#FFFFFF"></path>
                        </g>
                    </g>
                    <g id="freepik--Tree--inject-2" transform="translate(113.000000, 0.000000)" stroke="#263238" stroke-linecap="round" stroke-linejoin="round">
                        <path d="M81.3533668,217.065779 C85.2568189,210.193572 93.3939245,194.422739 94.5909045,190.228931 C99.7444048,172.179109 96.8315568,155.656445 94.5909045,147.57426 C92.3502523,139.492075 86.1825621,126.364398 76.1173162,109.653776 C66.0520704,92.9431539 57.9267576,69.7832301 54.3004388,62.8111709 C50.67412,55.8391117 15.672773,36.8847434 7.83638649,32.4207459 L0,27.9626221" id="Path" stroke-width="0.8505"></path>
                        <path d="M133.121739,16.1140534 C133.121739,16.1140534 117.553343,32.0221134 109.215849,42.6274867 C100.878355,53.2328599 78.9221739,97.8883009 78.9221739,97.8883009 C78.9221739,97.8883009 92.2656771,119.099047 97.8220547,130.809637 C103.378432,142.520227 109.496888,158.710469 109.496888,173.225251 C109.496888,187.740033 109.772072,201.69045 109.772072,208.662718 C109.772072,211.702063 110.773274,214.900136 111.903286,217.539721" id="Path" stroke-width="0.8505"></path>
                        <path d="M88.4308696,18.2454893 L87.4324501,68.6054767 L86.6112648,69.8910388 L73.9567409,90.0491221 C73.9567409,90.0491221 71.3868446,86.039812 66.4124706,75.2915737 C60.6700816,62.8762137 52.0210512,42.4187529 52.304626,39.9122003 C52.5882007,37.4056477 75.3864303,14.2714001 76.7924886,12.3225115" id="Path" stroke-width="0.8505"></path>
                        <path d="M3.80347826,27.4340328 C3.80347826,27.4340328 44.9253173,50.6130965 47.7186323,51.1788753 C50.5119472,51.7446541 32.8975624,17.5358817 32.8975624,17.5358817" id="Path" stroke-width="0.567"></path>
                        <path d="M37.083913,16.7396145 C37.083913,16.7396145 47.7315069,31.7044827 49.1571014,33.1141305 C50.5826959,34.5237783 72.7415217,11.374626 72.7415217,11.374626" id="Path" stroke-width="0.567"></path>
                        <polyline id="Path" stroke-width="0.567" points="109.825435 3.31759924 113.476428 31.2802214 134.548043 10.5865851"></polyline>
                        <polyline id="Path" stroke-width="0.567" points="90.8080435 14.7057291 94.1830619 57.3470725 109.825435 33.1654893 107.647231 0"></polyline>
                        <path d="M103.691403,218.96155 C103.691403,218.96155 103.194288,215.355018 105.446648,206.931906 C107.699007,198.508794 109.196488,183.350735 107.944496,172.041218" id="Path" stroke-width="0.567"></path>
                        <path d="M105.915693,178.202473 C106.198765,183.269099 105.915974,188.347033 105.071087,193.368641" id="Path" stroke-width="0.567"></path>
                        <path d="M103.169348,190.524985 C103.059178,194.772294 102.444474,198.995427 101.33636,203.11796 C99.5097818,209.895594 97.9395652,212.800294 97.9395652,212.800294" id="Path" stroke-width="0.567"></path>
                        <path d="M103.169348,146.922252 C103.169348,146.922252 106.261132,157.910467 106.972826,163.036305" id="Path" stroke-width="0.567"></path>
                        <path d="M103.644783,164.458134 C103.644783,164.458134 104.356476,171.516361 104.595652,173.463046" id="Path" stroke-width="0.567"></path>
                        <path d="M96.5132609,129.38637 L86.0536957,110.42866" id="Path" stroke-width="0.567"></path>
                        <path d="M87.9554348,118.485687 L78.9221739,103.793462" id="Path" stroke-width="0.567"></path>
                    </g>
                    <g id="freepik--Leaves--inject-2" transform="translate(61.000000, 8.000000)" fill-rule="nonzero">
                        <path d="M61.162681,92.4784264 C61.5920715,93.5915519 62.5144388,94.4029986 63.6215471,94.6415978 C65.4431382,94.9720823 67.8004914,93.656153 67.8004914,93.656153 C66.7047693,92.6933755 65.4554453,91.9484403 64.1121923,91.4569288 C63.0279197,91.2025744 61.8993641,91.5934246 61.162681,92.4784264 L61.162681,92.4784264 Z" id="Path" fill="#4788D8"></path>
                        <path d="M80.1278534,41.7827464 C80.1278534,41.7827464 77.732051,39.6010054 74.4977176,40.4355213 C71.2633843,41.2700373 68.2746207,44.7553686 68.2746207,44.7553686 C68.2746207,44.7553686 72.7188343,45.8462392 75.9831152,45.3008039 C79.247396,44.7553686 80.1278534,41.7827464 80.1278534,41.7827464 Z" id="Path" fill="#4788D8"></path>
                        <path d="M120.902974,127.008107 C120.902974,127.008107 118.508382,124.826366 115.275682,125.660882 C112.042982,126.495398 109.049741,129.980729 109.049741,129.980729 C109.049741,129.980729 113.497697,131.0716 116.754343,130.526165 C120.010988,129.980729 120.902974,127.008107 120.902974,127.008107 Z" id="Path" fill="#4788D8"></path>
                        <path d="M58.037992,35.9840412 C58.037992,35.9840412 55.1633235,37.0734302 54.6188787,40.3298833 C54.0744339,43.5863365 56.0725463,47.8208969 56.0725463,47.8208969 C56.0725463,47.8208969 58.7947703,44.3945928 59.5787708,41.2669922 C60.3627713,38.1393915 58.037992,35.9840412 58.037992,35.9840412 Z" id="Path" fill="#4788D8"></path>
                        <path d="M74.6524394,148.670907 C74.6524394,148.670907 71.7679133,149.766153 71.2161385,153.016749 C70.6643636,156.267346 72.6529384,160.507763 72.6529384,160.507763 C72.6529384,160.507763 75.3844971,157.081459 76.171186,153.953858 C76.9578749,150.826257 74.6524394,148.670907 74.6524394,148.670907 Z" id="Path" fill="#4788D8"></path>
                        <path d="M114.265164,36.1349934 C114.69419,37.2481189 115.615774,38.0595656 116.721942,38.2981648 C118.541987,38.6286493 120.902974,37.31272 120.902974,37.31272 C119.805728,36.3505053 118.55572,35.6056676 117.212171,35.1134958 C116.128819,34.8591415 115.001221,35.2499916 114.265164,36.1349934 Z" id="Path" fill="#4788D8"></path>
                        <path d="M88.662181,30.9264503 C89.0904913,32.0382023 90.0104266,32.8494894 91.1154075,33.0899404 C92.9426382,33.4204736 95.2999914,32.1043505 95.2999914,32.1043505 C94.2025748,31.1408055 92.9512932,30.3957324 91.6060527,29.9048022 C90.5235173,29.6514189 89.3970816,30.0423398 88.662181,30.9264503 Z" id="Path" fill="#4788D8"></path>
                        <path d="M36.0338276,148.35113 C36.4621378,149.462133 37.3820731,150.272875 38.487054,150.513164 C40.3142847,150.837469 42.6716379,149.528237 42.6716379,149.528237 C42.6716379,149.528237 40.7372548,147.810621 38.9776993,147.324164 C37.8942494,147.075037 36.768859,147.467628 36.0338276,148.35113 Z" id="Path" fill="#4788D8"></path>
                        <path d="M124.696009,20.5208701 C124.696009,20.5208701 125.611913,23.6514873 128.859211,24.431232 C132.106509,25.2109768 136.549241,23.3314428 136.549241,23.3314428 C136.549241,23.3314428 133.254364,20.2299206 130.137909,19.1999592 C127.021455,18.1699977 124.696009,20.5208701 124.696009,20.5208701 Z" id="Path" fill="#4788D8"></path>
                        <path d="M76.334819,13.4339453 C76.334819,13.4339453 77.2507236,16.5526165 80.4980216,17.3293859 C83.7453197,18.1061553 88.1880517,16.23959 88.1880517,16.23959 C88.1880517,16.23959 84.8872267,13.1209188 81.7945619,12.0948876 C78.7018971,11.0688564 76.334819,13.4339453 76.334819,13.4339453 Z" id="Path" fill="#4788D8"></path>
                        <path d="M146.995248,6.57588666 C146.995248,6.57588666 146.649017,9.88230427 149.265614,11.85664 C151.88221,13.8309757 156.462672,13.7298802 156.462672,13.7298802 C156.462672,13.7298802 154.703139,9.56712417 152.330607,7.39059748 C149.958075,5.21407078 146.995248,6.57588666 146.995248,6.57588666 Z" id="Path" fill="#4788D8"></path>
                        <path d="M37.4562155,66.9105904 C37.4562155,66.9105904 36.7858278,63.8150152 33.6554084,62.8321135 C30.5249891,61.8492119 26.0771121,63.3518087 26.0771121,63.3518087 C26.0771121,63.3518087 29.0676244,66.5886054 32.0348189,67.8031103 C35.0020134,69.0176152 37.4562155,66.9105904 37.4562155,66.9105904 Z" id="Path" fill="#4788D8"></path>
                        <path d="M135.126853,4.88653642 C135.126853,4.88653642 134.461955,1.78792507 131.329931,0.80585153 C128.197907,-0.176222012 123.74775,1.33075291 123.74775,1.33075291 C123.74775,1.33075291 126.733963,4.56482267 129.70851,5.77830435 C132.683058,6.99178602 135.126853,4.88653642 135.126853,4.88653642 Z" id="Path" fill="#4788D8"></path>
                        <path d="M36.5079569,40.8637224 C36.5079569,40.8637224 35.8375691,37.7716051 32.7071498,36.7898014 C29.5767305,35.8079978 25.1288534,37.3145586 25.1288534,37.3145586 C25.1288534,37.3145586 28.1193658,40.5420971 31.0865603,41.7608878 C34.0537548,42.9796786 36.5079569,40.8637224 36.5079569,40.8637224 Z" id="Path" fill="#4788D8"></path>
                        <path d="M36.5079569,40.8637224 C36.5079569,40.8637224 35.8375691,37.7716051 32.7071498,36.7898014 C29.5767305,35.8079978 25.1288534,37.3145586 25.1288534,37.3145586 C25.1288534,37.3145586 28.1193658,40.5420971 31.0865603,41.7608878 C34.0537548,42.9796786 36.5079569,40.8637224 36.5079569,40.8637224 Z" id="Path" fill="#000000" opacity="0.3"></path>
                        <path d="M112.842776,82.0559801 C112.842776,82.0559801 112.177877,78.9638628 109.045853,77.9820592 C105.913829,77.0002555 101.463672,78.5068163 101.463672,78.5068163 C101.463672,78.5068163 104.449885,81.7343548 107.424433,82.9531455 C110.398981,84.1719363 112.842776,82.0559801 112.842776,82.0559801 Z" id="Path" fill="#4788D8"></path>
                        <path d="M112.842776,82.0559801 C112.842776,82.0559801 112.177877,78.9638628 109.045853,77.9820592 C105.913829,77.0002555 101.463672,78.5068163 101.463672,78.5068163 C101.463672,78.5068163 104.449885,81.7343548 107.424433,82.9531455 C110.398981,84.1719363 112.842776,82.0559801 112.842776,82.0559801 Z" id="Path" fill="#000000" opacity="0.3"></path>
                        <path d="M78.7048748,62.5990527 C78.7048748,62.5990527 75.692092,61.1689356 72.8540506,62.8237071 C70.0160092,64.4784786 68.2746207,68.6537629 68.2746207,68.6537629 C68.2746207,68.6537629 72.9022551,68.4893816 75.8608078,67.0921408 C78.8193605,65.6949 78.7048748,62.5990527 78.7048748,62.5990527 Z" id="Path" fill="#4788D8"></path>
                        <path d="M78.7048748,62.5990527 C78.7048748,62.5990527 75.692092,61.1689356 72.8540506,62.8237071 C70.0160092,64.4784786 68.2746207,68.6537629 68.2746207,68.6537629 C68.2746207,68.6537629 72.9022551,68.4893816 75.8608078,67.0921408 C78.8193605,65.6949 78.7048748,62.5990527 78.7048748,62.5990527 Z" id="Path" fill="#000000" opacity="0.3"></path>
                        <path d="M172.10894,115.554995 C172.10894,115.554995 174.857396,117.348529 177.860558,115.926268 C180.863721,114.504007 183.013914,110.357174 183.013914,110.357174 C183.013914,110.357174 178.470668,110.048732 175.420119,111.196822 C172.369569,112.344912 172.10894,115.554995 172.10894,115.554995 Z" id="Path" fill="#4788D8"></path>
                        <path d="M172.10894,115.554995 C172.10894,115.554995 174.857396,117.348529 177.860558,115.926268 C180.863721,114.504007 183.013914,110.357174 183.013914,110.357174 C183.013914,110.357174 178.470668,110.048732 175.420119,111.196822 C172.369569,112.344912 172.10894,115.554995 172.10894,115.554995 Z" id="Path" fill="#000000" opacity="0.3"></path>
                        <path d="M183.013914,30.8031082 C183.013914,30.8031082 185.76237,32.5966419 188.765532,31.1743811 C191.768695,29.7521203 193.918888,25.6052877 193.918888,25.6052877 C193.918888,25.6052877 189.375642,25.2968456 186.325093,26.4449356 C183.274543,27.5930256 183.013914,30.8031082 183.013914,30.8031082 Z" id="Path" fill="#4788D8"></path>
                        <path d="M183.013914,30.8031082 C183.013914,30.8031082 185.76237,32.5966419 188.765532,31.1743811 C191.768695,29.7521203 193.918888,25.6052877 193.918888,25.6052877 C193.918888,25.6052877 189.375642,25.2968456 186.325093,26.4449356 C183.274543,27.5930256 183.013914,30.8031082 183.013914,30.8031082 Z" id="Path" fill="#000000" opacity="0.3"></path>
                        <path d="M101.937296,5.78482967 C101.937296,5.78482967 98.9546164,4.34856987 96.0803983,6.00958788 C93.2061802,7.67060588 91.5069569,11.8368557 91.5069569,11.8368557 C91.5069569,11.8368557 96.1286032,11.6723984 99.0871799,10.274512 C102.045757,8.87662556 101.937296,5.78482967 101.937296,5.78482967 Z" id="Path" fill="#4788D8"></path>
                        <path d="M101.937296,5.78482967 C101.937296,5.78482967 98.9546164,4.34856987 96.0803983,6.00958788 C93.2061802,7.67060588 91.5069569,11.8368557 91.5069569,11.8368557 C91.5069569,11.8368557 96.1286032,11.6723984 99.0871799,10.274512 C102.045757,8.87662556 101.937296,5.78482967 101.937296,5.78482967 Z" id="Path" fill="#000000" opacity="0.3"></path>
                        <path d="M82.0237799,21.8829534 C82.0237799,21.8829534 79.041125,20.4466936 76.1729557,22.1077116 C73.3047865,23.7687296 71.5935259,27.9349794 71.5935259,27.9349794 C71.5935259,27.9349794 76.2211603,27.7705222 79.179713,26.3726357 C82.1382657,24.9747493 82.0237799,21.8829534 82.0237799,21.8829534 Z" id="Path" fill="#4788D8"></path>
                        <path d="M82.0237799,21.8829534 C82.0237799,21.8829534 79.041125,20.4466936 76.1729557,22.1077116 C73.3047865,23.7687296 71.5935259,27.9349794 71.5935259,27.9349794 C71.5935259,27.9349794 76.2211603,27.7705222 79.179713,26.3726357 C82.1382657,24.9747493 82.0237799,21.8829534 82.0237799,21.8829534 Z" id="Path" fill="#000000" opacity="0.3"></path>
                        <path d="M68.388941,16.5715979 C68.388941,16.5715979 66.1209973,18.9334215 67.0955044,22.0593644 C68.0700114,25.1853074 71.9562274,27.9349794 71.9562274,27.9349794 C71.9562274,27.9349794 72.9897954,23.6049695 72.3105936,20.4732378 C71.6313917,17.3415061 68.388941,16.5715979 68.388941,16.5715979 Z" id="Path" fill="#4788D8"></path>
                        <path d="M68.388941,16.5715979 C68.388941,16.5715979 66.1209973,18.9334215 67.0955044,22.0593644 C68.0700114,25.1853074 71.9562274,27.9349794 71.9562274,27.9349794 C71.9562274,27.9349794 72.9897954,23.6049695 72.3105936,20.4732378 C71.6313917,17.3415061 68.388941,16.5715979 68.388941,16.5715979 Z" id="Path" fill="#000000" opacity="0.3"></path>
                        <path d="M33.663181,12.0224485 C33.663181,12.0224485 33.6934726,15.2937581 36.6923405,16.9060465 C39.6912084,18.5183348 44.5681552,17.8582313 44.5681552,17.8582313 C44.5681552,17.8582313 42.1448276,13.9969175 39.3882925,12.2093804 C36.6317573,10.4218434 33.663181,12.0224485 33.663181,12.0224485 Z" id="Path" fill="#4788D8"></path>
                        <path d="M33.663181,12.0224485 C33.663181,12.0224485 33.6934726,15.2937581 36.6923405,16.9060465 C39.6912084,18.5183348 44.5681552,17.8582313 44.5681552,17.8582313 C44.5681552,17.8582313 42.1448276,13.9969175 39.3882925,12.2093804 C36.6317573,10.4218434 33.663181,12.0224485 33.663181,12.0224485 Z" id="Path" fill="#000000" opacity="0.3"></path>
                        <path d="M36.6530561,26.8440395 C36.6530561,26.8440395 39.8114226,27.6681587 42.1232767,25.3732158 C44.4351309,23.0782729 45.0422845,18.4654948 45.0422845,18.4654948 C45.0422845,18.4654948 40.7104769,19.6101048 38.2526724,21.6704026 C35.7948679,23.7307005 36.6530561,26.8440395 36.6530561,26.8440395 Z" id="Path" fill="#4788D8"></path>
                        <path d="M36.6530561,26.8440395 C36.6530561,26.8440395 39.8114226,27.6681587 42.1232767,25.3732158 C44.4351309,23.0782729 45.0422845,18.4654948 45.0422845,18.4654948 C45.0422845,18.4654948 40.7104769,19.6101048 38.2526724,21.6704026 C35.7948679,23.7307005 36.6530561,26.8440395 36.6530561,26.8440395 Z" id="Path" fill="#000000" opacity="0.3"></path>
                        <path d="M162.593274,41.665732 C162.593274,41.665732 165.367426,40.0939452 165.468304,36.7104042 C165.569182,33.3268633 162.935139,29.3554021 162.935139,29.3554021 C162.935139,29.3554021 160.654169,33.2608722 160.289887,36.5544254 C159.925604,39.8479786 162.593274,41.665732 162.593274,41.665732 Z" id="Path" fill="#4788D8"></path>
                        <path d="M162.593274,41.665732 C162.593274,41.665732 165.367426,40.0939452 165.468304,36.7104042 C165.569182,33.3268633 162.935139,29.3554021 162.935139,29.3554021 C162.935139,29.3554021 160.654169,33.2608722 160.289887,36.5544254 C159.925604,39.8479786 162.593274,41.665732 162.593274,41.665732 Z" id="Path" fill="#000000" opacity="0.3"></path>
                        <path d="M174.479586,32.7637354 C174.479586,32.7637354 173.777101,29.6598795 170.647847,28.7122672 C167.518594,27.7646549 163.100483,29.336443 163.100483,29.336443 C163.100483,29.336443 166.119429,32.548111 169.091929,33.734045 C172.06443,34.9199789 174.479586,32.7637354 174.479586,32.7637354 Z" id="Path" fill="#4788D8"></path>
                        <path d="M174.479586,32.7637354 C174.479586,32.7637354 173.777101,29.6598795 170.647847,28.7122672 C167.518594,27.7646549 163.100483,29.336443 163.100483,29.336443 C163.100483,29.336443 166.119429,32.548111 169.091929,33.734045 C172.06443,34.9199789 174.479586,32.7637354 174.479586,32.7637354 Z" id="Path" fill="#000000" opacity="0.3"></path>
                        <path d="M146.980086,13.950691 C146.980086,13.950691 147.016436,17.2055864 150.009246,18.8039725 C153.002055,20.4023586 157.88506,19.7571919 157.88506,19.7571919 C157.88506,19.7571919 155.516258,15.9094405 152.741548,14.1018111 C149.966837,12.2941817 146.980086,13.950691 146.980086,13.950691 Z" id="Path" fill="#4788D8"></path>
                        <path d="M146.980086,13.950691 C146.980086,13.950691 147.016436,17.2055864 150.009246,18.8039725 C153.002055,20.4023586 157.88506,19.7571919 157.88506,19.7571919 C157.88506,19.7571919 155.516258,15.9094405 152.741548,14.1018111 C149.966837,12.2941817 146.980086,13.950691 146.980086,13.950691 Z" id="Path" fill="#000000" opacity="0.3"></path>
                        <path d="M149.505599,28.2626454 C149.505599,28.2626454 152.842627,29.0928748 155.280751,26.7911355 C157.718874,24.4893962 158.35919,19.8859175 158.35919,19.8859175 C158.35919,19.8859175 153.790786,21.0310615 151.192584,23.0865948 C148.594381,25.1421282 149.505599,28.2626454 149.505599,28.2626454 Z" id="Path" fill="#4788D8"></path>
                        <path d="M149.505599,28.2626454 C149.505599,28.2626454 152.842627,29.0928748 155.280751,26.7911355 C157.718874,24.4893962 158.35919,19.8859175 158.35919,19.8859175 C158.35919,19.8859175 153.790786,21.0310615 151.192584,23.0865948 C148.594381,25.1421282 149.505599,28.2626454 149.505599,28.2626454 Z" id="Path" fill="#000000" opacity="0.3"></path>
                        <path d="M88.662181,34.3100828 C88.662181,34.3100828 88.6924726,37.5649781 91.6913405,39.1633642 C94.6902084,40.7617504 99.5671552,40.1165836 99.5671552,40.1165836 C99.5671552,40.1165836 97.1983525,36.2688323 94.4236424,34.4612029 C91.6489323,32.6535735 88.662181,34.3100828 88.662181,34.3100828 Z" id="Path" fill="#4788D8"></path>
                        <path d="M88.662181,34.3100828 C88.662181,34.3100828 88.6924726,37.5649781 91.6913405,39.1633642 C94.6902084,40.7617504 99.5671552,40.1165836 99.5671552,40.1165836 C99.5671552,40.1165836 97.1983525,36.2688323 94.4236424,34.4612029 C91.6489323,32.6535735 88.662181,34.3100828 88.662181,34.3100828 Z" id="Path" fill="#000000" opacity="0.3"></path>
                        <path d="M91.1757225,48.150283 C91.1757225,48.150283 94.3327218,48.9749559 96.6494108,46.6784709 C98.9660998,44.3819858 99.5671552,39.7718351 99.5671552,39.7718351 C99.5671552,39.7718351 95.2372226,40.9172141 92.7804819,42.9731696 C90.3237411,45.029125 91.1757225,48.150283 91.1757225,48.150283 Z" id="Path" fill="#4788D8"></path>
                        <path d="M91.1757225,48.150283 C91.1757225,48.150283 94.3327218,48.9749559 96.6494108,46.6784709 C98.9660998,44.3819858 99.5671552,39.7718351 99.5671552,39.7718351 C99.5671552,39.7718351 95.2372226,40.9172141 92.7804819,42.9731696 C90.3237411,45.029125 91.1757225,48.150283 91.1757225,48.150283 Z" id="Path" fill="#000000" opacity="0.3"></path>
                        <path d="M119.006457,41.0049371 C119.006457,41.0049371 118.069583,37.8676641 114.808313,37.1081753 C111.547044,36.3486866 107.153224,38.2766196 107.153224,38.2766196 C107.153224,38.2766196 110.456001,41.3671548 113.569031,42.3661747 C116.682061,43.3651945 119.006457,41.0049371 119.006457,41.0049371 Z" id="Path" fill="#4788D8"></path>
                        <path d="M119.006457,41.0049371 C119.006457,41.0049371 118.069583,37.8676641 114.808313,37.1081753 C111.547044,36.3486866 107.153224,38.2766196 107.153224,38.2766196 C107.153224,38.2766196 110.456001,41.3671548 113.569031,42.3661747 C116.682061,43.3651945 119.006457,41.0049371 119.006457,41.0049371 Z" id="Path" fill="#000000" opacity="0.3"></path>
                        <path d="M113.073005,27.4615052 C113.073005,27.4615052 109.791943,27.5159547 108.198284,30.4864794 C106.604626,33.4570041 107.307711,38.3514124 107.307711,38.3514124 C107.307711,38.3514124 111.162958,35.931433 112.961683,33.1666065 C114.760408,30.4017801 113.073005,27.4615052 113.073005,27.4615052 Z" id="Path" fill="#4788D8"></path>
                        <path d="M113.073005,27.4615052 C113.073005,27.4615052 109.791943,27.5159547 108.198284,30.4864794 C106.604626,33.4570041 107.307711,38.3514124 107.307711,38.3514124 C107.307711,38.3514124 111.162958,35.931433 112.961683,33.1666065 C114.760408,30.4017801 113.073005,27.4615052 113.073005,27.4615052 Z" id="Path" fill="#000000" opacity="0.3"></path>
                        <path d="M108.101483,23.0184188 C108.101483,23.0184188 107.164609,19.8755655 103.909269,19.11614 C100.653929,18.3567144 96.24825,20.2844869 96.24825,20.2844869 C96.24825,20.2844869 99.5510267,23.3747646 102.669986,24.3737013 C105.788946,25.3726379 108.101483,23.0184188 108.101483,23.0184188 Z" id="Path" fill="#4788D8"></path>
                        <path d="M108.101483,23.0184188 C108.101483,23.0184188 107.164609,19.8755655 103.909269,19.11614 C100.653929,18.3567144 96.24825,20.2844869 96.24825,20.2844869 C96.24825,20.2844869 99.5510267,23.3747646 102.669986,24.3737013 C105.788946,25.3726379 108.101483,23.0184188 108.101483,23.0184188 Z" id="Path" fill="#000000" opacity="0.3"></path>
                        <path d="M102.167523,8.99601031 C102.167523,8.99601031 98.8841444,9.05650979 97.2952235,12.0209845 C95.7063025,14.9854593 96.3981574,19.8859175 96.3981574,19.8859175 C96.3981574,19.8859175 100.256128,17.4659381 102.056123,14.7071616 C103.856118,11.9483852 102.167523,8.99601031 102.167523,8.99601031 Z" id="Path" fill="#4788D8"></path>
                        <path d="M102.167523,8.99601031 C102.167523,8.99601031 98.8841444,9.05650979 97.2952235,12.0209845 C95.7063025,14.9854593 96.3981574,19.8859175 96.3981574,19.8859175 C96.3981574,19.8859175 100.256128,17.4659381 102.056123,14.7071616 C103.856118,11.9483852 102.167523,8.99601031 102.167523,8.99601031 Z" id="Path" fill="#000000" opacity="0.3"></path>
                        <path d="M128.963172,52.3021034 C128.963172,52.3021034 128.993464,55.5569987 131.992332,57.1553849 C134.9912,58.753771 139.868147,58.1086042 139.868147,58.1086042 C139.868147,58.1086042 137.499344,54.2608529 134.724634,52.4532235 C131.949924,50.6455941 128.963172,52.3021034 128.963172,52.3021034 Z" id="Path" fill="#4788D8"></path>
                        <path d="M128.963172,52.3021034 C128.963172,52.3021034 128.993464,55.5569987 131.992332,57.1553849 C134.9912,58.753771 139.868147,58.1086042 139.868147,58.1086042 C139.868147,58.1086042 137.499344,54.2608529 134.724634,52.4532235 C131.949924,50.6455941 128.963172,52.3021034 128.963172,52.3021034 Z" id="Path" fill="#000000" opacity="0.3"></path>
                        <path d="M131.950843,66.6157778 C131.950843,66.6157778 135.107843,67.4404508 137.424532,65.1439657 C139.741221,62.8474807 140.342276,58.2373299 140.342276,58.2373299 C140.342276,58.2373299 136.012343,59.382709 133.555603,61.4386644 C131.098862,63.4946198 131.950843,66.6157778 131.950843,66.6157778 Z" id="Path" fill="#4788D8"></path>
                        <path d="M131.950843,66.6157778 C131.950843,66.6157778 135.107843,67.4404508 137.424532,65.1439657 C139.741221,62.8474807 140.342276,58.2373299 140.342276,58.2373299 C140.342276,58.2373299 136.012343,59.382709 133.555603,61.4386644 C131.098862,63.4946198 131.950843,66.6157778 131.950843,66.6157778 Z" id="Path" fill="#000000" opacity="0.3"></path>
                        <path d="M172.582478,80.1175991 C172.582478,80.1175991 169.599823,78.687482 166.731654,80.3422535 C163.863485,81.997025 162.152224,86.1723093 162.152224,86.1723093 C162.152224,86.1723093 166.779859,86.007928 169.738411,84.6106872 C172.696964,83.2134464 172.582478,80.1175991 172.582478,80.1175991 Z" id="Path" fill="#4788D8"></path>
                        <path d="M172.582478,80.1175991 C172.582478,80.1175991 169.599823,78.687482 166.731654,80.3422535 C163.863485,81.997025 162.152224,86.1723093 162.152224,86.1723093 C162.152224,86.1723093 166.779859,86.007928 169.738411,84.6106872 C172.696964,83.2134464 172.582478,80.1175991 172.582478,80.1175991 Z" id="Path" fill="#000000" opacity="0.3"></path>
                        <path d="M158.946969,74.8089278 C158.946969,74.8089278 156.680015,77.1707514 157.654096,80.2966943 C158.628178,83.4226373 162.512699,86.1723093 162.512699,86.1723093 C162.512699,86.1723093 163.551719,81.8422994 162.86691,78.7047789 C162.182101,75.5672584 158.946969,74.8089278 158.946969,74.8089278 Z" id="Path" fill="#4788D8"></path>
                        <path d="M158.946969,74.8089278 C158.946969,74.8089278 156.680015,77.1707514 157.654096,80.2966943 C158.628178,83.4226373 162.512699,86.1723093 162.512699,86.1723093 C162.512699,86.1723093 163.551719,81.8422994 162.86691,78.7047789 C162.182101,75.5672584 158.946969,74.8089278 158.946969,74.8089278 Z" id="Path" fill="#000000" opacity="0.3"></path>
                        <path d="M135.94888,35.8899842 C137.754762,38.6295662 138.445759,43.1696157 138.445759,43.1696157 C138.445759,43.1696157 133.870083,42.0211447 131.802899,39.4011951 C129.735715,36.7812456 130.908668,33.6528584 130.908668,33.6528584 C130.908668,33.6528584 134.148804,33.1504023 135.94888,35.8899842 Z M130.972542,43.7139431 C127.929833,44.7786714 127.540784,48.1283786 127.540784,48.1283786 C127.540784,48.1283786 130.153797,50.1262397 133.150052,48.7684119 C136.146307,47.4105842 138.445759,43.1696157 138.445759,43.1696157 C138.445759,43.1696157 134.01525,42.6492148 130.972542,43.7139431 Z" id="Shape" fill="#4788D8"></path>
                        <path d="M150.024958,39.6432994 C146.861682,40.1529745 142.580253,38.982402 142.580253,38.982402 C142.580253,38.982402 145.477025,35.4202774 148.669268,34.6361619 C151.861511,33.8520464 154.092026,36.0979772 154.092026,36.0979772 C154.092026,36.0979772 153.188233,39.1336243 150.024958,39.6432994 Z M145.216315,32.1942022 C145.552341,29.1137485 142.765646,27.4615052 142.765646,27.4615052 C142.765646,27.4615052 139.921016,28.9681271 139.868874,32.1269923 C139.816732,35.2858576 142.586046,38.9599987 142.586046,38.9599987 C142.586046,38.9599987 144.886083,35.3026601 145.216315,32.1942022 Z" id="Shape" fill="#4788D8"></path>
                        <path d="M116.039055,11.8428872 C114.494092,14.7802369 110.865769,17.5185464 110.865769,17.5185464 C110.865769,17.5185464 109.748012,12.759678 111.064742,9.64138282 C112.381472,6.5230876 115.64111,6.15516495 115.64111,6.15516495 C115.64111,6.15516495 117.584018,8.91156905 116.039055,11.8428872 Z M106.933136,10.8718127 C104.592283,8.55570944 101.508209,9.74995016 101.508209,9.74995016 C101.508209,9.74995016 100.981517,13.0853801 103.550604,15.2265692 C106.11969,17.3677584 110.865769,17.5185464 110.865769,17.5185464 C110.865769,17.5185464 109.268137,13.1879159 106.933136,10.8718127 Z" id="Shape" fill="#4788D8"></path>
                        <path d="M89.4878132,28.8879594 C87.9428502,31.8192775 84.314528,34.5636186 84.314528,34.5636186 C84.314528,34.5636186 83.1967707,29.8047502 84.5135005,26.6804235 C85.8302303,23.5560967 89.0898682,23.2002371 89.0898682,23.2002371 C89.0898682,23.2002371 91.0327762,25.9566412 89.4878132,28.8879594 Z M80.3818949,27.9168848 C78.0410419,25.6007816 74.956968,26.7950223 74.956968,26.7950223 C74.956968,26.7950223 74.430276,30.1244207 76.9993623,32.2656099 C79.5684485,34.4067991 84.314528,34.5636186 84.314528,34.5636186 C84.314528,34.5636186 82.7168958,30.232988 80.3818949,27.9168848 Z" id="Shape" fill="#4788D8"></path>
                        <path d="M54.3986382,13.1590225 C56.2045205,15.899466 56.8955172,20.4409433 56.8955172,20.4409433 C56.8955172,20.4409433 52.3198412,19.2921111 50.2468509,16.6713377 C48.1738606,14.0505642 49.3526198,10.9271767 49.3526198,10.9271767 C49.3526198,10.9271767 52.5927559,10.4185791 54.3986382,13.1590225 Z M49.4223001,20.9854419 C46.3795917,22.0505051 45.9905431,25.4012657 45.9905431,25.4012657 C45.9905431,25.4012657 48.5977494,27.3997551 51.599811,26.0415003 C54.6018725,24.6832456 56.8955172,20.4409433 56.8955172,20.4409433 C56.8955172,20.4409433 52.4650086,19.9203787 49.4223001,20.9854419 L49.4223001,20.9854419 Z" id="Shape" fill="#4788D8"></path>
                        <path d="M149.672468,59.6381212 C148.894917,56.4867447 149.771113,52.0759891 149.771113,52.0759891 C149.771113,52.0759891 153.676278,54.7294716 154.738158,57.8574178 C155.800038,60.985364 153.653068,63.4455464 153.653068,63.4455464 C153.653068,63.4455464 150.444217,62.7836402 149.672468,59.6381212 Z M156.97797,54.1847169 C160.192623,54.266723 161.678095,51.3262192 161.678095,51.3262192 C161.678095,51.3262192 159.902492,48.5790155 156.629813,48.7781731 C153.357134,48.9773308 149.788521,52.0759891 149.788521,52.0759891 C149.788521,52.0759891 153.751712,54.0968532 156.97797,54.1847169 Z" id="Shape" fill="#4788D8"></path>
                        <path d="M66.2370369,19.3554371 C63.1495794,18.8709828 59.5484864,16.4025725 59.5484864,16.4025725 C59.5484864,16.4025725 63.3753533,13.8188159 66.5531203,14.0322065 C69.7308873,14.2455972 71.1193966,17.1407887 71.1193966,17.1407887 C71.1193966,17.1407887 69.3301387,19.8341242 66.2370369,19.3554371 Z M64.1147627,10.6006549 C65.390385,7.71699798 63.3245542,5.20821649 63.3245542,5.20821649 C63.3245542,5.20821649 60.2201636,5.78494787 59.1759596,8.87622804 C58.1317555,11.9675082 59.5484864,16.3737359 59.5484864,16.3737359 C59.5484864,16.3737359 62.8391404,13.5131483 64.1147627,10.6006549 Z" id="Shape" fill="#4788D8"></path>
                        <path d="M4.18041146,71.8895917 C7.29719047,71.0401693 11.7155457,71.8251528 11.7155457,71.8251528 C11.7155457,71.8251528 9.15908654,75.8262254 6.0656542,76.9685521 C2.97222185,78.1108788 0.47412931,75.9902518 0.47412931,75.9902518 C0.47412931,75.9902518 1.06363246,72.7390142 4.18041146,71.8895917 Z M9.77193635,79.1184696 C9.77193635,82.3638491 12.7252887,83.8049381 12.7252887,83.8049381 C12.7252887,83.8049381 15.4218279,81.947925 15.1533413,78.6556808 C14.8848547,75.3634366 11.7155457,71.8192947 11.7155457,71.8192947 C11.7155457,71.8192947 9.78944634,75.8906643 9.77193635,79.1184696 Z" id="Shape" fill="#4788D8"></path>
                        <path d="M178.27177,5.25316448 C178.21936,8.53660387 176.251072,12.6334812 176.251072,12.6334812 C176.251072,12.6334812 173.135587,9.01160414 172.902653,5.66878972 C172.66972,2.32597529 175.377572,0.473474227 175.377572,0.473474227 C175.377572,0.473474227 178.330004,1.96972509 178.27177,5.25316448 Z M169.810461,8.69097896 C166.718269,7.76472842 164.522871,10.2644174 164.522871,10.2644174 C164.522871,10.2644174 165.553601,13.4172317 168.773907,14.0762946 C171.994213,14.7353574 176.251072,12.6334812 176.251072,12.6334812 C176.251072,12.6334812 172.902653,9.61129198 169.810461,8.69097896 L169.810461,8.69097896 Z" id="Shape" fill="#4788D8"></path>
                        <path d="M22.7330998,95.1683196 C21.5362532,95.2952661 20.4812428,96.029571 19.9238989,97.1235704 C19.0591057,98.9431968 19.6154376,101.796959 19.6154376,101.796959 C19.6154376,101.796959 21.8187325,100.259883 22.8322481,98.5589279 C23.3992153,97.4934731 23.3613035,96.1969899 22.7330998,95.1683196 L22.7330998,95.1683196 Z" id="Path" fill="#4788D8"></path>
                        <path d="M22.7330998,95.1683196 C21.5362532,95.2952661 20.4812428,96.029571 19.9238989,97.1235704 C19.0591057,98.9431968 19.6154376,101.796959 19.6154376,101.796959 C19.6154376,101.796959 21.8187325,100.259883 22.8322481,98.5589279 C23.3992153,97.4934731 23.3613035,96.1969899 22.7330998,95.1683196 L22.7330998,95.1683196 Z" id="Path" fill="#000000" opacity="0.3"></path>
                        <path d="M122.301317,107.478649 C121.10436,107.60271 120.047857,108.335598 119.488451,109.429913 C118.629729,111.251092 119.180192,114.107289 119.180192,114.107289 C119.180192,114.107289 121.382044,112.568901 122.4004,110.866495 C122.966013,109.801881 122.928126,108.506447 122.301317,107.478649 Z" id="Path" fill="#4788D8"></path>
                        <path d="M122.301317,107.478649 C121.10436,107.60271 120.047857,108.335598 119.488451,109.429913 C118.629729,111.251092 119.180192,114.107289 119.180192,114.107289 C119.180192,114.107289 121.382044,112.568901 122.4004,110.866495 C122.966013,109.801881 122.928126,108.506447 122.301317,107.478649 Z" id="Path" fill="#000000" opacity="0.3"></path>
                        <path d="M6.61719535,154.826072 C5.41871644,154.953019 4.36226728,155.687324 3.80416323,156.781323 C2.9381906,158.600949 3.49528127,161.454711 3.49528127,161.454711 C3.49528127,161.454711 5.70158098,159.917636 6.71647884,158.21668 C7.27724626,157.149527 7.23939467,155.856866 6.61719535,154.826072 Z" id="Path" fill="#4788D8"></path>
                        <path d="M6.61719535,154.826072 C5.41871644,154.953019 4.36226728,155.687324 3.80416323,156.781323 C2.9381906,158.600949 3.49528127,161.454711 3.49528127,161.454711 C3.49528127,161.454711 5.70158098,159.917636 6.71647884,158.21668 C7.27724626,157.149527 7.23939467,155.856866 6.61719535,154.826072 Z" id="Path" fill="#000000" opacity="0.3"></path>
                        <path d="M128.014787,54.8525573 C126.910732,54.2629476 125.611969,54.3233781 124.55691,55.0134498 C122.872878,56.201579 121.851233,59.1842784 121.851233,59.1842784 C121.851233,59.1842784 124.584977,59.0667031 126.341983,58.064219 C127.385539,57.4060645 128.025248,56.1778717 128.014787,54.8525573 Z" id="Path" fill="#4788D8"></path>
                        <path d="M128.014787,54.8525573 C126.910732,54.2629476 125.611969,54.3233781 124.55691,55.0134498 C122.872878,56.201579 121.851233,59.1842784 121.851233,59.1842784 C121.851233,59.1842784 124.584977,59.0667031 126.341983,58.064219 C127.385539,57.4060645 128.025248,56.1778717 128.014787,54.8525573 Z" id="Path" fill="#000000" opacity="0.3"></path>
                    </g>
                    <rect id="Rectangle" fill="#EBEBEB" fill-rule="nonzero" x="0" y="211.940718" width="16" height="1"></rect>
                    <rect id="Rectangle" fill="#EBEBEB" fill-rule="nonzero" x="44" y="209.940718" width="16" height="1"></rect>
                    <rect id="Rectangle" fill="#EBEBEB" fill-rule="nonzero" x="11" y="213.940718" width="26" height="1"></rect>
                    <rect id="Rectangle" fill="#EBEBEB" fill-rule="nonzero" x="168" y="213.940718" width="20" height="1"></rect>
                    <rect id="Rectangle" fill="#EBEBEB" fill-rule="nonzero" x="151" y="210.940718" width="11" height="1"></rect>
                    <rect id="Rectangle" fill="#EBEBEB" fill-rule="nonzero" x="68" y="212.940718" width="44" height="1"></rect>
                    <path d="M17.8594065,127.232372 C18.302955,125.738982 19.650479,124.687187 21.2184557,124.610503 C21.5454427,124.607036 21.8694373,124.672544 22.1689559,124.802682 C22.9562729,123.722714 24.1991975,123.060053 25.5418473,123.004437 C26.2203647,122.96291 26.8838387,123.214404 27.3614303,123.694162 C27.8390219,124.173919 28.0840602,124.835057 28.0334498,125.507338 C29.4592001,125.603427 30.2897342,126.797682 29.9067657,128.25275 C29.4474354,129.813665 28.0422118,130.915271 26.40468,130.998162 L17.5456491,130.998162 C17.0536014,131.022641 16.5818331,130.801368 16.2887619,130.408646 C15.9956907,130.015924 15.9201854,129.503838 16.0876003,129.044344 C16.3507077,128.193351 17.0097735,127.519345 17.8594065,127.232372 L17.8594065,127.232372 Z" id="Path" fill="#FFFFFF" fill-rule="nonzero"></path>
                    <path d="M55.8594065,34.2323718 C56.302955,32.7389819 57.650479,31.687187 59.2184557,31.6105033 C59.5454427,31.6070362 59.8694373,31.6725438 60.1689559,31.8026821 C60.9562729,30.7227138 62.1991975,30.060053 63.5418473,30.0044372 C64.2203647,29.9629104 64.8838387,30.2144044 65.3614303,30.6941616 C65.8390219,31.1739189 66.0840602,31.8350568 66.0334498,32.5073379 C67.4592001,32.6034273 68.2897342,33.7976815 67.9067657,35.2527499 C67.4474354,36.8136649 66.0422118,37.9152707 64.40468,37.998162 L55.5456491,37.998162 C55.0536014,38.0226407 54.5818331,37.8013678 54.2887619,37.4086458 C53.9956907,37.0159237 53.9201854,36.5038377 54.0876003,36.0443438 C54.3507077,35.1933512 55.0097735,34.5193447 55.8594065,34.2323718 L55.8594065,34.2323718 Z" id="Path-Copy-43" fill="#D0E1F5" fill-rule="nonzero"></path>
                    <path d="M13.0261251,76.5019826 C13.9042976,73.2379064 17.2318595,70.6066614 20.4929652,70.6066614 C21.2177652,70.5988744 21.9360154,70.7448107 22.6005793,71.0348929 C24.3854057,68.6558287 27.2620141,67 30.0911538,67 C33.5136533,67 35.75418,69.407613 35.6260143,72.628866 C38.7921824,72.8334655 40.6434651,75.51705 39.7937738,78.814433 C38.9061075,82.2307692 35.4218985,85 32.0136397,85 L12.3805496,85 C9.96438833,85 8.51659034,83.0396511 9.1479252,80.6177637 C9.70169382,78.6985498 11.1461455,77.16561 13.0261251,76.5019826 L13.0261251,76.5019826 Z" id="Path" fill="#D0E1F5" fill-rule="nonzero"></path>
                    <g id="freepik--Kite--inject-58" transform="translate(54.000000, 55.000000)" fill-rule="nonzero">
                        <polygon id="Rectangle" fill="#4788D8" transform="translate(16.932493, 22.642128) rotate(-74.090000) translate(-16.932493, -22.642128) " points="16.9334764 21.017321 16.9334764 21.017321 16.9315101 24.2669357 16.9315101 24.2669357"></polygon>
                        <polygon id="Rectangle" fill="#4788D8" transform="translate(27.207862, 25.576648) rotate(-74.090000) translate(-27.207862, -25.576648) " points="27.2113365 19.833918 27.2113365 19.833918 27.2043866 31.3193788 27.2043866 31.3193788"></polygon>
                        <polyline id="Path" fill="#4788D8" points="9.05739254 18.876332 0.199795424 0.343292727 28.9703364 3.85250727 53.5261454 31.5829309"></polyline>
                        <g id="Group" opacity="0.3" transform="translate(1.902814, 0.953591)" fill="#FFFFFF">
                            <path d="M47.4228709,28.6077273 C47.3464015,28.6065631 47.2713394,28.5869367 47.2040474,28.5505118 L0.551815932,1.21582841 C0.452543099,1.15724098 0.380664732,1.06140872 0.352093953,0.94954791 C0.323523175,0.837687098 0.340616933,0.719025691 0.399590847,0.619834091 C0.456316039,0.518528124 0.551597104,0.444602327 0.663661442,0.414949424 C0.77572578,0.385296521 0.894996839,0.402450526 0.994220085,0.462491591 L47.6464515,27.792407 C47.8183452,27.8908118 47.9017409,28.0935491 47.8489908,28.2847856 C47.7962406,28.476022 47.6207854,28.6070304 47.4228709,28.6029593 L47.4228709,28.6077273 Z" id="Path"></path>
                            <path d="M8.65780169,17.2456916 C8.52070672,17.2453195 8.39189108,17.1798795 8.31053822,17.0692773 C8.1676728,16.8766284 8.20583019,16.6046641 8.39616483,16.4589791 L25.3359625,3.68086091 C25.5277509,3.53603116 25.8003648,3.57445551 25.9448629,3.76668411 C26.0893609,3.95891271 26.0510246,4.23215249 25.8592363,4.37698227 L8.91943856,17.1646364 C8.84343199,17.2196362 8.75151567,17.2481119 8.65780169,17.2456916 L8.65780169,17.2456916 Z" id="Path"></path>
                        </g>
                        <path d="M97.676177,73.4646436 C95.2025194,73.4646436 93.0333119,72.7208427 91.5253322,71.3429039 C89.8698844,69.8362302 89.0849738,67.6763468 88.3238484,65.5879827 C87.6816488,63.8238395 87.0204211,62.0024809 85.8359197,60.5720945 C85.3696122,59.9139112 84.6793387,59.4492809 83.8950498,59.265675 C83.1053822,59.1417082 82.3632849,59.4659291 81.5783743,59.8139898 C80.9570751,60.133523 80.2835713,60.3386219 79.5899342,60.41952 C77.182875,60.5387189 75.784307,57.8066809 75.4037443,56.962753 C75.2420052,56.5908525 75.0897801,56.2094161 74.9280409,55.8375157 C74.380982,54.4691127 73.819652,53.0577982 72.692235,52.1518868 C72.395689,51.8791586 72.0179575,51.7116371 71.6171453,51.6750914 C70.8750481,51.6750914 70.3708025,52.2615498 69.8332576,52.9052236 C69.2957128,53.5488975 68.7962242,54.1591957 68.0255847,54.2783945 C66.5413902,54.5072564 65.6470678,52.7097375 65.3473747,51.927793 C64.5163081,49.7030774 63.8283004,47.4272806 63.287579,45.1143859 C62.593052,42.4109557 61.8604688,39.6121664 60.6854814,37.0517748 L60.6093689,36.8848964 C59.9386271,35.45451 59.2441002,33.9478364 57.9454299,33.142052 C57.1816958,32.7339972 56.3552622,32.4568126 55.5003145,32.3219639 C54.7433797,32.1954124 54.0071899,31.9660281 53.3120789,31.6401464 C53.2579655,31.6004228 53.2434603,31.5256532 53.2787797,31.4685 C53.3104115,31.4080606 53.3848351,31.3846166 53.4452758,31.4160525 C54.1228509,31.731607 54.8396426,31.954515 55.576427,32.0787982 C56.4579767,32.2196085 57.3100154,32.5064218 58.097655,32.9274941 C59.4581667,33.771422 60.200264,35.3686868 60.8519776,36.7800014 L60.9328472,36.9468798 C62.1316197,39.5263432 62.8356608,42.3346684 63.5492158,45.0524025 C64.088297,47.3553205 64.7731092,49.6215035 65.5994975,51.8372018 C65.8896765,52.5619309 66.6983723,54.2211791 68.0065566,54.0304609 C68.6820554,53.9255659 69.181544,53.3248036 69.6620044,52.7478811 C70.2090633,52.0803675 70.7941785,51.39855 71.6409305,51.4223898 C72.0975705,51.4599678 72.5290326,51.6476992 72.8682453,51.9564007 C74.0432326,52.9099916 74.6235908,54.340378 75.1801637,55.7421566 C75.3276318,56.114057 75.4798569,56.4954934 75.6558671,56.857858 C76.0126447,57.6684102 77.3636423,60.2860173 79.5994482,60.1668184 C80.2627988,60.0860431 80.9068478,59.8891572 81.5022618,59.585128 C82.2871724,59.2370673 83.0958681,58.8842386 83.9568913,59.0177414 C84.7997401,59.2125516 85.5434502,59.7072377 86.0499862,60.4099841 C87.2630298,61.8737461 87.9527997,63.7189445 88.5854853,65.5021595 C89.3323396,67.5619159 90.1077361,69.6931916 91.7156136,71.1617216 C93.323491,72.6302516 95.6163814,73.316837 98.2565352,73.1976382 C98.3074121,73.1876857 98.3592709,73.209362 98.3880182,73.2525963 C98.4167655,73.2958307 98.4167655,73.3521473 98.3880182,73.3953816 C98.3592709,73.438616 98.3074121,73.4602923 98.2565352,73.4503398 L97.676177,73.4646436 Z" id="Path" stroke="#233238" stroke-width="0.567" fill="#263238"></path>
                    </g>
                    <g id="freepik--character-2--inject-58" transform="translate(82.000000, 116.000000)" fill-rule="nonzero">
                        <path d="M45.4399332,24.1839893 L45.9504406,24.10317 L46.5802255,23.9938262 C47.0096243,23.9034988 47.4485652,23.8226795 47.8827351,23.7085816 C48.755846,23.4946482 49.6337279,23.2331739 50.5020677,22.9526834 C52.2537804,22.3557709 53.9545736,21.6196939 55.5880577,20.7515458 C56.9048806,20.1002372 58.3314388,18.8166365 59.7007438,17.4712327 C61.0700488,16.1258289 62.4393538,14.6187865 63.7895744,13.1925635 L66.3755093,14.7899333 C65.5319231,16.7680158 64.4998181,18.6608873 63.2933802,20.4425308 C62.6705441,21.360748 61.9901022,22.2388323 61.2561216,23.0715353 C60.8696627,23.4994022 60.4641194,23.9225151 60.0156362,24.3361198 C59.7866235,24.5452992 59.5385265,24.7497245 59.2904294,24.9493957 C59.0423323,25.1490669 58.732211,25.3677545 58.5222827,25.5008686 C57.6039071,26.1389232 56.6479732,26.7215501 55.6596241,27.2456148 C54.6742705,27.7840005 53.6560321,28.2603413 52.6108928,28.6718379 C51.558644,29.0939389 50.4796296,29.4465041 49.3808598,29.727243 C48.8274124,29.8698653 48.2644229,29.9934713 47.6871201,30.0933069 C47.3960832,30.1456018 47.1098173,30.1931425 46.8044671,30.2311752 L46.3273573,30.2787159 L46.0792602,30.3024863 L45.7786811,30.3024863 L45.4399332,24.1839893 Z" id="Path" fill="#FFB573"></path>
                        <path d="M44.9580523,32.1565763 C49.2902089,34.9091868 56.1605894,28.7811817 56.1605894,28.7811817 L54.4477654,21.0653148 C54.4477654,21.0653148 46.1078868,20.9274466 41.3415604,22.4915379 C36.680198,24.0080885 41.4035846,29.8936357 44.9580523,32.1565763 Z" id="Path" fill="#4788D8"></path>
                        <path d="M62.5395468,14.5759998 L63.9327073,11.557161 L67.7257299,14.0055106 C67.7257299,14.0055106 66.5424977,16.3302542 64.0567559,16.4586143 L62.5395468,14.5759998 Z" id="Path" fill="#FFB573"></path>
                        <path d="M67.8736339,10.8868362 L68.0787911,11.1388022 C68.6529981,11.8528575 68.6529981,12.8683425 68.0787911,13.5823978 L67.730501,14.0055106 L63.9327073,11.557161 L65.1159395,10.6063456 C65.5175251,10.2756552 66.0353825,10.1191629 66.5536612,10.1718781 C67.0719398,10.2245932 67.5473849,10.4821162 67.8736339,10.8868362 Z" id="Path" fill="#FFB573"></path>
                        <path d="M38.5695527,104.126126 C39.0896023,104.17699 39.5953387,104.126126 39.7814115,103.9125 C39.8801972,103.787802 39.8936225,103.609919 39.8148091,103.469987 C39.7587617,103.341553 39.6550136,103.243853 39.5285433,103.200411 C38.8749029,102.941007 37.3910916,103.663269 37.3290673,103.709046 C37.2904085,103.725009 37.2668337,103.766896 37.2718141,103.810773 C37.2745426,103.851815 37.3013483,103.886516 37.3386095,103.897241 C37.7415735,104.013128 38.153582,104.089738 38.5695527,104.126126 Z M39.2804462,103.353001 C39.3423429,103.35765 39.4033471,103.371341 39.4617479,103.393692 C39.5384246,103.418139 39.6022741,103.47517 39.6382785,103.551369 C39.6955317,103.6887 39.6669051,103.74465 39.6382785,103.780255 C39.4283502,104.039658 38.4073354,103.948104 37.6630441,103.780255 C38.1705448,103.525736 38.720189,103.380542 39.2804462,103.353001 L39.2804462,103.353001 Z" id="Shape" fill="#4788D8"></path>
                        <path d="M37.3576939,103.838548 L37.4006338,103.838548 C37.9063701,103.667401 38.9512405,102.887733 38.9178428,102.412325 C38.9178428,102.302981 38.8462763,102.160359 38.5886371,102.112818 C38.3977799,102.073797 38.1992234,102.115087 38.0399609,102.226916 C37.4912846,102.602488 37.2813563,103.653139 37.2718141,103.719696 C37.2675532,103.753424 37.2800089,103.787112 37.3052118,103.810024 C37.3180866,103.826246 37.3370356,103.836545 37.3576939,103.838548 Z M38.4932151,102.298227 L38.5504683,102.298227 C38.7222278,102.331506 38.7269989,102.402817 38.7269989,102.421833 C38.7269989,102.702324 38.0256476,103.325108 37.5055979,103.577074 C37.5908755,103.122371 37.8159709,102.705353 38.1496961,102.383801 C38.2499304,102.31456 38.3720724,102.284133 38.4932151,102.298227 L38.4932151,102.298227 Z" id="Shape" fill="#4788D8"></path>
                        <polygon id="Path" fill="#FFB573" points="32.4768611 105.511983 36.5132096 105.878047 37.7632372 96.5933349 33.7221176 96.227271"></polygon>
                        <path d="M36.9807772,103.239534 L32.572283,102.840192 C32.4054648,102.825681 32.2508551,102.928386 32.2001374,103.087404 L31.0789295,106.591159 C31.0228436,106.76277 31.0487424,106.950526 31.1492142,107.100696 C31.249686,107.250866 31.4136588,107.346902 31.594208,107.361319 C33.1877546,107.475417 34.5856862,107.51345 36.5895472,107.694105 C38.927385,107.903284 38.3071423,108.126726 41.0457523,108.416724 C42.7013232,108.587871 43.1736618,106.738535 42.4770816,106.586405 C39.3043017,105.892309 39.0562046,104.898707 37.9254545,103.638877 C37.6709194,103.393996 37.3343805,103.251731 36.9807772,103.239534 L36.9807772,103.239534 Z" id="Path" fill="#263238"></path>
                        <polygon id="Path" fill="#000000" opacity="0.2" points="37.7632372 96.5933349 37.0618859 101.813311 33.0207662 101.452002 33.7221176 96.2320251"></polygon>
                        <path d="M45.9170429,53.212383 C46.4994603,60.6307022 46.3204114,68.0888863 45.38268,75.4709712 C43.7652779,88.192881 39.0418913,99.5551248 39.0418913,99.5551248 L32.3194149,97.8008705 C32.3194149,97.8008705 33.8843349,88.2499299 34.7049637,75.6801505 C35.6162433,61.9836549 31.6991722,51.9097659 31.6991722,51.9097659 L45.9170429,53.212383 Z" id="Path" fill="#263238"></path>
                        <path d="M34.0656366,58.6320307 C37.5962488,59.7349765 36.2412571,65.6680645 34.81947,69.6472269 C34.7178516,65.9439449 34.291602,62.2565983 33.545587,58.6272766 L34.0656366,58.6320307 Z" id="Path" fill="#000000" opacity="0.3"></path>
                        <path d="M7.29500817,92.1340108 C7.58604512,92.5666318 7.92956415,92.9374498 8.21583,92.9469579 C8.37006132,92.9460037 8.50727289,92.8491589 8.55934902,92.7045 C8.61245761,92.583247 8.61245761,92.4454268 8.55934902,92.3241738 C8.33033634,91.6681112 6.86560939,90.9549997 6.80358512,90.9264752 C6.77066518,90.9034216 6.72676982,90.9034216 6.69384988,90.9264752 C6.66535437,90.9552639 6.65606546,90.9978405 6.66999439,91.035819 C6.84362153,91.4204455 7.05286528,91.788101 7.29500817,92.1340108 Z M8.30648085,92.2243382 C8.34243576,92.2740233 8.37133513,92.3284162 8.39236061,92.3859768 C8.42390753,92.4604454 8.42390753,92.544458 8.39236061,92.6189266 C8.33033634,92.7425326 8.26831207,92.7567948 8.2253722,92.7520408 C7.90570866,92.7520408 7.32363476,91.9058151 6.98488683,91.2259821 C7.4867521,91.4714376 7.93568435,91.8121841 8.30648085,92.2290923 L8.30648085,92.2243382 Z" id="Shape" fill="#4788D8"></path>
                        <path d="M6.67953659,91.0812282 L6.70816317,91.1106464 C7.18527293,91.3999257 8.44007159,91.7137202 8.77404841,91.3852166 C8.85515707,91.306768 8.92195244,91.1645799 8.77404841,90.924331 C8.68401221,90.7482059 8.52671291,90.6185312 8.33987854,90.5664092 C7.70055146,90.3751907 6.73678976,90.9145249 6.69384988,90.9390401 C6.6654496,90.9569435 6.64756746,90.9881838 6.6461389,91.0223917 C6.65045366,91.0453297 6.66223102,91.0660778 6.67953659,91.0812282 Z M8.58797561,90.9684583 L8.6166022,91.0174887 C8.69771085,91.1743859 8.64999988,91.2234163 8.6166022,91.2430285 C8.411445,91.43915 7.47153878,91.2773497 6.94194695,91.0272948 C7.35004125,90.7994273 7.8162078,90.7053266 8.27785427,90.7576277 C8.41097622,90.7823563 8.53018711,90.8576109 8.6118311,90.9684583 L8.58797561,90.9684583 Z" id="Shape" fill="#4788D8"></path>
                        <polygon id="Path" fill="#FFB573" points="2.29489793 88.3735359 4.58025366 91.7108979 12.5622999 86.7666579 10.2769441 83.4292959"></polygon>
                        <path d="M6.91809146,90.3940186 L4.42280744,86.7476416 C4.32930401,86.6104973 4.15239386,86.5570194 3.99817976,86.6192815 L0.56776061,87.9884557 C0.400017757,88.0549187 0.271906029,88.194056 0.219864119,88.3662929 C0.16782221,88.5385297 0.197545251,88.7250176 0.300579146,88.872714 C1.22617207,90.170577 2.60501927,92.0199129 3.73576939,93.6695776 C5.06213451,95.6044869 4.08883061,94.4112136 5.64420841,96.6789083 C6.59842793,98.0480825 8.23491439,97.4823473 7.96773293,96.8215306 C6.75110305,93.8217081 6.95626024,93.0182691 7.20912841,91.3733585 C7.23957946,91.0220169 7.13561949,90.6721914 6.91809146,90.3940186 Z" id="Path" fill="#263238"></path>
                        <polygon id="Path" fill="#000000" opacity="0.2" points="12.5622999 86.7666579 8.07269707 89.5477929 5.78257024 86.2104309 10.272173 83.4292959"></polygon>
                        <path d="M38.2546602,52.5182878 C38.2546602,52.5182878 35.2822665,64.4034801 29.638058,74.8054004 C23.4594867,86.215185 10.9973799,89.8282835 10.9973799,89.8282835 L7.12324866,83.9760148 C7.12324866,83.9760148 15.3009099,77.8860422 19.3563428,70.8832869 C23.0921122,57.7335102 24.3325976,51.2632115 24.3325976,51.2632115 L38.2546602,52.5182878 Z" id="Path" fill="#263238"></path>
                        <path d="M12.8437946,89.8520538 C12.8437946,89.8805783 10.2053777,90.9930323 10.2053777,90.9930323 L5.8779922,83.8619169 L7.93433524,82.3548745 L12.8437946,89.8520538 Z" id="Path" fill="#4788D8"></path>
                        <path d="M40.344401,98.3475893 C40.3777987,98.3475893 39.5476277,101.104954 39.5476277,101.104954 L31.2793156,99.9021725 L31.4224485,97.3587413 L40.344401,98.3475893 Z" id="Path" fill="#4788D8"></path>
                        <path d="M48.7319905,27.1220088 C48.9562321,30.9252704 49.5239927,39.9580165 46.704274,54.38664 L22.9012683,52.6371397 C23.0396301,49.5850223 27.0378099,39.2686754 26.0692771,25.5389012 C25.9920176,24.5324648 26.3293069,23.5380614 27.0034734,22.784684 C27.6776399,22.0313067 28.6305729,21.5838939 29.6428291,21.5454766 C30.7067839,21.507444 31.885245,21.4979358 33.0398506,21.5454766 C36.1108806,21.6375991 39.1741331,21.9042609 42.2146712,22.3441615 C43.3835901,22.558095 44.5191113,22.8433396 45.4924152,23.1190761 C47.3208876,23.6248158 48.6234175,25.2342674 48.7319905,27.1220088 L48.7319905,27.1220088 Z" id="Path" fill="#4788D8"></path>
                        <path d="M26.1933256,31.1914987 C26.1408435,33.5114882 25.9738551,35.6983636 25.7162159,37.7331085 C28.2735241,35.1849233 28.5788744,31.1914987 28.5788744,31.1914987 L26.1933256,31.1914987 Z" id="Path" fill="#000000" opacity="0.3"></path>
                        <path d="M55.4210693,25.4580819 L55.0107549,29.4515065 L49.9247649,29.0521641 L50.4018746,24.1982515 L55.2063699,24.5738236 L55.1252612,24.2030056 L50.4400434,23.8416958 L50.7167671,21.136626 L50.6404295,21.136626 C50.5402365,21.136626 50.4352723,21.136626 50.3350793,21.136626 L50.0583556,23.7894009 L44.9723656,23.3900585 L45.1584384,21.6215418 C45.039161,21.6215418 44.9151124,21.6595745 44.795835,21.6738367 L44.7672084,21.6738367 L44.5954489,23.3567799 L39.5094589,22.9621915 L39.609652,21.9780976 L39.2327352,21.940065 L39.1325422,22.928913 L34.0417811,22.5343246 L34.1419741,21.5835092 L34.1419741,21.5835092 L33.8557083,21.5835092 L33.7602863,21.5835092 L33.6648644,22.5343246 L28.5788744,22.1397362 L28.6170432,21.7071152 L28.6170432,21.6262959 C28.4874489,21.6293038 28.3582651,21.6420171 28.2305843,21.6643285 L28.2067288,21.8544916 L28.1828733,22.1064577 L27.7964144,22.0779332 C27.6285968,22.1722271 27.4690021,22.2803643 27.3193046,22.4012105 L28.1303912,22.4677675 L27.6723659,27.316926 L26.1408435,27.1980741 C26.1408435,27.3216801 26.1408435,27.440532 26.1408435,27.564138 L27.6151127,27.6782358 L27.1380029,32.5369025 L26.1408435,32.4560832 L26.1408435,32.8221471 L27.095063,32.8982123 L26.6179533,37.7521248 L25.7353002,37.6855678 C25.7353002,37.8044197 25.7114448,37.9280257 25.6923604,38.0468776 L26.5797845,38.1181888 L26.1026748,42.9721013 L24.9528402,42.8817738 L24.8812738,43.2430837 L26.064506,43.3286571 L25.5873962,48.1873237 L23.8554878,48.0542095 L23.769608,48.4107653 L25.5492274,48.5486335 L25.1102865,52.7940242 L25.4919743,52.8225487 L25.9309152,48.5819121 L31.0121341,48.9765005 L30.5779643,53.1933667 L30.5779643,53.1933667 L30.9501099,53.2218912 L30.9501099,53.2218912 L31.3842798,49.0002708 L36.4702698,49.3948592 L36.040871,53.5927092 L36.4177877,53.6259877 L36.4177877,53.6259877 L36.8471865,49.4328918 L41.9331765,49.8274802 L41.5085488,54.0015598 L41.8854655,54.0300842 L42.3100932,49.8560047 L47.4008543,50.2553472 L47.2863479,51.4105878 C47.3579144,50.9969832 47.4247098,50.5881325 47.4915051,50.184036 C47.8095783,48.1492911 48.0751694,46.2397368 48.2882784,44.4553733 C48.412327,43.385706 48.51252,42.3588254 48.5983998,41.3794855 C48.6270263,41.0942409 48.6461107,40.8137504 48.6699662,40.5380139 C48.6985928,40.1767041 48.7272194,39.8249024 48.7463038,39.4778548 C48.7844726,38.8978574 48.8178702,38.3321222 48.8464968,37.7854034 C48.8942078,36.8916369 48.9276055,36.0454112 48.9419188,35.2419722 L48.4743512,39.4588385 L43.3883612,39.0642501 L43.8940976,34.2293538 L48.9323766,34.6191882 C48.9323766,34.4908281 48.9323766,34.3719762 48.9323766,34.2531242 L43.9274952,33.8632899 L44.4236894,28.9998692 L49.5096794,29.3944576 L49.1757026,32.6700166 L49.4524262,32.6082136 L49.5669326,32.570181 L49.8865961,29.4229821 L54.872393,29.8128164 C55.063237,29.6749482 55.2397676,29.5370799 55.3972138,29.418228 L55.6834796,26.6418471 L55.4210693,25.4580819 Z M34.0274678,22.9194048 L39.123,23.2949769 L38.6458902,28.1536435 L33.5599002,27.7543011 L34.0274678,22.9194048 Z M37.8825146,38.9834308 L42.9732757,39.3780192 L42.4627683,44.250948 L37.3767783,43.8516055 L37.8825146,38.9834308 Z M37.0094038,43.8088188 L31.9234138,43.4094764 L32.4005235,38.5555638 L37.4865135,38.9549063 L37.0094038,43.8088188 Z M37.5437667,38.5793342 L32.4434634,38.2085162 L32.9444287,33.3546037 L38.0304187,33.7491921 L37.5437667,38.5793342 Z M32.9921396,32.9647694 L33.4692494,28.1108568 L38.5600105,28.5054452 L38.0590452,33.3593578 L32.9921396,32.9647694 Z M28.55979,22.4630135 L33.64578,22.8623559 L33.1686702,27.7162685 L28.0779091,27.316926 L28.55979,22.4630135 Z M28.0254271,27.6924981 L33.1114171,28.0918405 L32.6343073,32.9457531 L27.5530884,32.5511647 L28.0254271,27.6924981 Z M27.486293,32.9219827 L32.5770541,33.3165711 L32.0999444,38.1752377 L27.0091833,37.7758952 L27.486293,32.9219827 Z M26.9567012,38.1514673 L32.0426912,38.5508098 L31.541726,43.4047223 L26.455736,43.0101339 L26.9567012,38.1514673 Z M31.007363,48.6104365 L25.921373,48.2110941 L26.3984828,43.3571815 L31.4892439,43.7375077 L31.007363,48.6104365 Z M36.4750409,49.0383035 L31.3842798,48.638961 L31.8613895,43.7802944 L36.9521506,44.1796368 L36.4750409,49.0383035 Z M41.9379476,49.4614163 L36.8519576,49.0668279 L37.3529228,44.2129154 L42.4389128,44.6122578 L41.9379476,49.4614163 Z M47.4056254,49.8845292 L42.3196354,49.4899408 L42.7967451,44.6360282 L47.8827351,45.0306166 L47.4056254,49.8845292 Z M48.4361824,39.8201483 L47.9590727,44.6740608 L42.8683116,44.2794725 L43.3692768,39.4160518 L48.4361824,39.8201483 Z M43.0114445,39.0262175 L37.9254545,38.6316291 L38.4025643,33.7729625 L43.4885543,34.1723049 L43.0114445,39.0262175 Z M43.5458074,33.7967328 L38.4550463,33.3973904 L38.9321561,28.5434778 L44.0181461,28.9380662 L43.5458074,33.7967328 Z M44.0801704,28.5672482 L38.9941804,28.1679058 L39.4712901,23.3092392 L44.5620512,23.7133357 L44.0801704,28.5672482 Z M49.5478482,28.9903611 L44.4570871,28.5957727 L44.9341968,23.7371061 L50.0249579,24.1364485 L49.5478482,28.9903611 Z" id="Shape" fill="#FFFFFF" opacity="0.3"></path>
                        <path d="M35.5160502,14.6663273 C35.5160502,17.5187735 35.0389405,20.7515458 33.302261,22.0161302 C33.302261,22.0161302 35.2918087,25.9810304 41.0600656,25.9857845 C45.2538604,25.9857845 43.0209867,23.0620272 43.0209867,23.0620272 C40.29669,21.5835092 40.4827628,19.5059776 41.3415604,17.2905778 L37.2765852,13.7250201 C36.6038605,13.0546952 35.5160502,13.6251845 35.5160502,14.6663273 Z" id="Path" fill="#FFB573"></path>
                        <path d="M35.5160502,14.6663273 C35.5160502,13.6251845 36.5990894,13.0546952 37.2765852,13.7155119 L41.3415604,17.2763155 C40.8986441,18.2428573 40.7208433,19.3091375 40.8262818,20.3664655 C39.8706744,20.4014887 38.9208871,20.2040503 38.0590452,19.7912222 C36.937395,19.2868783 35.9933794,18.4588432 35.3490618,17.4141838 C35.4636747,16.5027356 35.5194522,15.5848963 35.5160502,14.6663273 Z" id="Path" fill="#000000" opacity="0.2"></path>
                        <path d="M30.8165191,11.2006052 C32.2478484,14.9705882 32.8776333,17.2572992 35.6734965,18.5694245 C39.8768334,20.5423664 44.7051841,17.1432014 44.5715934,13.0071545 C44.452316,9.26569592 41.8377545,3.42293538 37.119139,3.17572338 C32.4005235,2.92851138 29.3756477,7.43537631 30.8165191,11.2006052 Z" id="Path" fill="#FFB573"></path>
                        <path d="M28.2448976,10.4589692 C28.4786813,12.3986326 31.5130994,14.0102647 31.5130994,14.0102647 L34.523662,13.7440364 C34.523662,13.7440364 32.5579698,11.8424056 33.0923327,9.34176115 C33.6266956,6.84111669 28.5407056,7.13111538 28.2448976,10.4589692 Z" id="Path" fill="#263238"></path>
                        <path d="M29.437672,2.64326677 C26.0454216,5.23423869 27.433811,8.48127323 26.6274955,11.0104422 C28.9462489,11.74257 32.7488137,9.70782508 34.4473244,8.81405862 C34.7526746,8.65717408 35.062796,8.51930585 35.3490618,8.33865092 C35.7927739,8.06766854 35.7164363,6.29915192 35.7164363,6.29915192 C35.7164363,6.29915192 36.2937391,7.478163 36.2507993,7.85848915 C38.831963,6.47980685 41.0696078,5.16768162 41.6230551,4.11703062 C40.9264749,1.06966731 35.2345555,-1.78753292 29.437672,2.64326677 Z" id="Path" fill="#263238"></path>
                        <path d="M41.3940424,12.7599425 L41.3940424,12.7599425 C40.4841028,13.2756182 39.3797869,13.3199167 38.4311909,12.8787944 C38.3758474,12.8475432 38.354855,12.7785152 38.3834799,12.7219098 C38.4146178,12.6691536 38.4819835,12.6502745 38.536155,12.6791232 C39.4188055,13.0784873 40.4397016,13.0343356 41.2843072,12.5602712 C41.3389524,12.5351764 41.403768,12.5565045 41.4326683,12.6090907 C41.4615686,12.6616768 41.4446939,12.7275806 41.3940424,12.7599425 L41.3940424,12.7599425 Z" id="Path" fill="#263238"></path>
                        <path d="M38.240347,9.72208731 C38.4121065,10.0358564 38.7174567,10.197495 38.9178428,10.0881512 C39.1182289,9.97880746 39.1516266,9.61274354 38.9846382,9.32274485 C38.8176498,9.03274615 38.5075284,8.84733715 38.3023712,8.95668092 C38.097214,9.06602469 38.0685874,9.40831823 38.240347,9.72208731 Z" id="Path" fill="#263238"></path>
                        <path d="M41.761417,8.14373377 C41.9331765,8.45750285 42.2385267,8.61914146 42.4389128,8.50979769 C42.6392989,8.40045392 42.6726966,8.03439 42.5009371,7.73963723 C42.3291776,7.44488446 42.0238273,7.26422954 41.8234412,7.37832738 C41.6230551,7.49242523 41.5896574,7.82996469 41.761417,8.14373377 Z" id="Path" fill="#263238"></path>
                        <path d="M36.7374512,10.0833972 C36.8029274,10.0372046 36.8362574,9.95786704 36.823331,9.87897185 C36.7358763,9.36204481 36.8965769,8.83415282 37.2575009,8.45274877 C37.3387686,8.37118321 37.3387686,8.23956156 37.2575009,8.157996 C37.2188198,8.11789997 37.165413,8.09523899 37.1095968,8.09523899 C37.0537806,8.09523899 37.0003739,8.11789997 36.9616928,8.157996 C36.4883049,8.6378732 36.276818,9.31611288 36.3939322,9.97880746 C36.4134388,10.0915789 36.5185532,10.169086 36.6324871,10.1547083 C36.6736424,10.141517 36.7100934,10.1167526 36.7374512,10.0833972 Z" id="Path" fill="#263238"></path>
                        <path d="M43.0686977,5.994891 C43.1106777,5.98017553 43.1450263,5.94937202 43.1641196,5.90931762 C43.1939632,5.86286414 43.2037018,5.80636534 43.1911237,5.75265184 C43.1785457,5.69893833 43.1447186,5.6525686 43.0973243,5.624073 C42.5280625,5.25874446 41.8157405,5.19308974 41.1888852,5.44817215 C41.1110431,5.47268389 41.0545214,5.53993939 41.043974,5.620603 C41.0334265,5.70126662 41.0707664,5.78070787 41.1397066,5.82427592 C41.2086468,5.86784396 41.2966832,5.86763658 41.3654159,5.82374423 L41.3654159,5.82374423 C41.8643178,5.6334325 42.4244057,5.69171403 42.8730827,5.98062877 C42.9319135,6.01730857 43.0051351,6.02264713 43.0686977,5.994891 L43.0686977,5.994891 Z" id="Path" fill="#263238"></path>
                        <path d="M41.0600656,8.81405862 C41.7822005,9.50823704 42.5979631,10.0986751 43.4837832,10.568313 C43.2226732,11.0118118 42.7798889,11.3192654 42.2719244,11.4097846 L41.0600656,8.81405862 Z" id="Path" fill="#ED893E"></path>
                        <path d="M31.055074,15.1084565 C31.6836941,15.654637 32.4973952,15.9419009 33.3308876,15.9118955 C34.3614446,15.8405843 34.3662157,14.7471466 33.6505511,13.8866587 C33.011224,13.1117442 31.7039433,12.2132236 30.8737723,12.7124017 C30.0436013,13.2115798 30.2296741,14.4096072 31.055074,15.1084565 Z" id="Path" fill="#FFB573"></path>
                        <path d="M29.4233587,28.9998692 L28.4405126,30.1218314 L27.433811,31.3008425 C26.7610862,32.0900192 26.1026748,32.8934582 25.4442633,33.6778809 C24.1338018,35.3006058 22.8615091,36.9550246 21.6273852,38.6411372 L21.5128789,38.7980218 L21.4842523,38.8360544 L21.4842523,38.8360544 C21.4842523,38.8360544 21.4842523,38.8360544 21.4842523,38.812284 C21.5038575,38.7566843 21.5182327,38.6993888 21.5271922,38.6411372 C21.5652017,38.4693286 21.5569721,38.2905625 21.5033367,38.1229428 C21.3888304,37.8519605 21.3602038,38.0278613 21.5415055,38.2370407 C21.7741212,38.5221622 22.0364058,38.7819175 22.3239655,39.0119552 C22.6811946,39.3012399 23.0538861,39.5710327 23.4404023,39.8201483 C25.183191,40.9024079 26.9864028,41.8849222 28.8412848,42.7629219 L28.0158849,45.6819252 C26.8770913,45.5347841 25.748837,45.3156547 24.6379478,45.0258625 C23.5002618,44.7381617 22.3842598,44.3711949 21.2981795,43.9276708 C20.7176285,43.6874561 20.1520362,43.4128126 19.6044399,43.1052155 C18.9720729,42.75838 18.3827807,42.3387306 17.848676,41.8548932 C17.5152128,41.5489327 17.2160625,41.2078109 16.9564807,40.8375208 C16.6148922,40.3529775 16.3658185,39.8098711 16.2217317,39.2353968 C16.058713,38.5349318 16.070179,37.8053598 16.2551294,37.1103245 C16.3444242,36.7930063 16.4659188,36.4855746 16.6177328,36.1927876 L16.8085767,35.84574 L16.9135409,35.660331 C17.4717593,34.6857452 18.0490621,33.7206676 18.6693048,32.7793604 C19.2895474,31.8380532 19.9145612,30.9110082 20.5777438,30.0029795 C21.2409263,29.0949508 21.9279644,28.2059384 22.6484001,27.3359423 C23.0062324,26.9033213 23.3688359,26.4707003 23.7505237,26.0475875 C24.1322115,25.6244746 24.499586,25.2203781 24.9480691,24.7592326 L29.4233587,28.9998692 Z" id="Path" fill="#FFB573"></path>
                        <path d="M26.3412296,42.5917752 L29.638058,42.0735808 L29.6953112,46.5804457 C29.6953112,46.5804457 27.095063,46.8847066 25.6112517,44.8927484 L26.3412296,42.5917752 Z" id="Path" fill="#FFB573"></path>
                        <path d="M32.4100657,44.3507836 L31.6753167,45.9671698 C31.457564,46.4480922 30.9506912,46.7314681 30.4252891,46.6660191 L29.6953112,46.5804457 L29.638058,42.0735808 L31.6610034,42.6963648 C31.9936027,42.7992708 32.2659981,43.0392688 32.4092168,43.3555891 C32.5524355,43.6719095 32.5527445,44.0342211 32.4100657,44.3507836 L32.4100657,44.3507836 Z" id="Path" fill="#FFB573"></path>
                        <path d="M28.9319356,21.6072796 C23.7934635,21.6072796 18.8506065,29.7747838 18.8506065,29.7747838 L23.9222832,37.9422879 C23.9222832,37.9422879 27.238196,34.3101732 30.415747,30.4451086 C33.5217315,26.6608634 33.1495859,21.6072796 28.9319356,21.6072796 Z" id="Path" fill="#4788D8"></path>
                        <path d="M31.8804739,28.0110212 C31.9348456,27.895514 31.9810781,27.7763739 32.0188357,27.6544655 L28.0588248,27.3454505 L28.55979,22.4915379 L31.6371479,22.7339958 C31.5206993,22.586234 31.3860505,22.4536628 31.2363757,22.3394075 L28.5979588,22.1349822 L28.6504409,21.6215418 L28.459597,21.6215418 L28.459597,21.6215418 C28.4023438,21.6215418 28.3403195,21.6215418 28.2830663,21.6500663 L28.2353554,22.0921955 L26.9328457,21.9876058 C26.6942909,22.0779332 26.455736,22.1825229 26.2219522,22.2966208 L28.2019577,22.4535053 L27.6723659,27.316926 L22.5863759,26.9223376 L22.8010752,24.8162815 L22.495725,25.1205425 L22.3764476,25.2441485 L22.204688,26.8938132 L20.9976004,26.7987316 C20.9355761,26.8652887 20.8783229,26.9365998 20.8210698,27.007911 L20.7781299,27.0554518 C20.7597927,27.0840955 20.7390431,27.1111327 20.7161056,27.1362711 L20.7161056,27.1362711 L22.1474349,27.2503689 L21.6703251,32.1137896 L20.2151404,31.9949377 L20.2151404,31.9949377 L20.4107554,32.2991986 L20.4584663,32.3752638 L21.6369274,32.4703454 L21.4794812,34.0201745 L21.4794812,34.0201745 L21.8039159,34.5383688 L22.0138441,32.4988698 L27.0998341,32.8934582 L26.9328457,34.5383688 C27.0712076,34.3767302 27.2191116,34.2150916 27.3622445,34.0629612 L27.4767509,32.940999 L28.2735241,33.002802 L28.5645611,32.6605085 L27.5196907,32.5796892 L27.9968005,27.7210225 L31.8804739,28.0110212 Z M27.1475451,32.5369025 L22.0615551,32.13756 L22.5386649,27.2836475 L27.6246549,27.6782358 L27.1475451,32.5369025 Z" id="Shape" fill="#FFFFFF" opacity="0.3"></path>
                    </g>
                    <g id="freepik--character-1--inject-58" transform="translate(27.000000, 124.000000)" fill-rule="nonzero">
                        <path d="M37.7204211,5.750325 C37.8445642,6.15195 38.1596968,6.411825 38.4223074,6.3315 C38.6849179,6.251175 38.7995116,5.859 38.6801432,5.466825 C38.5607747,5.07465 38.2408674,4.805325 37.9782568,4.88565 C37.7156463,4.965975 37.5962779,5.353425 37.7204211,5.750325 Z" id="Path" fill="#263238"></path>
                        <path d="M38.4987032,6.3315 C39.0798846,7.06092678 39.7594608,7.7079868 40.5184168,8.254575 C40.220165,8.63510667 39.7679381,8.86664017 39.28176,8.887725 L38.4987032,6.3315 Z" id="Path" fill="#A02724"></path>
                        <path d="M35.8105263,4.824225 C35.861294,4.80962481 35.9062992,4.77993388 35.9394442,4.739175 C36.3075629,4.23218977 36.8985816,3.93009876 37.5294316,3.926475 C37.6278887,3.96167241 37.738077,3.93197775 37.8049041,3.85223788 C37.8717312,3.77249801 37.8808382,3.6598464 37.8276717,3.57060704 C37.7745052,3.48136767 37.670489,3.43471516 37.5676295,3.453975 C36.7682037,3.44161239 36.0128023,3.81537871 35.5431411,4.455675 C35.5031256,4.50763486 35.4856685,4.57322563 35.4946282,4.63795018 C35.5035879,4.70267473 35.5382266,4.76120341 35.5908884,4.8006 C35.6560709,4.84277888 35.7377084,4.85156009 35.8105263,4.824225 Z" id="Path" fill="#263238"></path>
                        <path d="M31.9191158,12.2283 C31.8856926,14.8554 31.4702905,17.8983 29.9805726,19.0701 C29.9805726,19.0701 30.3959747,21.9051 35.2709811,22.4343 C40.6282358,23.006025 38.1358232,19.9395 38.1358232,19.9395 C35.8630484,18.5976 36.0444884,16.6698 36.7845726,14.604975 L33.4231579,11.34 C32.8454147,10.721025 31.9286653,11.2644 31.9191158,12.2283 Z" id="Path" fill="#B55B52"></path>
                        <path d="M29.2786863,19.5993 C29.0447242,18.6543 28.8012126,17.60535 29.7036379,17.43525 C30.7063326,17.24625 35.9107958,17.732925 37.6106021,18.668475 C38.5617819,19.1673578 38.9486737,20.3180237 38.4891537,21.2814 L29.2786863,19.5993 Z" id="Path" fill="#263238"></path>
                        <path d="M27.8319411,23.93685 C27.7030232,24.026625 27.5024842,24.177825 27.3544674,24.310125 L26.8149221,24.73065 C26.4568168,25.01415 26.1082611,25.31655 25.76448,25.61895 C25.0721432,26.228475 24.4180042,26.871075 23.7925137,27.50895 C23.175114,28.1686179 22.5964222,28.8627558 22.0592842,29.58795 C21.5413787,30.3017209 21.0739327,31.0500533 20.6602863,31.8276 L20.8321768,30.8448 C20.8543384,31.5650169 20.9229156,32.2831007 21.0374905,32.994675 C21.158665,33.7361904 21.3180305,34.4710976 21.5149642,35.196525 C21.7059537,35.933625 21.9351411,36.670725 22.1882021,37.407825 C22.4412632,38.144925 22.7372968,38.8962 23.0094568,39.5766 L23.04288,39.6522 C23.2418702,40.1597807 23.0431161,40.7354412 22.5718692,41.0164099 C22.1006222,41.2973786 21.4934513,41.20223 21.1329853,40.790925 C20.8226274,40.4271 20.5695663,40.09635 20.3117305,39.73725 C20.0538947,39.37815 19.8103832,39.023775 19.5764211,38.655225 C19.1093098,37.9151206 18.68989,37.1465665 18.3206653,36.35415 C17.9417031,35.5465382 17.6225469,34.7127425 17.3657179,33.85935 C17.0961195,32.9802611 16.8981303,32.0812096 16.7736505,31.170825 C16.7316297,30.8842648 16.769606,30.591789 16.8834695,30.32505 L16.9455411,30.188025 C17.3672605,29.1530183 17.883478,28.1582242 18.4877811,27.216 C19.0721598,26.2868454 19.7282537,25.4037893 20.4501979,24.574725 C21.1564409,23.7492188 21.9172978,22.9710319 22.7277474,22.2453 C23.1336,21.8862 23.5442274,21.53655 23.9739537,21.19635 C24.1840421,21.02625 24.3989053,20.85615 24.6233179,20.6955 C24.8477305,20.53485 25.0625937,20.38365 25.3490779,20.189925 C26.3702873,19.5298003 27.7364357,19.7892919 28.4380903,20.7766643 C29.1397449,21.7640366 28.9244609,23.1240479 27.9513095,23.8518 L27.8319411,23.93685 Z" id="Path" fill="#B55B52"></path>
                        <path d="M24.1697179,38.107125 L21.3812716,37.43145 L19.9202021,39.146625 C20.4788463,41.38155 22.8327916,42.047775 22.8327916,42.047775 L23.8163874,42.5628 C24.2656863,42.7992188 24.8208278,42.6928913 25.1485389,42.30765 L26.2228547,41.06025 C26.6087509,40.6047512 26.5489244,39.9260276 26.0891621,39.543525 L24.6042189,38.324475 C24.4787844,38.2190535 24.3298778,38.1445661 24.1697179,38.107125 Z" id="Path" fill="#B55B52"></path>
                        <path d="M34.4640505,47.339775 C34.4640505,47.339775 31.6851537,58.358475 26.4090695,68.035275 C20.6316379,78.63345 5.33815579,83.9916 5.33815579,83.9916 L3.81978947,81.5157 C3.81978947,81.5157 16.05744,72.9162 20.3117305,67.1139 C21.4337937,57.2859 22.6990989,46.243575 22.6990989,46.243575 L34.4640505,47.339775 Z" id="Path" fill="#B55B52"></path>
                        <path d="M6.75625263,85.36185 C7.06183579,85.735125 7.40561684,86.056425 7.67777684,86.04225 C7.8198355,86.0300119 7.93951256,85.9322598 7.97858526,85.79655 C8.02376589,85.6842878 8.02376589,85.5591622 7.97858526,85.4469 C7.71597474,84.85155 6.29787789,84.294 6.24058105,84.270375 C6.21019453,84.2504361 6.1706981,84.2504361 6.14031158,84.270375 C6.12135297,84.3007895 6.12135297,84.3391855 6.14031158,84.3696 C6.31754508,84.7166358 6.52356524,85.0485239 6.75625263,85.36185 L6.75625263,85.36185 Z M7.7112,85.36185 C7.74923153,85.405509 7.77986803,85.4549741 7.80192,85.508325 C7.83256012,85.5759571 7.83256012,85.6533179 7.80192,85.72095 C7.75417263,85.839075 7.69687579,85.85325 7.65867789,85.857975 C7.35786947,85.857975 6.75147789,85.13505 6.38859789,84.53025 C6.88051256,84.7201378 7.32871082,85.0061822 7.70642526,85.3713 L7.7112,85.36185 Z" id="Shape" fill="#4788D8"></path>
                        <path d="M6.12121263,84.4816494 L6.14986105,84.5082199 C6.59868632,84.7632965 7.80669474,84.9811744 8.09795368,84.62513 C8.1648,84.5401044 8.21732211,84.3913098 8.09795368,84.1574896 C8.00101647,83.988094 7.84551126,83.8707902 7.66822737,83.8333297 C7.05706105,83.6898492 6.19283368,84.3115983 6.15941053,84.3381688 C6.1321613,84.3581353 6.11595624,84.3922025 6.11643789,84.4285084 C6.11346398,84.4463674 6.11512012,84.4647995 6.12121263,84.4816494 L6.12121263,84.4816494 Z M7.90218947,84.2212587 L7.93083789,84.2690856 C8.02155789,84.4178802 7.97858526,84.4710212 7.96426105,84.4922776 C7.78759579,84.7048414 6.89949474,84.6198159 6.38859789,84.4072521 C6.75285717,84.1435827 7.18148877,84.0117906 7.61570526,84.0299513 C7.72878384,84.0532429 7.83051047,84.1211736 7.90218947,84.2212587 Z" id="Shape" fill="#4788D8"></path>
                        <path d="M6.28355368,83.769525 L4.29726316,81.3078 C4.0891061,81.0520003 3.72757387,80.9768891 3.43303579,81.12825 L0.811705263,82.484325 C0.6247373,82.5783732 0.491372396,82.7517277 0.449524644,82.9551059 C0.407676892,83.158484 0.461923249,83.369642 0.596842105,83.52855 C1.42287158,84.51135 2.43989053,85.650075 3.55717895,87.029775 C4.92752842,88.72605 3.93438316,87.691275 5.54346947,89.6805 C6.49841684,90.88065 8.01678316,90.242775 7.72074947,89.65215 C6.42202105,87.0534 6.50319158,86.2785 6.61778526,84.8232 C6.62400442,84.4455129 6.50677411,84.0759409 6.28355368,83.769525 L6.28355368,83.769525 Z" id="Path" fill="#263238"></path>
                        <path d="M39.9072505,47.831175 C41.2247729,54.6474443 41.4535584,61.6260564 40.5852632,68.5125 C39.0764463,80.325 32.8883874,95.2371 32.8883874,95.2371 L29.5460716,94.8024 C29.5460716,94.8024 33.0125305,82.0449 33.7908126,70.388325 C32.4538863,59.615325 28.3810358,46.810575 28.3810358,46.810575 L39.9072505,47.831175 Z" id="Path" fill="#B55B52"></path>
                        <path d="M34.7600842,95.3340527 C35.2375579,95.3830638 35.7150316,95.3340527 35.8964716,95.1216713 C35.9869248,94.9942866 35.998352,94.8161703 35.92512,94.6751257 C35.8694058,94.5502627 35.7736407,94.4546935 35.6577347,94.4082875 C35.0465684,94.146895 33.65712,94.8711701 33.5998232,94.9038442 C33.5645088,94.9186807 33.5427675,94.9592565 33.5473011,95.0018664 C33.5479142,95.0449261 33.5730977,95.082486 33.6093726,95.0944429 C33.9866383,95.2096338 34.3714683,95.289766 34.7600842,95.3340527 L34.7600842,95.3340527 Z M35.4237726,94.5607665 C35.4820722,94.5666505 35.5396782,94.5794256 35.5956632,94.5988862 C35.667257,94.6253956 35.7260274,94.6845387 35.7580042,94.7622566 C35.8153011,94.8929528 35.7866526,94.958301 35.7580042,94.990975 C35.56224,95.2523676 34.6072926,95.159791 33.9149558,94.990975 C34.3889964,94.7383675 34.9012734,94.5923021 35.4237726,94.5607665 L35.4237726,94.5607665 Z" id="Shape" fill="#4788D8"></path>
                        <path d="M33.6284716,94.996125 L33.6666695,94.996125 C34.1441432,94.83075 35.0990905,94.1031 35.0990905,93.67785 C35.0990905,93.5739 35.0322442,93.446325 34.7887326,93.399075 C34.6120959,93.3642765 34.4287886,93.4036364 34.2826105,93.50775 C33.7621642,93.852675 33.5711747,94.84965 33.5616253,94.892175 C33.5551632,94.9235522 33.5660796,94.9559601 33.5902737,94.977225 C33.6007678,94.9872224 33.614093,94.9938156 33.6284716,94.996125 L33.6284716,94.996125 Z M34.6884632,93.578625 L34.7409853,93.578625 C34.9033263,93.606975 34.9081011,93.673125 34.9081011,93.692025 C34.9081011,93.9519 34.2539621,94.533075 33.7621642,94.7646 C33.844951,94.343239 34.0566446,93.9572525 34.3685558,93.65895 C34.4588979,93.5870073 34.5726096,93.5500581 34.6884632,93.555 L34.6884632,93.578625 Z" id="Shape" fill="#4788D8"></path>
                        <path d="M33.2751411,94.4433 L29.7943579,94.13145 C29.5304965,94.1063597 29.2851464,94.2682227 29.2070653,94.5189 L28.2521179,97.594875 C28.2025749,97.7532777 28.2274991,97.9253222 28.3200182,98.0635708 C28.4125373,98.2018194 28.5628797,98.2916707 28.7295916,98.30835 C30.0999411,98.407575 31.0214653,98.4123 32.8788379,98.577675 C35.0656674,98.776125 34.4879242,98.984025 37.0471832,99.248625 C38.5989726,99.409275 39.0382484,97.689375 38.3841095,97.547625 C35.5192674,96.92865 35.2089095,96.045075 34.2396379,94.939425 C33.9810447,94.6748807 33.6425173,94.5007464 33.2751411,94.4433 Z" id="Path" fill="#263238"></path>
                        <path d="M42.72912,23.402925 C43.7556884,28.9359 42.72912,36.831375 40.5184168,47.972925 L21.9637895,46.1727 C23.3245895,39.741975 25.7406063,34.8327 25.0005221,21.6027 C24.9546399,20.784106 25.2508745,19.9828489 25.8197564,19.3868303 C26.3886384,18.7908117 27.1801251,18.4524612 28.0086063,18.451125 C28.0086063,18.451125 34.56432,19.0512 38.9475284,19.7505 C40.8657865,20.0461175 42.3839082,21.5123852 42.72912,23.402925 Z" id="Path" fill="#4788D8"></path>
                        <path d="M42.8150653,45.87975 C43.5933474,46.6641 44.4575747,47.29725 45.0687411,47.216925 C45.391951,47.1587311 45.6427572,46.9048536 45.6942316,46.583775 C45.7699841,46.3149655 45.7284193,46.0270423 45.5796379,45.789975 C44.8443284,44.50005 41.4876884,43.5645 41.3444463,43.5267 C41.2624785,43.5044873 41.1751537,43.5345448 41.1248084,43.6023 C41.0746023,43.6714788 41.0746023,43.7646462 41.1248084,43.833825 C41.6260334,44.5638822 42.1916658,45.2485364 42.8150653,45.87975 L42.8150653,45.87975 Z M44.9780211,45.676575 C45.0709034,45.7710298 45.1526014,45.8756553 45.2215326,45.988425 C45.3110189,46.1290351 45.3386134,46.2997045 45.2979284,46.460925 C45.2215326,46.7397 45.0926147,46.78695 45.0066695,46.801125 C44.3238821,46.9098 42.7720926,45.383625 41.8028211,44.079525 C42.6622737,44.372475 44.2665853,44.9631 44.9780211,45.676575 Z" id="Shape" fill="#4788D8"></path>
                        <path d="M41.1439074,43.8669 C41.1650457,43.8863743 41.1892328,43.902331 41.2155284,43.91415 C42.2850695,44.325225 45.0782905,44.48115 45.6608084,43.68735 C45.7992758,43.49835 45.8899958,43.1865 45.5366653,42.74235 C45.2754038,42.4231597 44.894822,42.2220699 44.4814484,42.1848 C43.0490274,42.038325 41.2394021,43.49835 41.1391326,43.559775 C41.0853522,43.6073192 41.058583,43.6779599 41.0675116,43.748775 C41.0803074,43.7948945 41.1069467,43.8360849 41.1439074,43.8669 Z M45.1308126,42.9219 L45.2119832,43.011675 C45.4459453,43.2999 45.36,43.418025 45.3313516,43.455825 C44.9780211,43.928325 42.9439832,43.966125 41.7359747,43.659 C42.2993937,43.2621 43.5074021,42.510825 44.4432505,42.605325 C44.7023123,42.6225096 44.946427,42.7315524 45.1308126,42.91245 L45.1308126,42.9219 Z" id="Shape" fill="#4788D8"></path>
                        <path d="M43.0729011,26.379675 L38.9570779,23.99355 C40.0362166,26.6370171 41.3950345,29.1600432 43.0108295,31.520475 C43.1372133,29.8097215 43.1579424,28.0929284 43.0729011,26.379675 L43.0729011,26.379675 Z" id="Path" fill="#000000" opacity="0.2"></path>
                        <path d="M41.7359747,21.975975 C41.9794863,22.221675 42.3280421,22.542975 42.6431747,22.8312 C42.9583074,23.119425 43.2925389,23.412375 43.6315453,23.695875 C44.3143326,24.25815 44.9923453,24.82515 45.7085558,25.3449 C47.1094258,26.4076655 48.5889812,27.3648078 50.1347368,28.20825 C50.5167158,28.430325 50.9130189,28.6146 51.3045474,28.81305 L51.5814821,28.950075 C51.6101305,28.950075 51.61968,28.98315 51.6531032,28.9926 C51.736195,29.0301117 51.824882,29.0540471 51.9157137,29.063475 C52.5927432,29.1140135 53.2729174,29.0222286 53.9115537,28.79415 C55.5711458,28.2337909 57.1705396,27.5120644 58.6862905,26.63955 L58.7531368,26.606475 C59.067866,26.3574832 59.4929216,26.2935623 59.8681892,26.4387907 C60.2434568,26.584019 60.5119244,26.916333 60.5724629,27.3105532 C60.6330013,27.7047733 60.4764134,28.1010082 60.1616842,28.35 C58.7686923,29.8495915 57.1242607,31.0996409 55.3010021,32.04495 C54.2226075,32.6203032 53.0253648,32.9435696 51.80112,32.98995 C51.4171711,32.9936151 51.034129,32.9523793 50.6599579,32.8671 C50.4558512,32.8196508 50.2549244,32.7596851 50.0583411,32.68755 L49.6906863,32.541075 C49.2132126,32.34735 48.7357389,32.1678 48.2916884,31.95045 C46.4617002,31.1137199 44.713179,30.1125457 43.0681263,28.959525 C42.2516463,28.3878 41.4542653,27.783 40.6807579,27.135675 C40.2987789,26.80965 39.9215747,26.4789 39.55392,26.1387 C39.1862653,25.7985 38.8377095,25.463025 38.4318568,25.028325 C37.5642791,24.1410795 37.5877941,22.7258405 38.4843789,21.8673 C39.3809638,21.0087595 40.8111002,21.0320295 41.6786779,21.919275 L41.7359747,21.975975 Z" id="Path" fill="#B55B52"></path>
                        <path d="M60.7919495,23.705325 L59.96592,24.177825 C59.05879,24.6935252 58.3033642,25.4345673 57.7743158,26.3277 L57.0008084,27.627075 L58.2374653,29.517075 C60.5627621,29.6352 61.8853642,27.598725 61.8853642,27.598725 L62.8737347,26.82855 C63.3331671,26.474845 63.4412011,25.8313367 63.1220211,25.349625 L62.2912168,24.0786 C61.971619,23.5789771 61.312421,23.4148555 60.7919495,23.705325 Z" id="Path" fill="#B55B52"></path>
                        <path d="M27.7459958,8.670375 C29.0733726,12.176325 29.6558905,14.29785 32.1292042,15.559425 C35.8439495,17.449425 40.0027453,14.4207 39.8117558,10.584 C39.6398653,7.130025 37.5007832,1.979775 33.3658611,1.6632 C29.2309389,1.346625 26.4186189,5.16915 27.7459958,8.670375 Z" id="Path" fill="#B55B52"></path>
                        <path d="M36.6270063,8.887725 C36.6270063,8.887725 38.1453726,12.195225 36.3882695,14.0616 C34.6311663,15.927975 30.0474189,16.065 28.9349053,15.12 C27.8223916,14.175 23.4296337,10.446975 25.1151158,5.419575 C26.8005979,0.392175 32.1244295,1.21905 32.1244295,1.21905 C31.9859621,-0.3024 36.0635874,0.231525 37.4864589,1.65375 C38.9093305,3.075975 35.7007074,4.313925 35.7007074,4.313925 C35.7007074,4.313925 38.8997811,5.816475 36.6270063,8.887725 Z" id="Path" fill="#263238"></path>
                        <path d="M23.6015242,2.253825 C22.2693726,0.2457 19.9822737,-0.2457 17.3943663,0.921375 C14.5581726,2.187675 13.6461979,2.112075 11.1394611,1.393875 C14.4435789,5.920425 18.2060716,7.687575 21.2953263,7.2765 C22.4324564,7.15282693 23.4195528,6.44526339 23.8927862,5.41460692 C24.3660197,4.38395044 24.2553332,3.18277833 23.6015242,2.253825 Z" id="Path" fill="#263238"></path>
                        <path d="M23.76864,3.945375 C22.7516211,2.565675 22.4937853,2.055375 24.6710653,1.82385 C26.8483453,1.592325 26.7433011,2.29635 26.1512337,3.680775 C25.5591663,5.0652 24.3893558,4.795875 23.76864,3.945375 Z" id="Path" fill="#4788D8"></path>
                        <path d="M24.9623242,7.271775 C24.5755705,8.897175 24.3463832,9.435825 22.5749558,8.443575 C20.8035284,7.451325 21.4528926,6.969375 23.0142316,6.194475 C24.5755705,5.419575 25.2010611,6.270075 24.9623242,7.271775 Z" id="Path" fill="#4788D8"></path>
                        <path d="M24.2031411,6.477975 C23.2481937,6.449625 23.5585516,5.457375 23.6588211,5.060475 C23.7590905,4.663575 23.8020632,4.07295 24.7713347,4.115475 C25.7406063,4.158 25.8599747,4.6116 25.8408758,5.0085 C25.8217768,5.4054 25.8742989,6.525225 24.2031411,6.477975 Z" id="Path" fill="#4788D8"></path>
                        <path d="M34.3446821,8.415225 C34.760209,9.22218217 35.4308981,9.87261087 36.2545768,10.267425 C37.3527663,10.768275 37.92096,9.93195 37.6249263,8.878275 C37.3623158,7.933275 36.46944,6.515775 35.3569263,6.4638 C34.2444126,6.411825 33.8481095,7.4277 34.3446821,8.415225 Z" id="Path" fill="#B55B52"></path>
                        <path d="M22.8471158,42.57225 C15.7900547,47.58075 16.7832,60.144525 9.80730947,65.115225 C2.07223579,70.624575 11.4975663,73.36035 20.8369516,74.7684 C33.5520758,76.68675 39.0955453,81.274725 40.2701305,79.2855 C43.36416,74.0313 42.6240758,48.9888 41.3635453,43.531425 C32.9456842,39.770325 22.8471158,42.57225 22.8471158,42.57225 Z" id="Path" fill="#4788D8"></path>
                        <path d="M42.0702063,49.3479 C38.5130274,49.52745 28.3476126,48.22335 21.2714526,43.947225 C20.1163721,45.2076397 19.1732952,46.643414 18.4782316,48.199725 C27.3258189,53.08065 39.1289684,53.586225 42.3089432,53.624025 C42.2468716,52.09785 42.1657011,50.656725 42.0702063,49.3479 Z" id="Path" fill="#FFFFFF"></path>
                        <path d="M42.4474105,59.26095 C38.6276211,59.539725 24.3607074,57.914325 16.5492379,53.11845 C15.9428463,54.880875 15.3555537,56.65275 14.6393432,58.31595 C25.1724126,63.1071 39.0382484,63.51345 42.4092126,63.555975 C42.4521853,62.138475 42.45696,60.692625 42.4474105,59.26095 Z" id="Path" fill="#FFFFFF"></path>
                        <path d="M9.80730947,65.11995 C9.40260997,65.4042646 9.01518534,65.7119224 8.64704842,66.041325 C18.9413811,71.238825 37.5962779,73.809225 41.6595789,74.3148 C41.8792168,72.8973 42.0463326,71.248275 42.1657011,69.500025 C37.6392505,69.358275 23.1765726,66.768975 12.8774653,61.807725 C12.0762168,63.0949406 11.034212,64.2191033 9.80730947,65.11995 Z" id="Path" fill="#FFFFFF"></path>
                    </g>
                </g>
            </g>
        </g>
    </g>
</svg>