<?xml version="1.0" encoding="UTF-8"?>
<svg width="360px" height="284px" viewBox="0 0 360 284" version="1.1" xmlns="http://www.w3.org/2000/svg" xmlns:xlink="http://www.w3.org/1999/xlink">
    <!-- Generator: Sketch 57.1 (83088) - https://sketch.com -->
    <title>Group 29</title>
    <desc>Created with Sketch.</desc>
    <defs>
        <polygon id="path-1" points="0.490887639 0 0.490887639 25.4809532 20.6885876 37.42515 20.6885876 11.9441968"></polygon>
        <polygon id="path-3" points="0.490887639 0 0.490887639 25.4809532 20.6885876 37.42515 20.6885876 11.9441968"></polygon>
        <polygon id="path-5" points="0.490887639 0 0.490887639 25.4809532 20.6885876 37.42515 20.6885876 11.9441968"></polygon>
        <polygon id="path-7" points="0.490887639 0 0.490887639 25.4809532 20.6885876 37.42515 20.6885876 11.9441968"></polygon>
        <polygon id="path-9" points="0.490887639 0 0.490887639 34.3917032 20.6885876 46.3359 20.6885876 11.9441968"></polygon>
        <polygon id="path-11" points="0.490887639 0 0.490887639 34.3917032 20.6885876 46.3359 20.6885876 11.9441968"></polygon>
        <polygon id="path-13" points="0.490887639 0 0.490887639 25.4809532 20.6885876 37.42515 20.6885876 11.9441968"></polygon>
        <polygon id="path-15" points="0.490887639 0 0.490887639 25.4809532 20.6885876 37.42515 20.6885876 11.9441968"></polygon>
        <polygon id="path-17" points="0.490887639 0 0.490887639 25.4809532 20.6885876 37.42515 20.6885876 11.9441968"></polygon>
        <polygon id="path-19" points="0.135940179 30.1182817 0.135940179 31.5948932 32.3156758 50.347919 64.546975 19.0322096 64.546975 17.555598 32.3672393 0.278594842"></polygon>
        <linearGradient x1="1.82439805%" y1="50.0004277%" x2="49.0732684%" y2="50.0004277%" id="linearGradient-21">
            <stop stop-color="#DDE1E4" offset="0%"></stop>
            <stop stop-color="#BFC3CA" offset="100%"></stop>
        </linearGradient>
        <polygon id="path-22" points="0.135940179 30.1182817 0.135940179 31.5948932 32.3156758 50.347919 64.546975 19.0322096 64.546975 17.555598 32.3672393 0.278594842"></polygon>
        <polygon id="path-24" points="0.135940179 30.1182817 0.135940179 31.5948932 32.3156758 50.347919 64.546975 19.0322096 64.546975 17.555598 32.3672393 0.278594842"></polygon>
        <polygon id="path-26" points="0.135940179 30.1182817 0.135940179 31.5948932 32.3156758 50.347919 64.546975 19.0322096 64.546975 17.555598 32.3672393 0.278594842"></polygon>
    </defs>
    <g id="Leaftech-webdesign" stroke="none" stroke-width="1" fill="none" fill-rule="evenodd">
        <g id="Labs---UI" transform="translate(-757.000000, -1778.000000)">
            <g id="Photovoltaics" transform="translate(260.000000, 1775.000000)">
                <g id="Group-29" transform="translate(480.000000, 0.000000)">
                    <ellipse id="Oval" fill="#C1DBF5" transform="translate(196.927575, 167.993433) rotate(-9.000000) translate(-196.927575, -167.993433) " cx="196.927575" cy="167.993433" rx="180.888225" ry="116.4338"></ellipse>
                    <g id="Group-17-Copy-2" transform="translate(68.909800, 41.583500)">
                        <path d="M25.249301,65.557229 C25.252587,65.5607409 25.2559212,65.5646325 25.2593025,65.5688994 C25.2599496,65.5678601 25.2604864,65.5676156 25.2610769,65.5677317 L44.2404053,69.3852137 C44.364766,69.4096627 44.6369157,69.4910778 44.5241116,69.5488582 L27.1270379,78.4636205 C27.109457,78.4840932 27.0898626,78.4960924 27.0681681,78.4991414 C24.6793285,78.8348709 22.3575075,76.57968 21.6545111,73.3649705 L19.1185619,73.6745386 C18.5443318,73.7446844 18.0172799,73.3485981 17.9249405,72.7775165 C17.8370912,72.234205 18.2063164,71.7225482 18.7496279,71.6346989 C18.7623353,71.6326443 18.7750813,71.630836 18.7878588,71.6292751 L21.4427471,71.3042392 C21.4789426,68.3205914 23.0273157,65.8695086 25.249301,65.557229 Z" id="Combined-Shape-Copy" fill="#263238" opacity="0.188836961" transform="translate(31.231458, 72.044728) rotate(1.000000) translate(-31.231458, -72.044728) "></path>
                        <g id="Group-14-Copy" stroke="#263238" stroke-linejoin="round" stroke-width="0.891075">
                            <rect id="Rectangle" fill="#FFFFFF" x="13.403221" y="49.9002" width="5.9405" height="24.35605" rx="2.97025"></rect>
                            <path d="M17.191506,0.0711973594 L33.7769963,42.553722 C33.8323481,42.6044257 33.86085,42.6573764 33.86085,42.7126331 C33.86085,48.6507252 26.2808405,53.4645 16.930425,53.4645 C7.58000946,53.4645 0,48.6507252 0,42.7126331 C0.0100605242,42.7063542 0.0210865342,42.7000871 0.0330668087,42.6938322 C0.0311971206,42.6919964 0.0306385138,42.6905841 0.0311930363,42.6891637 L16.669344,0.665247359 C16.7769153,0.389707799 17.0839347,-0.204342201 17.191506,0.0711973594 Z" id="Combined-Shape" fill="#3087DF"></path>
                        </g>
                    </g>
                    <g id="Group-17" transform="translate(298.213100, 41.583500)">
                        <path d="M25.249301,65.557229 C25.252587,65.5607409 25.2559212,65.5646325 25.2593025,65.5688994 C25.2599496,65.5678601 25.2604864,65.5676156 25.2610769,65.5677317 L44.2404053,69.3852137 C44.364766,69.4096627 44.6369157,69.4910778 44.5241116,69.5488582 L27.1270379,78.4636205 C27.109457,78.4840932 27.0898626,78.4960924 27.0681681,78.4991414 C24.6793285,78.8348709 22.3575075,76.57968 21.6545111,73.3649705 L19.1185619,73.6745386 C18.5443318,73.7446844 18.0172799,73.3485981 17.9249405,72.7775165 C17.8370912,72.234205 18.2063164,71.7225482 18.7496279,71.6346989 C18.7623353,71.6326443 18.7750813,71.630836 18.7878588,71.6292751 L21.4427471,71.3042392 C21.4789426,68.3205914 23.0273157,65.8695086 25.249301,65.557229 Z" id="Combined-Shape-Copy" fill="#263238" opacity="0.188836961" transform="translate(31.231458, 72.044728) rotate(1.000000) translate(-31.231458, -72.044728) "></path>
                        <g id="Group-14-Copy" stroke="#263238" stroke-linejoin="round" stroke-width="0.891075">
                            <rect id="Rectangle" fill="#FFFFFF" x="13.403221" y="49.9002" width="5.9405" height="24.35605" rx="2.97025"></rect>
                            <path d="M17.191506,0.0711973594 L33.7769963,42.553722 C33.8323481,42.6044257 33.86085,42.6573764 33.86085,42.7126331 C33.86085,48.6507252 26.2808405,53.4645 16.930425,53.4645 C7.58000946,53.4645 0,48.6507252 0,42.7126331 C0.0100605242,42.7063542 0.0210865342,42.7000871 0.0330668087,42.6938322 C0.0311971206,42.6919964 0.0306385138,42.6905841 0.0311930363,42.6891637 L16.669344,0.665247359 C16.7769153,0.389707799 17.0839347,-0.204342201 17.191506,0.0711973594 Z" id="Combined-Shape" fill="#3087DF"></path>
                        </g>
                    </g>
                    <g id="Group-17-Copy" transform="translate(323.757250, 99.800400)">
                        <path d="M25.249301,65.557229 C25.252587,65.5607409 25.2559212,65.5646325 25.2593025,65.5688994 C25.2599496,65.5678601 25.2604864,65.5676156 25.2610769,65.5677317 L44.2404053,69.3852137 C44.364766,69.4096627 44.6369157,69.4910778 44.5241116,69.5488582 L27.1270379,78.4636205 C27.109457,78.4840932 27.0898626,78.4960924 27.0681681,78.4991414 C24.6793285,78.8348709 22.3575075,76.57968 21.6545111,73.3649705 L19.1185619,73.6745386 C18.5443318,73.7446844 18.0172799,73.3485981 17.9249405,72.7775165 C17.8370912,72.234205 18.2063164,71.7225482 18.7496279,71.6346989 C18.7623353,71.6326443 18.7750813,71.630836 18.7878588,71.6292751 L21.4427471,71.3042392 C21.4789426,68.3205914 23.0273157,65.8695086 25.249301,65.557229 Z" id="Combined-Shape-Copy" fill="#263238" opacity="0.188836961" transform="translate(31.231458, 72.044728) rotate(1.000000) translate(-31.231458, -72.044728) "></path>
                        <g id="Group-14-Copy" stroke="#263238" stroke-linejoin="round" stroke-width="0.891075">
                            <rect id="Rectangle" fill="#FFFFFF" x="13.403221" y="49.9002" width="5.9405" height="24.35605" rx="2.97025"></rect>
                            <path d="M17.191506,0.0711973594 L33.7769963,42.553722 C33.8323481,42.6044257 33.86085,42.6573764 33.86085,42.7126331 C33.86085,48.6507252 26.2808405,53.4645 16.930425,53.4645 C7.58000946,53.4645 0,48.6507252 0,42.7126331 C0.0100605242,42.7063542 0.0210865342,42.7000871 0.0330668087,42.6938322 C0.0311971206,42.6919964 0.0306385138,42.6905841 0.0311930363,42.6891637 L16.669344,0.665247359 C16.7769153,0.389707799 17.0839347,-0.204342201 17.191506,0.0711973594 Z" id="Combined-Shape" fill="#3087DF"></path>
                        </g>
                    </g>
                    <polygon id="Rectangle" stroke="#263238" stroke-width="0.891075" fill="#FFFFFF" stroke-linejoin="round" points="99.20635 74.25625 211.865194 140.049216 212.6699 259.59985 99.20635 193.421137"></polygon>
                    <polygon id="Path-10" fill="#263238" points="211.4818 140.1958 298.2131 90.2956 298.2131 210.086343 212.6699 259.59985"></polygon>
                    <polygon id="Path-11" stroke="#263238" stroke-width="0.891075" fill="#FFFFFF" stroke-linejoin="round" points="99.20635 74.5697764 185.068133 24.9501 298.2131 89.7758062 211.54887 140.1958"></polygon>
                    <polygon id="Path-14" stroke="#263238" stroke-width="0.891075" fill="#C1DBF5" stroke-linejoin="round" points="108.71115 75.1680477 187.02985 30.29655 286.92615 88.7897523 210.205791 133.66125"></polygon>
                    <polygon id="Path-16" stroke="#263238" stroke-width="0.891075" fill="#8FB6E6" stroke-linejoin="round" points="114.305343 78.4377448 186.230679 35.9130227 281.331957 92.07775 286.92615 88.868337 187.02985 30.29655 108.71115 75.2283318"></polygon>
                    <g id="Group-16-Copy-3" transform="translate(236.624800, 160.383900) scale(-1, 1) translate(-236.624800, -160.383900) translate(226.124800, 141.383900)">
                        <polygon id="Path-15-Copy" stroke="#263238" stroke-width="0.891075" fill="#FFFFFF" stroke-linejoin="round" points="0.490887639 0 0.490887639 25.4809532 20.6885876 37.42515 20.6885876 11.9441968"></polygon>
                        <g id="Rectangle">
                            <mask id="mask-2" fill="white">
                                <use xlink:href="#path-1"></use>
                            </mask>
                            <g id="Mask"></g>
                            <polygon fill="#8FB6E6" mask="url(#mask-2)" transform="translate(8.240512, 17.913426) rotate(3.000000) translate(-8.240512, -17.913426) " points="-8.68991263 27.0097492 23.3757899 6.03242559 25.1709374 8.81710194 -6.89476515 29.7944256"></polygon>
                            <polygon id="Rectangle-Copy-98" fill="#8FB6E6" mask="url(#mask-2)" transform="translate(14.641746, 20.628361) rotate(3.000000) translate(-14.641746, -20.628361) " points="-2.2886787 29.7246847 29.7770238 8.74736101 31.5721713 11.5320374 -0.493531226 32.509361"></polygon>
                        </g>
                        <polygon id="Path-15-Copy" stroke="#263238" stroke-width="0.891075" stroke-linejoin="round" points="0.490887639 0 0.490887639 25.4809532 20.6885876 37.42515 20.6885876 11.9441968"></polygon>
                        <polygon id="Path-15-Copy" stroke="#263238" stroke-width="0.891075" fill="#FFFFFF" stroke-linejoin="round" points="0.490887639 0 0.490887639 5.87730319 20.6885876 17.8215 20.6885876 11.9441968"></polygon>
                    </g>
                    <g id="Group-16-Copy-5" transform="translate(236.624800, 211.472200) scale(-1, 1) translate(-236.624800, -211.472200) translate(226.124800, 192.472200)">
                        <polygon id="Path-15-Copy" stroke="#263238" stroke-width="0.891075" fill="#FFFFFF" stroke-linejoin="round" points="0.490887639 0 0.490887639 25.4809532 20.6885876 37.42515 20.6885876 11.9441968"></polygon>
                        <g id="Rectangle">
                            <mask id="mask-4" fill="white">
                                <use xlink:href="#path-3"></use>
                            </mask>
                            <g id="Mask"></g>
                            <polygon fill="#8FB6E6" mask="url(#mask-4)" transform="translate(8.240512, 17.913426) rotate(3.000000) translate(-8.240512, -17.913426) " points="-8.68991263 27.0097492 23.3757899 6.03242559 25.1709374 8.81710194 -6.89476515 29.7944256"></polygon>
                            <polygon id="Rectangle-Copy-98" fill="#8FB6E6" mask="url(#mask-4)" transform="translate(14.641746, 20.628361) rotate(3.000000) translate(-14.641746, -20.628361) " points="-2.2886787 29.7246847 29.7770238 8.74736101 31.5721713 11.5320374 -0.493531226 32.509361"></polygon>
                        </g>
                        <polygon id="Path-15-Copy" stroke="#263238" stroke-width="0.891075" stroke-linejoin="round" points="0.490887639 0 0.490887639 25.4809532 20.6885876 37.42515 20.6885876 11.9441968"></polygon>
                        <polygon id="Path-15-Copy" stroke="#263238" stroke-width="0.891075" fill="#FFFFFF" stroke-linejoin="round" points="0.490887639 0 0.490887639 5.87730319 20.6885876 17.8215 20.6885876 11.9441968"></polygon>
                    </g>
                    <g id="Group-16-Copy-4" transform="translate(278.208300, 136.027850) scale(-1, 1) translate(-278.208300, -136.027850) translate(267.708300, 117.027850)">
                        <polygon id="Path-15-Copy" stroke="#263238" stroke-width="0.891075" fill="#FFFFFF" stroke-linejoin="round" points="0.490887639 0 0.490887639 25.4809532 20.6885876 37.42515 20.6885876 11.9441968"></polygon>
                        <g id="Rectangle">
                            <mask id="mask-6" fill="white">
                                <use xlink:href="#path-5"></use>
                            </mask>
                            <g id="Mask"></g>
                            <polygon fill="#8FB6E6" mask="url(#mask-6)" transform="translate(8.240512, 17.913426) rotate(3.000000) translate(-8.240512, -17.913426) " points="-8.68991263 27.0097492 23.3757899 6.03242559 25.1709374 8.81710194 -6.89476515 29.7944256"></polygon>
                            <polygon id="Rectangle-Copy-98" fill="#8FB6E6" mask="url(#mask-6)" transform="translate(14.641746, 20.628361) rotate(3.000000) translate(-14.641746, -20.628361) " points="-2.2886787 29.7246847 29.7770238 8.74736101 31.5721713 11.5320374 -0.493531226 32.509361"></polygon>
                        </g>
                        <polygon id="Path-15-Copy" stroke="#263238" stroke-width="0.891075" stroke-linejoin="round" points="0.490887639 0 0.490887639 25.4809532 20.6885876 37.42515 20.6885876 11.9441968"></polygon>
                        <polygon id="Path-15-Copy" stroke="#263238" stroke-width="0.891075" fill="#FFFFFF" stroke-linejoin="round" points="0.490887639 0 0.490887639 5.87730319 20.6885876 17.8215 20.6885876 11.9441968"></polygon>
                    </g>
                    <g id="Group-16-Copy-6" transform="translate(278.208300, 187.116150) scale(-1, 1) translate(-278.208300, -187.116150) translate(267.708300, 168.116150)">
                        <polygon id="Path-15-Copy" stroke="#263238" stroke-width="0.891075" fill="#FFFFFF" stroke-linejoin="round" points="0.490887639 0 0.490887639 25.4809532 20.6885876 37.42515 20.6885876 11.9441968"></polygon>
                        <g id="Rectangle">
                            <mask id="mask-8" fill="white">
                                <use xlink:href="#path-7"></use>
                            </mask>
                            <g id="Mask"></g>
                            <polygon fill="#8FB6E6" mask="url(#mask-8)" transform="translate(8.240512, 17.913426) rotate(3.000000) translate(-8.240512, -17.913426) " points="-8.68991263 27.0097492 23.3757899 6.03242559 25.1709374 8.81710194 -6.89476515 29.7944256"></polygon>
                            <polygon id="Rectangle-Copy-98" fill="#8FB6E6" mask="url(#mask-8)" transform="translate(14.641746, 20.628361) rotate(3.000000) translate(-14.641746, -20.628361) " points="-2.2886787 29.7246847 29.7770238 8.74736101 31.5721713 11.5320374 -0.493531226 32.509361"></polygon>
                        </g>
                        <polygon id="Path-15-Copy" stroke="#263238" stroke-width="0.891075" stroke-linejoin="round" points="0.490887639 0 0.490887639 25.4809532 20.6885876 37.42515 20.6885876 11.9441968"></polygon>
                        <polygon id="Path-15-Copy" stroke="#263238" stroke-width="0.891075" fill="#FFFFFF" stroke-linejoin="round" points="0.490887639 0 0.490887639 5.87730319 20.6885876 17.8215 20.6885876 11.9441968"></polygon>
                    </g>
                    <polygon id="Path-17" stroke="#263238" stroke-width="0.891075" fill="#3087DF" stroke-linejoin="round" points="121.1862 87.32535 121.1862 206.13535 188.9079 245.9367 188.9079 127.1267"></polygon>
                    <g id="Group-16" transform="translate(134.255300, 179.997150)">
                        <g id="Group-16-Copy-11">
                            <polygon id="Path-15-Copy" stroke="#263238" stroke-width="0.891075" fill="#FFFFFF" stroke-linejoin="round" points="0.490887639 0 0.490887639 34.3917032 20.6885876 46.3359 20.6885876 11.9441968"></polygon>
                            <g id="Rectangle">
                                <mask id="mask-10" fill="white">
                                    <use xlink:href="#path-9"></use>
                                </mask>
                                <g id="Mask"></g>
                                <polygon fill="#8FB6E6" mask="url(#mask-10)" transform="translate(8.195087, 20.996202) rotate(1.000000) translate(-8.195087, -20.996202) " points="-8.73533784 30.0925261 23.3303647 9.11520244 25.1255122 11.8998788 -6.94019036 32.8772024"></polygon>
                                <polygon id="Rectangle-Copy-98" fill="#8FB6E6" mask="url(#mask-10)" transform="translate(14.687172, 23.486084) rotate(1.000000) translate(-14.687172, -23.486084) " points="-2.24325349 32.5824078 29.822449 11.6050842 31.6175965 14.3897605 -0.448106016 35.3670842"></polygon>
                            </g>
                            <polygon id="Path-15-Copy" stroke="#263238" stroke-width="0.891075" stroke-linejoin="round" points="0.490887639 0 0.490887639 34.3917032 20.6885876 46.3359 20.6885876 11.9441968"></polygon>
                        </g>
                        <g id="Group-16-Copy-13" transform="translate(20.197700, 11.881000)">
                            <polygon id="Path-15-Copy" stroke="#263238" stroke-width="0.891075" fill="#FFFFFF" stroke-linejoin="round" points="0.490887639 0 0.490887639 34.3917032 20.6885876 46.3359 20.6885876 11.9441968"></polygon>
                            <g id="Rectangle">
                                <mask id="mask-12" fill="white">
                                    <use xlink:href="#path-11"></use>
                                </mask>
                                <g id="Mask"></g>
                                <polygon fill="#8FB6E6" mask="url(#mask-12)" transform="translate(8.195087, 20.996202) rotate(1.000000) translate(-8.195087, -20.996202) " points="-8.73533784 30.0925261 23.3303647 9.11520244 25.1255122 11.8998788 -6.94019036 32.8772024"></polygon>
                                <polygon id="Rectangle-Copy-98" fill="#8FB6E6" mask="url(#mask-12)" transform="translate(14.687172, 23.486084) rotate(1.000000) translate(-14.687172, -23.486084) " points="-2.24325349 32.5824078 29.822449 11.6050842 31.6175965 14.3897605 -0.448106016 35.3670842"></polygon>
                            </g>
                            <polygon id="Path-15-Copy" stroke="#263238" stroke-width="0.891075" stroke-linejoin="round" points="0.490887639 0 0.490887639 34.3917032 20.6885876 46.3359 20.6885876 11.9441968"></polygon>
                        </g>
                    </g>
                    <g id="Group-16-Copy-7" transform="translate(110.493300, 102.770650)">
                        <polygon id="Path-15-Copy" stroke="#263238" stroke-width="0.891075" fill="#FFFFFF" stroke-linejoin="round" points="0.490887639 0 0.490887639 25.4809532 20.6885876 37.42515 20.6885876 11.9441968"></polygon>
                        <g id="Rectangle">
                            <mask id="mask-14" fill="white">
                                <use xlink:href="#path-13"></use>
                            </mask>
                            <g id="Mask"></g>
                            <polygon fill="#8FB6E6" mask="url(#mask-14)" transform="translate(8.240512, 17.913426) rotate(3.000000) translate(-8.240512, -17.913426) " points="-8.68991263 27.0097492 23.3757899 6.03242559 25.1709374 8.81710194 -6.89476515 29.7944256"></polygon>
                            <polygon id="Rectangle-Copy-98" fill="#8FB6E6" mask="url(#mask-14)" transform="translate(14.641746, 20.628361) rotate(3.000000) translate(-14.641746, -20.628361) " points="-2.2886787 29.7246847 29.7770238 8.74736101 31.5721713 11.5320374 -0.493531226 32.509361"></polygon>
                        </g>
                        <polygon id="Path-15-Copy" stroke="#263238" stroke-width="0.891075" stroke-linejoin="round" points="0.490887639 0 0.490887639 25.4809532 20.6885876 37.42515 20.6885876 11.9441968"></polygon>
                        <polygon id="Path-15-Copy" stroke="#263238" stroke-width="0.891075" fill="#FFFFFF" stroke-linejoin="round" points="0.490887639 0 0.490887639 5.87730319 20.6885876 17.8215 20.6885876 11.9441968"></polygon>
                    </g>
                    <g id="Group-16-Copy-8" transform="translate(145.542250, 122.968350)">
                        <polygon id="Path-15-Copy" stroke="#263238" stroke-width="0.891075" fill="#FFFFFF" stroke-linejoin="round" points="0.490887639 0 0.490887639 25.4809532 20.6885876 37.42515 20.6885876 11.9441968"></polygon>
                        <g id="Rectangle">
                            <mask id="mask-16" fill="white">
                                <use xlink:href="#path-15"></use>
                            </mask>
                            <g id="Mask"></g>
                            <polygon fill="#8FB6E6" mask="url(#mask-16)" transform="translate(8.240512, 17.913426) rotate(3.000000) translate(-8.240512, -17.913426) " points="-8.68991263 27.0097492 23.3757899 6.03242559 25.1709374 8.81710194 -6.89476515 29.7944256"></polygon>
                            <polygon id="Rectangle-Copy-98" fill="#8FB6E6" mask="url(#mask-16)" transform="translate(14.641746, 20.628361) rotate(3.000000) translate(-14.641746, -20.628361) " points="-2.2886787 29.7246847 29.7770238 8.74736101 31.5721713 11.5320374 -0.493531226 32.509361"></polygon>
                        </g>
                        <polygon id="Path-15-Copy" stroke="#263238" stroke-width="0.891075" stroke-linejoin="round" points="0.490887639 0 0.490887639 25.4809532 20.6885876 37.42515 20.6885876 11.9441968"></polygon>
                        <polygon id="Path-15-Copy" stroke="#263238" stroke-width="0.891075" fill="#FFFFFF" stroke-linejoin="round" points="0.490887639 0 0.490887639 5.87730319 20.6885876 17.8215 20.6885876 11.9441968"></polygon>
                    </g>
                    <g id="Group-16-Copy-9" transform="translate(180.591200, 142.572000)">
                        <polygon id="Path-15-Copy" stroke="#263238" stroke-width="0.891075" fill="#FFFFFF" stroke-linejoin="round" points="0.490887639 0 0.490887639 25.4809532 20.6885876 37.42515 20.6885876 11.9441968"></polygon>
                        <g id="Rectangle">
                            <mask id="mask-18" fill="white">
                                <use xlink:href="#path-17"></use>
                            </mask>
                            <g id="Mask"></g>
                            <polygon fill="#8FB6E6" mask="url(#mask-18)" transform="translate(8.240512, 17.913426) rotate(3.000000) translate(-8.240512, -17.913426) " points="-8.68991263 27.0097492 23.3757899 6.03242559 25.1709374 8.81710194 -6.89476515 29.7944256"></polygon>
                            <polygon id="Rectangle-Copy-98" fill="#8FB6E6" mask="url(#mask-18)" transform="translate(14.641746, 20.628361) rotate(3.000000) translate(-14.641746, -20.628361) " points="-2.2886787 29.7246847 29.7770238 8.74736101 31.5721713 11.5320374 -0.493531226 32.509361"></polygon>
                        </g>
                        <polygon id="Path-15-Copy" stroke="#263238" stroke-width="0.891075" stroke-linejoin="round" points="0.490887639 0 0.490887639 25.4809532 20.6885876 37.42515 20.6885876 11.9441968"></polygon>
                        <polygon id="Path-15-Copy" stroke="#263238" stroke-width="0.891075" fill="#FFFFFF" stroke-linejoin="round" points="0.490887639 0 0.490887639 5.87730319 20.6885876 17.8215 20.6885876 11.9441968"></polygon>
                    </g>
                    <g id="Group-27" transform="translate(129.002962, 20.865279) rotate(-7.000000) translate(-129.002962, -20.865279) translate(110.502962, 2.365279)" stroke="#263238" stroke-linecap="round" stroke-linejoin="round" stroke-width="0.891075">
                        <path d="M17.8215,32.67275 C19.207341,34.063631 20.5948358,35.4411123 21.97985,36.8311" id="Stroke-243"></path>
                        <path d="M0,16.03935 L15.4453,30.29655" id="Stroke-245"></path>
                        <path d="M16.6334,7.72265 C20.9915071,15.8390632 25.3478738,23.9580303 29.7025,32.0787" id="Stroke-247"></path>
                        <path d="M13.0691,-4.54747351e-13 C13.8605256,1.38995796 14.6461813,2.77371075 15.4453,4.15835" id="Stroke-249"></path>
                        <path d="M34.4549,16.6334 L36.8311,26.1382" id="Stroke-251"></path>
                        <path d="M30.8906,2.3762 L33.2668,13.0691" id="Stroke-253"></path>
                    </g>
                    <g id="Group-22" transform="translate(163.363750, 26.732250)">
                        <g id="Group-21-Copy-2">
                            <polygon id="Stroke-171-Copy" stroke="#000000" stroke-width="0.59405" points="62.7540295 18.2065558 31.8627958 48.2205852 31.871585 51.1702744 32.837815 51.7639818 62.7962178 33.2229944"></polygon>
                            <path d="M63.7204939,18.8001454 L32.8292602,48.8141748 L32.8380494,51.763864 L63.7626822,33.815995 L63.7204939,18.8001454 Z M62.2614807,22.2716845 L62.2913641,32.9648966 L34.8859413,48.8701294 L62.2614807,22.2716845 Z" id="Fill-173-Copy" fill="#FFFFFF"></path>
                            <path d="M63.7204939,18.8001454 L32.8292602,48.8141748 L32.8380494,51.763864 L63.7626822,33.815995 L63.7204939,18.8001454 Z M62.2614807,22.2716845 L62.2913641,32.9648966 L34.8859413,48.8701294 L62.2614807,22.2716845 L62.2614807,22.2716845 Z" id="Stroke-175-Copy" stroke="#263238" stroke-width="0.891075" stroke-linejoin="round"></path>
                            <g id="Group-180-Copy" transform="translate(0.000000, 1.198017)">
                                <mask id="mask-20" fill="white">
                                    <use xlink:href="#path-19"></use>
                                </mask>
                                <g id="Clip-179"></g>
                                <polygon id="Fill-178" fill="url(#linearGradient-21)" mask="url(#mask-20)" points="0.135940179 30.1182817 0.135940179 31.5948932 32.3156758 50.347919 64.546975 19.0322096 64.546975 17.555598 32.3672393 0.278594842"></polygon>
                            </g>
                            <polygon id="Fill-181-Copy" fill="#FFFFFF" points="32.3670636 2.84217094e-14 64.5467992 18.7536147 32.3155 50.0699131 0.135764394 31.3162984"></polygon>
                            <polygon id="Stroke-183-Copy" stroke="#263238" stroke-width="0.891075" stroke-linejoin="round" points="32.3670636 2.84217094e-14 64.5467992 18.7536147 32.3155 50.0699131 0.135764394 31.3162984"></polygon>
                            <path d="M8.07308876,25.576479 L3.59057856,29.9326892 C3.13178046,30.3773808 3.22494636,31.1401299 3.77573846,31.4617214 L8.47739361,34.2017281 C8.8488853,34.4178895 9.31764454,34.3601679 9.62643969,34.0603692 L14.1060201,29.708282 C14.5636463,29.2635904 14.4716523,28.5014303 13.9202743,28.1798388 L9.22330674,25.436298 C8.85181505,25.2195477 8.38188391,25.2766803 8.07308876,25.576479" id="Fill-185-Copy" fill="#4788D8"></path>
                            <path d="M25.5685898,16.9083509 L20.8241603,14.1377164 C20.4626298,13.926856 20.0061755,13.9822216 19.7055836,14.2743633 L16.0246517,17.8513326 C15.5787445,18.2842443 15.6683947,19.0257895 16.2045381,19.3385461 L20.9483815,22.1091806 C21.3099121,22.320041 21.7669523,22.2646754 22.0675442,21.9725337 L25.7490621,18.3955644 C26.1943833,17.9626527 26.1047331,17.2211075 25.5685898,16.9083509" id="Fill-187-Copy" fill="#4788D8"></path>
                            <path d="M19.6816183,22.5078127 L15.0590663,19.8078577 C14.6717539,19.5816834 14.1813146,19.6417609 13.8590426,19.9545175 L10.2800658,23.4325356 C9.80193142,23.896664 9.89861302,24.6918078 10.4728431,25.0275352 L15.0959811,27.7269013 C15.4832934,27.9536645 15.9731468,27.894176 16.2960047,27.5802414 L19.8749815,24.1028124 C20.3531159,23.638684 20.2564343,22.8429511 19.6816183,22.5078127" id="Fill-189-Copy" fill="#4788D8"></path>
                            <path d="M23.6539427,34.635111 L19.1110797,39.0484538 C18.6757196,39.4719415 18.7636119,40.1958169 19.2874504,40.5015055 L25.0221337,43.8434656 C25.374875,44.0484361 25.8201963,43.9942485 26.1137568,43.7091747 L30.6513462,39.2999548 C31.0872923,38.8770561 30.9993999,38.1531807 30.4761474,37.8474921 L24.7461517,34.501409 C24.3934104,34.2952606 23.9469172,34.3500372 23.6539427,34.635111" id="Fill-191-Copy" fill="#4788D8"></path>
                            <path d="M15.4723947,29.7500417 L10.7338248,34.3536301 C10.3588174,34.7188072 10.4344048,35.3419644 10.8861715,35.6046564 L16.848789,39.0797295 C17.1523106,39.2570171 17.5355213,39.2098974 17.7886513,38.9642863 L22.5219477,34.36541 C22.8969551,34.0008218 22.8213677,33.3776646 22.3701869,33.1143837 L16.4128429,29.6351876 C16.1093213,29.4579 15.7255247,29.5044306 15.4723947,29.7500417" id="Fill-193-Copy" fill="#4788D8"></path>
                            <path d="M37.7361733,5.10482345 L32.9677199,2.32594298 C32.6114629,2.11861659 32.1596962,2.17339316 31.8637919,2.46200093 L27.6332398,6.57201109 C27.1926061,7.00021077 27.2810844,7.73292109 27.8107824,8.0415547 L32.5751341,10.8245581 C32.932563,11.0324735 33.3831578,10.977697 33.680234,10.6890892 L37.9148877,6.57495606 C38.3555214,6.14734538 38.2664572,5.41345706 37.7361733,5.10482345" id="Fill-195-Copy" fill="#4788D8"></path>
                            <path d="M56.8653588,24.243759 L61.1445447,20.0860402 C61.5763891,19.6666754 61.4896687,18.947512 60.9693459,18.6441794 L56.7798102,16.2033823 C56.4294127,15.9990009 55.9870212,16.0531884 55.6963904,16.3359062 L51.4201343,20.4900911 C50.9882899,20.9100448 51.0750103,21.6286192 51.5947471,21.9319519 L55.7807671,24.376872 C56.1311646,24.5806644 56.5741421,24.5264768 56.8653588,24.243759" id="Fill-197-Copy" fill="#4788D8"></path>
                            <path d="M50.1538398,20.3514415 L54.4746281,16.1524931 C54.8918238,15.7478532 54.8074471,15.0534276 54.3058748,14.7612858 L48.5032214,11.379863 C48.1645428,11.1825496 47.7379719,11.2343812 47.4567164,11.5076751 L43.1406157,15.7013226 C42.72342,16.1065514 42.8077966,16.800388 43.3087831,17.0931188 L49.1073348,20.4792535 C49.4454274,20.676567 49.8731702,20.6241464 50.1538398,20.3514415" id="Fill-199-Copy" fill="#4788D8"></path>
                            <path d="M31.4429633,11.3013499 L26.5965788,8.47122687 C26.2573143,8.27273541 25.8283996,8.325745 25.5459721,8.60021688 L21.7806636,12.2584675 C21.36171,12.6654634 21.4455007,13.362245 21.9494169,13.6561537 L26.7952155,16.4862768 C27.13448,16.6847682 27.5639806,16.6323477 27.8464081,16.3578758 L31.6117166,12.6990361 C32.0306702,12.2926293 31.9462936,11.5958477 31.4429633,11.3013499" id="Fill-201-Copy" fill="#4788D8"></path>
                            <path d="M41.908775,15.5290414 L46.210227,11.3489408 C46.6315243,10.9401779 46.5465617,10.2392734 46.0397158,9.94418666 L40.2517111,6.5710098 C39.9106888,6.37192934 39.4794303,6.42493893 39.195245,6.70058879 L34.8984806,10.8759774 C34.4771833,11.2847403 34.5621459,11.9844669 35.0684059,12.2801426 L40.8517229,15.6580314 C41.1933312,15.8577009 41.6251757,15.8046913 41.908775,15.5290414" id="Fill-203-Copy" fill="#4788D8"></path>
                            <path d="M27.4414587,45.2531673 L31.7798254,47.7817247 C32.0979958,47.9666693 32.4999568,47.9171937 32.7648058,47.6603917 L37.431304,43.1268938 C37.8238898,42.7452248 37.7447867,42.0926178 37.2725118,41.816379 L32.9376607,39.2848766 C32.6194904,39.099343 32.2169434,39.1488186 31.9520944,39.4056206 L27.2826665,43.9426525 C26.8900806,44.3243215 26.9685978,44.9775175 27.4414587,45.2531673" id="Fill-205-Copy" fill="#4788D8"></path>
                            <path d="M37.3264777,22.6366849 L43.3963239,26.1818485 C43.6764075,26.3450002 44.0297348,26.3014145 44.2623565,26.0758293 L48.259115,22.1919934 C48.604239,21.856855 48.535097,21.2831734 48.1202451,21.0410963 L42.0503989,17.4959328 C41.7703153,17.332781 41.416988,17.3757777 41.1843662,17.6019519 L37.1876078,21.4857879 C36.8424838,21.8209263 36.9116258,22.3946078 37.3264777,22.6366849" id="Fill-207-Copy" fill="#4788D8"></path>
                            <path d="M25.8890453,34.030625 L31.6747062,37.4096918 C32.0157285,37.6087722 32.4464011,37.5557627 32.7300004,37.2807018 L36.4900354,33.6271631 C36.9107468,33.2189893 36.8257842,32.5198517 36.3201102,32.224765 L30.5350353,28.8456981 C30.1940129,28.6466177 29.7627544,28.6990383 29.479741,28.9746881 L25.719706,32.6276378 C25.2989946,33.0369897 25.3839572,33.7355383 25.8890453,34.030625" id="Fill-209-Copy" fill="#4788D8"></path>
                            <path d="M31.6850189,28.3793904 L37.490602,31.7702372 C37.8269368,31.9669617 38.2529217,31.9145411 38.5330054,31.6424252 L42.3100329,27.9723946 C42.7254708,27.5689327 42.6416801,26.8786301 42.1430374,26.5876663 L36.3362824,23.1968196 C35.9999476,23.0000951 35.5751346,23.0525157 35.2950509,23.3240426 L31.5174374,26.9940732 C31.1025855,27.3975351 31.1857903,28.0878377 31.6850189,28.3793904" id="Fill-211-Copy" fill="#4788D8"></path>
                            <path d="M21.239774,24.1465158 L17.4510275,27.8277373 C17.0396912,28.2270762 17.122896,28.9108999 17.616851,29.1995077 L23.4376689,32.5991894 C23.7710739,32.7941468 24.1923712,32.7423152 24.4701111,32.4731443 L28.2588576,28.7919229 C28.6696079,28.391995 28.5869891,27.7081712 28.0924481,27.4195635 L22.2722162,24.0204708 C21.9382253,23.8255133 21.5175138,23.8773449 21.239774,24.1465158" id="Fill-213-Copy" fill="#4788D8"></path>
                            <path d="M34.2576868,38.9179913 L38.3013211,41.279863 C38.682188,41.5019143 39.1638381,41.4430147 39.4802506,41.1355591 L43.0855951,37.6322143 C43.5555262,37.1757428 43.4606025,36.3947349 42.8957476,36.0643084 L38.8521132,33.7030257 C38.4712463,33.4809744 37.9895962,33.539285 37.6725978,33.8473296 L34.0678393,37.3500855 C33.5979081,37.8065569 33.6928319,38.5875649 34.2576868,38.9179913" id="Fill-215-Copy" fill="#4788D8"></path>
                            <path d="M33.8554327,21.7480086 L28.1072726,18.3913236 C27.7586329,18.1875312 27.3174133,18.2411298 27.0273685,18.5232586 L23.2983888,22.1467585 C22.8677162,22.5649453 22.9544367,23.2811637 23.4718297,23.5827294 L29.2199898,26.9394144 C29.5692155,27.1432068 30.0104351,27.0896082 30.3004799,26.8074794 L34.0294596,23.1839795 C34.4595462,22.7663817 34.3734117,22.0501633 33.8554327,21.7480086" id="Fill-217-Copy" fill="#4788D8"></path>
                            <path d="M45.7534797,27.5579774 L49.9893053,30.0317582 C50.3297417,30.2296607 50.7586564,30.1772401 51.0404979,29.9027682 L54.8063924,26.2445176 C55.225346,25.8375217 55.1403834,25.1407401 54.6370532,24.8468314 L50.4012275,22.3730506 C50.061963,22.1745591 49.6324624,22.2269797 49.3506209,22.5014516 L45.5847264,26.1602912 C45.1657728,26.5672871 45.2501495,27.2634797 45.7534797,27.5579774" id="Fill-219-Copy" fill="#4788D8"></path>
                            <path d="M40.1898349,33.3461534 L44.0389342,35.594349 C44.4619894,35.841138 44.9963749,35.7757595 45.3479443,35.4341422 L48.7927388,32.0874701 C49.3136475,31.581523 49.2093486,30.7139328 48.5817971,30.3475776 L44.7326978,28.099971 C44.3096426,27.8531819 43.7752571,27.9179714 43.4236877,28.2595888 L39.9794792,31.6062608 C39.4579845,32.1127969 39.5628694,32.9803872 40.1898349,33.3461534" id="Fill-221-Copy" fill="#4788D8"></path>
                            <path d="M39.6102141,16.0714473 L33.9487744,12.7654159 C33.5813844,12.5498436 33.1161408,12.6069761 32.8108614,12.9038298 L29.1533674,16.4572393 C28.7004288,16.8978079 28.7912509,17.652311 29.3367695,17.9709576 L34.9982092,21.276989 C35.3655992,21.4913833 35.8308428,21.4342508 36.1361222,21.137986 L39.7930302,17.5839876 C40.2465548,17.143419 40.1557327,16.3895048 39.6102141,16.0714473" id="Fill-223-Copy" fill="#4788D8"></path>
                            <polygon id="Fill-225-Copy" fill="#FFFFFF" opacity="0.29906064" points="22.306963 44.2367968 31.0387757 49.3257174 20.3375882 11.687731 14.6292726 17.233712"></polygon>
                        </g>
                        <g id="Group-21-Copy-3" transform="translate(41.583500, 24.356050)">
                            <polygon id="Stroke-171-Copy" stroke="#000000" stroke-width="0.59405" points="62.7540295 18.2065558 31.8627958 48.2205852 31.871585 51.1702744 32.837815 51.7639818 62.7962178 33.2229944"></polygon>
                            <path d="M63.7204939,18.8001454 L32.8292602,48.8141748 L32.8380494,51.763864 L63.7626822,33.815995 L63.7204939,18.8001454 Z M62.2614807,22.2716845 L62.2913641,32.9648966 L34.8859413,48.8701294 L62.2614807,22.2716845 Z" id="Fill-173-Copy" fill="#FFFFFF"></path>
                            <path d="M63.7204939,18.8001454 L32.8292602,48.8141748 L32.8380494,51.763864 L63.7626822,33.815995 L63.7204939,18.8001454 Z M62.2614807,22.2716845 L62.2913641,32.9648966 L34.8859413,48.8701294 L62.2614807,22.2716845 L62.2614807,22.2716845 Z" id="Stroke-175-Copy" stroke="#263238" stroke-width="0.891075"></path>
                            <g id="Group-180-Copy" transform="translate(0.000000, 1.198017)">
                                <mask id="mask-23" fill="white">
                                    <use xlink:href="#path-22"></use>
                                </mask>
                                <g id="Clip-179"></g>
                                <polygon id="Fill-178" fill="url(#linearGradient-21)" mask="url(#mask-23)" points="0.135940179 30.1182817 0.135940179 31.5948932 32.3156758 50.347919 64.546975 19.0322096 64.546975 17.555598 32.3672393 0.278594842"></polygon>
                            </g>
                            <polygon id="Fill-181-Copy" fill="#FFFFFF" points="32.3670636 2.84217094e-14 64.5467992 18.7536147 32.3155 50.0699131 0.135764394 31.3162984"></polygon>
                            <polygon id="Stroke-183-Copy" stroke="#263238" stroke-width="0.891075" stroke-linejoin="round" points="32.3670636 2.84217094e-14 64.5467992 18.7536147 32.3155 50.0699131 0.135764394 31.3162984"></polygon>
                            <path d="M8.07308876,25.576479 L3.59057856,29.9326892 C3.13178046,30.3773808 3.22494636,31.1401299 3.77573846,31.4617214 L8.47739361,34.2017281 C8.8488853,34.4178895 9.31764454,34.3601679 9.62643969,34.0603692 L14.1060201,29.708282 C14.5636463,29.2635904 14.4716523,28.5014303 13.9202743,28.1798388 L9.22330674,25.436298 C8.85181505,25.2195477 8.38188391,25.2766803 8.07308876,25.576479" id="Fill-185-Copy" fill="#4788D8"></path>
                            <path d="M25.5685898,16.9083509 L20.8241603,14.1377164 C20.4626298,13.926856 20.0061755,13.9822216 19.7055836,14.2743633 L16.0246517,17.8513326 C15.5787445,18.2842443 15.6683947,19.0257895 16.2045381,19.3385461 L20.9483815,22.1091806 C21.3099121,22.320041 21.7669523,22.2646754 22.0675442,21.9725337 L25.7490621,18.3955644 C26.1943833,17.9626527 26.1047331,17.2211075 25.5685898,16.9083509" id="Fill-187-Copy" fill="#4788D8"></path>
                            <path d="M19.6816183,22.5078127 L15.0590663,19.8078577 C14.6717539,19.5816834 14.1813146,19.6417609 13.8590426,19.9545175 L10.2800658,23.4325356 C9.80193142,23.896664 9.89861302,24.6918078 10.4728431,25.0275352 L15.0959811,27.7269013 C15.4832934,27.9536645 15.9731468,27.894176 16.2960047,27.5802414 L19.8749815,24.1028124 C20.3531159,23.638684 20.2564343,22.8429511 19.6816183,22.5078127" id="Fill-189-Copy" fill="#4788D8"></path>
                            <path d="M23.6539427,34.635111 L19.1110797,39.0484538 C18.6757196,39.4719415 18.7636119,40.1958169 19.2874504,40.5015055 L25.0221337,43.8434656 C25.374875,44.0484361 25.8201963,43.9942485 26.1137568,43.7091747 L30.6513462,39.2999548 C31.0872923,38.8770561 30.9993999,38.1531807 30.4761474,37.8474921 L24.7461517,34.501409 C24.3934104,34.2952606 23.9469172,34.3500372 23.6539427,34.635111" id="Fill-191-Copy" fill="#4788D8"></path>
                            <path d="M15.4723947,29.7500417 L10.7338248,34.3536301 C10.3588174,34.7188072 10.4344048,35.3419644 10.8861715,35.6046564 L16.848789,39.0797295 C17.1523106,39.2570171 17.5355213,39.2098974 17.7886513,38.9642863 L22.5219477,34.36541 C22.8969551,34.0008218 22.8213677,33.3776646 22.3701869,33.1143837 L16.4128429,29.6351876 C16.1093213,29.4579 15.7255247,29.5044306 15.4723947,29.7500417" id="Fill-193-Copy" fill="#4788D8"></path>
                            <path d="M37.7361733,5.10482345 L32.9677199,2.32594298 C32.6114629,2.11861659 32.1596962,2.17339316 31.8637919,2.46200093 L27.6332398,6.57201109 C27.1926061,7.00021077 27.2810844,7.73292109 27.8107824,8.0415547 L32.5751341,10.8245581 C32.932563,11.0324735 33.3831578,10.977697 33.680234,10.6890892 L37.9148877,6.57495606 C38.3555214,6.14734538 38.2664572,5.41345706 37.7361733,5.10482345" id="Fill-195-Copy" fill="#4788D8"></path>
                            <path d="M56.8653588,24.243759 L61.1445447,20.0860402 C61.5763891,19.6666754 61.4896687,18.947512 60.9693459,18.6441794 L56.7798102,16.2033823 C56.4294127,15.9990009 55.9870212,16.0531884 55.6963904,16.3359062 L51.4201343,20.4900911 C50.9882899,20.9100448 51.0750103,21.6286192 51.5947471,21.9319519 L55.7807671,24.376872 C56.1311646,24.5806644 56.5741421,24.5264768 56.8653588,24.243759" id="Fill-197-Copy" fill="#4788D8"></path>
                            <path d="M50.1538398,20.3514415 L54.4746281,16.1524931 C54.8918238,15.7478532 54.8074471,15.0534276 54.3058748,14.7612858 L48.5032214,11.379863 C48.1645428,11.1825496 47.7379719,11.2343812 47.4567164,11.5076751 L43.1406157,15.7013226 C42.72342,16.1065514 42.8077966,16.800388 43.3087831,17.0931188 L49.1073348,20.4792535 C49.4454274,20.676567 49.8731702,20.6241464 50.1538398,20.3514415" id="Fill-199-Copy" fill="#4788D8"></path>
                            <path d="M31.4429633,11.3013499 L26.5965788,8.47122687 C26.2573143,8.27273541 25.8283996,8.325745 25.5459721,8.60021688 L21.7806636,12.2584675 C21.36171,12.6654634 21.4455007,13.362245 21.9494169,13.6561537 L26.7952155,16.4862768 C27.13448,16.6847682 27.5639806,16.6323477 27.8464081,16.3578758 L31.6117166,12.6990361 C32.0306702,12.2926293 31.9462936,11.5958477 31.4429633,11.3013499" id="Fill-201-Copy" fill="#4788D8"></path>
                            <path d="M41.908775,15.5290414 L46.210227,11.3489408 C46.6315243,10.9401779 46.5465617,10.2392734 46.0397158,9.94418666 L40.2517111,6.5710098 C39.9106888,6.37192934 39.4794303,6.42493893 39.195245,6.70058879 L34.8984806,10.8759774 C34.4771833,11.2847403 34.5621459,11.9844669 35.0684059,12.2801426 L40.8517229,15.6580314 C41.1933312,15.8577009 41.6251757,15.8046913 41.908775,15.5290414" id="Fill-203-Copy" fill="#4788D8"></path>
                            <path d="M27.4414587,45.2531673 L31.7798254,47.7817247 C32.0979958,47.9666693 32.4999568,47.9171937 32.7648058,47.6603917 L37.431304,43.1268938 C37.8238898,42.7452248 37.7447867,42.0926178 37.2725118,41.816379 L32.9376607,39.2848766 C32.6194904,39.099343 32.2169434,39.1488186 31.9520944,39.4056206 L27.2826665,43.9426525 C26.8900806,44.3243215 26.9685978,44.9775175 27.4414587,45.2531673" id="Fill-205-Copy" fill="#4788D8"></path>
                            <path d="M37.3264777,22.6366849 L43.3963239,26.1818485 C43.6764075,26.3450002 44.0297348,26.3014145 44.2623565,26.0758293 L48.259115,22.1919934 C48.604239,21.856855 48.535097,21.2831734 48.1202451,21.0410963 L42.0503989,17.4959328 C41.7703153,17.332781 41.416988,17.3757777 41.1843662,17.6019519 L37.1876078,21.4857879 C36.8424838,21.8209263 36.9116258,22.3946078 37.3264777,22.6366849" id="Fill-207-Copy" fill="#4788D8"></path>
                            <path d="M25.8890453,34.030625 L31.6747062,37.4096918 C32.0157285,37.6087722 32.4464011,37.5557627 32.7300004,37.2807018 L36.4900354,33.6271631 C36.9107468,33.2189893 36.8257842,32.5198517 36.3201102,32.224765 L30.5350353,28.8456981 C30.1940129,28.6466177 29.7627544,28.6990383 29.479741,28.9746881 L25.719706,32.6276378 C25.2989946,33.0369897 25.3839572,33.7355383 25.8890453,34.030625" id="Fill-209-Copy" fill="#4788D8"></path>
                            <path d="M31.6850189,28.3793904 L37.490602,31.7702372 C37.8269368,31.9669617 38.2529217,31.9145411 38.5330054,31.6424252 L42.3100329,27.9723946 C42.7254708,27.5689327 42.6416801,26.8786301 42.1430374,26.5876663 L36.3362824,23.1968196 C35.9999476,23.0000951 35.5751346,23.0525157 35.2950509,23.3240426 L31.5174374,26.9940732 C31.1025855,27.3975351 31.1857903,28.0878377 31.6850189,28.3793904" id="Fill-211-Copy" fill="#4788D8"></path>
                            <path d="M21.239774,24.1465158 L17.4510275,27.8277373 C17.0396912,28.2270762 17.122896,28.9108999 17.616851,29.1995077 L23.4376689,32.5991894 C23.7710739,32.7941468 24.1923712,32.7423152 24.4701111,32.4731443 L28.2588576,28.7919229 C28.6696079,28.391995 28.5869891,27.7081712 28.0924481,27.4195635 L22.2722162,24.0204708 C21.9382253,23.8255133 21.5175138,23.8773449 21.239774,24.1465158" id="Fill-213-Copy" fill="#4788D8"></path>
                            <path d="M34.2576868,38.9179913 L38.3013211,41.279863 C38.682188,41.5019143 39.1638381,41.4430147 39.4802506,41.1355591 L43.0855951,37.6322143 C43.5555262,37.1757428 43.4606025,36.3947349 42.8957476,36.0643084 L38.8521132,33.7030257 C38.4712463,33.4809744 37.9895962,33.539285 37.6725978,33.8473296 L34.0678393,37.3500855 C33.5979081,37.8065569 33.6928319,38.5875649 34.2576868,38.9179913" id="Fill-215-Copy" fill="#4788D8"></path>
                            <path d="M33.8554327,21.7480086 L28.1072726,18.3913236 C27.7586329,18.1875312 27.3174133,18.2411298 27.0273685,18.5232586 L23.2983888,22.1467585 C22.8677162,22.5649453 22.9544367,23.2811637 23.4718297,23.5827294 L29.2199898,26.9394144 C29.5692155,27.1432068 30.0104351,27.0896082 30.3004799,26.8074794 L34.0294596,23.1839795 C34.4595462,22.7663817 34.3734117,22.0501633 33.8554327,21.7480086" id="Fill-217-Copy" fill="#4788D8"></path>
                            <path d="M45.7534797,27.5579774 L49.9893053,30.0317582 C50.3297417,30.2296607 50.7586564,30.1772401 51.0404979,29.9027682 L54.8063924,26.2445176 C55.225346,25.8375217 55.1403834,25.1407401 54.6370532,24.8468314 L50.4012275,22.3730506 C50.061963,22.1745591 49.6324624,22.2269797 49.3506209,22.5014516 L45.5847264,26.1602912 C45.1657728,26.5672871 45.2501495,27.2634797 45.7534797,27.5579774" id="Fill-219-Copy" fill="#4788D8"></path>
                            <path d="M40.1898349,33.3461534 L44.0389342,35.594349 C44.4619894,35.841138 44.9963749,35.7757595 45.3479443,35.4341422 L48.7927388,32.0874701 C49.3136475,31.581523 49.2093486,30.7139328 48.5817971,30.3475776 L44.7326978,28.099971 C44.3096426,27.8531819 43.7752571,27.9179714 43.4236877,28.2595888 L39.9794792,31.6062608 C39.4579845,32.1127969 39.5628694,32.9803872 40.1898349,33.3461534" id="Fill-221-Copy" fill="#4788D8"></path>
                            <path d="M39.6102141,16.0714473 L33.9487744,12.7654159 C33.5813844,12.5498436 33.1161408,12.6069761 32.8108614,12.9038298 L29.1533674,16.4572393 C28.7004288,16.8978079 28.7912509,17.652311 29.3367695,17.9709576 L34.9982092,21.276989 C35.3655992,21.4913833 35.8308428,21.4342508 36.1361222,21.137986 L39.7930302,17.5839876 C40.2465548,17.143419 40.1557327,16.3895048 39.6102141,16.0714473" id="Fill-223-Copy" fill="#4788D8"></path>
                            <polygon id="Fill-225-Copy" fill="#FFFFFF" opacity="0.29906064" points="22.306963 44.2367968 31.0387757 49.3257174 20.3375882 11.687731 14.6292726 17.233712"></polygon>
                        </g>
                    </g>
                    <g id="Group-28" transform="translate(245.820511, 17.418213)" stroke="#263238" stroke-linecap="round" stroke-linejoin="round" stroke-width="0.891075">
                        <path d="M6.77179244,0.239507783 C7.5337334,1.28141615 8.28690625,2.32333196 9.04973146,3.35647861" id="Stroke-227" transform="translate(7.910762, 1.797993) rotate(-120.000000) translate(-7.910762, -1.797993) "></path>
                        <path d="M1.67896739,7.68188069 L6.17176706,13.8545491" id="Stroke-229" transform="translate(3.925367, 10.768215) rotate(-120.000000) translate(-3.925367, -10.768215) "></path>
                        <path d="M21.8577567,3.68718962 L21.8398349,24.8099045" id="Stroke-231" transform="translate(21.848796, 14.248547) rotate(-120.000000) translate(-21.848796, -14.248547) "></path>
                        <path d="M37.5480708,22.0668735 C36.8094541,24.5372183 36.0629446,27.0093221 35.3243272,29.480543" id="Stroke-233" transform="translate(36.436199, 25.773708) rotate(-120.000000) translate(-36.436199, -25.773708) "></path>
                        <path d="M27.7768764,25.9496369 L26.5634646,29.9728289" id="Stroke-235" transform="translate(27.170171, 27.961233) rotate(-120.000000) translate(-27.170171, -27.961233) "></path>
                    </g>
                    <g id="Group-23" transform="translate(125.938600, 49.306150)">
                        <g id="Group-21">
                            <polygon id="Stroke-171-Copy" stroke="#000000" stroke-width="0.59405" points="62.7540295 18.2065558 31.8627958 48.2205852 31.871585 51.1702744 32.837815 51.7639818 62.7962178 33.2229944"></polygon>
                            <path d="M63.7204939,18.8001454 L32.8292602,48.8141748 L32.8380494,51.763864 L63.7626822,33.815995 L63.7204939,18.8001454 Z M62.2614807,22.2716845 L62.2913641,32.9648966 L34.8859413,48.8701294 L62.2614807,22.2716845 Z" id="Fill-173-Copy" fill="#FFFFFF"></path>
                            <path d="M63.7204939,18.8001454 L32.8292602,48.8141748 L32.8380494,51.763864 L63.7626822,33.815995 L63.7204939,18.8001454 Z M62.2614807,22.2716845 L62.2913641,32.9648966 L34.8859413,48.8701294 L62.2614807,22.2716845 L62.2614807,22.2716845 Z" id="Stroke-175-Copy" stroke="#263238" stroke-width="0.891075"></path>
                            <g id="Group-180-Copy" transform="translate(0.000000, 1.198017)">
                                <mask id="mask-25" fill="white">
                                    <use xlink:href="#path-24"></use>
                                </mask>
                                <g id="Clip-179"></g>
                                <polygon id="Fill-178" fill="url(#linearGradient-21)" mask="url(#mask-25)" points="0.135940179 30.1182817 0.135940179 31.5948932 32.3156758 50.347919 64.546975 19.0322096 64.546975 17.555598 32.3672393 0.278594842"></polygon>
                            </g>
                            <polygon id="Fill-181-Copy" fill="#FFFFFF" points="32.3670636 2.84217094e-14 64.5467992 18.7536147 32.3155 50.0699131 0.135764394 31.3162984"></polygon>
                            <polygon id="Stroke-183-Copy" stroke="#263238" stroke-width="0.891075" points="32.3670636 2.84217094e-14 64.5467992 18.7536147 32.3155 50.0699131 0.135764394 31.3162984"></polygon>
                            <path d="M8.07308876,25.576479 L3.59057856,29.9326892 C3.13178046,30.3773808 3.22494636,31.1401299 3.77573846,31.4617214 L8.47739361,34.2017281 C8.8488853,34.4178895 9.31764454,34.3601679 9.62643969,34.0603692 L14.1060201,29.708282 C14.5636463,29.2635904 14.4716523,28.5014303 13.9202743,28.1798388 L9.22330674,25.436298 C8.85181505,25.2195477 8.38188391,25.2766803 8.07308876,25.576479" id="Fill-185-Copy" fill="#4788D8"></path>
                            <path d="M25.5685898,16.9083509 L20.8241603,14.1377164 C20.4626298,13.926856 20.0061755,13.9822216 19.7055836,14.2743633 L16.0246517,17.8513326 C15.5787445,18.2842443 15.6683947,19.0257895 16.2045381,19.3385461 L20.9483815,22.1091806 C21.3099121,22.320041 21.7669523,22.2646754 22.0675442,21.9725337 L25.7490621,18.3955644 C26.1943833,17.9626527 26.1047331,17.2211075 25.5685898,16.9083509" id="Fill-187-Copy" fill="#4788D8"></path>
                            <path d="M19.6816183,22.5078127 L15.0590663,19.8078577 C14.6717539,19.5816834 14.1813146,19.6417609 13.8590426,19.9545175 L10.2800658,23.4325356 C9.80193142,23.896664 9.89861302,24.6918078 10.4728431,25.0275352 L15.0959811,27.7269013 C15.4832934,27.9536645 15.9731468,27.894176 16.2960047,27.5802414 L19.8749815,24.1028124 C20.3531159,23.638684 20.2564343,22.8429511 19.6816183,22.5078127" id="Fill-189-Copy" fill="#4788D8"></path>
                            <path d="M23.6539427,34.635111 L19.1110797,39.0484538 C18.6757196,39.4719415 18.7636119,40.1958169 19.2874504,40.5015055 L25.0221337,43.8434656 C25.374875,44.0484361 25.8201963,43.9942485 26.1137568,43.7091747 L30.6513462,39.2999548 C31.0872923,38.8770561 30.9993999,38.1531807 30.4761474,37.8474921 L24.7461517,34.501409 C24.3934104,34.2952606 23.9469172,34.3500372 23.6539427,34.635111" id="Fill-191-Copy" fill="#4788D8"></path>
                            <path d="M15.4723947,29.7500417 L10.7338248,34.3536301 C10.3588174,34.7188072 10.4344048,35.3419644 10.8861715,35.6046564 L16.848789,39.0797295 C17.1523106,39.2570171 17.5355213,39.2098974 17.7886513,38.9642863 L22.5219477,34.36541 C22.8969551,34.0008218 22.8213677,33.3776646 22.3701869,33.1143837 L16.4128429,29.6351876 C16.1093213,29.4579 15.7255247,29.5044306 15.4723947,29.7500417" id="Fill-193-Copy" fill="#4788D8"></path>
                            <path d="M37.7361733,5.10482345 L32.9677199,2.32594298 C32.6114629,2.11861659 32.1596962,2.17339316 31.8637919,2.46200093 L27.6332398,6.57201109 C27.1926061,7.00021077 27.2810844,7.73292109 27.8107824,8.0415547 L32.5751341,10.8245581 C32.932563,11.0324735 33.3831578,10.977697 33.680234,10.6890892 L37.9148877,6.57495606 C38.3555214,6.14734538 38.2664572,5.41345706 37.7361733,5.10482345" id="Fill-195-Copy" fill="#4788D8"></path>
                            <path d="M56.8653588,24.243759 L61.1445447,20.0860402 C61.5763891,19.6666754 61.4896687,18.947512 60.9693459,18.6441794 L56.7798102,16.2033823 C56.4294127,15.9990009 55.9870212,16.0531884 55.6963904,16.3359062 L51.4201343,20.4900911 C50.9882899,20.9100448 51.0750103,21.6286192 51.5947471,21.9319519 L55.7807671,24.376872 C56.1311646,24.5806644 56.5741421,24.5264768 56.8653588,24.243759" id="Fill-197-Copy" fill="#4788D8"></path>
                            <path d="M50.1538398,20.3514415 L54.4746281,16.1524931 C54.8918238,15.7478532 54.8074471,15.0534276 54.3058748,14.7612858 L48.5032214,11.379863 C48.1645428,11.1825496 47.7379719,11.2343812 47.4567164,11.5076751 L43.1406157,15.7013226 C42.72342,16.1065514 42.8077966,16.800388 43.3087831,17.0931188 L49.1073348,20.4792535 C49.4454274,20.676567 49.8731702,20.6241464 50.1538398,20.3514415" id="Fill-199-Copy" fill="#4788D8"></path>
                            <path d="M31.4429633,11.3013499 L26.5965788,8.47122687 C26.2573143,8.27273541 25.8283996,8.325745 25.5459721,8.60021688 L21.7806636,12.2584675 C21.36171,12.6654634 21.4455007,13.362245 21.9494169,13.6561537 L26.7952155,16.4862768 C27.13448,16.6847682 27.5639806,16.6323477 27.8464081,16.3578758 L31.6117166,12.6990361 C32.0306702,12.2926293 31.9462936,11.5958477 31.4429633,11.3013499" id="Fill-201-Copy" fill="#4788D8"></path>
                            <path d="M41.908775,15.5290414 L46.210227,11.3489408 C46.6315243,10.9401779 46.5465617,10.2392734 46.0397158,9.94418666 L40.2517111,6.5710098 C39.9106888,6.37192934 39.4794303,6.42493893 39.195245,6.70058879 L34.8984806,10.8759774 C34.4771833,11.2847403 34.5621459,11.9844669 35.0684059,12.2801426 L40.8517229,15.6580314 C41.1933312,15.8577009 41.6251757,15.8046913 41.908775,15.5290414" id="Fill-203-Copy" fill="#4788D8"></path>
                            <path d="M27.4414587,45.2531673 L31.7798254,47.7817247 C32.0979958,47.9666693 32.4999568,47.9171937 32.7648058,47.6603917 L37.431304,43.1268938 C37.8238898,42.7452248 37.7447867,42.0926178 37.2725118,41.816379 L32.9376607,39.2848766 C32.6194904,39.099343 32.2169434,39.1488186 31.9520944,39.4056206 L27.2826665,43.9426525 C26.8900806,44.3243215 26.9685978,44.9775175 27.4414587,45.2531673" id="Fill-205-Copy" fill="#4788D8"></path>
                            <path d="M37.3264777,22.6366849 L43.3963239,26.1818485 C43.6764075,26.3450002 44.0297348,26.3014145 44.2623565,26.0758293 L48.259115,22.1919934 C48.604239,21.856855 48.535097,21.2831734 48.1202451,21.0410963 L42.0503989,17.4959328 C41.7703153,17.332781 41.416988,17.3757777 41.1843662,17.6019519 L37.1876078,21.4857879 C36.8424838,21.8209263 36.9116258,22.3946078 37.3264777,22.6366849" id="Fill-207-Copy" fill="#4788D8"></path>
                            <path d="M25.8890453,34.030625 L31.6747062,37.4096918 C32.0157285,37.6087722 32.4464011,37.5557627 32.7300004,37.2807018 L36.4900354,33.6271631 C36.9107468,33.2189893 36.8257842,32.5198517 36.3201102,32.224765 L30.5350353,28.8456981 C30.1940129,28.6466177 29.7627544,28.6990383 29.479741,28.9746881 L25.719706,32.6276378 C25.2989946,33.0369897 25.3839572,33.7355383 25.8890453,34.030625" id="Fill-209-Copy" fill="#4788D8"></path>
                            <path d="M31.6850189,28.3793904 L37.490602,31.7702372 C37.8269368,31.9669617 38.2529217,31.9145411 38.5330054,31.6424252 L42.3100329,27.9723946 C42.7254708,27.5689327 42.6416801,26.8786301 42.1430374,26.5876663 L36.3362824,23.1968196 C35.9999476,23.0000951 35.5751346,23.0525157 35.2950509,23.3240426 L31.5174374,26.9940732 C31.1025855,27.3975351 31.1857903,28.0878377 31.6850189,28.3793904" id="Fill-211-Copy" fill="#4788D8"></path>
                            <path d="M21.239774,24.1465158 L17.4510275,27.8277373 C17.0396912,28.2270762 17.122896,28.9108999 17.616851,29.1995077 L23.4376689,32.5991894 C23.7710739,32.7941468 24.1923712,32.7423152 24.4701111,32.4731443 L28.2588576,28.7919229 C28.6696079,28.391995 28.5869891,27.7081712 28.0924481,27.4195635 L22.2722162,24.0204708 C21.9382253,23.8255133 21.5175138,23.8773449 21.239774,24.1465158" id="Fill-213-Copy" fill="#4788D8"></path>
                            <path d="M34.2576868,38.9179913 L38.3013211,41.279863 C38.682188,41.5019143 39.1638381,41.4430147 39.4802506,41.1355591 L43.0855951,37.6322143 C43.5555262,37.1757428 43.4606025,36.3947349 42.8957476,36.0643084 L38.8521132,33.7030257 C38.4712463,33.4809744 37.9895962,33.539285 37.6725978,33.8473296 L34.0678393,37.3500855 C33.5979081,37.8065569 33.6928319,38.5875649 34.2576868,38.9179913" id="Fill-215-Copy" fill="#4788D8"></path>
                            <path d="M33.8554327,21.7480086 L28.1072726,18.3913236 C27.7586329,18.1875312 27.3174133,18.2411298 27.0273685,18.5232586 L23.2983888,22.1467585 C22.8677162,22.5649453 22.9544367,23.2811637 23.4718297,23.5827294 L29.2199898,26.9394144 C29.5692155,27.1432068 30.0104351,27.0896082 30.3004799,26.8074794 L34.0294596,23.1839795 C34.4595462,22.7663817 34.3734117,22.0501633 33.8554327,21.7480086" id="Fill-217-Copy" fill="#4788D8"></path>
                            <path d="M45.7534797,27.5579774 L49.9893053,30.0317582 C50.3297417,30.2296607 50.7586564,30.1772401 51.0404979,29.9027682 L54.8063924,26.2445176 C55.225346,25.8375217 55.1403834,25.1407401 54.6370532,24.8468314 L50.4012275,22.3730506 C50.061963,22.1745591 49.6324624,22.2269797 49.3506209,22.5014516 L45.5847264,26.1602912 C45.1657728,26.5672871 45.2501495,27.2634797 45.7534797,27.5579774" id="Fill-219-Copy" fill="#4788D8"></path>
                            <path d="M40.1898349,33.3461534 L44.0389342,35.594349 C44.4619894,35.841138 44.9963749,35.7757595 45.3479443,35.4341422 L48.7927388,32.0874701 C49.3136475,31.581523 49.2093486,30.7139328 48.5817971,30.3475776 L44.7326978,28.099971 C44.3096426,27.8531819 43.7752571,27.9179714 43.4236877,28.2595888 L39.9794792,31.6062608 C39.4579845,32.1127969 39.5628694,32.9803872 40.1898349,33.3461534" id="Fill-221-Copy" fill="#4788D8"></path>
                            <path d="M39.6102141,16.0714473 L33.9487744,12.7654159 C33.5813844,12.5498436 33.1161408,12.6069761 32.8108614,12.9038298 L29.1533674,16.4572393 C28.7004288,16.8978079 28.7912509,17.652311 29.3367695,17.9709576 L34.9982092,21.276989 C35.3655992,21.4913833 35.8308428,21.4342508 36.1361222,21.137986 L39.7930302,17.5839876 C40.2465548,17.143419 40.1557327,16.3895048 39.6102141,16.0714473" id="Fill-223-Copy" fill="#4788D8"></path>
                            <polygon id="Fill-225-Copy" fill="#FFFFFF" opacity="0.29906064" points="22.306963 44.2367968 31.0387757 49.3257174 20.3375882 11.687731 14.6292726 17.233712"></polygon>
                        </g>
                        <g id="Group-21-Copy" transform="translate(41.583500, 24.356050)">
                            <polygon id="Stroke-171-Copy" stroke="#000000" stroke-width="0.59405" points="62.7540295 18.2065558 31.8627958 48.2205852 31.871585 51.1702744 32.837815 51.7639818 62.7962178 33.2229944"></polygon>
                            <path d="M63.7204939,18.8001454 L32.8292602,48.8141748 L32.8380494,51.763864 L63.7626822,33.815995 L63.7204939,18.8001454 Z M62.2614807,22.2716845 L62.2913641,32.9648966 L34.8859413,48.8701294 L62.2614807,22.2716845 Z" id="Fill-173-Copy" fill="#FFFFFF"></path>
                            <path d="M63.7204939,18.8001454 L32.8292602,48.8141748 L32.8380494,51.763864 L63.7626822,33.815995 L63.7204939,18.8001454 Z M62.2614807,22.2716845 L62.2913641,32.9648966 L34.8859413,48.8701294 L62.2614807,22.2716845 L62.2614807,22.2716845 Z" id="Stroke-175-Copy" stroke="#263238" stroke-width="0.891075"></path>
                            <g id="Group-180-Copy" transform="translate(0.000000, 1.198017)">
                                <mask id="mask-27" fill="white">
                                    <use xlink:href="#path-26"></use>
                                </mask>
                                <g id="Clip-179"></g>
                                <polygon id="Fill-178" fill="url(#linearGradient-21)" mask="url(#mask-27)" points="0.135940179 30.1182817 0.135940179 31.5948932 32.3156758 50.347919 64.546975 19.0322096 64.546975 17.555598 32.3672393 0.278594842"></polygon>
                            </g>
                            <polygon id="Fill-181-Copy" fill="#FFFFFF" points="32.3670636 2.84217094e-14 64.5467992 18.7536147 32.3155 50.0699131 0.135764394 31.3162984"></polygon>
                            <polygon id="Stroke-183-Copy" stroke="#263238" stroke-width="0.891075" points="32.3670636 2.84217094e-14 64.5467992 18.7536147 32.3155 50.0699131 0.135764394 31.3162984"></polygon>
                            <path d="M8.07308876,25.576479 L3.59057856,29.9326892 C3.13178046,30.3773808 3.22494636,31.1401299 3.77573846,31.4617214 L8.47739361,34.2017281 C8.8488853,34.4178895 9.31764454,34.3601679 9.62643969,34.0603692 L14.1060201,29.708282 C14.5636463,29.2635904 14.4716523,28.5014303 13.9202743,28.1798388 L9.22330674,25.436298 C8.85181505,25.2195477 8.38188391,25.2766803 8.07308876,25.576479" id="Fill-185-Copy" fill="#4788D8"></path>
                            <path d="M25.5685898,16.9083509 L20.8241603,14.1377164 C20.4626298,13.926856 20.0061755,13.9822216 19.7055836,14.2743633 L16.0246517,17.8513326 C15.5787445,18.2842443 15.6683947,19.0257895 16.2045381,19.3385461 L20.9483815,22.1091806 C21.3099121,22.320041 21.7669523,22.2646754 22.0675442,21.9725337 L25.7490621,18.3955644 C26.1943833,17.9626527 26.1047331,17.2211075 25.5685898,16.9083509" id="Fill-187-Copy" fill="#4788D8"></path>
                            <path d="M19.6816183,22.5078127 L15.0590663,19.8078577 C14.6717539,19.5816834 14.1813146,19.6417609 13.8590426,19.9545175 L10.2800658,23.4325356 C9.80193142,23.896664 9.89861302,24.6918078 10.4728431,25.0275352 L15.0959811,27.7269013 C15.4832934,27.9536645 15.9731468,27.894176 16.2960047,27.5802414 L19.8749815,24.1028124 C20.3531159,23.638684 20.2564343,22.8429511 19.6816183,22.5078127" id="Fill-189-Copy" fill="#4788D8"></path>
                            <path d="M23.6539427,34.635111 L19.1110797,39.0484538 C18.6757196,39.4719415 18.7636119,40.1958169 19.2874504,40.5015055 L25.0221337,43.8434656 C25.374875,44.0484361 25.8201963,43.9942485 26.1137568,43.7091747 L30.6513462,39.2999548 C31.0872923,38.8770561 30.9993999,38.1531807 30.4761474,37.8474921 L24.7461517,34.501409 C24.3934104,34.2952606 23.9469172,34.3500372 23.6539427,34.635111" id="Fill-191-Copy" fill="#4788D8"></path>
                            <path d="M15.4723947,29.7500417 L10.7338248,34.3536301 C10.3588174,34.7188072 10.4344048,35.3419644 10.8861715,35.6046564 L16.848789,39.0797295 C17.1523106,39.2570171 17.5355213,39.2098974 17.7886513,38.9642863 L22.5219477,34.36541 C22.8969551,34.0008218 22.8213677,33.3776646 22.3701869,33.1143837 L16.4128429,29.6351876 C16.1093213,29.4579 15.7255247,29.5044306 15.4723947,29.7500417" id="Fill-193-Copy" fill="#4788D8"></path>
                            <path d="M37.7361733,5.10482345 L32.9677199,2.32594298 C32.6114629,2.11861659 32.1596962,2.17339316 31.8637919,2.46200093 L27.6332398,6.57201109 C27.1926061,7.00021077 27.2810844,7.73292109 27.8107824,8.0415547 L32.5751341,10.8245581 C32.932563,11.0324735 33.3831578,10.977697 33.680234,10.6890892 L37.9148877,6.57495606 C38.3555214,6.14734538 38.2664572,5.41345706 37.7361733,5.10482345" id="Fill-195-Copy" fill="#4788D8"></path>
                            <path d="M56.8653588,24.243759 L61.1445447,20.0860402 C61.5763891,19.6666754 61.4896687,18.947512 60.9693459,18.6441794 L56.7798102,16.2033823 C56.4294127,15.9990009 55.9870212,16.0531884 55.6963904,16.3359062 L51.4201343,20.4900911 C50.9882899,20.9100448 51.0750103,21.6286192 51.5947471,21.9319519 L55.7807671,24.376872 C56.1311646,24.5806644 56.5741421,24.5264768 56.8653588,24.243759" id="Fill-197-Copy" fill="#4788D8"></path>
                            <path d="M50.1538398,20.3514415 L54.4746281,16.1524931 C54.8918238,15.7478532 54.8074471,15.0534276 54.3058748,14.7612858 L48.5032214,11.379863 C48.1645428,11.1825496 47.7379719,11.2343812 47.4567164,11.5076751 L43.1406157,15.7013226 C42.72342,16.1065514 42.8077966,16.800388 43.3087831,17.0931188 L49.1073348,20.4792535 C49.4454274,20.676567 49.8731702,20.6241464 50.1538398,20.3514415" id="Fill-199-Copy" fill="#4788D8"></path>
                            <path d="M31.4429633,11.3013499 L26.5965788,8.47122687 C26.2573143,8.27273541 25.8283996,8.325745 25.5459721,8.60021688 L21.7806636,12.2584675 C21.36171,12.6654634 21.4455007,13.362245 21.9494169,13.6561537 L26.7952155,16.4862768 C27.13448,16.6847682 27.5639806,16.6323477 27.8464081,16.3578758 L31.6117166,12.6990361 C32.0306702,12.2926293 31.9462936,11.5958477 31.4429633,11.3013499" id="Fill-201-Copy" fill="#4788D8"></path>
                            <path d="M41.908775,15.5290414 L46.210227,11.3489408 C46.6315243,10.9401779 46.5465617,10.2392734 46.0397158,9.94418666 L40.2517111,6.5710098 C39.9106888,6.37192934 39.4794303,6.42493893 39.195245,6.70058879 L34.8984806,10.8759774 C34.4771833,11.2847403 34.5621459,11.9844669 35.0684059,12.2801426 L40.8517229,15.6580314 C41.1933312,15.8577009 41.6251757,15.8046913 41.908775,15.5290414" id="Fill-203-Copy" fill="#4788D8"></path>
                            <path d="M27.4414587,45.2531673 L31.7798254,47.7817247 C32.0979958,47.9666693 32.4999568,47.9171937 32.7648058,47.6603917 L37.431304,43.1268938 C37.8238898,42.7452248 37.7447867,42.0926178 37.2725118,41.816379 L32.9376607,39.2848766 C32.6194904,39.099343 32.2169434,39.1488186 31.9520944,39.4056206 L27.2826665,43.9426525 C26.8900806,44.3243215 26.9685978,44.9775175 27.4414587,45.2531673" id="Fill-205-Copy" fill="#4788D8"></path>
                            <path d="M37.3264777,22.6366849 L43.3963239,26.1818485 C43.6764075,26.3450002 44.0297348,26.3014145 44.2623565,26.0758293 L48.259115,22.1919934 C48.604239,21.856855 48.535097,21.2831734 48.1202451,21.0410963 L42.0503989,17.4959328 C41.7703153,17.332781 41.416988,17.3757777 41.1843662,17.6019519 L37.1876078,21.4857879 C36.8424838,21.8209263 36.9116258,22.3946078 37.3264777,22.6366849" id="Fill-207-Copy" fill="#4788D8"></path>
                            <path d="M25.8890453,34.030625 L31.6747062,37.4096918 C32.0157285,37.6087722 32.4464011,37.5557627 32.7300004,37.2807018 L36.4900354,33.6271631 C36.9107468,33.2189893 36.8257842,32.5198517 36.3201102,32.224765 L30.5350353,28.8456981 C30.1940129,28.6466177 29.7627544,28.6990383 29.479741,28.9746881 L25.719706,32.6276378 C25.2989946,33.0369897 25.3839572,33.7355383 25.8890453,34.030625" id="Fill-209-Copy" fill="#4788D8"></path>
                            <path d="M31.6850189,28.3793904 L37.490602,31.7702372 C37.8269368,31.9669617 38.2529217,31.9145411 38.5330054,31.6424252 L42.3100329,27.9723946 C42.7254708,27.5689327 42.6416801,26.8786301 42.1430374,26.5876663 L36.3362824,23.1968196 C35.9999476,23.0000951 35.5751346,23.0525157 35.2950509,23.3240426 L31.5174374,26.9940732 C31.1025855,27.3975351 31.1857903,28.0878377 31.6850189,28.3793904" id="Fill-211-Copy" fill="#4788D8"></path>
                            <path d="M21.239774,24.1465158 L17.4510275,27.8277373 C17.0396912,28.2270762 17.122896,28.9108999 17.616851,29.1995077 L23.4376689,32.5991894 C23.7710739,32.7941468 24.1923712,32.7423152 24.4701111,32.4731443 L28.2588576,28.7919229 C28.6696079,28.391995 28.5869891,27.7081712 28.0924481,27.4195635 L22.2722162,24.0204708 C21.9382253,23.8255133 21.5175138,23.8773449 21.239774,24.1465158" id="Fill-213-Copy" fill="#4788D8"></path>
                            <path d="M34.2576868,38.9179913 L38.3013211,41.279863 C38.682188,41.5019143 39.1638381,41.4430147 39.4802506,41.1355591 L43.0855951,37.6322143 C43.5555262,37.1757428 43.4606025,36.3947349 42.8957476,36.0643084 L38.8521132,33.7030257 C38.4712463,33.4809744 37.9895962,33.539285 37.6725978,33.8473296 L34.0678393,37.3500855 C33.5979081,37.8065569 33.6928319,38.5875649 34.2576868,38.9179913" id="Fill-215-Copy" fill="#4788D8"></path>
                            <path d="M33.8554327,21.7480086 L28.1072726,18.3913236 C27.7586329,18.1875312 27.3174133,18.2411298 27.0273685,18.5232586 L23.2983888,22.1467585 C22.8677162,22.5649453 22.9544367,23.2811637 23.4718297,23.5827294 L29.2199898,26.9394144 C29.5692155,27.1432068 30.0104351,27.0896082 30.3004799,26.8074794 L34.0294596,23.1839795 C34.4595462,22.7663817 34.3734117,22.0501633 33.8554327,21.7480086" id="Fill-217-Copy" fill="#4788D8"></path>
                            <path d="M45.7534797,27.5579774 L49.9893053,30.0317582 C50.3297417,30.2296607 50.7586564,30.1772401 51.0404979,29.9027682 L54.8063924,26.2445176 C55.225346,25.8375217 55.1403834,25.1407401 54.6370532,24.8468314 L50.4012275,22.3730506 C50.061963,22.1745591 49.6324624,22.2269797 49.3506209,22.5014516 L45.5847264,26.1602912 C45.1657728,26.5672871 45.2501495,27.2634797 45.7534797,27.5579774" id="Fill-219-Copy" fill="#4788D8"></path>
                            <path d="M40.1898349,33.3461534 L44.0389342,35.594349 C44.4619894,35.841138 44.9963749,35.7757595 45.3479443,35.4341422 L48.7927388,32.0874701 C49.3136475,31.581523 49.2093486,30.7139328 48.5817971,30.3475776 L44.7326978,28.099971 C44.3096426,27.8531819 43.7752571,27.9179714 43.4236877,28.2595888 L39.9794792,31.6062608 C39.4579845,32.1127969 39.5628694,32.9803872 40.1898349,33.3461534" id="Fill-221-Copy" fill="#4788D8"></path>
                            <path d="M39.6102141,16.0714473 L33.9487744,12.7654159 C33.5813844,12.5498436 33.1161408,12.6069761 32.8108614,12.9038298 L29.1533674,16.4572393 C28.7004288,16.8978079 28.7912509,17.652311 29.3367695,17.9709576 L34.9982092,21.276989 C35.3655992,21.4913833 35.8308428,21.4342508 36.1361222,21.137986 L39.7930302,17.5839876 C40.2465548,17.143419 40.1557327,16.3895048 39.6102141,16.0714473" id="Fill-223-Copy" fill="#4788D8"></path>
                            <polygon id="Fill-225-Copy" fill="#FFFFFF" opacity="0.29906064" points="22.306963 44.2367968 31.0387757 49.3257174 20.3375882 11.687731 14.6292726 17.233712"></polygon>
                        </g>
                    </g>
                    <g id="Group-25" transform="translate(200.194850, 134.255300)" stroke="#263238" stroke-linecap="round" stroke-linejoin="round" stroke-width="0.891075">
                        <path d="M0.297025,0 L0.297025,4.7524" id="Path-20"></path>
                        <path d="M2.673225,1.1881 L2.673225,5.9405" id="Path-20-Copy-2"></path>
                        <path d="M5.049425,2.3762 L5.049425,7.1286" id="Path-20-Copy-2"></path>
                        <path d="M7.425625,4.15835 L7.425625,8.91075" id="Path-20-Copy-2"></path>
                        <path d="M9.801825,5.34645 L9.801825,7.1286" id="Path-20-Copy-2"></path>
                        <path d="M0.297025,7.1286 L0.297025,10.09885" id="Path-20-Copy"></path>
                        <path d="M2.673225,7.72265 L2.673225,10.09885" id="Path-20-Copy"></path>
                        <path d="M5.049425,8.91075 L5.049425,10.6929" id="Path-20-Copy"></path>
                    </g>
                    <g id="Group-25" transform="translate(205.387750, 252.317700) rotate(-180.000000) translate(-205.387750, -252.317700) translate(199.887750, 246.817700)" stroke="#263238" stroke-linecap="round" stroke-linejoin="round" stroke-width="0.891075">
                        <path d="M0.297025,0 L0.297025,4.7524" id="Path-20"></path>
                        <path d="M2.673225,1.1881 L2.673225,5.9405" id="Path-20-Copy-2"></path>
                        <path d="M5.049425,2.3762 L5.049425,7.1286" id="Path-20-Copy-2"></path>
                        <path d="M7.425625,4.15835 L7.425625,8.91075" id="Path-20-Copy-2"></path>
                        <path d="M9.801825,5.34645 L9.801825,7.1286" id="Path-20-Copy-2"></path>
                        <path d="M0.297025,7.1286 L0.297025,10.09885" id="Path-20-Copy"></path>
                        <path d="M2.673225,7.72265 L2.673225,10.09885" id="Path-20-Copy"></path>
                        <path d="M5.049425,8.91075 L5.049425,10.6929" id="Path-20-Copy"></path>
                    </g>
                </g>
            </g>
        </g>
    </g>
</svg>