<?xml version="1.0" encoding="UTF-8"?>
<svg width="225px" height="225px" viewBox="0 0 232 206" version="1.1" xmlns="http://www.w3.org/2000/svg" xmlns:xlink="http://www.w3.org/1999/xlink">
    <!-- Generator: Sketch 57.1 (83088) - https://sketch.com -->
    <title>Group 4 Copy</title>
    <desc>Created with Sketch.</desc>
    <defs>
        <polygon id="path-1" points="0.36383578 0 0.36383578 18.9005347 15.3339539 27.7601604 15.3339539 8.85962565"></polygon>
        <polygon id="path-3" points="0.36383578 0 0.36383578 18.9005347 15.3339539 27.7601604 15.3339539 8.85962565"></polygon>
        <polygon id="path-5" points="0.36383578 0 0.36383578 18.9005347 15.3339539 27.7601604 15.3339539 8.85962565"></polygon>
        <polygon id="path-7" points="0.36383578 0 0.36383578 18.9005347 15.3339539 27.7601604 15.3339539 8.85962565"></polygon>
        <polygon id="path-9" points="0.36383578 0 0.36383578 25.5100967 15.3339539 34.3697224 15.3339539 8.85962565"></polygon>
        <polygon id="path-11" points="0.36383578 0 0.36383578 25.5100967 15.3339539 34.3697224 15.3339539 8.85962565"></polygon>
        <polygon id="path-13" points="0.36383578 0 0.36383578 18.9005347 15.3339539 27.7601604 15.3339539 8.85962565"></polygon>
        <polygon id="path-15" points="0.36383578 0 0.36383578 18.9005347 15.3339539 27.7601604 15.3339539 8.85962565"></polygon>
        <polygon id="path-17" points="0.36383578 0 0.36383578 18.9005347 15.3339539 27.7601604 15.3339539 8.85962565"></polygon>
        <polygon id="path-19" points="0.100756053 22.34028 0.100756053 23.4355588 23.9517115 37.3456434 47.8408848 14.1171696 47.8408848 13.0218908 23.9899293 0.206648136"></polygon>
        <linearGradient x1="1.82439805%" y1="50.0004277%" x2="49.0732684%" y2="50.0004277%" id="linearGradient-21">
            <stop stop-color="#DDE1E4" offset="0%"></stop>
            <stop stop-color="#BFC3CA" offset="100%"></stop>
        </linearGradient>
        <polygon id="path-22" points="0.100756053 22.34028 0.100756053 23.4355588 23.9517115 37.3456434 47.8408848 14.1171696 47.8408848 13.0218908 23.9899293 0.206648136"></polygon>
        <polygon id="path-24" points="0.100756053 22.34028 0.100756053 23.4355588 23.9517115 37.3456434 47.8408848 14.1171696 47.8408848 13.0218908 23.9899293 0.206648136"></polygon>
        <polygon id="path-26" points="0.100756053 22.34028 0.100756053 23.4355588 23.9517115 37.3456434 47.8408848 14.1171696 47.8408848 13.0218908 23.9899293 0.206648136"></polygon>
    </defs>
    <g id="Leaftech-webdesign" stroke="none" stroke-width="1" fill="none" fill-rule="evenodd">
        <g id="Labs---UI" transform="translate(-842.000000, -1826.000000)">
            <g id="Group-4-Copy" transform="translate(830.000000, 1824.000000)">
                <g id="Group-29">
                    <ellipse id="Oval" fill="#C1DBF5" transform="translate(127.930830, 131.075177) rotate(-9.000000) translate(-127.930830, -131.075177) " cx="127.93083" cy="131.075177" rx="116.636058" ry="75.1312003"></ellipse>
                    <g id="Trees" transform="translate(29.962844, 49.505142)">
                        <g id="Group-17-Copy-2" transform="translate(0.000000, 14.510121)">
                            <path d="M16.2769247,42.3061601 C16.2791845,42.3085734 16.2814795,42.3112649 16.2838091,42.314231 C16.2834976,42.3131976 16.2839743,42.3128237 16.2845227,42.3129314 L28.5310939,44.773118 C28.6113387,44.7888741 28.7869438,44.8413513 28.7141505,44.8786155 L17.4876326,50.6280597 C17.4763017,50.6412204 17.4636765,50.6489356 17.4497014,50.6508997 C15.9085444,50.8674952 14.4107925,49.4141655 13.9570518,47.3420717 L12.3278358,47.5408318 C11.9573292,47.5861264 11.6172518,47.3305462 11.5577164,46.9620598 C11.5010605,46.6113955 11.7394013,46.2811972 12.0900656,46.2245413 C12.0982218,46.2232235 12.1064027,46.222063 12.1146037,46.2210604 L13.8202573,46.0128644 C13.8435483,44.0886595 14.8429175,42.5076966 16.2769247,42.3061601 Z" id="Combined-Shape-Copy" fill="#263238" opacity="0.188836961" transform="translate(20.140413, 46.489213) rotate(1.000000) translate(-20.140413, -46.489213) "></path>
                            <g id="Group-14-Copy" stroke="#263238" stroke-linejoin="round" stroke-width="0.891075">
                                <rect id="Rectangle" fill="#FFFFFF" x="8.64218404" y="32.1996931" width="3.83034007" height="15.7165168" rx="1.91517004"></rect>
                                <path d="M11.0848101,0.0459423633 L21.7817435,27.461816 C21.8155466,27.4937214 21.8329384,27.5269999 21.8329384,27.5616866 C21.8329384,31.3934297 16.9454687,34.4996711 10.9164692,34.4996711 C4.88746974,34.4996711 0,31.3934297 0,27.5616866 C0.00644618207,27.5576604 0.0135071098,27.5536416 0.0211756832,27.5496307 C0.020065986,27.5482351 0.0197817122,27.5473909 0.0201127745,27.5465423 L10.7481284,0.429272043 C10.8174886,0.251471367 11.0154498,-0.131858312 11.0848101,0.0459423633 Z" id="Combined-Shape" fill="#3087DF"></path>
                            </g>
                        </g>
                        <g id="Group-17" transform="translate(163.275284, 0.000000)">
                            <path d="M16.2769247,42.3061601 C16.2791845,42.3085734 16.2814795,42.3112649 16.2838091,42.314231 C16.2834976,42.3131976 16.2839743,42.3128237 16.2845227,42.3129314 L28.5310939,44.773118 C28.6113387,44.7888741 28.7869438,44.8413513 28.7141505,44.8786155 L17.4876326,50.6280597 C17.4763017,50.6412204 17.4636765,50.6489356 17.4497014,50.6508997 C15.9085444,50.8674952 14.4107925,49.4141655 13.9570518,47.3420717 L12.3278358,47.5408318 C11.9573292,47.5861264 11.6172518,47.3305462 11.5577164,46.9620598 C11.5010605,46.6113955 11.7394013,46.2811972 12.0900656,46.2245413 C12.0982218,46.2232235 12.1064027,46.222063 12.1146037,46.2210604 L13.8202573,46.0128644 C13.8435483,44.0886595 14.8429175,42.5076966 16.2769247,42.3061601 Z" id="Combined-Shape-Copy" fill="#263238" opacity="0.188836961" transform="translate(20.140413, 46.489213) rotate(1.000000) translate(-20.140413, -46.489213) "></path>
                            <g id="Group-14-Copy" stroke="#263238" stroke-linejoin="round" stroke-width="0.891075">
                                <rect id="Rectangle" fill="#FFFFFF" x="8.64218404" y="32.1996931" width="3.83034007" height="15.7165168" rx="1.91517004"></rect>
                                <path d="M11.0848101,0.0459423633 L21.7817435,27.461816 C21.8155466,27.4937214 21.8329384,27.5269999 21.8329384,27.5616866 C21.8329384,31.3934297 16.9454687,34.4996711 10.9164692,34.4996711 C4.88746974,34.4996711 0,31.3934297 0,27.5616866 C0.00644618207,27.5576604 0.0135071098,27.5536416 0.0211756832,27.5496307 C0.020065986,27.5482351 0.0197817122,27.5473909 0.0201127745,27.5465423 L10.7481284,0.429272043 C10.8174886,0.251471367 11.0154498,-0.131858312 11.0848101,0.0459423633 Z" id="Combined-Shape" fill="#3087DF"></path>
                            </g>
                        </g>
                        <g id="Group-17-Copy" transform="translate(179.745746, 37.566309)">
                            <path d="M16.2769247,42.3061601 C16.2791845,42.3085734 16.2814795,42.3112649 16.2838091,42.314231 C16.2834976,42.3131976 16.2839743,42.3128237 16.2845227,42.3129314 L28.5310939,44.773118 C28.6113387,44.7888741 28.7869438,44.8413513 28.7141505,44.8786155 L17.4876326,50.6280597 C17.4763017,50.6412204 17.4636765,50.6489356 17.4497014,50.6508997 C15.9085444,50.8674952 14.4107925,49.4141655 13.9570518,47.3420717 L12.3278358,47.5408318 C11.9573292,47.5861264 11.6172518,47.3305462 11.5577164,46.9620598 C11.5010605,46.6113955 11.7394013,46.2811972 12.0900656,46.2245413 C12.0982218,46.2232235 12.1064027,46.222063 12.1146037,46.2210604 L13.8202573,46.0128644 C13.8435483,44.0886595 14.8429175,42.5076966 16.2769247,42.3061601 Z" id="Combined-Shape-Copy" fill="#263238" opacity="0.188836961" transform="translate(20.140413, 46.489213) rotate(1.000000) translate(-20.140413, -46.489213) "></path>
                            <g id="Group-14-Copy" stroke="#263238" stroke-linejoin="round" stroke-width="0.891075">
                                <rect id="Rectangle" fill="#FFFFFF" x="8.64218404" y="32.1996931" width="3.83034007" height="15.7165168" rx="1.91517004"></rect>
                                <path d="M11.0848101,0.0459423633 L21.7817435,27.461816 C21.8155466,27.4937214 21.8329384,27.5269999 21.8329384,27.5616866 C21.8329384,31.3934297 16.9454687,34.4996711 10.9164692,34.4996711 C4.88746974,34.4996711 0,31.3934297 0,27.5616866 C0.00644618207,27.5576604 0.0135071098,27.5536416 0.0211756832,27.5496307 C0.020065986,27.5482351 0.0197817122,27.5473909 0.0201127745,27.5465423 L10.7481284,0.429272043 C10.8174886,0.251471367 11.0154498,-0.131858312 11.0848101,0.0459423633 Z" id="Combined-Shape" fill="#3087DF"></path>
                            </g>
                        </g>
                    </g>
                    <g id="Hause" transform="translate(49.949438, 0.000000)">
                        <polygon id="Rectangle" stroke="#263238" stroke-width="1.02429071" fill="#FFFFFF" stroke-linejoin="round" points="-2.98771994e-13 55.4575822 83.5004085 104.259612 84.09684 192.936472 0 143.848313"></polygon>
                        <polygon id="Path-10" fill="#263238" points="83.2162448 104.368341 147.499693 67.3547938 147.499693 156.209755 84.09684 192.936472"></polygon>
                        <polygon id="Path-11" stroke="#263238" stroke-width="1.02429071" fill="#FFFFFF" stroke-linejoin="round" points="0 55.6901409 63.6389805 18.8846725 147.499693 66.969236 83.2659558 104.368341"></polygon>
                        <polygon id="Path-14" stroke="#263238" stroke-width="1.02429071" fill="#C1DBF5" stroke-linejoin="round" points="7.04476146 56.1339095 65.0929641 22.8504097 139.134039 66.2378291 82.2704934 99.5213288"></polygon>
                        <polygon id="Path-16" stroke="#263238" stroke-width="1.02429071" fill="#8FB6E6" stroke-linejoin="round" points="11.1910617 58.5592122 64.5006355 27.0164367 134.987739 68.6767062 139.134039 66.2961194 65.0929641 22.8504097 7.04476146 56.1786253"></polygon>
                        <g id="Group-16-Copy-3" transform="translate(101.634100, 119.249616) scale(-1, 1) translate(-101.634100, -119.249616) translate(93.634100, 105.249616)">
                            <polygon id="Path-15-Copy" stroke="#263238" stroke-width="1.02429071" fill="#FFFFFF" stroke-linejoin="round" points="0.36383578 0 0.36383578 18.9005347 15.3339539 27.7601604 15.3339539 8.85962565"></polygon>
                            <g id="Rectangle">
                                <mask id="mask-2" fill="white">
                                    <use xlink:href="#path-1"></use>
                                </mask>
                                <g id="Mask"></g>
                                <polygon fill="#8FB6E6" mask="url(#mask-2)" transform="translate(6.107698, 13.287310) rotate(3.000000) translate(-6.107698, -13.287310) " points="-6.4405383 20.0340009 17.3253212 4.4750318 18.6559335 6.54061892 -5.10992599 22.0995881"></polygon>
                                <polygon id="Rectangle-Copy-98" fill="#8FB6E6" mask="url(#mask-2)" transform="translate(10.852160, 15.301117) rotate(3.000000) translate(-10.852160, -15.301117) " points="-1.69607592 22.0478083 22.0697835 6.48883916 23.4003959 8.55442628 -0.365463605 24.1133954"></polygon>
                            </g>
                            <polygon id="Path-15-Copy" stroke="#263238" stroke-width="1.02429071" stroke-linejoin="round" points="0.36383578 0 0.36383578 18.9005347 15.3339539 27.7601604 15.3339539 8.85962565"></polygon>
                            <polygon id="Path-15-Copy" stroke="#263238" stroke-width="1.02429071" fill="#FFFFFF" stroke-linejoin="round" points="0.36383578 0 0.36383578 4.35949834 15.3339539 13.219124 15.3339539 8.85962565"></polygon>
                        </g>
                        <g id="Group-16-Copy-5" transform="translate(101.634100, 157.144438) scale(-1, 1) translate(-101.634100, -157.144438) translate(93.634100, 143.144438)">
                            <polygon id="Path-15-Copy" stroke="#263238" stroke-width="1.02429071" fill="#FFFFFF" stroke-linejoin="round" points="0.36383578 0 0.36383578 18.9005347 15.3339539 27.7601604 15.3339539 8.85962565"></polygon>
                            <g id="Rectangle">
                                <mask id="mask-4" fill="white">
                                    <use xlink:href="#path-3"></use>
                                </mask>
                                <g id="Mask"></g>
                                <polygon fill="#8FB6E6" mask="url(#mask-4)" transform="translate(6.107698, 13.287310) rotate(3.000000) translate(-6.107698, -13.287310) " points="-6.4405383 20.0340009 17.3253212 4.4750318 18.6559335 6.54061892 -5.10992599 22.0995881"></polygon>
                                <polygon id="Rectangle-Copy-98" fill="#8FB6E6" mask="url(#mask-4)" transform="translate(10.852160, 15.301117) rotate(3.000000) translate(-10.852160, -15.301117) " points="-1.69607592 22.0478083 22.0697835 6.48883916 23.4003959 8.55442628 -0.365463605 24.1133954"></polygon>
                            </g>
                            <polygon id="Path-15-Copy" stroke="#263238" stroke-width="1.02429071" stroke-linejoin="round" points="0.36383578 0 0.36383578 18.9005347 15.3339539 27.7601604 15.3339539 8.85962565"></polygon>
                            <polygon id="Path-15-Copy" stroke="#263238" stroke-width="1.02429071" fill="#FFFFFF" stroke-linejoin="round" points="0.36383578 0 0.36383578 4.35949834 15.3339539 13.219124 15.3339539 8.85962565"></polygon>
                        </g>
                        <g id="Group-16-Copy-4" transform="translate(132.454932, 101.183480) scale(-1, 1) translate(-132.454932, -101.183480) translate(124.454932, 87.183480)">
                            <polygon id="Path-15-Copy" stroke="#263238" stroke-width="1.02429071" fill="#FFFFFF" stroke-linejoin="round" points="0.36383578 0 0.36383578 18.9005347 15.3339539 27.7601604 15.3339539 8.85962565"></polygon>
                            <g id="Rectangle">
                                <mask id="mask-6" fill="white">
                                    <use xlink:href="#path-5"></use>
                                </mask>
                                <g id="Mask"></g>
                                <polygon fill="#8FB6E6" mask="url(#mask-6)" transform="translate(6.107698, 13.287310) rotate(3.000000) translate(-6.107698, -13.287310) " points="-6.4405383 20.0340009 17.3253212 4.4750318 18.6559335 6.54061892 -5.10992599 22.0995881"></polygon>
                                <polygon id="Rectangle-Copy-98" fill="#8FB6E6" mask="url(#mask-6)" transform="translate(10.852160, 15.301117) rotate(3.000000) translate(-10.852160, -15.301117) " points="-1.69607592 22.0478083 22.0697835 6.48883916 23.4003959 8.55442628 -0.365463605 24.1133954"></polygon>
                            </g>
                            <polygon id="Path-15-Copy" stroke="#263238" stroke-width="1.02429071" stroke-linejoin="round" points="0.36383578 0 0.36383578 18.9005347 15.3339539 27.7601604 15.3339539 8.85962565"></polygon>
                            <polygon id="Path-15-Copy" stroke="#263238" stroke-width="1.02429071" fill="#FFFFFF" stroke-linejoin="round" points="0.36383578 0 0.36383578 4.35949834 15.3339539 13.219124 15.3339539 8.85962565"></polygon>
                        </g>
                        <g id="Group-16-Copy-6" transform="translate(132.454932, 139.078302) scale(-1, 1) translate(-132.454932, -139.078302) translate(124.454932, 125.078302)">
                            <polygon id="Path-15-Copy" stroke="#263238" stroke-width="1.02429071" fill="#FFFFFF" stroke-linejoin="round" points="0.36383578 0 0.36383578 18.9005347 15.3339539 27.7601604 15.3339539 8.85962565"></polygon>
                            <g id="Rectangle">
                                <mask id="mask-8" fill="white">
                                    <use xlink:href="#path-7"></use>
                                </mask>
                                <g id="Mask"></g>
                                <polygon fill="#8FB6E6" mask="url(#mask-8)" transform="translate(6.107698, 13.287310) rotate(3.000000) translate(-6.107698, -13.287310) " points="-6.4405383 20.0340009 17.3253212 4.4750318 18.6559335 6.54061892 -5.10992599 22.0995881"></polygon>
                                <polygon id="Rectangle-Copy-98" fill="#8FB6E6" mask="url(#mask-8)" transform="translate(10.852160, 15.301117) rotate(3.000000) translate(-10.852160, -15.301117) " points="-1.69607592 22.0478083 22.0697835 6.48883916 23.4003959 8.55442628 -0.365463605 24.1133954"></polygon>
                            </g>
                            <polygon id="Path-15-Copy" stroke="#263238" stroke-width="1.02429071" stroke-linejoin="round" points="0.36383578 0 0.36383578 18.9005347 15.3339539 27.7601604 15.3339539 8.85962565"></polygon>
                            <polygon id="Path-15-Copy" stroke="#263238" stroke-width="1.02429071" fill="#FFFFFF" stroke-linejoin="round" points="0.36383578 0 0.36383578 4.35949834 15.3339539 13.219124 15.3339539 8.85962565"></polygon>
                        </g>
                        <polygon id="Path-17" stroke="#263238" stroke-width="1.02429071" fill="#3087DF" stroke-linejoin="round" points="16.2910109 65.1516065 16.2910109 153.2791 66.4849363 182.80181 66.4849363 94.6743167"></polygon>
                        <g id="Group-16" transform="translate(25.977558, 133.891051)">
                            <g id="Group-16-Copy-11">
                                <polygon id="Path-15-Copy" stroke="#263238" stroke-width="1.02429071" fill="#FFFFFF" stroke-linejoin="round" points="0.36383578 0 0.36383578 25.5100967 15.3339539 34.3697224 15.3339539 8.85962565"></polygon>
                                <g id="Rectangle">
                                    <mask id="mask-10" fill="white">
                                        <use xlink:href="#path-9"></use>
                                    </mask>
                                    <g id="Mask"></g>
                                    <polygon fill="#8FB6E6" mask="url(#mask-10)" transform="translate(6.074029, 15.573964) rotate(1.000000) translate(-6.074029, -15.573964) " points="-6.47436414 22.3210051 17.2918685 6.76136807 18.6224228 8.82692331 -5.14380979 24.3865604"></polygon>
                                    <polygon id="Rectangle-Copy-98" fill="#8FB6E6" mask="url(#mask-10)" transform="translate(10.885828, 17.420838) rotate(1.000000) translate(-10.885828, -17.420838) " points="-1.66256529 24.1678786 22.1036673 8.60824151 23.4342217 10.6737968 -0.332010947 26.2334338"></polygon>
                                </g>
                                <polygon id="Path-15-Copy" stroke="#263238" stroke-width="1.02429071" stroke-linejoin="round" points="0.36383578 0 0.36383578 25.5100967 15.3339539 34.3697224 15.3339539 8.85962565"></polygon>
                            </g>
                            <g id="Group-16-Copy-13" transform="translate(14.970118, 8.812749)">
                                <polygon id="Path-15-Copy" stroke="#263238" stroke-width="1.02429071" fill="#FFFFFF" stroke-linejoin="round" points="0.36383578 0 0.36383578 25.5100967 15.3339539 34.3697224 15.3339539 8.85962565"></polygon>
                                <g id="Rectangle">
                                    <mask id="mask-12" fill="white">
                                        <use xlink:href="#path-11"></use>
                                    </mask>
                                    <g id="Mask"></g>
                                    <polygon fill="#8FB6E6" mask="url(#mask-12)" transform="translate(6.074029, 15.573964) rotate(1.000000) translate(-6.074029, -15.573964) " points="-6.47436414 22.3210051 17.2918685 6.76136807 18.6224228 8.82692331 -5.14380979 24.3865604"></polygon>
                                    <polygon id="Rectangle-Copy-98" fill="#8FB6E6" mask="url(#mask-12)" transform="translate(10.885828, 17.420838) rotate(1.000000) translate(-10.885828, -17.420838) " points="-1.66256529 24.1678786 22.1036673 8.60824151 23.4342217 10.6737968 -0.332010947 26.2334338"></polygon>
                                </g>
                                <polygon id="Path-15-Copy" stroke="#263238" stroke-width="1.02429071" stroke-linejoin="round" points="0.36383578 0 0.36383578 25.5100967 15.3339539 34.3697224 15.3339539 8.85962565"></polygon>
                            </g>
                        </g>
                        <g id="Group-16-Copy-7" transform="translate(8.365654, 76.608181)">
                            <polygon id="Path-15-Copy" stroke="#263238" stroke-width="1.02429071" fill="#FFFFFF" stroke-linejoin="round" points="0.36383578 0 0.36383578 18.9005347 15.3339539 27.7601604 15.3339539 8.85962565"></polygon>
                            <g id="Rectangle">
                                <mask id="mask-14" fill="white">
                                    <use xlink:href="#path-13"></use>
                                </mask>
                                <g id="Mask"></g>
                                <polygon fill="#8FB6E6" mask="url(#mask-14)" transform="translate(6.107698, 13.287310) rotate(3.000000) translate(-6.107698, -13.287310) " points="-6.4405383 20.0340009 17.3253212 4.4750318 18.6559335 6.54061892 -5.10992599 22.0995881"></polygon>
                                <polygon id="Rectangle-Copy-98" fill="#8FB6E6" mask="url(#mask-14)" transform="translate(10.852160, 15.301117) rotate(3.000000) translate(-10.852160, -15.301117) " points="-1.69607592 22.0478083 22.0697835 6.48883916 23.4003959 8.55442628 -0.365463605 24.1133954"></polygon>
                            </g>
                            <polygon id="Path-15-Copy" stroke="#263238" stroke-width="1.02429071" stroke-linejoin="round" points="0.36383578 0 0.36383578 18.9005347 15.3339539 27.7601604 15.3339539 8.85962565"></polygon>
                            <polygon id="Path-15-Copy" stroke="#263238" stroke-width="1.02429071" fill="#FFFFFF" stroke-linejoin="round" points="0.36383578 0 0.36383578 4.35949834 15.3339539 13.219124 15.3339539 8.85962565"></polygon>
                        </g>
                        <g id="Group-16-Copy-8" transform="translate(34.343212, 91.589854)">
                            <polygon id="Path-15-Copy" stroke="#263238" stroke-width="1.02429071" fill="#FFFFFF" stroke-linejoin="round" points="0.36383578 0 0.36383578 18.9005347 15.3339539 27.7601604 15.3339539 8.85962565"></polygon>
                            <g id="Rectangle">
                                <mask id="mask-16" fill="white">
                                    <use xlink:href="#path-15"></use>
                                </mask>
                                <g id="Mask"></g>
                                <polygon fill="#8FB6E6" mask="url(#mask-16)" transform="translate(6.107698, 13.287310) rotate(3.000000) translate(-6.107698, -13.287310) " points="-6.4405383 20.0340009 17.3253212 4.4750318 18.6559335 6.54061892 -5.10992599 22.0995881"></polygon>
                                <polygon id="Rectangle-Copy-98" fill="#8FB6E6" mask="url(#mask-16)" transform="translate(10.852160, 15.301117) rotate(3.000000) translate(-10.852160, -15.301117) " points="-1.69607592 22.0478083 22.0697835 6.48883916 23.4003959 8.55442628 -0.365463605 24.1133954"></polygon>
                            </g>
                            <polygon id="Path-15-Copy" stroke="#263238" stroke-width="1.02429071" stroke-linejoin="round" points="0.36383578 0 0.36383578 18.9005347 15.3339539 27.7601604 15.3339539 8.85962565"></polygon>
                            <polygon id="Path-15-Copy" stroke="#263238" stroke-width="1.02429071" fill="#FFFFFF" stroke-linejoin="round" points="0.36383578 0 0.36383578 4.35949834 15.3339539 13.219124 15.3339539 8.85962565"></polygon>
                        </g>
                        <g id="Group-16-Copy-9" transform="translate(60.320770, 106.130891)">
                            <polygon id="Path-15-Copy" stroke="#263238" stroke-width="1.02429071" fill="#FFFFFF" stroke-linejoin="round" points="0.36383578 0 0.36383578 18.9005347 15.3339539 27.7601604 15.3339539 8.85962565"></polygon>
                            <g id="Rectangle">
                                <mask id="mask-18" fill="white">
                                    <use xlink:href="#path-17"></use>
                                </mask>
                                <g id="Mask"></g>
                                <polygon fill="#8FB6E6" mask="url(#mask-18)" transform="translate(6.107698, 13.287310) rotate(3.000000) translate(-6.107698, -13.287310) " points="-6.4405383 20.0340009 17.3253212 4.4750318 18.6559335 6.54061892 -5.10992599 22.0995881"></polygon>
                                <polygon id="Rectangle-Copy-98" fill="#8FB6E6" mask="url(#mask-18)" transform="translate(10.852160, 15.301117) rotate(3.000000) translate(-10.852160, -15.301117) " points="-1.69607592 22.0478083 22.0697835 6.48883916 23.4003959 8.55442628 -0.365463605 24.1133954"></polygon>
                            </g>
                            <polygon id="Path-15-Copy" stroke="#263238" stroke-width="1.02429071" stroke-linejoin="round" points="0.36383578 0 0.36383578 18.9005347 15.3339539 27.7601604 15.3339539 8.85962565"></polygon>
                            <polygon id="Path-15-Copy" stroke="#263238" stroke-width="1.02429071" fill="#FFFFFF" stroke-linejoin="round" points="0.36383578 0 0.36383578 4.35949834 15.3339539 13.219124 15.3339539 8.85962565"></polygon>
                        </g>
                        <g id="Group-27" transform="translate(22.404471, 16.095137) rotate(-7.000000) translate(-22.404471, -16.095137) translate(8.404471, 2.095137)" stroke="#263238" stroke-linecap="round" stroke-linejoin="round" stroke-width="1.02429071">
                            <path d="M13.2089277,24.2350606 C14.2360845,25.2667487 15.264467,26.2884975 16.2910109,27.3195229" id="Stroke-243"></path>
                            <path d="M0,11.8972116 L11.4477374,22.4725108" id="Stroke-245"></path>
                            <path d="M12.3283326,5.72828706 C15.5584716,11.7486485 18.7873206,17.7709044 22.0148796,23.7944232" id="Stroke-247"></path>
                            <path d="M9.68654701,-4.54747351e-13 C10.2731353,1.03100337 10.8554471,2.05740406 11.4477374,3.08446226" id="Stroke-249"></path>
                            <path d="M25.5372603,12.3378491 L27.2984507,19.3880485" id="Stroke-251"></path>
                            <path d="M22.8954748,1.76254987 L24.6566651,9.69402426" id="Stroke-253"></path>
                        </g>
                        <g id="Group-22" transform="translate(47.552140, 20.206585)">
                            <g id="Group-21-Copy-2">
                                <polygon id="Stroke-171-Copy" stroke="#000000" stroke-width="0.682860475" points="46.5119907 13.5047397 23.6160462 35.7676904 23.6225606 37.9556267 24.3387103 38.3960101 46.5432598 24.6432053"></polygon>
                                <path d="M47.2283141,13.9450356 L24.3323696,36.2079864 L24.338884,38.3959227 L47.2595832,25.0830643 L47.2283141,13.9450356 Z M46.1469237,16.5200549 L46.1690726,24.4517608 L25.8567392,36.2494908 L46.1469237,16.5200549 Z" id="Fill-173-Copy" fill="#FFFFFF"></path>
                                <path d="M47.2283141,13.9450356 L24.3323696,36.2079864 L24.338884,38.3959227 L47.2595832,25.0830643 L47.2283141,13.9450356 Z M46.1469237,16.5200549 L46.1690726,24.4517608 L25.8567392,36.2494908 L46.1469237,16.5200549 L46.1469237,16.5200549 Z" id="Stroke-175-Copy" stroke="#263238" stroke-width="1.02429071" stroke-linejoin="round"></path>
                                <g id="Group-180-Copy" transform="translate(0.000000, 0.888631)">
                                    <mask id="mask-20" fill="white">
                                        <use xlink:href="#path-19"></use>
                                    </mask>
                                    <g id="Clip-179"></g>
                                    <polygon id="Fill-178" fill="url(#linearGradient-21)" mask="url(#mask-20)" points="0.100756053 22.34028 0.100756053 23.4355588 23.9517115 37.3456434 47.8408848 14.1171696 47.8408848 13.0218908 23.9899293 0.206648136"></polygon>
                                </g>
                                <polygon id="Fill-181-Copy" fill="#FFFFFF" points="23.9897991 2.84217094e-14 47.8407545 13.9105215 23.9515812 37.1394321 0.100625765 23.2289107"></polygon>
                                <polygon id="Stroke-183-Copy" stroke="#263238" stroke-width="1.02429071" stroke-linejoin="round" points="23.9897991 2.84217094e-14 47.8407545 13.9105215 23.9515812 37.1394321 0.100625765 23.2289107"></polygon>
                                <path d="M5.98360666,18.9713911 L2.66126268,22.2026165 C2.321211,22.5324671 2.39026364,23.0982374 2.79849937,23.3367784 L6.28326906,25.3691824 C6.55861103,25.5295204 6.9060457,25.4867054 7.13491829,25.2643293 L10.4550908,22.0361621 C10.7942739,21.7063115 10.7260898,21.1409781 10.3174198,20.9024371 L6.83612447,18.8674117 C6.5607825,18.7066368 6.21247925,18.749015 5.98360666,18.9713911" id="Fill-185-Copy" fill="#4788D8"></path>
                                <path d="M18.9509107,12.5417943 L15.4344376,10.486672 C15.1664786,10.330266 14.8281641,10.3713335 14.6053716,10.5880301 L11.8771409,13.2412524 C11.5466437,13.5623652 11.6130905,14.1124075 12.0104689,14.3443952 L15.5265078,16.3995174 C15.7944667,16.5559234 16.1332155,16.5148559 16.356008,16.2981594 L19.084673,13.6449371 C19.414736,13.3238242 19.3482891,12.773782 18.9509107,12.5417943" id="Fill-187-Copy" fill="#4788D8"></path>
                                <path d="M14.587609,16.6952034 L11.1614689,14.6925077 C10.874401,14.5247426 10.5108975,14.5693052 10.2720362,14.8012929 L7.6193725,17.3811179 C7.26498914,17.7253859 7.33664754,18.315185 7.762255,18.5642113 L11.1888294,20.5664701 C11.4758973,20.734672 11.8389665,20.6905463 12.0782621,20.4576849 L14.7309258,17.8782967 C15.0853092,17.5340288 15.0136508,16.9437928 14.587609,16.6952034" id="Fill-189-Copy" fill="#4788D8"></path>
                                <path d="M17.5318138,25.6906448 L14.1647376,28.9642484 C13.8420576,29.278371 13.9072016,29.8153067 14.2954599,30.0420516 L18.5458887,32.5209555 C18.8073333,32.6729926 19.1373962,32.6327989 19.3549772,32.421345 L22.7181447,29.1507996 C23.041259,28.8371139 22.976115,28.3001782 22.588291,28.0734333 L18.3413366,25.5914712 C18.079892,25.4385603 17.7489604,25.4791909 17.5318138,25.6906448" id="Fill-191-Copy" fill="#4788D8"></path>
                                <path d="M11.4678194,22.0671375 L7.95568925,25.4818559 C7.67774152,25.7527266 7.73376536,26.2149544 8.06860552,26.4098065 L12.4879745,28.9874471 C12.7129384,29.1189505 12.9969662,29.0839994 13.184581,28.901817 L16.6928025,25.4905937 C16.9707502,25.2201599 16.9147264,24.7579321 16.5803205,24.5626431 L12.1648602,21.9819443 C11.9398963,21.8504409 11.6554341,21.8849551 11.4678194,22.0671375" id="Fill-193-Copy" fill="#4788D8"></path>
                                <path d="M27.9692723,3.78651035 L24.4349931,1.72527165 C24.1709428,1.57148699 23.8361026,1.61211759 23.6167845,1.82619283 L20.4811867,4.87479895 C20.1545981,5.19241669 20.2201764,5.73590566 20.6127775,5.9648351 L24.1440166,8.02913202 C24.4089355,8.18335356 24.7429071,8.14272296 24.9630938,7.92864772 L28.1017317,4.87698339 C28.4283203,4.55980253 28.3623077,4.01543978 27.9692723,3.78651035" id="Fill-195-Copy" fill="#4788D8"></path>
                                <path d="M42.1474295,17.9828441 L45.3190737,14.89885 C45.6391479,14.5877856 45.5748725,14.0543451 45.18922,13.8293476 L42.0840227,12.0188828 C41.8243153,11.8672826 41.4964238,11.9074763 41.2810143,12.1171826 L38.1115416,15.1985554 C37.7914674,15.5100567 37.8557428,16.0430603 38.240961,16.2680578 L41.3435526,18.0815808 C41.60326,18.2327442 41.9315857,18.1925504 42.1474295,17.9828441" id="Fill-197-Copy" fill="#4788D8"></path>
                                <path d="M37.1729903,15.0957119 L40.3754693,11.9811356 C40.6846862,11.6809934 40.6221479,11.1659022 40.2503928,10.9492056 L35.949586,8.44103025 C35.6985644,8.29467269 35.3823989,8.33311885 35.1739381,8.53583499 L31.9749334,11.6464792 C31.6657165,11.9470583 31.7282548,12.4617127 32.0995756,12.6788461 L36.3973424,15.1905166 C36.6479296,15.3368742 36.9649638,15.2979911 37.1729903,15.0957119" id="Fill-199-Copy" fill="#4788D8"></path>
                                <path d="M23.304875,8.38279304 L19.7128349,6.28354507 C19.4613791,6.13631373 19.1434763,6.17563367 18.934147,6.37922359 L16.143378,9.09273643 C15.8328583,9.3946262 15.8949622,9.91146498 16.2684545,10.1294722 L19.8600603,12.2287202 C20.1115162,12.3759515 20.4298532,12.3370685 20.6391826,12.1334786 L23.4299515,9.41952883 C23.7404713,9.11807595 23.677933,8.60123716 23.304875,8.38279304" id="Fill-201-Copy" fill="#4788D8"></path>
                                <path d="M31.0619185,11.5186894 L34.2500659,8.41809361 C34.5623228,8.11489318 34.4993502,7.59499617 34.1236865,7.37611517 L29.833737,4.87405624 C29.5809783,4.72638801 29.2613384,4.76570795 29.0507061,4.97017165 L25.8660331,8.06727236 C25.5537762,8.37047279 25.6167487,8.88949602 25.9919782,9.10881392 L30.2784534,11.614368 C30.5316464,11.7624731 30.8517205,11.7231531 31.0619185,11.5186894" id="Fill-203-Copy" fill="#4788D8"></path>
                                <path d="M20.3390424,33.5666038 L23.5545503,35.442165 C23.7903716,35.5793479 24.0882968,35.5426493 24.2845974,35.352166 L27.7433095,31.9894373 C28.034286,31.7063337 27.9756564,31.2222615 27.625616,31.0173609 L24.4127139,29.1396153 C24.1768926,29.0019955 23.8785331,29.0386941 23.6822325,29.2291774 L20.221349,32.5945275 C19.9303724,32.8776311 19.9885677,33.3621401 20.3390424,33.5666038" id="Fill-205-Copy" fill="#4788D8"></path>
                                <path d="M27.6656144,16.7907945 L32.164459,19.4204248 C32.3720512,19.5414429 32.6339301,19.5091131 32.8063445,19.341785 L35.7686594,16.4609439 C36.0244581,16.2123545 35.9732115,15.7868254 35.6657318,15.6072643 L31.1668872,12.977634 C30.959295,12.856616 30.6974161,12.8885088 30.5250017,13.0562739 L27.5626869,15.9371149 C27.3068881,16.1857043 27.3581347,16.6112335 27.6656144,16.7907945" id="Fill-207-Copy" fill="#4788D8"></path>
                                <path d="M19.1884257,25.2422664 L23.4766381,27.7486942 C23.7293968,27.8963625 24.0486024,27.8570425 24.2588003,27.6530157 L27.0456607,24.942998 C27.3574833,24.6402344 27.2945107,24.1216481 26.9197156,23.9027671 L22.6319375,21.3963393 C22.3791788,21.248671 22.0595389,21.2875541 21.8497752,21.4920178 L19.0629149,24.2015986 C18.7510923,24.505236 18.8140648,25.0233854 19.1884257,25.2422664" id="Fill-209-Copy" fill="#4788D8"></path>
                                <path d="M23.4842816,21.0504548 L27.7872599,23.5656204 C28.0365443,23.7115411 28.3522756,23.672658 28.5598678,23.4708157 L31.3593226,20.7485651 C31.6672366,20.4492966 31.6051326,19.9372636 31.235549,19.7214408 L26.9317021,17.2062753 C26.6824177,17.0603546 26.367555,17.0992376 26.1599628,17.3006431 L23.3600737,20.0228937 C23.052594,20.3221622 23.1142637,20.8341952 23.4842816,21.0504548" id="Fill-211-Copy" fill="#4788D8"></path>
                                <path d="M15.7424818,17.9107138 L12.9343411,20.6412653 C12.6294672,20.9374755 12.6911369,21.4447028 13.0572462,21.658778 L17.3715161,24.1804969 C17.618629,24.3251069 17.9308859,24.2866608 18.136741,24.0870028 L20.9448816,21.3564514 C21.2493213,21.0598043 21.1880859,20.552577 20.8215423,20.3385018 L16.5077067,17.8172198 C16.2601595,17.6726098 15.9483369,17.7110559 15.7424818,17.9107138" id="Fill-213-Copy" fill="#4788D8"></path>
                                <path d="M25.3910899,28.8674776 L28.3881482,30.6193995 C28.6704389,30.7841063 29.027428,30.7404175 29.2619464,30.5123618 L31.9341532,27.9137506 C32.2824565,27.5751622 32.212101,26.9958484 31.7934422,26.7507541 L28.7963839,24.9992692 C28.5140933,24.8345623 28.1571041,24.8778142 27.9221515,25.1063068 L25.2503789,27.7044811 C24.9020756,28.0430695 24.9724311,28.6223833 25.3910899,28.8674776" id="Fill-215-Copy" fill="#4788D8"></path>
                                <path d="M25.0929475,16.1316176 L20.83253,13.6417915 C20.5741254,13.4906282 20.2471026,13.530385 20.0321274,13.7396545 L17.2682846,16.4273909 C16.949079,16.7375816 17.0133544,17.2688376 17.3968354,17.4925244 L21.657253,19.9823505 C21.9160918,20.1335138 22.2431147,20.093757 22.4580899,19.8844875 L25.2219327,17.1967511 C25.540704,16.8869973 25.4768628,16.3557412 25.0929475,16.1316176" id="Fill-217-Copy" fill="#4788D8"></path>
                                <path d="M33.9115342,20.4411705 L37.0510407,22.2761011 C37.3033651,22.4228956 37.6212679,22.3840125 37.8301629,22.1804226 L40.6213662,19.4669097 C40.9318859,19.16502 40.8689134,18.6481812 40.4958554,18.430174 L37.3563489,16.5952434 C37.1048931,16.448012 36.7865561,16.4868951 36.577661,16.690485 L33.7864577,19.4044347 C33.475938,19.7063245 33.5384762,20.2227264 33.9115342,20.4411705" id="Fill-219-Copy" fill="#4788D8"></path>
                                <path d="M29.7878756,24.7345586 L32.6407485,26.402161 C32.9543083,26.5852172 33.3503838,26.5367226 33.6109598,26.2833274 L36.1641703,23.8009284 C36.5502571,23.4256414 36.4729529,22.7821051 36.0078247,22.5103606 L33.1549518,20.8431951 C32.841392,20.6601389 32.4453165,20.7081966 32.1847405,20.9615918 L29.6319643,23.4439907 C29.2454432,23.8197146 29.3231817,24.463251 29.7878756,24.7345586" id="Fill-221-Copy" fill="#4788D8"></path>
                                <path d="M29.3582726,11.9210198 L25.1621305,9.46876613 C24.8898286,9.30886504 24.5449996,9.3512432 24.3187328,9.57143487 L21.6078738,12.2071816 C21.2721651,12.533974 21.3394806,13.0936278 21.7438077,13.3299844 L25.9399498,15.782238 C26.2122517,15.9412654 26.5570807,15.8988872 26.7833475,15.6791324 L29.4937722,13.0429488 C29.8299152,12.7161564 29.7625997,12.1569395 29.3582726,11.9210198" id="Fill-223-Copy" fill="#4788D8"></path>
                                <polygon id="Fill-225-Copy" fill="#FFFFFF" opacity="0.29906064" points="16.5334603 32.8127095 23.0052995 36.5874238 15.0738004 8.66939173 10.8429147 12.7831314"></polygon>
                            </g>
                            <g id="Group-21-Copy-3" transform="translate(30.820831, 18.066136)">
                                <polygon id="Stroke-171-Copy" stroke="#000000" stroke-width="0.682860475" points="46.5119907 13.5047397 23.6160462 35.7676904 23.6225606 37.9556267 24.3387103 38.3960101 46.5432598 24.6432053"></polygon>
                                <path d="M47.2283141,13.9450356 L24.3323696,36.2079864 L24.338884,38.3959227 L47.2595832,25.0830643 L47.2283141,13.9450356 Z M46.1469237,16.5200549 L46.1690726,24.4517608 L25.8567392,36.2494908 L46.1469237,16.5200549 Z" id="Fill-173-Copy" fill="#FFFFFF"></path>
                                <path d="M47.2283141,13.9450356 L24.3323696,36.2079864 L24.338884,38.3959227 L47.2595832,25.0830643 L47.2283141,13.9450356 Z M46.1469237,16.5200549 L46.1690726,24.4517608 L25.8567392,36.2494908 L46.1469237,16.5200549 L46.1469237,16.5200549 Z" id="Stroke-175-Copy" stroke="#263238" stroke-width="1.02429071"></path>
                                <g id="Group-180-Copy" transform="translate(0.000000, 0.888631)">
                                    <mask id="mask-23" fill="white">
                                        <use xlink:href="#path-22"></use>
                                    </mask>
                                    <g id="Clip-179"></g>
                                    <polygon id="Fill-178" fill="url(#linearGradient-21)" mask="url(#mask-23)" points="0.100756053 22.34028 0.100756053 23.4355588 23.9517115 37.3456434 47.8408848 14.1171696 47.8408848 13.0218908 23.9899293 0.206648136"></polygon>
                                </g>
                                <polygon id="Fill-181-Copy" fill="#FFFFFF" points="23.9897991 2.84217094e-14 47.8407545 13.9105215 23.9515812 37.1394321 0.100625765 23.2289107"></polygon>
                                <polygon id="Stroke-183-Copy" stroke="#263238" stroke-width="1.02429071" stroke-linejoin="round" points="23.9897991 2.84217094e-14 47.8407545 13.9105215 23.9515812 37.1394321 0.100625765 23.2289107"></polygon>
                                <path d="M5.98360666,18.9713911 L2.66126268,22.2026165 C2.321211,22.5324671 2.39026364,23.0982374 2.79849937,23.3367784 L6.28326906,25.3691824 C6.55861103,25.5295204 6.9060457,25.4867054 7.13491829,25.2643293 L10.4550908,22.0361621 C10.7942739,21.7063115 10.7260898,21.1409781 10.3174198,20.9024371 L6.83612447,18.8674117 C6.5607825,18.7066368 6.21247925,18.749015 5.98360666,18.9713911" id="Fill-185-Copy" fill="#4788D8"></path>
                                <path d="M18.9509107,12.5417943 L15.4344376,10.486672 C15.1664786,10.330266 14.8281641,10.3713335 14.6053716,10.5880301 L11.8771409,13.2412524 C11.5466437,13.5623652 11.6130905,14.1124075 12.0104689,14.3443952 L15.5265078,16.3995174 C15.7944667,16.5559234 16.1332155,16.5148559 16.356008,16.2981594 L19.084673,13.6449371 C19.414736,13.3238242 19.3482891,12.773782 18.9509107,12.5417943" id="Fill-187-Copy" fill="#4788D8"></path>
                                <path d="M14.587609,16.6952034 L11.1614689,14.6925077 C10.874401,14.5247426 10.5108975,14.5693052 10.2720362,14.8012929 L7.6193725,17.3811179 C7.26498914,17.7253859 7.33664754,18.315185 7.762255,18.5642113 L11.1888294,20.5664701 C11.4758973,20.734672 11.8389665,20.6905463 12.0782621,20.4576849 L14.7309258,17.8782967 C15.0853092,17.5340288 15.0136508,16.9437928 14.587609,16.6952034" id="Fill-189-Copy" fill="#4788D8"></path>
                                <path d="M17.5318138,25.6906448 L14.1647376,28.9642484 C13.8420576,29.278371 13.9072016,29.8153067 14.2954599,30.0420516 L18.5458887,32.5209555 C18.8073333,32.6729926 19.1373962,32.6327989 19.3549772,32.421345 L22.7181447,29.1507996 C23.041259,28.8371139 22.976115,28.3001782 22.588291,28.0734333 L18.3413366,25.5914712 C18.079892,25.4385603 17.7489604,25.4791909 17.5318138,25.6906448" id="Fill-191-Copy" fill="#4788D8"></path>
                                <path d="M11.4678194,22.0671375 L7.95568925,25.4818559 C7.67774152,25.7527266 7.73376536,26.2149544 8.06860552,26.4098065 L12.4879745,28.9874471 C12.7129384,29.1189505 12.9969662,29.0839994 13.184581,28.901817 L16.6928025,25.4905937 C16.9707502,25.2201599 16.9147264,24.7579321 16.5803205,24.5626431 L12.1648602,21.9819443 C11.9398963,21.8504409 11.6554341,21.8849551 11.4678194,22.0671375" id="Fill-193-Copy" fill="#4788D8"></path>
                                <path d="M27.9692723,3.78651035 L24.4349931,1.72527165 C24.1709428,1.57148699 23.8361026,1.61211759 23.6167845,1.82619283 L20.4811867,4.87479895 C20.1545981,5.19241669 20.2201764,5.73590566 20.6127775,5.9648351 L24.1440166,8.02913202 C24.4089355,8.18335356 24.7429071,8.14272296 24.9630938,7.92864772 L28.1017317,4.87698339 C28.4283203,4.55980253 28.3623077,4.01543978 27.9692723,3.78651035" id="Fill-195-Copy" fill="#4788D8"></path>
                                <path d="M42.1474295,17.9828441 L45.3190737,14.89885 C45.6391479,14.5877856 45.5748725,14.0543451 45.18922,13.8293476 L42.0840227,12.0188828 C41.8243153,11.8672826 41.4964238,11.9074763 41.2810143,12.1171826 L38.1115416,15.1985554 C37.7914674,15.5100567 37.8557428,16.0430603 38.240961,16.2680578 L41.3435526,18.0815808 C41.60326,18.2327442 41.9315857,18.1925504 42.1474295,17.9828441" id="Fill-197-Copy" fill="#4788D8"></path>
                                <path d="M37.1729903,15.0957119 L40.3754693,11.9811356 C40.6846862,11.6809934 40.6221479,11.1659022 40.2503928,10.9492056 L35.949586,8.44103025 C35.6985644,8.29467269 35.3823989,8.33311885 35.1739381,8.53583499 L31.9749334,11.6464792 C31.6657165,11.9470583 31.7282548,12.4617127 32.0995756,12.6788461 L36.3973424,15.1905166 C36.6479296,15.3368742 36.9649638,15.2979911 37.1729903,15.0957119" id="Fill-199-Copy" fill="#4788D8"></path>
                                <path d="M23.304875,8.38279304 L19.7128349,6.28354507 C19.4613791,6.13631373 19.1434763,6.17563367 18.934147,6.37922359 L16.143378,9.09273643 C15.8328583,9.3946262 15.8949622,9.91146498 16.2684545,10.1294722 L19.8600603,12.2287202 C20.1115162,12.3759515 20.4298532,12.3370685 20.6391826,12.1334786 L23.4299515,9.41952883 C23.7404713,9.11807595 23.677933,8.60123716 23.304875,8.38279304" id="Fill-201-Copy" fill="#4788D8"></path>
                                <path d="M31.0619185,11.5186894 L34.2500659,8.41809361 C34.5623228,8.11489318 34.4993502,7.59499617 34.1236865,7.37611517 L29.833737,4.87405624 C29.5809783,4.72638801 29.2613384,4.76570795 29.0507061,4.97017165 L25.8660331,8.06727236 C25.5537762,8.37047279 25.6167487,8.88949602 25.9919782,9.10881392 L30.2784534,11.614368 C30.5316464,11.7624731 30.8517205,11.7231531 31.0619185,11.5186894" id="Fill-203-Copy" fill="#4788D8"></path>
                                <path d="M20.3390424,33.5666038 L23.5545503,35.442165 C23.7903716,35.5793479 24.0882968,35.5426493 24.2845974,35.352166 L27.7433095,31.9894373 C28.034286,31.7063337 27.9756564,31.2222615 27.625616,31.0173609 L24.4127139,29.1396153 C24.1768926,29.0019955 23.8785331,29.0386941 23.6822325,29.2291774 L20.221349,32.5945275 C19.9303724,32.8776311 19.9885677,33.3621401 20.3390424,33.5666038" id="Fill-205-Copy" fill="#4788D8"></path>
                                <path d="M27.6656144,16.7907945 L32.164459,19.4204248 C32.3720512,19.5414429 32.6339301,19.5091131 32.8063445,19.341785 L35.7686594,16.4609439 C36.0244581,16.2123545 35.9732115,15.7868254 35.6657318,15.6072643 L31.1668872,12.977634 C30.959295,12.856616 30.6974161,12.8885088 30.5250017,13.0562739 L27.5626869,15.9371149 C27.3068881,16.1857043 27.3581347,16.6112335 27.6656144,16.7907945" id="Fill-207-Copy" fill="#4788D8"></path>
                                <path d="M19.1884257,25.2422664 L23.4766381,27.7486942 C23.7293968,27.8963625 24.0486024,27.8570425 24.2588003,27.6530157 L27.0456607,24.942998 C27.3574833,24.6402344 27.2945107,24.1216481 26.9197156,23.9027671 L22.6319375,21.3963393 C22.3791788,21.248671 22.0595389,21.2875541 21.8497752,21.4920178 L19.0629149,24.2015986 C18.7510923,24.505236 18.8140648,25.0233854 19.1884257,25.2422664" id="Fill-209-Copy" fill="#4788D8"></path>
                                <path d="M23.4842816,21.0504548 L27.7872599,23.5656204 C28.0365443,23.7115411 28.3522756,23.672658 28.5598678,23.4708157 L31.3593226,20.7485651 C31.6672366,20.4492966 31.6051326,19.9372636 31.235549,19.7214408 L26.9317021,17.2062753 C26.6824177,17.0603546 26.367555,17.0992376 26.1599628,17.3006431 L23.3600737,20.0228937 C23.052594,20.3221622 23.1142637,20.8341952 23.4842816,21.0504548" id="Fill-211-Copy" fill="#4788D8"></path>
                                <path d="M15.7424818,17.9107138 L12.9343411,20.6412653 C12.6294672,20.9374755 12.6911369,21.4447028 13.0572462,21.658778 L17.3715161,24.1804969 C17.618629,24.3251069 17.9308859,24.2866608 18.136741,24.0870028 L20.9448816,21.3564514 C21.2493213,21.0598043 21.1880859,20.552577 20.8215423,20.3385018 L16.5077067,17.8172198 C16.2601595,17.6726098 15.9483369,17.7110559 15.7424818,17.9107138" id="Fill-213-Copy" fill="#4788D8"></path>
                                <path d="M25.3910899,28.8674776 L28.3881482,30.6193995 C28.6704389,30.7841063 29.027428,30.7404175 29.2619464,30.5123618 L31.9341532,27.9137506 C32.2824565,27.5751622 32.212101,26.9958484 31.7934422,26.7507541 L28.7963839,24.9992692 C28.5140933,24.8345623 28.1571041,24.8778142 27.9221515,25.1063068 L25.2503789,27.7044811 C24.9020756,28.0430695 24.9724311,28.6223833 25.3910899,28.8674776" id="Fill-215-Copy" fill="#4788D8"></path>
                                <path d="M25.0929475,16.1316176 L20.83253,13.6417915 C20.5741254,13.4906282 20.2471026,13.530385 20.0321274,13.7396545 L17.2682846,16.4273909 C16.949079,16.7375816 17.0133544,17.2688376 17.3968354,17.4925244 L21.657253,19.9823505 C21.9160918,20.1335138 22.2431147,20.093757 22.4580899,19.8844875 L25.2219327,17.1967511 C25.540704,16.8869973 25.4768628,16.3557412 25.0929475,16.1316176" id="Fill-217-Copy" fill="#4788D8"></path>
                                <path d="M33.9115342,20.4411705 L37.0510407,22.2761011 C37.3033651,22.4228956 37.6212679,22.3840125 37.8301629,22.1804226 L40.6213662,19.4669097 C40.9318859,19.16502 40.8689134,18.6481812 40.4958554,18.430174 L37.3563489,16.5952434 C37.1048931,16.448012 36.7865561,16.4868951 36.577661,16.690485 L33.7864577,19.4044347 C33.475938,19.7063245 33.5384762,20.2227264 33.9115342,20.4411705" id="Fill-219-Copy" fill="#4788D8"></path>
                                <path d="M29.7878756,24.7345586 L32.6407485,26.402161 C32.9543083,26.5852172 33.3503838,26.5367226 33.6109598,26.2833274 L36.1641703,23.8009284 C36.5502571,23.4256414 36.4729529,22.7821051 36.0078247,22.5103606 L33.1549518,20.8431951 C32.841392,20.6601389 32.4453165,20.7081966 32.1847405,20.9615918 L29.6319643,23.4439907 C29.2454432,23.8197146 29.3231817,24.463251 29.7878756,24.7345586" id="Fill-221-Copy" fill="#4788D8"></path>
                                <path d="M29.3582726,11.9210198 L25.1621305,9.46876613 C24.8898286,9.30886504 24.5449996,9.3512432 24.3187328,9.57143487 L21.6078738,12.2071816 C21.2721651,12.533974 21.3394806,13.0936278 21.7438077,13.3299844 L25.9399498,15.782238 C26.2122517,15.9412654 26.5570807,15.8988872 26.7833475,15.6791324 L29.4937722,13.0429488 C29.8299152,12.7161564 29.7625997,12.1569395 29.3582726,11.9210198" id="Fill-223-Copy" fill="#4788D8"></path>
                                <polygon id="Fill-225-Copy" fill="#FFFFFF" opacity="0.29906064" points="16.5334603 32.8127095 23.0052995 36.5874238 15.0738004 8.66939173 10.8429147 12.7831314"></polygon>
                            </g>
                        </g>
                        <g id="Group-28" transform="translate(108.667388, 13.297884)" stroke="#263238" stroke-linecap="round" stroke-linejoin="round" stroke-width="1.02429071">
                            <path d="M5.01823787,0.178041828 C5.58355785,0.950620582 6.14237532,1.72320268 6.70834889,2.4892864" id="Stroke-227" transform="translate(5.863293, 1.333664) rotate(-120.000000) translate(-5.863293, -1.333664) "></path>
                            <path d="M1.24268742,5.69881418 L4.57611482,10.2758645" id="Stroke-229" transform="translate(2.909401, 7.987339) rotate(-120.000000) translate(-2.909401, -7.987339) "></path>
                            <path d="M16.1785756,2.73951277 L16.2091768,18.3982489" id="Stroke-231" transform="translate(16.193876, 10.568881) rotate(-120.000000) translate(-16.193876, -10.568881) "></path>
                            <path d="M27.8294134,16.3700021 C27.282261,18.201141 26.7292557,20.0335819 26.182103,21.8653704" id="Stroke-233" transform="translate(27.005758, 19.117686) rotate(-120.000000) translate(-27.005758, -19.117686) "></path>
                            <path d="M20.6595599,19.2491805 L19.6163786,22.2313912" id="Stroke-235" transform="translate(20.137969, 20.740286) rotate(-120.000000) translate(-20.137969, -20.740286) "></path>
                        </g>
                        <g id="Group-23" transform="translate(19.813392, 36.950809)">
                            <g id="Group-21">
                                <polygon id="Stroke-171-Copy" stroke="#000000" stroke-width="0.682860475" points="46.5119907 13.5047397 23.6160462 35.7676904 23.6225606 37.9556267 24.3387103 38.3960101 46.5432598 24.6432053"></polygon>
                                <path d="M47.2283141,13.9450356 L24.3323696,36.2079864 L24.338884,38.3959227 L47.2595832,25.0830643 L47.2283141,13.9450356 Z M46.1469237,16.5200549 L46.1690726,24.4517608 L25.8567392,36.2494908 L46.1469237,16.5200549 Z" id="Fill-173-Copy" fill="#FFFFFF"></path>
                                <path d="M47.2283141,13.9450356 L24.3323696,36.2079864 L24.338884,38.3959227 L47.2595832,25.0830643 L47.2283141,13.9450356 Z M46.1469237,16.5200549 L46.1690726,24.4517608 L25.8567392,36.2494908 L46.1469237,16.5200549 L46.1469237,16.5200549 Z" id="Stroke-175-Copy" stroke="#263238" stroke-width="1.02429071"></path>
                                <g id="Group-180-Copy" transform="translate(0.000000, 0.888631)">
                                    <mask id="mask-25" fill="white">
                                        <use xlink:href="#path-24"></use>
                                    </mask>
                                    <g id="Clip-179"></g>
                                    <polygon id="Fill-178" fill="url(#linearGradient-21)" mask="url(#mask-25)" points="0.100756053 22.34028 0.100756053 23.4355588 23.9517115 37.3456434 47.8408848 14.1171696 47.8408848 13.0218908 23.9899293 0.206648136"></polygon>
                                </g>
                                <polygon id="Fill-181-Copy" fill="#FFFFFF" points="23.9897991 2.84217094e-14 47.8407545 13.9105215 23.9515812 37.1394321 0.100625765 23.2289107"></polygon>
                                <polygon id="Stroke-183-Copy" stroke="#263238" stroke-width="1.02429071" points="23.9897991 2.84217094e-14 47.8407545 13.9105215 23.9515812 37.1394321 0.100625765 23.2289107"></polygon>
                                <path d="M5.98360666,18.9713911 L2.66126268,22.2026165 C2.321211,22.5324671 2.39026364,23.0982374 2.79849937,23.3367784 L6.28326906,25.3691824 C6.55861103,25.5295204 6.9060457,25.4867054 7.13491829,25.2643293 L10.4550908,22.0361621 C10.7942739,21.7063115 10.7260898,21.1409781 10.3174198,20.9024371 L6.83612447,18.8674117 C6.5607825,18.7066368 6.21247925,18.749015 5.98360666,18.9713911" id="Fill-185-Copy" fill="#4788D8"></path>
                                <path d="M18.9509107,12.5417943 L15.4344376,10.486672 C15.1664786,10.330266 14.8281641,10.3713335 14.6053716,10.5880301 L11.8771409,13.2412524 C11.5466437,13.5623652 11.6130905,14.1124075 12.0104689,14.3443952 L15.5265078,16.3995174 C15.7944667,16.5559234 16.1332155,16.5148559 16.356008,16.2981594 L19.084673,13.6449371 C19.414736,13.3238242 19.3482891,12.773782 18.9509107,12.5417943" id="Fill-187-Copy" fill="#4788D8"></path>
                                <path d="M14.587609,16.6952034 L11.1614689,14.6925077 C10.874401,14.5247426 10.5108975,14.5693052 10.2720362,14.8012929 L7.6193725,17.3811179 C7.26498914,17.7253859 7.33664754,18.315185 7.762255,18.5642113 L11.1888294,20.5664701 C11.4758973,20.734672 11.8389665,20.6905463 12.0782621,20.4576849 L14.7309258,17.8782967 C15.0853092,17.5340288 15.0136508,16.9437928 14.587609,16.6952034" id="Fill-189-Copy" fill="#4788D8"></path>
                                <path d="M17.5318138,25.6906448 L14.1647376,28.9642484 C13.8420576,29.278371 13.9072016,29.8153067 14.2954599,30.0420516 L18.5458887,32.5209555 C18.8073333,32.6729926 19.1373962,32.6327989 19.3549772,32.421345 L22.7181447,29.1507996 C23.041259,28.8371139 22.976115,28.3001782 22.588291,28.0734333 L18.3413366,25.5914712 C18.079892,25.4385603 17.7489604,25.4791909 17.5318138,25.6906448" id="Fill-191-Copy" fill="#4788D8"></path>
                                <path d="M11.4678194,22.0671375 L7.95568925,25.4818559 C7.67774152,25.7527266 7.73376536,26.2149544 8.06860552,26.4098065 L12.4879745,28.9874471 C12.7129384,29.1189505 12.9969662,29.0839994 13.184581,28.901817 L16.6928025,25.4905937 C16.9707502,25.2201599 16.9147264,24.7579321 16.5803205,24.5626431 L12.1648602,21.9819443 C11.9398963,21.8504409 11.6554341,21.8849551 11.4678194,22.0671375" id="Fill-193-Copy" fill="#4788D8"></path>
                                <path d="M27.9692723,3.78651035 L24.4349931,1.72527165 C24.1709428,1.57148699 23.8361026,1.61211759 23.6167845,1.82619283 L20.4811867,4.87479895 C20.1545981,5.19241669 20.2201764,5.73590566 20.6127775,5.9648351 L24.1440166,8.02913202 C24.4089355,8.18335356 24.7429071,8.14272296 24.9630938,7.92864772 L28.1017317,4.87698339 C28.4283203,4.55980253 28.3623077,4.01543978 27.9692723,3.78651035" id="Fill-195-Copy" fill="#4788D8"></path>
                                <path d="M42.1474295,17.9828441 L45.3190737,14.89885 C45.6391479,14.5877856 45.5748725,14.0543451 45.18922,13.8293476 L42.0840227,12.0188828 C41.8243153,11.8672826 41.4964238,11.9074763 41.2810143,12.1171826 L38.1115416,15.1985554 C37.7914674,15.5100567 37.8557428,16.0430603 38.240961,16.2680578 L41.3435526,18.0815808 C41.60326,18.2327442 41.9315857,18.1925504 42.1474295,17.9828441" id="Fill-197-Copy" fill="#4788D8"></path>
                                <path d="M37.1729903,15.0957119 L40.3754693,11.9811356 C40.6846862,11.6809934 40.6221479,11.1659022 40.2503928,10.9492056 L35.949586,8.44103025 C35.6985644,8.29467269 35.3823989,8.33311885 35.1739381,8.53583499 L31.9749334,11.6464792 C31.6657165,11.9470583 31.7282548,12.4617127 32.0995756,12.6788461 L36.3973424,15.1905166 C36.6479296,15.3368742 36.9649638,15.2979911 37.1729903,15.0957119" id="Fill-199-Copy" fill="#4788D8"></path>
                                <path d="M23.304875,8.38279304 L19.7128349,6.28354507 C19.4613791,6.13631373 19.1434763,6.17563367 18.934147,6.37922359 L16.143378,9.09273643 C15.8328583,9.3946262 15.8949622,9.91146498 16.2684545,10.1294722 L19.8600603,12.2287202 C20.1115162,12.3759515 20.4298532,12.3370685 20.6391826,12.1334786 L23.4299515,9.41952883 C23.7404713,9.11807595 23.677933,8.60123716 23.304875,8.38279304" id="Fill-201-Copy" fill="#4788D8"></path>
                                <path d="M31.0619185,11.5186894 L34.2500659,8.41809361 C34.5623228,8.11489318 34.4993502,7.59499617 34.1236865,7.37611517 L29.833737,4.87405624 C29.5809783,4.72638801 29.2613384,4.76570795 29.0507061,4.97017165 L25.8660331,8.06727236 C25.5537762,8.37047279 25.6167487,8.88949602 25.9919782,9.10881392 L30.2784534,11.614368 C30.5316464,11.7624731 30.8517205,11.7231531 31.0619185,11.5186894" id="Fill-203-Copy" fill="#4788D8"></path>
                                <path d="M20.3390424,33.5666038 L23.5545503,35.442165 C23.7903716,35.5793479 24.0882968,35.5426493 24.2845974,35.352166 L27.7433095,31.9894373 C28.034286,31.7063337 27.9756564,31.2222615 27.625616,31.0173609 L24.4127139,29.1396153 C24.1768926,29.0019955 23.8785331,29.0386941 23.6822325,29.2291774 L20.221349,32.5945275 C19.9303724,32.8776311 19.9885677,33.3621401 20.3390424,33.5666038" id="Fill-205-Copy" fill="#4788D8"></path>
                                <path d="M27.6656144,16.7907945 L32.164459,19.4204248 C32.3720512,19.5414429 32.6339301,19.5091131 32.8063445,19.341785 L35.7686594,16.4609439 C36.0244581,16.2123545 35.9732115,15.7868254 35.6657318,15.6072643 L31.1668872,12.977634 C30.959295,12.856616 30.6974161,12.8885088 30.5250017,13.0562739 L27.5626869,15.9371149 C27.3068881,16.1857043 27.3581347,16.6112335 27.6656144,16.7907945" id="Fill-207-Copy" fill="#4788D8"></path>
                                <path d="M19.1884257,25.2422664 L23.4766381,27.7486942 C23.7293968,27.8963625 24.0486024,27.8570425 24.2588003,27.6530157 L27.0456607,24.942998 C27.3574833,24.6402344 27.2945107,24.1216481 26.9197156,23.9027671 L22.6319375,21.3963393 C22.3791788,21.248671 22.0595389,21.2875541 21.8497752,21.4920178 L19.0629149,24.2015986 C18.7510923,24.505236 18.8140648,25.0233854 19.1884257,25.2422664" id="Fill-209-Copy" fill="#4788D8"></path>
                                <path d="M23.4842816,21.0504548 L27.7872599,23.5656204 C28.0365443,23.7115411 28.3522756,23.672658 28.5598678,23.4708157 L31.3593226,20.7485651 C31.6672366,20.4492966 31.6051326,19.9372636 31.235549,19.7214408 L26.9317021,17.2062753 C26.6824177,17.0603546 26.367555,17.0992376 26.1599628,17.3006431 L23.3600737,20.0228937 C23.052594,20.3221622 23.1142637,20.8341952 23.4842816,21.0504548" id="Fill-211-Copy" fill="#4788D8"></path>
                                <path d="M15.7424818,17.9107138 L12.9343411,20.6412653 C12.6294672,20.9374755 12.6911369,21.4447028 13.0572462,21.658778 L17.3715161,24.1804969 C17.618629,24.3251069 17.9308859,24.2866608 18.136741,24.0870028 L20.9448816,21.3564514 C21.2493213,21.0598043 21.1880859,20.552577 20.8215423,20.3385018 L16.5077067,17.8172198 C16.2601595,17.6726098 15.9483369,17.7110559 15.7424818,17.9107138" id="Fill-213-Copy" fill="#4788D8"></path>
                                <path d="M25.3910899,28.8674776 L28.3881482,30.6193995 C28.6704389,30.7841063 29.027428,30.7404175 29.2619464,30.5123618 L31.9341532,27.9137506 C32.2824565,27.5751622 32.212101,26.9958484 31.7934422,26.7507541 L28.7963839,24.9992692 C28.5140933,24.8345623 28.1571041,24.8778142 27.9221515,25.1063068 L25.2503789,27.7044811 C24.9020756,28.0430695 24.9724311,28.6223833 25.3910899,28.8674776" id="Fill-215-Copy" fill="#4788D8"></path>
                                <path d="M25.0929475,16.1316176 L20.83253,13.6417915 C20.5741254,13.4906282 20.2471026,13.530385 20.0321274,13.7396545 L17.2682846,16.4273909 C16.949079,16.7375816 17.0133544,17.2688376 17.3968354,17.4925244 L21.657253,19.9823505 C21.9160918,20.1335138 22.2431147,20.093757 22.4580899,19.8844875 L25.2219327,17.1967511 C25.540704,16.8869973 25.4768628,16.3557412 25.0929475,16.1316176" id="Fill-217-Copy" fill="#4788D8"></path>
                                <path d="M33.9115342,20.4411705 L37.0510407,22.2761011 C37.3033651,22.4228956 37.6212679,22.3840125 37.8301629,22.1804226 L40.6213662,19.4669097 C40.9318859,19.16502 40.8689134,18.6481812 40.4958554,18.430174 L37.3563489,16.5952434 C37.1048931,16.448012 36.7865561,16.4868951 36.577661,16.690485 L33.7864577,19.4044347 C33.475938,19.7063245 33.5384762,20.2227264 33.9115342,20.4411705" id="Fill-219-Copy" fill="#4788D8"></path>
                                <path d="M29.7878756,24.7345586 L32.6407485,26.402161 C32.9543083,26.5852172 33.3503838,26.5367226 33.6109598,26.2833274 L36.1641703,23.8009284 C36.5502571,23.4256414 36.4729529,22.7821051 36.0078247,22.5103606 L33.1549518,20.8431951 C32.841392,20.6601389 32.4453165,20.7081966 32.1847405,20.9615918 L29.6319643,23.4439907 C29.2454432,23.8197146 29.3231817,24.463251 29.7878756,24.7345586" id="Fill-221-Copy" fill="#4788D8"></path>
                                <path d="M29.3582726,11.9210198 L25.1621305,9.46876613 C24.8898286,9.30886504 24.5449996,9.3512432 24.3187328,9.57143487 L21.6078738,12.2071816 C21.2721651,12.533974 21.3394806,13.0936278 21.7438077,13.3299844 L25.9399498,15.782238 C26.2122517,15.9412654 26.5570807,15.8988872 26.7833475,15.6791324 L29.4937722,13.0429488 C29.8299152,12.7161564 29.7625997,12.1569395 29.3582726,11.9210198" id="Fill-223-Copy" fill="#4788D8"></path>
                                <polygon id="Fill-225-Copy" fill="#FFFFFF" opacity="0.29906064" points="16.5334603 32.8127095 23.0052995 36.5874238 15.0738004 8.66939173 10.8429147 12.7831314"></polygon>
                            </g>
                            <g id="Group-21-Copy" transform="translate(30.820831, 18.066136)">
                                <polygon id="Stroke-171-Copy" stroke="#000000" stroke-width="0.682860475" points="46.5119907 13.5047397 23.6160462 35.7676904 23.6225606 37.9556267 24.3387103 38.3960101 46.5432598 24.6432053"></polygon>
                                <path d="M47.2283141,13.9450356 L24.3323696,36.2079864 L24.338884,38.3959227 L47.2595832,25.0830643 L47.2283141,13.9450356 Z M46.1469237,16.5200549 L46.1690726,24.4517608 L25.8567392,36.2494908 L46.1469237,16.5200549 Z" id="Fill-173-Copy" fill="#FFFFFF"></path>
                                <path d="M47.2283141,13.9450356 L24.3323696,36.2079864 L24.338884,38.3959227 L47.2595832,25.0830643 L47.2283141,13.9450356 Z M46.1469237,16.5200549 L46.1690726,24.4517608 L25.8567392,36.2494908 L46.1469237,16.5200549 L46.1469237,16.5200549 Z" id="Stroke-175-Copy" stroke="#263238" stroke-width="1.02429071"></path>
                                <g id="Group-180-Copy" transform="translate(0.000000, 0.888631)">
                                    <mask id="mask-27" fill="white">
                                        <use xlink:href="#path-26"></use>
                                    </mask>
                                    <g id="Clip-179"></g>
                                    <polygon id="Fill-178" fill="url(#linearGradient-21)" mask="url(#mask-27)" points="0.100756053 22.34028 0.100756053 23.4355588 23.9517115 37.3456434 47.8408848 14.1171696 47.8408848 13.0218908 23.9899293 0.206648136"></polygon>
                                </g>
                                <polygon id="Fill-181-Copy" fill="#FFFFFF" points="23.9897991 2.84217094e-14 47.8407545 13.9105215 23.9515812 37.1394321 0.100625765 23.2289107"></polygon>
                                <polygon id="Stroke-183-Copy" stroke="#263238" stroke-width="1.02429071" points="23.9897991 2.84217094e-14 47.8407545 13.9105215 23.9515812 37.1394321 0.100625765 23.2289107"></polygon>
                                <path d="M5.98360666,18.9713911 L2.66126268,22.2026165 C2.321211,22.5324671 2.39026364,23.0982374 2.79849937,23.3367784 L6.28326906,25.3691824 C6.55861103,25.5295204 6.9060457,25.4867054 7.13491829,25.2643293 L10.4550908,22.0361621 C10.7942739,21.7063115 10.7260898,21.1409781 10.3174198,20.9024371 L6.83612447,18.8674117 C6.5607825,18.7066368 6.21247925,18.749015 5.98360666,18.9713911" id="Fill-185-Copy" fill="#4788D8"></path>
                                <path d="M18.9509107,12.5417943 L15.4344376,10.486672 C15.1664786,10.330266 14.8281641,10.3713335 14.6053716,10.5880301 L11.8771409,13.2412524 C11.5466437,13.5623652 11.6130905,14.1124075 12.0104689,14.3443952 L15.5265078,16.3995174 C15.7944667,16.5559234 16.1332155,16.5148559 16.356008,16.2981594 L19.084673,13.6449371 C19.414736,13.3238242 19.3482891,12.773782 18.9509107,12.5417943" id="Fill-187-Copy" fill="#4788D8"></path>
                                <path d="M14.587609,16.6952034 L11.1614689,14.6925077 C10.874401,14.5247426 10.5108975,14.5693052 10.2720362,14.8012929 L7.6193725,17.3811179 C7.26498914,17.7253859 7.33664754,18.315185 7.762255,18.5642113 L11.1888294,20.5664701 C11.4758973,20.734672 11.8389665,20.6905463 12.0782621,20.4576849 L14.7309258,17.8782967 C15.0853092,17.5340288 15.0136508,16.9437928 14.587609,16.6952034" id="Fill-189-Copy" fill="#4788D8"></path>
                                <path d="M17.5318138,25.6906448 L14.1647376,28.9642484 C13.8420576,29.278371 13.9072016,29.8153067 14.2954599,30.0420516 L18.5458887,32.5209555 C18.8073333,32.6729926 19.1373962,32.6327989 19.3549772,32.421345 L22.7181447,29.1507996 C23.041259,28.8371139 22.976115,28.3001782 22.588291,28.0734333 L18.3413366,25.5914712 C18.079892,25.4385603 17.7489604,25.4791909 17.5318138,25.6906448" id="Fill-191-Copy" fill="#4788D8"></path>
                                <path d="M11.4678194,22.0671375 L7.95568925,25.4818559 C7.67774152,25.7527266 7.73376536,26.2149544 8.06860552,26.4098065 L12.4879745,28.9874471 C12.7129384,29.1189505 12.9969662,29.0839994 13.184581,28.901817 L16.6928025,25.4905937 C16.9707502,25.2201599 16.9147264,24.7579321 16.5803205,24.5626431 L12.1648602,21.9819443 C11.9398963,21.8504409 11.6554341,21.8849551 11.4678194,22.0671375" id="Fill-193-Copy" fill="#4788D8"></path>
                                <path d="M27.9692723,3.78651035 L24.4349931,1.72527165 C24.1709428,1.57148699 23.8361026,1.61211759 23.6167845,1.82619283 L20.4811867,4.87479895 C20.1545981,5.19241669 20.2201764,5.73590566 20.6127775,5.9648351 L24.1440166,8.02913202 C24.4089355,8.18335356 24.7429071,8.14272296 24.9630938,7.92864772 L28.1017317,4.87698339 C28.4283203,4.55980253 28.3623077,4.01543978 27.9692723,3.78651035" id="Fill-195-Copy" fill="#4788D8"></path>
                                <path d="M42.1474295,17.9828441 L45.3190737,14.89885 C45.6391479,14.5877856 45.5748725,14.0543451 45.18922,13.8293476 L42.0840227,12.0188828 C41.8243153,11.8672826 41.4964238,11.9074763 41.2810143,12.1171826 L38.1115416,15.1985554 C37.7914674,15.5100567 37.8557428,16.0430603 38.240961,16.2680578 L41.3435526,18.0815808 C41.60326,18.2327442 41.9315857,18.1925504 42.1474295,17.9828441" id="Fill-197-Copy" fill="#4788D8"></path>
                                <path d="M37.1729903,15.0957119 L40.3754693,11.9811356 C40.6846862,11.6809934 40.6221479,11.1659022 40.2503928,10.9492056 L35.949586,8.44103025 C35.6985644,8.29467269 35.3823989,8.33311885 35.1739381,8.53583499 L31.9749334,11.6464792 C31.6657165,11.9470583 31.7282548,12.4617127 32.0995756,12.6788461 L36.3973424,15.1905166 C36.6479296,15.3368742 36.9649638,15.2979911 37.1729903,15.0957119" id="Fill-199-Copy" fill="#4788D8"></path>
                                <path d="M23.304875,8.38279304 L19.7128349,6.28354507 C19.4613791,6.13631373 19.1434763,6.17563367 18.934147,6.37922359 L16.143378,9.09273643 C15.8328583,9.3946262 15.8949622,9.91146498 16.2684545,10.1294722 L19.8600603,12.2287202 C20.1115162,12.3759515 20.4298532,12.3370685 20.6391826,12.1334786 L23.4299515,9.41952883 C23.7404713,9.11807595 23.677933,8.60123716 23.304875,8.38279304" id="Fill-201-Copy" fill="#4788D8"></path>
                                <path d="M31.0619185,11.5186894 L34.2500659,8.41809361 C34.5623228,8.11489318 34.4993502,7.59499617 34.1236865,7.37611517 L29.833737,4.87405624 C29.5809783,4.72638801 29.2613384,4.76570795 29.0507061,4.97017165 L25.8660331,8.06727236 C25.5537762,8.37047279 25.6167487,8.88949602 25.9919782,9.10881392 L30.2784534,11.614368 C30.5316464,11.7624731 30.8517205,11.7231531 31.0619185,11.5186894" id="Fill-203-Copy" fill="#4788D8"></path>
                                <path d="M20.3390424,33.5666038 L23.5545503,35.442165 C23.7903716,35.5793479 24.0882968,35.5426493 24.2845974,35.352166 L27.7433095,31.9894373 C28.034286,31.7063337 27.9756564,31.2222615 27.625616,31.0173609 L24.4127139,29.1396153 C24.1768926,29.0019955 23.8785331,29.0386941 23.6822325,29.2291774 L20.221349,32.5945275 C19.9303724,32.8776311 19.9885677,33.3621401 20.3390424,33.5666038" id="Fill-205-Copy" fill="#4788D8"></path>
                                <path d="M27.6656144,16.7907945 L32.164459,19.4204248 C32.3720512,19.5414429 32.6339301,19.5091131 32.8063445,19.341785 L35.7686594,16.4609439 C36.0244581,16.2123545 35.9732115,15.7868254 35.6657318,15.6072643 L31.1668872,12.977634 C30.959295,12.856616 30.6974161,12.8885088 30.5250017,13.0562739 L27.5626869,15.9371149 C27.3068881,16.1857043 27.3581347,16.6112335 27.6656144,16.7907945" id="Fill-207-Copy" fill="#4788D8"></path>
                                <path d="M19.1884257,25.2422664 L23.4766381,27.7486942 C23.7293968,27.8963625 24.0486024,27.8570425 24.2588003,27.6530157 L27.0456607,24.942998 C27.3574833,24.6402344 27.2945107,24.1216481 26.9197156,23.9027671 L22.6319375,21.3963393 C22.3791788,21.248671 22.0595389,21.2875541 21.8497752,21.4920178 L19.0629149,24.2015986 C18.7510923,24.505236 18.8140648,25.0233854 19.1884257,25.2422664" id="Fill-209-Copy" fill="#4788D8"></path>
                                <path d="M23.4842816,21.0504548 L27.7872599,23.5656204 C28.0365443,23.7115411 28.3522756,23.672658 28.5598678,23.4708157 L31.3593226,20.7485651 C31.6672366,20.4492966 31.6051326,19.9372636 31.235549,19.7214408 L26.9317021,17.2062753 C26.6824177,17.0603546 26.367555,17.0992376 26.1599628,17.3006431 L23.3600737,20.0228937 C23.052594,20.3221622 23.1142637,20.8341952 23.4842816,21.0504548" id="Fill-211-Copy" fill="#4788D8"></path>
                                <path d="M15.7424818,17.9107138 L12.9343411,20.6412653 C12.6294672,20.9374755 12.6911369,21.4447028 13.0572462,21.658778 L17.3715161,24.1804969 C17.618629,24.3251069 17.9308859,24.2866608 18.136741,24.0870028 L20.9448816,21.3564514 C21.2493213,21.0598043 21.1880859,20.552577 20.8215423,20.3385018 L16.5077067,17.8172198 C16.2601595,17.6726098 15.9483369,17.7110559 15.7424818,17.9107138" id="Fill-213-Copy" fill="#4788D8"></path>
                                <path d="M25.3910899,28.8674776 L28.3881482,30.6193995 C28.6704389,30.7841063 29.027428,30.7404175 29.2619464,30.5123618 L31.9341532,27.9137506 C32.2824565,27.5751622 32.212101,26.9958484 31.7934422,26.7507541 L28.7963839,24.9992692 C28.5140933,24.8345623 28.1571041,24.8778142 27.9221515,25.1063068 L25.2503789,27.7044811 C24.9020756,28.0430695 24.9724311,28.6223833 25.3910899,28.8674776" id="Fill-215-Copy" fill="#4788D8"></path>
                                <path d="M25.0929475,16.1316176 L20.83253,13.6417915 C20.5741254,13.4906282 20.2471026,13.530385 20.0321274,13.7396545 L17.2682846,16.4273909 C16.949079,16.7375816 17.0133544,17.2688376 17.3968354,17.4925244 L21.657253,19.9823505 C21.9160918,20.1335138 22.2431147,20.093757 22.4580899,19.8844875 L25.2219327,17.1967511 C25.540704,16.8869973 25.4768628,16.3557412 25.0929475,16.1316176" id="Fill-217-Copy" fill="#4788D8"></path>
                                <path d="M33.9115342,20.4411705 L37.0510407,22.2761011 C37.3033651,22.4228956 37.6212679,22.3840125 37.8301629,22.1804226 L40.6213662,19.4669097 C40.9318859,19.16502 40.8689134,18.6481812 40.4958554,18.430174 L37.3563489,16.5952434 C37.1048931,16.448012 36.7865561,16.4868951 36.577661,16.690485 L33.7864577,19.4044347 C33.475938,19.7063245 33.5384762,20.2227264 33.9115342,20.4411705" id="Fill-219-Copy" fill="#4788D8"></path>
                                <path d="M29.7878756,24.7345586 L32.6407485,26.402161 C32.9543083,26.5852172 33.3503838,26.5367226 33.6109598,26.2833274 L36.1641703,23.8009284 C36.5502571,23.4256414 36.4729529,22.7821051 36.0078247,22.5103606 L33.1549518,20.8431951 C32.841392,20.6601389 32.4453165,20.7081966 32.1847405,20.9615918 L29.6319643,23.4439907 C29.2454432,23.8197146 29.3231817,24.463251 29.7878756,24.7345586" id="Fill-221-Copy" fill="#4788D8"></path>
                                <path d="M29.3582726,11.9210198 L25.1621305,9.46876613 C24.8898286,9.30886504 24.5449996,9.3512432 24.3187328,9.57143487 L21.6078738,12.2071816 C21.2721651,12.533974 21.3394806,13.0936278 21.7438077,13.3299844 L25.9399498,15.782238 C26.2122517,15.9412654 26.5570807,15.8988872 26.7833475,15.6791324 L29.4937722,13.0429488 C29.8299152,12.7161564 29.7625997,12.1569395 29.3582726,11.9210198" id="Fill-223-Copy" fill="#4788D8"></path>
                                <polygon id="Fill-225-Copy" fill="#FFFFFF" opacity="0.29906064" points="16.5334603 32.8127095 23.0052995 36.5874238 15.0738004 8.66939173 10.8429147 12.7831314"></polygon>
                            </g>
                        </g>
                        <g id="Group-25" transform="translate(74.850591, 99.961966)" stroke="#263238" stroke-linecap="round" stroke-linejoin="round" stroke-width="1.02429071">
                            <path d="M0.220148796,0 L0.220148796,3.52509973" id="Path-20"></path>
                            <path d="M1.98133916,0.881274933 L1.98133916,4.40637466" id="Path-20-Copy-2"></path>
                            <path d="M3.74252953,1.76254987 L3.74252953,5.2876496" id="Path-20-Copy-2"></path>
                            <path d="M5.50371989,3.08446226 L5.50371989,6.60956199" id="Path-20-Copy-2"></path>
                            <path d="M7.26491026,3.9657372 L7.26491026,5.2876496" id="Path-20-Copy-2"></path>
                            <path d="M0.220148796,5.2876496 L0.220148796,7.49083693" id="Path-20-Copy"></path>
                            <path d="M1.98133916,5.72828706 L1.98133916,7.49083693" id="Path-20-Copy"></path>
                            <path d="M3.74252953,6.60956199 L3.74252953,7.93147439" id="Path-20-Copy"></path>
                        </g>
                        <g id="Group-25" transform="translate(78.775947, 187.614559) rotate(-180.000000) translate(-78.775947, -187.614559) translate(74.775947, 183.614559)" stroke="#263238" stroke-linecap="round" stroke-linejoin="round" stroke-width="1.02429071">
                            <path d="M0.220148796,0 L0.220148796,3.52509973" id="Path-20"></path>
                            <path d="M1.98133916,0.881274933 L1.98133916,4.40637466" id="Path-20-Copy-2"></path>
                            <path d="M3.74252953,1.76254987 L3.74252953,5.2876496" id="Path-20-Copy-2"></path>
                            <path d="M5.50371989,3.08446226 L5.50371989,6.60956199" id="Path-20-Copy-2"></path>
                            <path d="M7.26491026,3.9657372 L7.26491026,5.2876496" id="Path-20-Copy-2"></path>
                            <path d="M0.220148796,5.2876496 L0.220148796,7.49083693" id="Path-20-Copy"></path>
                            <path d="M1.98133916,5.72828706 L1.98133916,7.49083693" id="Path-20-Copy"></path>
                            <path d="M3.74252953,6.60956199 L3.74252953,7.93147439" id="Path-20-Copy"></path>
                        </g>
                        <polygon id="Path-3" stroke="#263238" stroke-width="5.28086048" fill="#263238" opacity="0.188836961" stroke-linejoin="round" points="84.9979764 191.14836 173.64832 151.873936 134.165394 129.64313"></polygon>
                    </g>
                </g>
            </g>
        </g>
    </g>
</svg>