<?xml version="1.0" encoding="UTF-8"?>
<svg width="339px" height="298px" viewBox="0 0 339 298" version="1.1" xmlns="http://www.w3.org/2000/svg" xmlns:xlink="http://www.w3.org/1999/xlink">
    <!-- Generator: Sketch 57.1 (83088) - https://sketch.com -->
    <title>Group 31</title>
    <desc>Created with Sketch.</desc>
    <g id="Webdesign-quick-fix" stroke="none" stroke-width="1" fill="none" fill-rule="evenodd">
        <g id="Labs---UI" transform="translate(-258.000000, -1349.000000)">
            <g id="Wind-Profile-analysis" transform="translate(258.000000, 1349.000000)">
                <g id="Group-31">
                    <g id="freepik--background-simple--inject-2" transform="translate(21.130200, 53.550000)" fill-rule="nonzero">
                        <g id="Group-30">
                            <path d="M246.955919,21.0157393 C246.955919,21.0157393 218.587506,-6.21210025 176.686594,1.31591158 C134.785682,8.84392341 113.938732,41.1975433 87.9778008,62.5192598 C74.3839641,73.6582691 55.8524902,76.6342819 40.2881989,84.7896281 C-9.47919747,110.793401 -10.3762527,178.652613 22.4774361,207.028015 C50.8918516,231.585859 89.2965486,237.109461 141.433091,225.098304 C193.569633,213.087147 230.709252,206.362429 267.2355,162.548482 C303.761749,118.734535 281.588384,57.6306423 246.955919,21.0157393 Z" id="Path" fill="#D0E1F5"></path>
                            <path d="M47.8279038,86.496 C48.3131405,84.8526648 49.7812885,83.6943698 51.49116,83.605875 C51.8472524,83.6023257 52.1999344,83.6755498 52.5252323,83.82057 C53.3835326,82.6332925 54.7366938,81.903432 56.1994892,81.83877 C56.9388027,81.7939614 57.6614587,82.0707299 58.1820192,82.598055 C58.7025796,83.1253801 58.970372,83.851931 58.9166792,84.59127 C60.4732881,84.695865 61.3808515,86.006055 60.9628223,87.613515 C60.4660596,89.3353017 58.9337276,90.5529147 57.1455554,90.64677 L47.5088815,90.64677 C46.9729637,90.6714209 46.460134,90.4266401 46.1419678,89.9943229 C45.8238017,89.5620056 45.7423151,88.9992426 45.9247708,88.494315 C46.2019723,87.5611396 46.9098678,86.8178399 47.8279038,86.496 L47.8279038,86.496 Z" id="Path" fill="#FFFFFF"></path>
                        </g>
                    </g>
                    <g id="freepik--background-simple--inject-2-copy" transform="translate(283.210200, 92.610000)" fill-rule="nonzero">
                        <g id="Group-30">
                            <path d="M29.925,5.67 C30.4807776,3.78934393 32.1623569,2.46377472 34.1208,2.3625 C34.5286591,2.35843808 34.932612,2.44223682 35.3052,2.6082 C36.2882752,1.24946283 37.8381515,0.414200145 39.5136,0.3402 C40.3603907,0.288920372 41.1881025,0.605658222 41.7843391,1.20913655 C42.3805757,1.81261488 42.6872983,2.64409001 42.6258,3.4902 C44.4087,3.6099 45.4482,5.1093 44.9694,6.9489 C44.4004207,8.91933714 42.6453268,10.3127906 40.5972,10.4202 L29.5596,10.4202 C28.9457733,10.4484108 28.3583914,10.1682802 27.993972,9.67353025 C27.6295526,9.1787803 27.5362199,8.5347463 27.7452,7.9569 C28.0626995,6.88896084 28.873505,6.0383181 29.925,5.67 L29.925,5.67 Z" id="Path" fill="#D0E1F5"></path>
                            <path d="M4.546051,58.5426182 C5.64962159,54.7840398 8.98862129,52.1348283 12.8773712,51.9324261 C13.6872298,51.9243081 14.4893322,52.0917838 15.2291552,52.4234689 C17.1811821,49.7079697 20.2586681,48.0386585 23.5854943,47.8907658 C25.2669102,47.788281 26.9104423,48.4212963 28.0943495,49.6273757 C29.2782568,50.8334552 29.8872954,52.4951968 29.7651823,54.1861868 C33.3053679,54.4254128 35.3694337,57.4220332 34.4187124,61.0985591 C33.2889281,65.0365691 29.8039553,67.8214505 25.7371266,68.0361131 L3.8205006,68.0361131 C2.60166596,68.0924937 1.43534073,67.5326397 0.711737436,66.543859 C-0.0118658567,65.5550783 -0.197190213,64.2679465 0.217767559,63.1130938 C0.848205148,60.9787679 2.4581675,59.278719 4.546051,58.5426182 L4.546051,58.5426182 Z" id="Path-Copy-44" fill="#FFFFFF"></path>
                        </g>
                    </g>
                    <g id="freepik--Tree--inject-2" transform="translate(150.280200, 0.000000)" stroke="#263238" stroke-linecap="round" stroke-linejoin="round">
                        <path d="M107.801581,288.54 C112.974056,279.404951 123.756558,258.441185 125.34268,252.866463 C132.171598,228.873296 128.311775,206.91014 125.34268,196.166698 C122.373585,185.423255 114.200761,167.97297 100.863275,145.759966 C87.5257887,123.546963 76.7589134,92.7610669 71.9536679,83.4932865 C67.1484224,74.2255061 20.7680366,49.0299481 10.3840183,43.0960702 L0,37.17" id="Path" stroke-width="0.945"></path>
                        <path d="M176.4,21.42 C176.4,21.42 155.770273,42.5661781 144.722236,56.6636302 C133.674199,70.7610822 104.58,130.12042 104.58,130.12042 C104.58,130.12042 122.261515,158.315324 129.624286,173.881912 C136.987058,189.4485 145.094642,210.969777 145.094642,230.263906 C145.094642,249.558035 145.459289,268.101967 145.459289,277.370026 C145.459289,281.41015 146.785985,285.661266 148.283366,289.17" id="Path" stroke-width="0.945"></path>
                        <path d="M117.18,24.2532633 L115.856991,91.1955094 L114.768837,92.9043743 L98.0002904,119.7 C98.0002904,119.7 94.5949134,114.370526 88.0033561,100.083167 C80.3940999,83.5797462 68.9332448,56.3861657 69.3090106,53.0542693 C69.6847763,49.7223729 99.894776,18.970608 101.757948,16.38" id="Path" stroke-width="0.945"></path>
                        <path d="M5.04,36.4673596 C5.04,36.4673596 59.5306674,67.2786976 63.2320971,68.0307729 C66.9335268,68.7828482 43.5926548,23.31 43.5926548,23.31" id="Path" stroke-width="0.63"></path>
                        <path d="M49.14,22.2515423 C49.14,22.2515423 63.2491573,42.1439598 65.1382167,44.0177686 C67.027276,45.8915774 96.39,15.12 96.39,15.12" id="Path" stroke-width="0.63"></path>
                        <polyline id="Path" stroke-width="0.63" points="145.53 4.41 150.367942 41.58 178.29 14.0724774"></polyline>
                        <polyline id="Path" stroke-width="0.63" points="120.33 19.5479504 124.802247 76.23 145.53 44.0860386 142.643656 0"></polyline>
                        <path d="M137.401777,291.06 C137.401777,291.06 136.743049,286.265929 139.727656,275.069302 C142.712264,263.872675 144.696581,243.723453 143.037562,228.69" id="Path" stroke-width="0.63"></path>
                        <path d="M140.34919,236.88 C140.724289,243.614936 140.349562,250.364904 139.23,257.04" id="Path" stroke-width="0.63"></path>
                        <path d="M136.71,253.26 C136.564014,258.90584 135.749468,264.519543 134.281103,269.99952 C131.860699,279.008856 129.78,282.87 129.78,282.87" id="Path" stroke-width="0.63"></path>
                        <path d="M136.71,195.3 C136.71,195.3 140.806933,209.906355 141.75,216.72" id="Path" stroke-width="0.63"></path>
                        <path d="M137.34,218.61 C137.34,218.61 138.283067,227.992321 138.6,230.58" id="Path" stroke-width="0.63"></path>
                        <path d="M127.89,171.99 L114.03,146.79" id="Path" stroke-width="0.63"></path>
                        <path d="M116.55,157.5 L104.58,137.97" id="Path" stroke-width="0.63"></path>
                    </g>
                    <g id="freepik--Leaves--inject-2" transform="translate(80.980200, 10.710000)" fill-rule="nonzero">
                        <path d="M81.27,123.050855 C81.8405532,124.531969 83.0661501,125.611672 84.5372218,125.929149 C86.9576636,126.368889 90.09,124.617927 90.09,124.617927 C88.6340578,123.336865 86.9740166,122.345661 85.1891674,121.691661 C83.7484386,121.35322 82.2488687,121.873281 81.27,123.050855 L81.27,123.050855 Z" id="Path" fill="#4788D8"></path>
                        <path d="M106.47,55.5956983 C106.47,55.5956983 103.286574,52.6926958 98.988949,53.8030942 C94.6913239,54.9134927 90.72,59.5510392 90.72,59.5510392 C90.72,59.5510392 96.6252552,61.0025405 100.962673,60.2767898 C105.300091,59.5510392 106.47,55.5956983 106.47,55.5956983 Z" id="Path" fill="#4788D8"></path>
                        <path d="M160.65,168.995698 C160.65,168.995698 157.468182,166.092696 153.172727,167.203094 C148.877273,168.313493 144.9,172.951039 144.9,172.951039 C144.9,172.951039 150.810227,174.40254 155.1375,173.67679 C159.464773,172.951039 160.65,168.995698 160.65,168.995698 Z" id="Path" fill="#4788D8"></path>
                        <path d="M77.118065,47.88 C77.118065,47.88 73.298345,49.3295299 72.5749132,53.6625334 C71.8514814,57.9955369 74.5064762,63.63 74.5064762,63.63 C74.5064762,63.63 78.1236352,59.0709946 79.165377,54.9094409 C80.2071187,50.7478872 77.118065,47.88 77.118065,47.88 Z" id="Path" fill="#4788D8"></path>
                        <path d="M99.1945357,197.82 C99.1945357,197.82 95.3617176,199.277323 94.628546,203.602533 C93.8953743,207.927744 96.5376959,213.57 96.5376959,213.57 C96.5376959,213.57 100.167258,209.010995 101.212572,204.849441 C102.257887,200.687887 99.1945357,197.82 99.1945357,197.82 Z" id="Path" fill="#4788D8"></path>
                        <path d="M151.83,48.0808554 C152.400069,49.561969 153.624625,50.6416716 155.094448,50.9591493 C157.512835,51.3988886 160.65,49.6479265 160.65,49.6479265 C159.192033,48.3676134 157.531082,47.3765399 155.74584,46.7216611 C154.306335,46.3832198 152.808038,46.903281 151.83,48.0808554 Z" id="Path" fill="#4788D8"></path>
                        <path d="M117.81,41.1504209 C118.379118,42.6297067 119.601483,43.7091971 121.069728,44.0291389 C123.497664,44.468943 126.63,42.7177229 126.63,42.7177229 C125.171806,41.4356396 123.509164,40.444253 121.721674,39.7910263 C120.283253,39.4538771 118.7865,39.9740324 117.81,41.1504209 Z" id="Path" fill="#4788D8"></path>
                        <path d="M47.88,197.394507 C48.4491178,198.872798 49.6714832,199.951562 51.1397281,200.271288 C53.5676636,200.702805 56.7,198.960755 56.7,198.960755 C56.7,198.960755 54.1296856,196.675312 51.7916737,196.028037 C50.3520382,195.696552 48.8566741,196.218929 47.88,197.394507 Z" id="Path" fill="#4788D8"></path>
                        <path d="M165.69,27.3048615 C165.69,27.3048615 166.90701,31.4704289 171.221862,32.5079494 C175.536713,33.5454699 181.44,31.0445809 181.44,31.0445809 C181.44,31.0445809 177.061927,26.9177269 172.920933,25.5472708 C168.77994,24.1768146 165.69,27.3048615 165.69,27.3048615 Z" id="Path" fill="#4788D8"></path>
                        <path d="M101.43,17.8750713 C101.43,17.8750713 102.64701,22.0247435 106.961862,23.058305 C111.276713,24.0918665 117.18,21.6082337 117.18,21.6082337 C117.18,21.6082337 112.794024,17.4585614 108.684641,16.0933347 C104.575258,14.728108 101.43,17.8750713 101.43,17.8750713 Z" id="Path" fill="#4788D8"></path>
                        <path d="M195.320146,8.74980804 C195.320146,8.74980804 194.860092,13.1492937 198.336898,15.7763248 C201.813704,18.4033558 207.9,18.2688392 207.9,18.2688392 C207.9,18.2688392 205.562018,12.7299183 202.409512,9.83385398 C199.257007,6.93778965 195.320146,8.74980804 195.320146,8.74980804 Z" id="Path" fill="#4788D8"></path>
                        <path d="M49.77,89.0305524 C49.77,89.0305524 48.8792213,84.9116114 44.7196721,83.6037725 C40.560123,82.2959336 34.65,84.2952735 34.65,84.2952735 C34.65,84.2952735 38.6236475,88.6021224 42.5663115,90.2181303 C46.5089754,91.8341382 49.77,89.0305524 49.77,89.0305524 Z" id="Path" fill="#4788D8"></path>
                        <path d="M179.55,6.50197576 C179.55,6.50197576 178.666515,2.37899495 174.504833,1.07225787 C170.343152,-0.23447922 164.43,1.77068631 164.43,1.77068631 C164.43,1.77068631 168.397934,6.07390671 172.350369,7.68855311 C176.302804,9.30319951 179.55,6.50197576 179.55,6.50197576 Z" id="Path" fill="#4788D8"></path>
                        <path d="M48.51,54.3728542 C48.51,54.3728542 47.6192213,50.2585143 43.4596721,48.9521363 C39.300123,47.6457583 33.39,49.6503728 33.39,49.6503728 C33.39,49.6503728 37.3636475,53.9449028 41.3063115,55.5666134 C45.2489754,57.188324 48.51,54.3728542 48.51,54.3728542 Z" id="Path" fill="#4788D8"></path>
                        <path d="M48.51,54.3728542 C48.51,54.3728542 47.6192213,50.2585143 43.4596721,48.9521363 C39.300123,47.6457583 33.39,49.6503728 33.39,49.6503728 C33.39,49.6503728 37.3636475,53.9449028 41.3063115,55.5666134 C45.2489754,57.188324 48.51,54.3728542 48.51,54.3728542 Z" id="Path" fill="#000000" opacity="0.3"></path>
                        <path d="M149.94,109.182854 C149.94,109.182854 149.056515,105.068514 144.894833,103.762136 C140.733152,102.455758 134.82,104.460373 134.82,104.460373 C134.82,104.460373 138.787934,108.754903 142.740369,110.376613 C146.692804,111.998324 149.94,109.182854 149.94,109.182854 Z" id="Path" fill="#4788D8"></path>
                        <path d="M149.94,109.182854 C149.94,109.182854 149.056515,105.068514 144.894833,103.762136 C140.733152,102.455758 134.82,104.460373 134.82,104.460373 C134.82,104.460373 138.787934,108.754903 142.740369,110.376613 C146.692804,111.998324 149.94,109.182854 149.94,109.182854 Z" id="Path" fill="#000000" opacity="0.3"></path>
                        <path d="M104.579215,83.2936641 C104.579215,83.2936641 100.575976,81.3907649 96.804924,83.592587 C93.0338724,85.7944091 90.72,91.35 90.72,91.35 C90.72,91.35 96.8689758,91.1312759 100.800157,89.2721215 C104.731338,87.4129671 104.579215,83.2936641 104.579215,83.2936641 Z" id="Path" fill="#4788D8"></path>
                        <path d="M104.579215,83.2936641 C104.579215,83.2936641 100.575976,81.3907649 96.804924,83.592587 C93.0338724,85.7944091 90.72,91.35 90.72,91.35 C90.72,91.35 96.8689758,91.1312759 100.800157,89.2721215 C104.731338,87.4129671 104.579215,83.2936641 104.579215,83.2936641 Z" id="Path" fill="#000000" opacity="0.3"></path>
                        <path d="M228.69,153.756303 C228.69,153.756303 232.342015,156.142761 236.332471,154.250315 C240.322928,152.357869 243.18,146.840136 243.18,146.840136 C243.18,146.840136 237.143156,146.429726 233.089734,147.957363 C229.036312,149.485 228.69,153.756303 228.69,153.756303 Z" id="Path" fill="#4788D8"></path>
                        <path d="M228.69,153.756303 C228.69,153.756303 232.342015,156.142761 236.332471,154.250315 C240.322928,152.357869 243.18,146.840136 243.18,146.840136 C243.18,146.840136 237.143156,146.429726 233.089734,147.957363 C229.036312,149.485 228.69,153.756303 228.69,153.756303 Z" id="Path" fill="#000000" opacity="0.3"></path>
                        <path d="M243.18,40.9863031 C243.18,40.9863031 246.832015,43.3727609 250.822471,41.4803151 C254.812928,39.5878693 257.67,34.0701359 257.67,34.0701359 C257.67,34.0701359 251.633156,33.6597259 247.579734,35.1873629 C243.526312,36.7149998 243.18,40.9863031 243.18,40.9863031 Z" id="Path" fill="#4788D8"></path>
                        <path d="M243.18,40.9863031 C243.18,40.9863031 246.832015,43.3727609 250.822471,41.4803151 C254.812928,39.5878693 257.67,34.0701359 257.67,34.0701359 C257.67,34.0701359 251.633156,33.6597259 247.579734,35.1873629 C243.526312,36.7149998 243.18,40.9863031 243.18,40.9863031 Z" id="Path" fill="#000000" opacity="0.3"></path>
                        <path d="M135.449327,7.69723563 C135.449327,7.69723563 131.486088,5.78616293 127.666967,7.99629663 C123.847845,10.2064303 121.59,15.75 121.59,15.75 C121.59,15.75 127.731019,15.5311749 131.662232,13.6711614 C135.593445,11.8111479 135.449327,7.69723563 135.449327,7.69723563 Z" id="Path" fill="#4788D8"></path>
                        <path d="M135.449327,7.69723563 C135.449327,7.69723563 131.486088,5.78616293 127.666967,7.99629663 C123.847845,10.2064303 121.59,15.75 121.59,15.75 C121.59,15.75 127.731019,15.5311749 131.662232,13.6711614 C135.593445,11.8111479 135.449327,7.69723563 135.449327,7.69723563 Z" id="Path" fill="#000000" opacity="0.3"></path>
                        <path d="M108.989215,29.1172356 C108.989215,29.1172356 105.026008,27.2061629 101.214924,29.4162966 C97.40384,31.6264303 95.13,37.17 95.13,37.17 C95.13,37.17 101.278976,36.9511749 105.210157,35.0911614 C109.141338,33.2311479 108.989215,29.1172356 108.989215,29.1172356 Z" id="Path" fill="#4788D8"></path>
                        <path d="M108.989215,29.1172356 C108.989215,29.1172356 105.026008,27.2061629 101.214924,29.4162966 C97.40384,31.6264303 95.13,37.17 95.13,37.17 C95.13,37.17 101.278976,36.9511749 105.210157,35.0911614 C109.141338,33.2311479 108.989215,29.1172356 108.989215,29.1172356 Z" id="Path" fill="#000000" opacity="0.3"></path>
                        <path d="M90.8719032,22.05 C90.8719032,22.05 87.8583699,25.1926184 89.1532475,29.3519664 C90.4481251,33.5113143 95.6119401,37.17 95.6119401,37.17 C95.6119401,37.17 96.9852952,31.4085329 96.0828047,27.2414824 C95.1803143,23.074432 90.8719032,22.05 90.8719032,22.05 Z" id="Path" fill="#4788D8"></path>
                        <path d="M90.8719032,22.05 C90.8719032,22.05 87.8583699,25.1926184 89.1532475,29.3519664 C90.4481251,33.5113143 95.6119401,37.17 95.6119401,37.17 C95.6119401,37.17 96.9852952,31.4085329 96.0828047,27.2414824 C95.1803143,23.074432 90.8719032,22.05 90.8719032,22.05 Z" id="Path" fill="#000000" opacity="0.3"></path>
                        <path d="M44.73,15.9969479 C44.73,15.9969479 44.77025,20.3497193 48.755,22.4950138 C52.73975,24.6403084 59.22,23.7619813 59.22,23.7619813 C59.22,23.7619813 56,18.6241564 52.33725,16.2456777 C48.6745,13.867199 44.73,15.9969479 44.73,15.9969479 Z" id="Path" fill="#4788D8"></path>
                        <path d="M44.73,15.9969479 C44.73,15.9969479 44.77025,20.3497193 48.755,22.4950138 C52.73975,24.6403084 59.22,23.7619813 59.22,23.7619813 C59.22,23.7619813 56,18.6241564 52.33725,16.2456777 C48.6745,13.867199 44.73,15.9969479 44.73,15.9969479 Z" id="Path" fill="#000000" opacity="0.3"></path>
                        <path d="M48.7028008,35.7184065 C48.7028008,35.7184065 52.8994847,36.8149711 55.9713642,33.7613433 C59.0432438,30.7077156 59.85,24.57 59.85,24.57 C59.85,24.57 54.0941045,26.0930064 50.8282932,28.8344178 C47.5624819,31.5758292 48.7028008,35.7184065 48.7028008,35.7184065 Z" id="Path" fill="#4788D8"></path>
                        <path d="M48.7028008,35.7184065 C48.7028008,35.7184065 52.8994847,36.8149711 55.9713642,33.7613433 C59.0432438,30.7077156 59.85,24.57 59.85,24.57 C59.85,24.57 54.0941045,26.0930064 50.8282932,28.8344178 C47.5624819,31.5758292 48.7028008,35.7184065 48.7028008,35.7184065 Z" id="Path" fill="#000000" opacity="0.3"></path>
                        <path d="M216.046045,55.44 C216.046045,55.44 219.732204,53.3485965 219.866246,48.8464912 C220.000288,44.344386 216.500299,39.06 216.500299,39.06 C216.500299,39.06 213.469458,44.2565789 212.985416,48.6389474 C212.501375,53.0213158 216.046045,55.44 216.046045,55.44 Z" id="Path" fill="#4788D8"></path>
                        <path d="M216.046045,55.44 C216.046045,55.44 219.732204,53.3485965 219.866246,48.8464912 C220.000288,44.344386 216.500299,39.06 216.500299,39.06 C216.500299,39.06 213.469458,44.2565789 212.985416,48.6389474 C212.501375,53.0213158 216.046045,55.44 216.046045,55.44 Z" id="Path" fill="#000000" opacity="0.3"></path>
                        <path d="M231.84,43.5950937 C231.84,43.5950937 230.906571,39.4651346 226.748571,38.2042513 C222.590571,36.9433679 216.72,39.0347732 216.72,39.0347732 C216.72,39.0347732 220.731429,43.3081861 224.681143,44.8861778 C228.630857,46.4641695 231.84,43.5950937 231.84,43.5950937 Z" id="Path" fill="#4788D8"></path>
                        <path d="M231.84,43.5950937 C231.84,43.5950937 230.906571,39.4651346 226.748571,38.2042513 C222.590571,36.9433679 216.72,39.0347732 216.72,39.0347732 C216.72,39.0347732 220.731429,43.3081861 224.681143,44.8861778 C228.630857,46.4641695 231.84,43.5950937 231.84,43.5950937 Z" id="Path" fill="#000000" opacity="0.3"></path>
                        <path d="M195.3,18.5626478 C195.3,18.5626478 195.3483,22.8935786 199.325,25.0203749 C203.3017,27.1471713 209.79,26.2887189 209.79,26.2887189 C209.79,26.2887189 206.64245,21.1689401 202.95555,18.7637268 C199.26865,16.3585134 195.3,18.5626478 195.3,18.5626478 Z" id="Path" fill="#4788D8"></path>
                        <path d="M195.3,18.5626478 C195.3,18.5626478 195.3483,22.8935786 199.325,25.0203749 C203.3017,27.1471713 209.79,26.2887189 209.79,26.2887189 C209.79,26.2887189 206.64245,21.1689401 202.95555,18.7637268 C199.26865,16.3585134 195.3,18.5626478 195.3,18.5626478 Z" id="Path" fill="#000000" opacity="0.3"></path>
                        <path d="M198.655779,37.6059891 C198.655779,37.6059891 203.089859,38.7106839 206.32952,35.6480129 C209.56918,32.5853419 210.42,26.46 210.42,26.46 C210.42,26.46 204.349727,27.9837169 200.897362,30.7187887 C197.444997,33.4538606 198.655779,37.6059891 198.655779,37.6059891 Z" id="Path" fill="#4788D8"></path>
                        <path d="M198.655779,37.6059891 C198.655779,37.6059891 203.089859,38.7106839 206.32952,35.6480129 C209.56918,32.5853419 210.42,26.46 210.42,26.46 C210.42,26.46 204.349727,27.9837169 200.897362,30.7187887 C197.444997,33.4538606 198.655779,37.6059891 198.655779,37.6059891 Z" id="Path" fill="#000000" opacity="0.3"></path>
                        <path d="M117.81,45.6526478 C117.81,45.6526478 117.85025,49.9835786 121.835,52.1103749 C125.81975,54.2371713 132.3,53.3787189 132.3,53.3787189 C132.3,53.3787189 129.15245,48.2589401 125.46555,45.8537268 C121.77865,43.4485134 117.81,45.6526478 117.81,45.6526478 Z" id="Path" fill="#4788D8"></path>
                        <path d="M117.81,45.6526478 C117.81,45.6526478 117.85025,49.9835786 121.835,52.1103749 C125.81975,54.2371713 132.3,53.3787189 132.3,53.3787189 C132.3,53.3787189 129.15245,48.2589401 125.46555,45.8537268 C121.77865,43.4485134 117.81,45.6526478 117.81,45.6526478 Z" id="Path" fill="#000000" opacity="0.3"></path>
                        <path d="M121.149872,64.0682778 C121.149872,64.0682778 125.344739,65.1655792 128.423043,62.1098995 C131.501347,59.0542198 132.3,52.92 132.3,52.92 C132.3,52.92 126.546596,54.4440298 123.282198,57.1796632 C120.0178,59.9152966 121.149872,64.0682778 121.149872,64.0682778 Z" id="Path" fill="#4788D8"></path>
                        <path d="M121.149872,64.0682778 C121.149872,64.0682778 125.344739,65.1655792 128.423043,62.1098995 C131.501347,59.0542198 132.3,52.92 132.3,52.92 C132.3,52.92 126.546596,54.4440298 123.282198,57.1796632 C120.0178,59.9152966 121.149872,64.0682778 121.149872,64.0682778 Z" id="Path" fill="#000000" opacity="0.3"></path>
                        <path d="M158.13,54.560753 C158.13,54.560753 156.885128,50.3863295 152.551711,49.3757614 C148.218294,48.3651934 142.38,50.9304816 142.38,50.9304816 C142.38,50.9304816 146.768569,55.0427163 150.905013,56.372002 C155.041456,57.7012877 158.13,54.560753 158.13,54.560753 Z" id="Path" fill="#4788D8"></path>
                        <path d="M158.13,54.560753 C158.13,54.560753 156.885128,50.3863295 152.551711,49.3757614 C148.218294,48.3651934 142.38,50.9304816 142.38,50.9304816 C142.38,50.9304816 146.768569,55.0427163 150.905013,56.372002 C155.041456,57.7012877 158.13,54.560753 158.13,54.560753 Z" id="Path" fill="#000000" opacity="0.3"></path>
                        <path d="M150.245917,36.54 C150.245917,36.54 145.886201,36.61245 143.768625,40.565 C141.651049,44.51755 142.585274,51.03 142.585274,51.03 C142.585274,51.03 147.70794,47.81 150.097998,44.13115 C152.488056,40.4523 150.245917,36.54 150.245917,36.54 Z" id="Path" fill="#4788D8"></path>
                        <path d="M150.245917,36.54 C150.245917,36.54 145.886201,36.61245 143.768625,40.565 C141.651049,44.51755 142.585274,51.03 142.585274,51.03 C142.585274,51.03 147.70794,47.81 150.097998,44.13115 C152.488056,40.4523 150.245917,36.54 150.245917,36.54 Z" id="Path" fill="#000000" opacity="0.3"></path>
                        <path d="M143.64,30.6280744 C143.64,30.6280744 142.395128,26.4462257 138.06959,25.4357418 C133.744052,24.4252579 127.89,26.9903324 127.89,26.9903324 C127.89,26.9903324 132.278569,31.1022245 136.422891,32.4313995 C140.567214,33.7605745 143.64,30.6280744 143.64,30.6280744 Z" id="Path" fill="#4788D8"></path>
                        <path d="M143.64,30.6280744 C143.64,30.6280744 142.395128,26.4462257 138.06959,25.4357418 C133.744052,24.4252579 127.89,26.9903324 127.89,26.9903324 C127.89,26.9903324 132.278569,31.1022245 136.422891,32.4313995 C140.567214,33.7605745 143.64,30.6280744 143.64,30.6280744 Z" id="Path" fill="#000000" opacity="0.3"></path>
                        <path d="M135.755243,11.97 C135.755243,11.97 131.392448,12.0505 129.281168,15.995 C127.169887,19.9395 128.08919,26.46 128.08919,26.46 C128.08919,26.46 133.215473,23.24 135.60722,19.5692 C137.998966,15.8984 135.755243,11.97 135.755243,11.97 Z" id="Path" fill="#4788D8"></path>
                        <path d="M135.755243,11.97 C135.755243,11.97 131.392448,12.0505 129.281168,15.995 C127.169887,19.9395 128.08919,26.46 128.08919,26.46 C128.08919,26.46 133.215473,23.24 135.60722,19.5692 C137.998966,15.8984 135.755243,11.97 135.755243,11.97 Z" id="Path" fill="#000000" opacity="0.3"></path>
                        <path d="M171.36,69.5926478 C171.36,69.5926478 171.40025,73.9235786 175.385,76.0503749 C179.36975,78.1771713 185.85,77.3187189 185.85,77.3187189 C185.85,77.3187189 182.70245,72.1989401 179.01555,69.7937268 C175.32865,67.3885134 171.36,69.5926478 171.36,69.5926478 Z" id="Path" fill="#4788D8"></path>
                        <path d="M171.36,69.5926478 C171.36,69.5926478 171.40025,73.9235786 175.385,76.0503749 C179.36975,78.1771713 185.85,77.3187189 185.85,77.3187189 C185.85,77.3187189 182.70245,72.1989401 179.01555,69.7937268 C175.32865,67.3885134 171.36,69.5926478 171.36,69.5926478 Z" id="Path" fill="#000000" opacity="0.3"></path>
                        <path d="M175.329872,88.6382778 C175.329872,88.6382778 179.524739,89.7355792 182.603043,86.6798995 C185.681347,83.6242198 186.48,77.49 186.48,77.49 C186.48,77.49 180.726596,79.0140298 177.462198,81.7496632 C174.1978,84.4852966 175.329872,88.6382778 175.329872,88.6382778 Z" id="Path" fill="#4788D8"></path>
                        <path d="M175.329872,88.6382778 C175.329872,88.6382778 179.524739,89.7355792 182.603043,86.6798995 C185.681347,83.6242198 186.48,77.49 186.48,77.49 C186.48,77.49 180.726596,79.0140298 177.462198,81.7496632 C174.1978,84.4852966 175.329872,88.6382778 175.329872,88.6382778 Z" id="Path" fill="#000000" opacity="0.3"></path>
                        <path d="M229.319215,106.603664 C229.319215,106.603664 225.356008,104.700765 221.544924,106.902587 C217.73384,109.104409 215.46,114.66 215.46,114.66 C215.46,114.66 221.608976,114.441276 225.540157,112.582122 C229.471338,110.722967 229.319215,106.603664 229.319215,106.603664 Z" id="Path" fill="#4788D8"></path>
                        <path d="M229.319215,106.603664 C229.319215,106.603664 225.356008,104.700765 221.544924,106.902587 C217.73384,109.104409 215.46,114.66 215.46,114.66 C215.46,114.66 221.608976,114.441276 225.540157,112.582122 C229.471338,110.722967 229.319215,106.603664 229.319215,106.603664 Z" id="Path" fill="#000000" opacity="0.3"></path>
                        <path d="M211.201012,99.54 C211.201012,99.54 208.188794,102.682618 209.483106,106.841966 C210.777419,111.001314 215.938981,114.66 215.938981,114.66 C215.938981,114.66 217.319581,108.898533 216.40964,104.72378 C215.499699,100.549027 211.201012,99.54 211.201012,99.54 Z" id="Path" fill="#4788D8"></path>
                        <path d="M211.201012,99.54 C211.201012,99.54 208.188794,102.682618 209.483106,106.841966 C210.777419,111.001314 215.938981,114.66 215.938981,114.66 C215.938981,114.66 217.319581,108.898533 216.40964,104.72378 C215.499699,100.549027 211.201012,99.54 211.201012,99.54 Z" id="Path" fill="#000000" opacity="0.3"></path>
                        <path d="M180.642268,47.7548487 C183.041837,51.4001086 183.96,57.4410524 183.96,57.4410524 C183.96,57.4410524 177.880064,55.9129085 175.133291,52.4268303 C172.386518,48.940752 173.94508,44.7781518 173.94508,44.7781518 C173.94508,44.7781518 178.250415,44.1095888 180.642268,47.7548487 Z M174.029952,58.165329 C169.986949,59.5820457 169.47,64.039132 169.47,64.039132 C169.47,64.039132 172.942045,66.6974657 176.923323,64.8907539 C180.904601,63.0840421 183.96,57.4410524 183.96,57.4410524 C183.96,57.4410524 178.072955,56.7486122 174.029952,58.165329 Z" id="Shape" fill="#4788D8"></path>
                        <path d="M199.345877,52.7489717 C195.14267,53.4271402 189.453715,51.8695884 189.453715,51.8695884 C189.453715,51.8695884 193.302805,47.1298615 197.544503,46.0865254 C201.7862,45.0431893 204.75,48.031602 204.75,48.031602 C204.75,48.031602 203.549084,52.0708033 199.345877,52.7489717 Z M192.956387,42.8372787 C193.402882,38.7384582 189.700057,36.54 189.700057,36.54 C189.700057,36.54 185.92025,38.5446958 185.850966,42.7478499 C185.781683,46.9510039 189.461413,51.8397788 189.461413,51.8397788 C189.461413,51.8397788 192.517591,46.9733611 192.956387,42.8372787 Z" id="Shape" fill="#4788D8"></path>
                        <path d="M154.18706,15.7580255 C152.134188,19.6664331 147.31305,23.31 147.31305,23.31 C147.31305,23.31 145.827828,16.9778981 147.577435,12.8287261 C149.327041,8.67955414 153.65829,8.19 153.65829,8.19 C153.65829,8.19 156.239932,11.8576433 154.18706,15.7580255 Z M142.087558,14.4659236 C138.977146,11.3841401 134.879179,12.9731847 134.879179,12.9731847 C134.879179,12.9731847 134.179336,17.4112739 137.593013,20.2603185 C141.00669,23.1093631 147.31305,23.31 147.31305,23.31 C147.31305,23.31 145.190194,17.547707 142.087558,14.4659236 Z" id="Shape" fill="#4788D8"></path>
                        <path d="M118.90706,38.4380255 C116.854188,42.3384076 112.03305,45.99 112.03305,45.99 C112.03305,45.99 110.547828,39.6578981 112.297435,35.5007006 C114.047041,31.3435032 118.37829,30.87 118.37829,30.87 C118.37829,30.87 120.959932,34.5376433 118.90706,38.4380255 Z M106.807558,37.1459236 C103.697146,34.0641401 99.5991785,35.6531847 99.5991785,35.6531847 C99.5991785,35.6531847 98.8993359,40.0832484 102.313013,42.932293 C105.72669,45.7813376 112.03305,45.99 112.03305,45.99 C112.03305,45.99 109.910194,40.227707 106.807558,37.1459236 Z" id="Shape" fill="#4788D8"></path>
                        <path d="M72.2822684,17.5092618 C74.6818371,21.1556681 75.6,27.1985117 75.6,27.1985117 C75.6,27.1985117 69.5200639,25.6698872 66.7655751,22.1827127 C64.0110863,18.6955381 65.5773642,14.5395903 65.5773642,14.5395903 C65.5773642,14.5395903 69.8826997,13.8628555 72.2822684,17.5092618 Z M65.6699521,27.923016 C61.6269489,29.3401783 61.11,33.7986663 61.11,33.7986663 C61.11,33.7986663 64.5743291,36.457836 68.5633227,34.650556 C72.5523163,32.843276 75.6,27.1985117 75.6,27.1985117 C75.6,27.1985117 69.7129553,26.5058537 65.6699521,27.923016 L65.6699521,27.923016 Z" id="Shape" fill="#4788D8"></path>
                        <path d="M198.877507,79.3538787 C197.844334,75.1606891 199.008581,69.2917825 199.008581,69.2917825 C199.008581,69.2917825 204.197574,72.8224793 205.608549,76.9844928 C207.019524,81.1465063 204.166733,84.42 204.166733,84.42 C204.166733,84.42 199.902969,83.5392743 198.877507,79.3538787 Z M208.584703,72.0976343 C212.856178,72.2067507 214.83,68.2941463 214.83,68.2941463 C214.83,68.2941463 212.470666,64.6387449 208.122088,64.903742 C203.773511,65.1687392 199.031711,69.2917825 199.031711,69.2917825 C199.031711,69.2917825 204.297808,71.9807238 208.584703,72.0976343 Z" id="Shape" fill="#4788D8"></path>
                        <path d="M88.0125576,25.7541482 C83.9100941,25.1095381 79.1251366,21.8250965 79.1251366,21.8250965 C79.1251366,21.8250965 84.2100914,18.3871762 88.4325539,18.6711116 C92.6550164,18.955047 94.5,22.8073594 94.5,22.8073594 C94.5,22.8073594 92.1225211,26.3910843 88.0125576,25.7541482 Z M85.1925827,14.1051237 C86.8875676,10.2681592 84.142592,6.93 84.142592,6.93 C84.142592,6.93 80.0176287,7.69739291 78.630141,11.8106189 C77.2426533,15.923845 79.1251366,21.7867268 79.1251366,21.7867268 C79.1251366,21.7867268 83.4975978,17.980458 85.1925827,14.1051237 Z" id="Shape" fill="#4788D8"></path>
                        <path d="M5.55472772,95.655561 C9.69615229,94.5253282 15.5670482,95.5698192 15.5670482,95.5698192 C15.5670482,95.5698192 12.1701494,100.893606 8.0597467,102.413574 C3.94934404,103.933542 0.63,101.111858 0.63,101.111858 C0.63,101.111858 1.41330315,96.7857939 5.55472772,95.655561 Z M12.9844744,105.274232 C12.9844744,109.592501 16.9087456,111.51 16.9087456,111.51 C16.9087456,111.51 20.4917759,109.039077 20.135024,104.65845 C19.778272,100.277824 15.5670482,95.5620245 15.5670482,95.5620245 C15.5670482,95.5620245 13.0077408,100.979348 12.9844744,105.274232 Z" id="Shape" fill="#4788D8"></path>
                        <path d="M236.87887,6.98980733 C236.80923,11.3587185 234.193865,16.8099819 234.193865,16.8099819 C234.193865,16.8099819 230.054159,11.990749 229.744648,7.54283405 C229.435137,3.09491911 233.0332,0.63 233.0332,0.63 C233.0332,0.63 236.956248,2.62089621 236.87887,6.98980733 Z M225.635893,11.5641284 C221.527139,10.3316688 218.61,13.6577295 218.61,13.6577295 C218.61,13.6577295 219.979585,17.8528323 224.258571,18.7297746 C228.537556,19.606717 234.193865,16.8099819 234.193865,16.8099819 C234.193865,16.8099819 229.744648,12.7886876 225.635893,11.5641284 L225.635893,11.5641284 Z" id="Shape" fill="#4788D8"></path>
                        <path d="M30.2066389,126.63 C28.6163272,126.798914 27.2144807,127.775972 26.4739092,129.231637 C25.3248139,131.652813 26.0640408,135.45 26.0640408,135.45 C26.0640408,135.45 28.991672,133.404783 30.3383823,131.141509 C31.0917408,129.723826 31.0413654,127.998738 30.2066389,126.63 L30.2066389,126.63 Z" id="Path" fill="#4788D8"></path>
                        <path d="M30.2066389,126.63 C28.6163272,126.798914 27.2144807,127.775972 26.4739092,129.231637 C25.3248139,131.652813 26.0640408,135.45 26.0640408,135.45 C26.0640408,135.45 28.991672,133.404783 30.3383823,131.141509 C31.0917408,129.723826 31.0413654,127.998738 30.2066389,126.63 L30.2066389,126.63 Z" id="Path" fill="#000000" opacity="0.3"></path>
                        <path d="M162.50805,143.01 C160.917592,143.175073 159.513761,144.150248 158.770451,145.606331 C157.629423,148.029573 158.360851,151.83 158.360851,151.83 C158.360851,151.83 161.286564,149.783038 162.639707,147.517833 C163.391266,146.101268 163.340923,144.377577 162.50805,143.01 Z" id="Path" fill="#4788D8"></path>
                        <path d="M162.50805,143.01 C160.917592,143.175073 159.513761,144.150248 158.770451,145.606331 C157.629423,148.029573 158.360851,151.83 158.360851,151.83 C158.360851,151.83 161.286564,149.783038 162.639707,147.517833 C163.391266,146.101268 163.340923,144.377577 162.50805,143.01 Z" id="Path" fill="#000000" opacity="0.3"></path>
                        <path d="M8.7926078,206.01 C7.20012723,206.178914 5.79636889,207.155972 5.05478734,208.611637 C3.90412496,211.032813 4.64435999,214.83 4.64435999,214.83 C4.64435999,214.83 7.57598389,212.784783 8.92453088,210.521509 C9.66965139,209.101566 9.61935604,207.381564 8.7926078,206.01 Z" id="Path" fill="#4788D8"></path>
                        <path d="M8.7926078,206.01 C7.20012723,206.178914 5.79636889,207.155972 5.05478734,208.611637 C3.90412496,211.032813 4.64435999,214.83 4.64435999,214.83 C4.64435999,214.83 7.57598389,212.784783 8.92453088,210.521509 C9.66965139,209.101566 9.61935604,207.381564 8.7926078,206.01 Z" id="Path" fill="#000000" opacity="0.3"></path>
                        <path d="M170.099832,72.9862559 C168.632816,72.2017273 166.907084,72.2821354 165.505172,73.2003378 C163.267513,74.7812505 161.91,78.75 161.91,78.75 C161.91,78.75 165.542467,78.5935555 167.877091,77.2596605 C169.263718,76.3839267 170.113731,74.7497058 170.099832,72.9862559 Z" id="Path" fill="#4788D8"></path>
                        <path d="M170.099832,72.9862559 C168.632816,72.2017273 166.907084,72.2821354 165.505172,73.2003378 C163.267513,74.7812505 161.91,78.75 161.91,78.75 C161.91,78.75 165.542467,78.5935555 167.877091,77.2596605 C169.263718,76.3839267 170.113731,74.7497058 170.099832,72.9862559 Z" id="Path" fill="#000000" opacity="0.3"></path>
                    </g>
                    <rect id="Rectangle" fill="#EBEBEB" fill-rule="nonzero" x="-5.08038056e-13" y="280.9296" width="20.8656" height="1"></rect>
                    <rect id="Rectangle" fill="#EBEBEB" fill-rule="nonzero" x="58.5081" y="279.2223" width="21.735" height="1"></rect>
                    <rect id="Rectangle" fill="#EBEBEB" fill-rule="nonzero" x="14.8806" y="283.9725" width="34.9146" height="1"></rect>
                    <rect id="Rectangle" fill="#EBEBEB" fill-rule="nonzero" x="222.5034" y="284.5521" width="27.2097" height="1"></rect>
                    <rect id="Rectangle" fill="#EBEBEB" fill-rule="nonzero" x="200.3211" y="280.6146" width="14.427" height="1"></rect>
                    <rect id="Rectangle" fill="#EBEBEB" fill-rule="nonzero" x="90.1971" y="283.1409" width="59.0184" height="1"></rect>
                    <path d="M23.0202,168.9282 C23.6258151,166.872037 25.465706,165.423881 27.6066,165.3183 C28.0530637,165.313526 28.4954414,165.40372 28.9044,165.5829 C29.9793919,164.095954 31.6764642,163.183574 33.5097,163.107 C34.4361384,163.049824 35.3420367,163.396092 35.9941338,164.056642 C36.6462308,164.717192 36.9808027,165.627475 36.9117,166.5531 C38.8584,166.6854 39.9924,168.3297 39.4695,170.3331 C38.8423367,172.482234 36.9236635,173.998972 34.6878,174.1131 L22.5918,174.1131 C21.9199647,174.146803 21.2758187,173.842145 20.8756633,173.301429 C20.4755078,172.760713 20.3724139,172.055651 20.601,171.423 C20.9602432,170.251317 21.8601228,169.323316 23.0202,168.9282 L23.0202,168.9282 Z" id="Path" fill="#FFFFFF" fill-rule="nonzero"></path>
                    <path d="M74.0690082,45.5173093 C74.6746233,43.4611467 76.5145143,42.0129907 78.6554082,41.9074093 C79.1018719,41.9026358 79.5442497,41.9928293 79.9532082,42.1720093 C81.0282002,40.685063 82.7252725,39.7726835 84.5585082,39.6961093 C85.4849466,39.6389334 86.3908449,39.985201 87.042942,40.6457512 C87.6950391,41.3063014 88.029611,42.2165842 87.9605082,43.1422093 C89.9072082,43.2745093 91.0412082,44.9188093 90.5183082,46.9222093 C89.8911449,49.0713433 87.9724717,50.588081 85.7366082,50.7022093 L73.6406082,50.7022093 C72.968773,50.7359126 72.3246269,50.4312546 71.9244715,49.8905383 C71.5243161,49.3498219 71.4212222,48.6447601 71.6498082,48.0121093 C72.0090515,46.8404265 72.908931,45.9124258 74.0690082,45.5173093 L74.0690082,45.5173093 Z" id="Path-Copy-43" fill="#D0E1F5" fill-rule="nonzero"></path>
                    <path d="M17.1108,101.2158 C18.2763,96.894 22.6926,93.4101 27.0207,93.4101 C27.9826459,93.3997896 28.9358988,93.5930166 29.8179,93.9771 C32.1867,90.8271 36.0045,88.6347 39.7593,88.6347 C44.3016,88.6347 47.2752,91.8225 47.1051,96.0876 C51.3072,96.3585 53.7642,99.9117 52.6365,104.2776 C51.4584,108.801 46.8342,112.4676 42.3108,112.4676 L16.254,112.4676 C13.0473,112.4676 11.1258,109.872 11.9637,106.6653 C12.698655,104.124165 14.6157138,102.094476 17.1108,101.2158 L17.1108,101.2158 Z" id="Path" fill="#D0E1F5" fill-rule="nonzero"></path>
                    <g id="freepik--Kite--inject-58" transform="translate(71.530200, 73.080000)" fill-rule="nonzero">
                        <rect id="Rectangle" fill="#4788D8" transform="translate(22.424626, 29.917527) rotate(-74.090000) translate(-22.424626, -29.917527) " x="22.1033263" y="27.7660769" width="1" height="4.3029"></rect>
                        <rect id="Rectangle" fill="#4788D8" transform="translate(36.032858, 33.794971) rotate(-74.090000) translate(-36.032858, -33.794971) " x="35.7115582" y="26.1908709" width="1" height="15.2082"></rect>
                        <polyline id="Path" fill="#4788D8" points="11.9952 24.9417 0.2646 0.4536 38.367 5.0904 70.8876 41.7312"></polyline>
                        <g id="Group" opacity="0.3" transform="translate(2.520000, 1.260000)" fill="#FFFFFF">
                            <path d="M62.8047,37.8 C62.7034274,37.7984618 62.6040185,37.772529 62.5149,37.7244 L0.7308,1.6065 C0.599327561,1.52908718 0.504135111,1.40246198 0.466297267,1.2546579 C0.428459424,1.10685382 0.451097622,0.950063976 0.5292,0.819 C0.604324271,0.685142266 0.730510193,0.587462534 0.878923122,0.548281521 C1.02733605,0.509100508 1.18529323,0.53176646 1.3167,0.6111 L63.1008,36.7227 C63.3284482,36.8527243 63.4388937,37.1206054 63.3690338,37.3732902 C63.2991739,37.625975 63.0668089,37.7990792 62.8047,37.7937 L62.8047,37.8 Z" id="Path"></path>
                            <path d="M11.466,22.7871 C11.2844376,22.7866084 11.11384,22.7001411 11.0061,22.554 C10.8168955,22.299449 10.8674294,21.9400967 11.1195,21.7476 L33.5538,4.8636 C33.8077958,4.67223336 34.1688333,4.72300428 34.3602,4.97700002 C34.5515666,5.23099577 34.5007957,5.59203333 34.2468,5.7834 L11.8125,22.68 C11.7118403,22.7526725 11.5901105,22.790298 11.466,22.7871 L11.466,22.7871 Z" id="Path"></path>
                        </g>
                        <path d="M129.3579,97.0704 C126.0819,97.0704 123.2091,96.0876 121.212,94.2669 C119.0196,92.2761 117.9801,89.4222 116.9721,86.6628 C116.1216,84.3318 115.2459,81.9252 113.6772,80.0352 C113.059643,79.1655283 112.145477,78.5516025 111.1068,78.309 C110.061,78.1452 109.0782,78.5736 108.0387,79.0335 C107.21588,79.4557061 106.323922,79.7267077 105.4053,79.8336 C102.2175,79.9911 100.3653,76.3812 99.8613,75.2661 C99.6471,74.7747 99.4455,74.2707 99.2313,73.7793 C98.5068,71.9712 97.7634,70.1064 96.2703,68.9094 C95.8775679,68.5490384 95.3773175,68.3276887 94.8465,68.2794 C93.8637,68.2794 93.1959,69.0543 92.484,69.9048 C91.7721,70.7553 91.1106,71.5617 90.09,71.7192 C88.1244,72.0216 86.94,69.6465 86.5431,68.6133 C85.4424731,65.6737359 84.5313069,62.6666771 83.8152,59.6106 C82.8954,56.0385 81.9252,52.3404 80.3691,48.9573 L80.2683,48.7368 C79.38,46.8468 78.4602,44.856 76.7403,43.7913 C75.7288452,43.2521285 74.634354,42.8858785 73.5021,42.7077 C72.4996498,42.5404849 71.5246735,42.2373945 70.6041,41.8068 C70.5324347,41.7543124 70.5132246,41.6555177 70.56,41.58 C70.6018917,41.5001401 70.700455,41.4691631 70.7805,41.5107 C71.6778496,41.9276488 72.6271361,42.2221819 73.6029,42.3864 C74.7703845,42.5724557 75.8987859,42.9514282 76.9419,43.5078 C78.7437,44.6229 79.7265,46.7334 80.5896,48.5982 L80.6967,48.8187 C82.2843,52.227 83.2167,55.9377 84.1617,59.5287 C84.8756347,62.5715946 85.7825689,65.5659506 86.877,68.4936 C87.2613,69.4512 88.3323,71.6436 90.0648,71.3916 C90.9594,71.253 91.6209,70.4592 92.2572,69.6969 C92.9817,68.8149 93.7566,67.914 94.878,67.9455 C95.4827533,67.9951527 96.0541622,68.2432062 96.5034,68.6511 C98.0595,69.9111 98.8281,71.8011 99.5652,73.6533 C99.7605,74.1447 99.9621,74.6487 100.1952,75.1275 C100.6677,76.1985 102.4569,79.6572 105.4179,79.4997 C106.296411,79.3929699 107.149361,79.1328204 107.9379,78.7311 C108.9774,78.2712 110.0484,77.805 111.1887,77.9814 C112.304931,78.2388069 113.289867,78.8924462 113.9607,79.821 C115.5672,81.7551 116.4807,84.1932 117.3186,86.5494 C118.3077,89.271 119.3346,92.0871 121.464,94.0275 C123.5934,95.9679 126.63,96.8751 130.1265,96.7176 C130.193879,96.7044495 130.262559,96.7330909 130.30063,96.7902173 C130.338702,96.8473438 130.338702,96.9217562 130.30063,96.9788827 C130.262559,97.0360091 130.193879,97.0646505 130.1265,97.0515 L129.3579,97.0704 Z" id="Path" stroke="#233238" stroke-width="0.63" fill="#263238"></path>
                    </g>
                    <g id="freepik--character-2--inject-58" transform="translate(109.330200, 153.720000)" fill-rule="nonzero">
                        <path d="M60.0012,32.0481 L60.6753,31.941 L61.5069,31.7961 C62.0739,31.6764 62.6535,31.5693 63.2268,31.4181 C64.3797,31.1346 65.5389,30.7881 66.6855,30.4164 C68.9985506,29.6253845 71.2443646,28.6499512 73.4013,27.4995 C75.1401,26.6364 77.0238,24.9354 78.8319,23.1525 C80.64,21.3696 82.4481,19.3725 84.231,17.4825 L87.6456,19.5993 C86.531686,22.2206122 85.168842,24.7290046 83.5758,27.09 C82.7533754,28.3068016 81.8548853,29.47042 80.8857,30.5739 C80.3754,31.1409 79.8399,31.7016 79.2477,32.2497 C78.9453,32.5269 78.6177,32.7978 78.2901,33.0624 C77.9625,33.327 77.553,33.6168 77.2758,33.7932 C76.0631301,34.6387361 74.8008664,35.4108208 73.4958,36.1053 C72.1946889,36.8187571 70.8501551,37.4499936 69.4701,37.9953 C68.0806571,38.5546591 66.6558717,39.0218709 65.205,39.3939 C64.4742,39.5829 63.7308,39.7467 62.9685,39.879 C62.5842,39.9483 62.2062,40.0113 61.803,40.0617 L61.173,40.1247 L60.8454,40.1562 L60.4485,40.1562 L60.0012,32.0481 Z" id="Path" fill="#FFB573"></path>
                        <path d="M59.3649,42.6132 C65.0853,46.2609 74.1573,38.1402 74.1573,38.1402 L71.8956,27.9153 C71.8956,27.9153 60.8832,27.7326 54.5895,29.8053 C48.4344,31.815 54.6714,39.6144 59.3649,42.6132 Z" id="Path" fill="#4788D8"></path>
                        <path d="M82.5804,19.3158 L84.42,15.3153 L89.4285,18.5598 C89.4285,18.5598 87.8661,21.6405 84.5838,21.8106 L82.5804,19.3158 Z" id="Path" fill="#FFB573"></path>
                        <path d="M89.6238,14.427 L89.8947,14.7609 C90.6529121,15.7071507 90.6529121,17.0528493 89.8947,17.9991 L89.4348,18.5598 L84.42,15.3153 L85.9824,14.0553 C86.512674,13.6170761 87.1964794,13.409696 87.8808409,13.479553 C88.5652024,13.54941 89.1930043,13.8906739 89.6238,14.427 Z" id="Path" fill="#FFB573"></path>
                        <path d="M50.9292,137.9007 C51.6159,137.9637 52.2837,137.9007 52.5294,137.6361 C52.6598418,137.481648 52.6775692,137.261321 52.5735,137.088 C52.499492,136.92892 52.3624979,136.807908 52.1955,136.7541 C51.3324,136.4328 49.3731,137.3274 49.2912,137.3841 C49.2401529,137.403872 49.2090235,137.455754 49.2156,137.5101 C49.2192028,137.560936 49.2545984,137.603916 49.3038,137.6172 C49.8358942,137.760739 50.3799312,137.855629 50.9292,137.9007 Z M51.8679,136.9431 C51.9496315,136.948858 52.0301845,136.965816 52.1073,136.9935 C52.2085478,137.023781 52.2928579,137.094419 52.3404,137.1888 C52.416,137.3589 52.3782,137.4282 52.3404,137.4723 C52.0632,137.7936 50.715,137.6802 49.7322,137.4723 C50.4023297,137.157051 51.1281078,136.977212 51.8679,136.9431 L51.8679,136.9431 Z" id="Shape" fill="#4788D8"></path>
                        <path d="M49.329,137.6046 L49.3857,137.6046 C50.0535,137.3778 51.4332,136.3446 51.3891,135.7146 C51.3891,135.5697 51.2946,135.3807 50.9544,135.3177 C50.7023825,135.26599 50.4401984,135.320706 50.2299,135.4689 C49.5054,135.9666 49.2282,137.3589 49.2156,137.4471 C49.2099737,137.491796 49.2264207,137.536438 49.2597,137.5668 C49.2767006,137.588297 49.3017218,137.601945 49.329,137.6046 Z M50.8284,135.5634 L50.904,135.5634 C51.1308,135.6075 51.1371,135.702 51.1371,135.7272 C51.1371,136.0989 50.211,136.9242 49.5243,137.2581 C49.6369048,136.655537 49.9341323,136.102914 50.3748,135.6768 C50.5071545,135.585043 50.6684369,135.544723 50.8284,135.5634 L50.8284,135.5634 Z" id="Shape" fill="#4788D8"></path>
                        <polygon id="Path" fill="#FFB573" points="42.8841 139.8222 48.2139 140.3073 49.8645 128.0034 44.5284 127.5183"></polygon>
                        <path d="M48.8313,136.8108 L43.0101,136.2816 C42.7898247,136.26237 42.5856702,136.398473 42.5187,136.6092 L41.0382,141.2523 C40.9641414,141.479716 40.9983394,141.728526 41.1310075,141.927528 C41.2636756,142.126531 41.4801935,142.253794 41.7186,142.2729 C43.8228,142.4241 45.6687,142.4745 48.3147,142.7139 C51.4017,142.9911 50.5827,143.2872 54.1989,143.6715 C56.385,143.8983 57.0087,141.4476 56.0889,141.246 C51.8994,140.3262 51.5718,139.0095 50.0787,137.34 C49.7425989,137.015489 49.2982158,136.826962 48.8313,136.8108 L48.8313,136.8108 Z" id="Path" fill="#263238"></path>
                        <polygon id="Path" fill="#000000" opacity="0.2" points="49.8645 128.0034 48.9384 134.9208 43.6023 134.442 44.5284 127.5246"></polygon>
                        <path d="M60.6312,70.5159 C61.4002536,80.3464963 61.1638282,90.2299206 59.9256,100.0125 C57.7899,116.8713 51.5529,131.9283 51.5529,131.9283 L42.6762,129.6036 C42.6762,129.6036 44.7426,116.9469 45.8262,100.2897 C47.0295,82.1394 41.8572,68.7897 41.8572,68.7897 L60.6312,70.5159 Z" id="Path" fill="#263238"></path>
                        <path d="M44.982,77.6979 C49.644,79.1595 47.8548,87.0219 45.9774,92.295 C45.8432178,87.3874907 45.2803763,82.5010986 44.2953,77.6916 L44.982,77.6979 Z" id="Path" fill="#000000" opacity="0.3"></path>
                        <path d="M9.6327,122.094 C10.017,122.6673 10.4706,123.1587 10.8486,123.1713 C11.0522549,123.170035 11.233436,123.041699 11.3022,122.85 C11.3723273,122.689318 11.3723273,122.506682 11.3022,122.346 C10.9998,121.4766 9.0657,120.5316 8.9838,120.4938 C8.94033083,120.46325 8.88236917,120.46325 8.8389,120.4938 C8.80127309,120.53195 8.78900753,120.588372 8.8074,120.6387 C9.03666611,121.148399 9.3129622,121.635608 9.6327,122.094 Z M10.9683,122.2137 C11.0157767,122.279542 11.0539369,122.351622 11.0817,122.4279 C11.1233562,122.526584 11.1233562,122.637916 11.0817,122.7366 C10.9998,122.9004 10.9179,122.9193 10.8612,122.913 C10.4391,122.913 9.6705,121.7916 9.2232,120.8907 C9.88588844,121.215972 10.4786814,121.667522 10.9683,122.22 L10.9683,122.2137 Z" id="Shape" fill="#4788D8"></path>
                        <path d="M8.82,120.6765 L8.8578,120.7143 C9.4878,121.086 11.1447,121.4892 11.5857,121.0671 C11.6928,120.9663 11.781,120.7836 11.5857,120.4749 C11.4668116,120.248594 11.2591056,120.081972 11.0124,120.015 C10.1682,119.7693 8.8956,120.4623 8.8389,120.4938 C8.80139883,120.516804 8.77778634,120.556946 8.7759,120.6009 C8.78159743,120.630373 8.79714885,120.657033 8.82,120.6765 Z M11.34,120.5316 L11.3778,120.5946 C11.4849,120.7962 11.4219,120.8592 11.3778,120.8844 C11.1069,121.1364 9.8658,120.9285 9.1665,120.6072 C9.70536848,120.314409 10.3209185,120.193497 10.9305,120.2607 C11.106281,120.292474 11.2636931,120.38917 11.3715,120.5316 L11.34,120.5316 Z" id="Shape" fill="#4788D8"></path>
                        <polygon id="Path" fill="#FFB573" points="3.0303 117.1107 6.048 121.5333 16.5879 114.9813 13.5702 110.5587"></polygon>
                        <path d="M9.135,119.7882 L5.8401,114.9561 C5.71663332,114.774359 5.48303214,114.703492 5.2794,114.786 L0.7497,116.6004 C0.528203802,116.688475 0.359038557,116.872857 0.290319771,117.101102 C0.221600986,117.329346 0.260848801,117.576476 0.3969,117.7722 C1.6191,119.4921 3.4398,121.9428 4.9329,124.1289 C6.6843,126.693 5.3991,125.1117 7.4529,128.1168 C8.7129,129.9312 10.8738,129.1815 10.521,128.3058 C8.9145,124.3305 9.1854,123.2658 9.5193,121.086 C9.55950911,120.62041 9.42223507,120.156829 9.135,119.7882 Z" id="Path" fill="#263238"></path>
                        <polygon id="Path" fill="#000000" opacity="0.2" points="16.5879 114.9813 10.6596 118.6668 7.6356 114.2442 13.5639 110.5587"></polygon>
                        <path d="M50.5134,69.5961 C50.5134,69.5961 46.5885,85.3461 39.1356,99.1305 C30.9771,114.2505 14.5215,119.0385 14.5215,119.0385 L9.4059,111.2832 C9.4059,111.2832 20.2041,103.2129 25.5591,93.933 C30.492,76.5072 32.13,67.9329 32.13,67.9329 L50.5134,69.5961 Z" id="Path" fill="#263238"></path>
                        <path d="M16.9596,119.07 C16.9596,119.1078 13.4757,120.582 13.4757,120.582 L7.7616,111.132 L10.4769,109.1349 L16.9596,119.07 Z" id="Path" fill="#4788D8"></path>
                        <path d="M53.2728,130.3281 C53.3169,130.3281 52.2207,133.9821 52.2207,133.9821 L41.3028,132.3882 L41.4918,129.0177 L53.2728,130.3281 Z" id="Path" fill="#4788D8"></path>
                        <path d="M64.3482,35.9415 C64.6443,40.9815 65.394,52.9515 61.6707,72.072 L30.24,69.7536 C30.4227,65.709 35.7021,52.038 34.4232,33.8436 C34.3211826,32.5098922 34.7665566,31.1921302 35.6567604,30.1937709 C36.5469641,29.1954116 37.8052653,28.6025097 39.1419,28.5516 C40.5468,28.5012 42.1029,28.4886 43.6275,28.5516 C47.6826443,28.6736788 51.7275188,29.0270531 55.7424,29.61 C57.2859,29.8935 58.7853,30.2715 60.0705,30.6369 C62.4849079,31.3070953 64.2048346,33.4399058 64.3482,35.9415 L64.3482,35.9415 Z" id="Path" fill="#4788D8"></path>
                        <path d="M34.587,41.3343 C34.5177,44.4087 34.2972,47.3067 33.957,50.0031 C37.3338,46.6263 37.737,41.3343 37.737,41.3343 L34.587,41.3343 Z" id="Path" fill="#000000" opacity="0.3"></path>
                        <path d="M73.1808,33.7365 L72.639,39.0285 L65.9232,38.4993 L66.5532,32.067 L72.8973,32.5647 L72.7902,32.0733 L66.6036,31.5945 L66.969,28.0098 L66.8682,28.0098 C66.7359,28.0098 66.5973,28.0098 66.465,28.0098 L66.0996,31.5252 L59.3838,30.996 L59.6295,28.6524 C59.472,28.6524 59.3082,28.7028 59.1507,28.7217 L59.1129,28.7217 L58.8861,30.9519 L52.1703,30.429 L52.3026,29.1249 L51.8049,29.0745 L51.6726,30.3849 L44.9505,29.862 L45.0828,28.602 L45.0828,28.602 L44.7048,28.602 L44.5788,28.602 L44.4528,29.862 L37.737,29.3391 L37.7874,28.7658 L37.7874,28.6587 C37.6162772,28.6626859 37.4456963,28.6795334 37.2771,28.7091 L37.2456,28.9611 L37.2141,29.295 L36.7038,29.2572 C36.4822051,29.3821562 36.2714681,29.5254573 36.0738,29.6856 L37.1448,29.7738 L36.54,36.1998 L34.5177,36.0423 C34.5177,36.2061 34.5177,36.3636 34.5177,36.5274 L36.4644,36.6786 L35.8344,43.1172 L34.5177,43.0101 L34.5177,43.4952 L35.7777,43.596 L35.1477,50.0283 L33.9822,49.9401 C33.9822,50.0976 33.9507,50.2614 33.9255,50.4189 L35.0973,50.5134 L34.4673,56.9457 L32.949,56.826 L32.8545,57.3048 L34.4169,57.4182 L33.7869,63.8568 L31.5,63.6804 L31.3866,64.1529 L33.7365,64.3356 L33.1569,69.9615 L33.6609,69.9993 L34.2405,64.3797 L40.95,64.9026 L40.3767,70.4907 L40.3767,70.4907 L40.8681,70.5285 L40.8681,70.5285 L41.4414,64.9341 L48.1572,65.457 L47.5902,71.0199 L48.0879,71.064 L48.0879,71.064 L48.6549,65.5074 L55.3707,66.0303 L54.81,71.5617 L55.3077,71.5995 L55.8684,66.0681 L62.5905,66.5973 L62.4393,68.1282 C62.5338,67.5801 62.622,67.0383 62.7102,66.5028 C63.1302,63.8064 63.4809,61.2759 63.7623,58.9113 C63.9261,57.4938 64.0584,56.133 64.1718,54.8352 C64.2096,54.4572 64.2348,54.0855 64.2663,53.7201 C64.3041,53.2413 64.3419,52.7751 64.3671,52.3152 C64.4175,51.5466 64.4616,50.7969 64.4994,50.0724 C64.5624,48.888 64.6065,47.7666 64.6254,46.7019 L64.008,52.29 L57.2922,51.7671 L57.96,45.36 L64.6128,45.8766 C64.6128,45.7065 64.6128,45.549 64.6128,45.3915 L58.0041,44.8749 L58.6593,38.43 L65.3751,38.9529 L64.9341,43.2936 L65.2995,43.2117 L65.4507,43.1613 L65.8728,38.9907 L72.4563,39.5073 C72.7083,39.3246 72.9414,39.1419 73.1493,38.9844 L73.5273,35.3052 L73.1808,33.7365 Z M44.9316,30.3723 L51.66,30.87 L51.03,37.3086 L44.3142,36.7794 L44.9316,30.3723 Z M50.022,51.66 L56.7441,52.1829 L56.07,58.6404 L49.3542,58.1112 L50.022,51.66 Z M48.8691,58.0545 L42.1533,57.5253 L42.7833,51.093 L49.4991,51.6222 L48.8691,58.0545 Z M49.5747,51.1245 L42.84,50.6331 L43.5015,44.2008 L50.2173,44.7237 L49.5747,51.1245 Z M43.5645,43.6842 L44.1945,37.2519 L50.9166,37.7748 L50.2551,44.2071 L43.5645,43.6842 Z M37.7118,29.7675 L44.4276,30.2967 L43.7976,36.729 L37.0755,36.1998 L37.7118,29.7675 Z M37.0062,36.6975 L43.722,37.2267 L43.092,43.659 L36.3825,43.1361 L37.0062,36.6975 Z M36.2943,43.6275 L43.0164,44.1504 L42.3864,50.589 L35.6643,50.0598 L36.2943,43.6275 Z M35.595,50.5575 L42.3108,51.0867 L41.6493,57.519 L34.9335,56.9961 L35.595,50.5575 Z M40.9437,64.4175 L34.2279,63.8883 L34.8579,57.456 L41.58,57.96 L40.9437,64.4175 Z M48.1635,64.9845 L41.4414,64.4553 L42.0714,58.0167 L48.7935,58.5459 L48.1635,64.9845 Z M55.377,65.5452 L48.6612,65.0223 L49.3227,58.59 L56.0385,59.1192 L55.377,65.5452 Z M62.5968,66.1059 L55.881,65.583 L56.511,59.1507 L63.2268,59.6736 L62.5968,66.1059 Z M63.9576,52.7688 L63.3276,59.2011 L56.6055,58.6782 L57.267,52.2333 L63.9576,52.7688 Z M56.7945,51.7167 L50.0787,51.1938 L50.7087,44.7552 L57.4245,45.2844 L56.7945,51.7167 Z M57.5001,44.7867 L50.778,44.2575 L51.408,37.8252 L58.1238,38.3481 L57.5001,44.7867 Z M58.2057,37.8567 L51.4899,37.3275 L52.1199,30.8889 L58.842,31.4244 L58.2057,37.8567 Z M65.4255,38.4174 L58.7034,37.8945 L59.3334,31.4559 L66.0555,31.9851 L65.4255,38.4174 Z" id="Shape" fill="#FFFFFF" opacity="0.3"></path>
                        <path d="M46.8972,19.4355 C46.8972,23.2155 46.2672,27.4995 43.974,29.1753 C43.974,29.1753 46.6011,34.4295 54.2178,34.4358 C59.7555,34.4358 56.8071,30.5613 56.8071,30.5613 C53.2098,28.602 53.4555,25.8489 54.5895,22.9131 L49.2219,18.1881 C48.3336,17.2998 46.8972,18.0558 46.8972,19.4355 Z" id="Path" fill="#FFB573"></path>
                        <path d="M46.8972,19.4355 C46.8972,18.0558 48.3273,17.2998 49.2219,18.1755 L54.5895,22.8942 C54.0046509,24.1750403 53.7698736,25.5880518 53.9091,26.9892 C52.6472674,27.035612 51.3931198,26.7739708 50.2551,26.2269 C48.7740159,25.5585543 47.5274897,24.4612601 46.6767,23.0769 C46.8280407,21.8690685 46.9016922,20.6527677 46.8972,19.4355 Z" id="Path" fill="#000000" opacity="0.2"></path>
                        <path d="M40.6917,14.8428 C42.5817,19.8387 43.4133,22.869 47.1051,24.6078 C52.6554,27.2223 59.031,22.7178 58.8546,17.2368 C58.6971,12.2787 55.2447,4.536 49.014,4.2084 C42.7833,3.8808 38.7891,9.8532 40.6917,14.8428 Z" id="Path" fill="#FFB573"></path>
                        <path d="M37.296,13.86 C37.6047,16.4304 41.6115,18.5661 41.6115,18.5661 L45.5868,18.2133 C45.5868,18.2133 42.9912,15.6933 43.6968,12.3795 C44.4024,9.0657 37.6866,9.45 37.296,13.86 Z" id="Path" fill="#263238"></path>
                        <path d="M38.871,3.5028 C34.3917,6.9363 36.225,11.2392 35.1603,14.5908 C38.2221,15.561 43.2432,12.8646 45.486,11.6802 C45.8892,11.4723 46.2987,11.2896 46.6767,11.0502 C47.2626,10.6911 47.1618,8.3475 47.1618,8.3475 C47.1618,8.3475 47.9241,9.9099 47.8674,10.4139 C51.2757,8.5869 54.2304,6.8481 54.9612,5.4558 C54.0414,1.4175 46.5255,-2.3688 38.871,3.5028 Z" id="Path" fill="#263238"></path>
                        <path d="M54.6588,16.9092 L54.6588,16.9092 C53.4572694,17.5925623 51.9990744,17.6512658 50.7465,17.0667 C50.6734217,17.0252866 50.6457022,16.9338122 50.6835,16.8588 C50.7246161,16.7888885 50.8135692,16.7638704 50.8851,16.8021 C52.0505966,17.3313287 53.3986398,17.2728199 54.5139,16.6446 C54.5860563,16.6113448 54.6716422,16.6396084 54.7098036,16.7092945 C54.747965,16.7789805 54.7256827,16.8663147 54.6588,16.9092 L54.6588,16.9092 Z" id="Path" fill="#263238"></path>
                        <path d="M50.4945,12.8835 C50.7213,13.2993 51.1245,13.5135 51.3891,13.3686 C51.6537,13.2237 51.6978,12.7386 51.4773,12.3543 C51.2568,11.97 50.8473,11.7243 50.5764,11.8692 C50.3055,12.0141 50.2677,12.4677 50.4945,12.8835 Z" id="Path" fill="#263238"></path>
                        <path d="M55.1439,10.7919 C55.3707,11.2077 55.7739,11.4219 56.0385,11.277 C56.3031,11.1321 56.3472,10.647 56.1204,10.2564 C55.8936,9.8658 55.4904,9.6264 55.2258,9.7776 C54.9612,9.9288 54.9171,10.3761 55.1439,10.7919 Z" id="Path" fill="#263238"></path>
                        <path d="M48.51,13.3623 C48.5964581,13.3010866 48.6404687,13.1959502 48.6234,13.0914 C48.5079205,12.4063795 48.7201176,11.7068284 49.1967,11.2014 C49.3040101,11.0933111 49.3040101,10.9188889 49.1967,10.8108 C49.1456236,10.7576656 49.0751026,10.7276358 49.0014,10.7276358 C48.9276974,10.7276358 48.8571764,10.7576656 48.8061,10.8108 C48.1810146,11.4467229 47.9017565,12.3455115 48.0564,13.2237 C48.0821576,13.3731422 48.220956,13.475853 48.3714,13.4568 C48.4257435,13.4393191 48.4738754,13.4065019 48.51,13.3623 Z" id="Path" fill="#263238"></path>
                        <path d="M56.8701,7.9443 C56.9255325,7.92479938 56.9708882,7.88397923 56.9961,7.8309 C57.035507,7.76934086 57.0483663,7.69446987 57.0317576,7.62328989 C57.0151489,7.55210992 56.9704818,7.49066175 56.9079,7.4529 C56.1562178,6.96877452 55.2156316,6.8817703 54.3879,7.2198 C54.2851132,7.25228242 54.2104791,7.34140796 54.1965518,7.44830164 C54.1826244,7.55519531 54.2319299,7.66046915 54.322962,7.71820458 C54.4139941,7.77594001 54.5302419,7.77566519 54.621,7.7175 L54.621,7.7175 C55.2797755,7.46530301 56.0193441,7.54253643 56.6118,7.9254 C56.6894833,7.97400728 56.7861688,7.98108183 56.8701,7.9443 L56.8701,7.9443 Z" id="Path" fill="#263238"></path>
                        <path d="M54.2178,11.6802 C55.1713436,12.6001102 56.2485181,13.382546 57.4182,14.0049 C57.0734171,14.592615 56.4887422,15.0000459 55.818,15.12 L54.2178,11.6802 Z" id="Path" fill="#ED893E"></path>
                        <path d="M41.0067,20.0214 C41.836762,20.7451867 42.9112143,21.1258626 44.0118,21.0861 C45.3726,20.9916 45.3789,19.5426 44.4339,18.4023 C43.5897,17.3754 41.8635,16.1847 40.7673,16.8462 C39.6711,17.5077 39.9168,19.0953 41.0067,20.0214 Z" id="Path" fill="#FFB573"></path>
                        <path d="M38.8521,38.43 L37.5543,39.9168 L36.225,41.4792 C35.3367,42.525 34.4673,43.5897 33.5979,44.6292 C31.8675,46.7796 30.1875,48.972 28.5579,51.2064 L28.4067,51.4143 L28.3689,51.4647 L28.3689,51.4647 C28.3689,51.4647 28.3689,51.4647 28.3689,51.4332 C28.3947877,51.3595205 28.4137694,51.2835938 28.4256,51.2064 C28.4757897,50.978723 28.4649228,50.741826 28.3941,50.5197 C28.2429,50.1606 28.2051,50.3937 28.4445,50.6709 C28.7516576,51.0487369 29.0979916,51.392959 29.4777,51.6978 C29.9494035,52.0811537 30.4415243,52.4386774 30.9519,52.7688 C33.2531669,54.202987 35.6342195,55.5049937 38.0835,56.6685 L36.9936,60.5367 C35.489879,60.3417119 34.0000746,60.0513263 32.5332,59.6673 C31.0309415,59.2860451 29.5573156,58.7997486 28.1232,58.212 C27.356611,57.8936726 26.609774,57.5297211 25.8867,57.1221 C25.0516905,56.6624811 24.2735591,56.1063708 23.5683,55.4652 C23.1279783,55.0597477 22.732965,54.6077005 22.3902,54.117 C21.9391491,53.4748938 21.6102595,52.7551809 21.42,51.9939 C21.2047418,51.0656589 21.219882,50.0988457 21.4641,49.1778 C21.5820094,48.7572969 21.742437,48.349895 21.9429,47.9619 L22.1949,47.502 L22.3335,47.2563 C23.0706,45.9648 23.8329,44.6859 24.6519,43.4385 C25.4709,42.1911 26.2962,40.9626 27.1719,39.7593 C28.0476,38.556 28.9548,37.3779 29.9061,36.225 C30.3786,35.6517 30.8574,35.0784 31.3614,34.5177 C31.8654,33.957 32.3505,33.4215 32.9427,32.8104 L38.8521,38.43 Z" id="Path" fill="#FFB573"></path>
                        <path d="M34.7823,56.4417 L39.1356,55.755 L39.2112,61.7274 C39.2112,61.7274 35.7777,62.1306 33.8184,59.4909 L34.7823,56.4417 Z" id="Path" fill="#FFB573"></path>
                        <path d="M42.7959,58.7727 L41.8257,60.9147 C41.5381683,61.552008 40.8688677,61.9275316 40.1751,61.8408 L39.2112,61.7274 L39.1356,55.755 L41.8068,56.5803 C42.245981,56.7166688 42.6056658,57.0347089 42.794779,57.4538898 C42.9838922,57.8730707 42.9843003,58.3531982 42.7959,58.7727 L42.7959,58.7727 Z" id="Path" fill="#FFB573"></path>
                        <path d="M38.2032,28.6335 C31.4181,28.6335 24.8913,39.4569 24.8913,39.4569 L31.5882,50.2803 C31.5882,50.2803 35.9667,45.4671 40.1625,40.3452 C44.2638,35.3304 43.7724,28.6335 38.2032,28.6335 Z" id="Path" fill="#4788D8"></path>
                        <path d="M42.0966,37.1196 C42.1683951,36.9665323 42.2294428,36.8086504 42.2793,36.6471 L37.0503,36.2376 L37.7118,29.8053 L41.7753,30.1266 C41.6215353,29.9307892 41.4437382,29.7551087 41.2461,29.6037 L37.7622,29.3328 L37.8315,28.6524 L37.5795,28.6524 L37.5795,28.6524 C37.5039,28.6524 37.422,28.6524 37.3464,28.6902 L37.2834,29.2761 L35.5635,29.1375 C35.2485,29.2572 34.9335,29.3958 34.6248,29.547 L37.2393,29.7549 L36.54,36.1998 L29.8242,35.6769 L30.1077,32.886 L29.7045,33.2892 L29.547,33.453 L29.3202,35.6391 L27.7263,35.5131 C27.6444,35.6013 27.5688,35.6958 27.4932,35.7903 L27.4365,35.8533 C27.4122867,35.891258 27.3848879,35.9270872 27.3546,35.9604 L27.3546,35.9604 L29.2446,36.1116 L28.6146,42.5565 L26.6931,42.399 L26.6931,42.399 L26.9514,42.8022 L27.0144,42.903 L28.5705,43.029 L28.3626,45.0828 L28.3626,45.0828 L28.791,45.7695 L29.0682,43.0668 L35.784,43.5897 L35.5635,45.7695 C35.7462,45.5553 35.9415,45.3411 36.1305,45.1395 L36.2817,43.6527 L37.3338,43.7346 L37.7181,43.281 L36.3384,43.1739 L36.9684,36.7353 L42.0966,37.1196 Z M35.847,43.1172 L29.1312,42.588 L29.7612,36.1557 L36.477,36.6786 L35.847,43.1172 Z" id="Shape" fill="#FFFFFF" opacity="0.3"></path>
                    </g>
                    <g id="freepik--character-1--inject-58" transform="translate(35.620200, 165.060000)" fill-rule="nonzero">
                        <path d="M49.77,7.6671 C49.9338,8.2026 50.3496,8.5491 50.6961,8.442 C51.0426,8.3349 51.1938,7.812 51.0363,7.2891 C50.8788,6.7662 50.4567,6.4071 50.1102,6.5142 C49.7637,6.6213 49.6062,7.1379 49.77,7.6671 Z" id="Path" fill="#263238"></path>
                        <path d="M50.7969,8.442 C51.5637367,9.41456904 52.4603997,10.2773157 53.4618,11.0061 C53.0682732,11.5134756 52.4715849,11.8221869 51.8301,11.8503 L50.7969,8.442 Z" id="Path" fill="#A02724"></path>
                        <path d="M47.25,6.4323 C47.3169852,6.41283308 47.376367,6.37324518 47.4201,6.3189 C47.9058122,5.64291969 48.6856285,5.24013168 49.518,5.2353 C49.6479087,5.28222988 49.793296,5.242637 49.8814707,5.13631717 C49.9696454,5.02999734 49.9816615,4.87979521 49.9115113,4.76080939 C49.8413611,4.64182356 49.7041175,4.57962021 49.5684,4.6053 C48.5136021,4.58881651 47.5168919,5.08717161 46.8972,5.9409 C46.8444018,6.01017981 46.8213681,6.09763417 46.83319,6.18393357 C46.8450118,6.27023297 46.8907157,6.34827122 46.9602,6.4008 C47.0462047,6.45703851 47.1539208,6.46874679 47.25,6.4323 Z" id="Path" fill="#263238"></path>
                        <path d="M42.1155,16.3044 C42.0714,19.8072 41.5233,23.8644 39.5577,25.4268 C39.5577,25.4268 40.1058,29.2068 46.5381,29.9124 C53.6067,30.6747 50.3181,26.586 50.3181,26.586 C47.3193,24.7968 47.5587,22.2264 48.5352,19.4733 L44.1,15.12 C43.3377,14.2947 42.1281,15.0192 42.1155,16.3044 Z" id="Path" fill="#B55B52"></path>
                        <path d="M38.6316,26.1324 C38.3229,24.8724 38.0016,23.4738 39.1923,23.247 C40.5153,22.995 47.3823,23.6439 49.6251,24.8913 C50.8801288,25.5564771 51.3906111,27.0906982 50.7843,28.3752 L38.6316,26.1324 Z" id="Path" fill="#263238"></path>
                        <path d="M36.7227,31.9158 C36.5526,32.0355 36.288,32.2371 36.0927,32.4135 L35.3808,32.9742 C34.9083,33.3522 34.4484,33.7554 33.9948,34.1586 C33.0813,34.9713 32.2182,35.8281 31.3929,36.6786 C30.5782754,37.5581573 29.8147237,38.4836744 29.106,39.4506 C28.4226524,40.4022946 27.8058834,41.400071 27.2601,42.4368 L27.4869,41.1264 C27.516141,42.0866892 27.6066248,43.0441343 27.7578,43.9929 C27.917683,44.9815872 28.1279569,45.9614635 28.3878,46.9287 C28.6398,47.9115 28.9422,48.8943 29.2761,49.8771 C29.61,50.8599 30.0006,51.8616 30.3597,52.7688 L30.4038,52.8696 C30.6663565,53.5463743 30.4041116,54.3139216 29.7823274,54.6885465 C29.1605432,55.0631715 28.359415,54.9363066 27.8838,54.3879 C27.4743,53.9028 27.1404,53.4618 26.8002,52.983 C26.46,52.5042 26.1387,52.0317 25.83,51.5403 C25.2136727,50.5534941 24.6602716,49.5287553 24.1731,48.4722 C23.6730805,47.3953842 23.2519716,46.2836567 22.9131,45.1458 C22.5573799,43.9736815 22.2961441,42.7749461 22.1319,41.5611 C22.0764559,41.1790198 22.1265635,40.789052 22.2768,40.4334 L22.3587,40.2507 C22.9151354,38.8706911 23.5962557,37.5442989 24.3936,36.288 C25.1646554,35.0491273 26.0303347,33.8717191 26.9829,32.7663 C27.9147484,31.6656251 28.9186569,30.6280425 29.988,29.6604 C30.5235,29.1816 31.0653,28.7154 31.6323,28.2618 C31.9095,28.035 32.193,27.8082 32.4891,27.594 C32.7852,27.3798 33.0687,27.1782 33.4467,26.9199 C34.7941291,26.0397337 36.596686,26.3857226 37.5224803,27.702219 C38.4482745,29.0187155 38.1642193,30.8320638 36.8802,31.8024 L36.7227,31.9158 Z" id="Path" fill="#B55B52"></path>
                        <path d="M31.8906,50.8095 L28.2114,49.9086 L26.2836,52.1955 C27.0207,55.1754 30.1266,56.0637 30.1266,56.0637 L31.4244,56.7504 C32.017225,57.0656251 32.7497034,56.9238551 33.1821,56.4102 L34.5996,54.747 C35.1087686,54.1396683 35.0298308,53.2347034 34.4232,52.7247 L32.4639,51.0993 C32.2983961,50.958738 32.1019222,50.8594215 31.8906,50.8095 Z" id="Path" fill="#B55B52"></path>
                        <path d="M45.4734,63.1197 C45.4734,63.1197 41.8068,77.8113 34.8453,90.7137 C27.2223,104.8446 7.0434,111.9888 7.0434,111.9888 L5.04,108.6876 C5.04,108.6876 21.1869,97.2216 26.8002,89.4852 C28.2807,76.3812 29.9502,61.6581 29.9502,61.6581 L45.4734,63.1197 Z" id="Path" fill="#B55B52"></path>
                        <path d="M8.9145,113.8158 C9.3177,114.3135 9.7713,114.7419 10.1304,114.723 C10.3178385,114.706683 10.4757457,114.576346 10.5273,114.3954 C10.5869133,114.245717 10.5869133,114.078883 10.5273,113.9292 C10.1808,113.1354 8.3097,112.392 8.2341,112.3605 C8.19400667,112.333915 8.14189333,112.333915 8.1018,112.3605 C8.07678517,112.401053 8.07678517,112.452247 8.1018,112.4928 C8.33564975,112.955514 8.60748191,113.398032 8.9145,113.8158 L8.9145,113.8158 Z M10.1745,113.8158 C10.2246805,113.874012 10.2651037,113.939966 10.2942,114.0111 C10.3346279,114.101276 10.3346279,114.204424 10.2942,114.2946 C10.2312,114.4521 10.1556,114.471 10.1052,114.4773 C9.7083,114.4773 8.9082,113.5134 8.4294,112.707 C9.07845408,112.960184 9.66982677,113.341576 10.1682,113.8284 L10.1745,113.8158 Z" id="Shape" fill="#4788D8"></path>
                        <path d="M8.0766,112.5432 L8.1144,112.5747 C8.7066,112.8771 10.3005,113.1354 10.6848,112.7133 C10.773,112.6125 10.8423,112.4361 10.6848,112.1589 C10.5568967,111.958077 10.3517162,111.81901 10.1178,111.7746 C9.3114,111.6045 8.1711,112.3416 8.127,112.3731 C8.09104616,112.396771 8.06966448,112.437158 8.0703,112.4802 C8.06637608,112.501372 8.06856127,112.523224 8.0766,112.5432 L8.0766,112.5432 Z M10.4265,112.2345 L10.4643,112.2912 C10.584,112.4676 10.5273,112.5306 10.5084,112.5558 C10.2753,112.8078 9.1035,112.707 8.4294,112.455 C8.91001988,112.142413 9.47557546,111.98617 10.0485,112.0077 C10.1977009,112.035313 10.3319235,112.115846 10.4265,112.2345 Z" id="Shape" fill="#4788D8"></path>
                        <path d="M8.2908,111.6927 L5.67,108.4104 C5.39534833,108.069334 4.91832663,107.969186 4.5297,108.171 L1.071,109.9791 C0.82430616,110.104498 0.648338578,110.335637 0.593122795,110.606808 C0.537907011,110.877979 0.609482065,111.159523 0.7875,111.3714 C1.8774,112.6818 3.2193,114.2001 4.6935,116.0397 C6.5016,118.3014 5.1912,116.9217 7.3143,119.574 C8.5743,121.1742 10.5777,120.3237 10.1871,119.5362 C8.4735,116.0712 8.5806,115.038 8.7318,113.0976 C8.74000583,112.594017 8.58532695,112.101255 8.2908,111.6927 L8.2908,111.6927 Z" id="Path" fill="#263238"></path>
                        <path d="M52.6554,63.7749 C54.3937975,72.8632591 54.6956673,82.1680752 53.55,91.35 C51.5592,107.1 43.3944,126.9828 43.3944,126.9828 L38.9844,126.4032 C38.9844,126.4032 43.5582,109.3932 44.5851,93.8511 C42.8211,79.4871 37.4472,62.4141 37.4472,62.4141 L52.6554,63.7749 Z" id="Path" fill="#B55B52"></path>
                        <path d="M45.864,126.9387 C46.494,126.9954 47.124,126.9387 47.3634,126.693 C47.482748,126.545631 47.4978255,126.339572 47.4012,126.1764 C47.3276882,126.031948 47.2013315,125.921386 47.0484,125.8677 C46.242,125.5653 44.4087,126.4032 44.3331,126.441 C44.2865046,126.458164 44.2578183,126.505105 44.2638,126.5544 C44.2646091,126.604215 44.2978373,126.647667 44.3457,126.6615 C44.8434811,126.794762 45.3512429,126.887466 45.864,126.9387 L45.864,126.9387 Z M46.7397,126.0441 C46.8166231,126.050907 46.892631,126.065686 46.9665,126.0882 C47.0609641,126.118868 47.1385084,126.18729 47.1807,126.2772 C47.2563,126.4284 47.2185,126.504 47.1807,126.5418 C46.9224,126.8442 45.6624,126.7371 44.7489,126.5418 C45.3743703,126.249563 46.0502913,126.080583 46.7397,126.0441 L46.7397,126.0441 Z" id="Shape" fill="#4788D8"></path>
                        <path d="M44.3709,126.6615 L44.4213,126.6615 C45.0513,126.441 46.3113,125.4708 46.3113,124.9038 C46.3113,124.7652 46.2231,124.5951 45.9018,124.5321 C45.6687377,124.485702 45.4268739,124.538182 45.234,124.677 C44.5473,125.1369 44.2953,126.4662 44.2827,126.5229 C44.2741737,126.564736 44.2885772,126.607947 44.3205,126.6363 C44.3343464,126.64963 44.3519282,126.658421 44.3709,126.6615 L44.3709,126.6615 Z M45.7695,124.7715 L45.8388,124.7715 C46.053,124.8093 46.0593,124.8975 46.0593,124.9227 C46.0593,125.2692 45.1962,126.0441 44.5473,126.3528 C44.6565326,125.790985 44.9358505,125.276337 45.3474,124.8786 C45.4666014,124.782676 45.6166377,124.733411 45.7695,124.74 L45.7695,124.7715 Z" id="Shape" fill="#4788D8"></path>
                        <path d="M43.9047,125.9244 L39.312,125.5086 C38.9638496,125.475146 38.6401237,125.690964 38.5371,126.0252 L37.2771,130.1265 C37.2117307,130.337704 37.2446168,130.567096 37.3666906,130.751428 C37.4887645,130.935759 37.6871329,131.055561 37.9071,131.0778 C39.7152,131.2101 40.9311,131.2164 43.3818,131.4369 C46.2672,131.7015 45.5049,131.9787 48.8817,132.3315 C50.9292,132.5457 51.5088,130.2525 50.6457,130.0635 C46.8657,129.2382 46.4562,128.0601 45.1773,126.5859 C44.8361007,126.233174 44.3894325,126.000995 43.9047,125.9244 Z" id="Path" fill="#263238"></path>
                        <path d="M56.3787,31.2039 C57.7332,38.5812 56.3787,49.1085 53.4618,63.9639 L28.98,61.5636 C30.7755,52.9893 33.9633,46.4436 32.9868,28.8036 C32.9262609,27.7121413 33.317126,26.6437985 34.0677342,25.849107 C34.8183423,25.0544155 35.8626651,24.6032816 36.9558,24.6015 C36.9558,24.6015 45.6057,25.4016 51.3891,26.334 C53.9201349,26.7281566 55.9232122,28.6831802 56.3787,31.2039 Z" id="Path" fill="#4788D8"></path>
                        <path d="M56.4921,61.173 C57.519,62.2188 58.6593,63.063 59.4657,62.9559 C59.8921576,62.8783082 60.2230824,62.5398049 60.291,62.1117 C60.3909513,61.7532874 60.3361088,61.3693897 60.1398,61.0533 C59.1696,59.3334 54.7407,58.086 54.5517,58.0356 C54.443548,58.0059831 54.3283277,58.0460597 54.2619,58.1364 C54.1956558,58.2286384 54.1956558,58.3528616 54.2619,58.4451 C54.9232385,59.4185096 55.669559,60.3313819 56.4921,61.173 L56.4921,61.173 Z M59.346,60.9021 C59.4685531,61.0280397 59.5763491,61.1675404 59.6673,61.3179 C59.7853721,61.5053801 59.8217816,61.7329393 59.7681,61.9479 C59.6673,62.3196 59.4972,62.3826 59.3838,62.4015 C58.4829,62.5464 56.4354,60.5115 55.1565,58.7727 C56.2905,59.1633 58.4073,59.9508 59.346,60.9021 Z" id="Shape" fill="#4788D8"></path>
                        <path d="M54.2871,58.4892 C54.3149909,58.5151658 54.3469043,58.5364414 54.3816,58.5522 C55.7928,59.1003 59.4783,59.3082 60.2469,58.2498 C60.4296,57.9978 60.5493,57.582 60.0831,56.9898 C59.73838,56.5642129 59.2362235,56.2960931 58.6908,56.2464 C56.8008,56.0511 54.4131,57.9978 54.2808,58.0797 C54.2098396,58.1430922 54.1745193,58.2372799 54.1863,58.3317 C54.2031834,58.3931927 54.2383325,58.4481132 54.2871,58.4892 Z M59.5476,57.2292 L59.6547,57.3489 C59.9634,57.7332 59.85,57.8907 59.8122,57.9411 C59.346,58.5711 56.6622,58.6215 55.0683,58.212 C55.8117,57.6828 57.4056,56.6811 58.6404,56.8071 C58.9822176,56.8300127 59.3043134,56.9754032 59.5476,57.2166 L59.5476,57.2292 Z" id="Shape" fill="#4788D8"></path>
                        <path d="M56.8323,35.1729 L51.4017,31.9914 C52.8255635,35.5160227 54.6184484,38.8800576 56.7504,42.0273 C56.9171564,39.7462954 56.9445073,37.4572378 56.8323,35.1729 L56.8323,35.1729 Z" id="Path" fill="#000000" opacity="0.2"></path>
                        <path d="M55.0683,29.3013 C55.3896,29.6289 55.8495,30.0573 56.2653,30.4416 C56.6811,30.8259 57.1221,31.2165 57.5694,31.5945 C58.4703,32.3442 59.3649,33.1002 60.3099,33.7932 C62.1582702,35.2102207 64.1104613,36.4864104 66.15,37.611 C66.654,37.9071 67.1769,38.1528 67.6935,38.4174 L68.0589,38.6001 C68.0967,38.6001 68.1093,38.6442 68.1534,38.6568 C68.2630351,38.7068156 68.3800526,38.7387294 68.4999,38.7513 C69.3932028,38.8186847 70.2906548,38.6963048 71.1333,38.3922 C73.3230396,37.6450545 75.4333508,36.6827526 77.4333,35.5194 L77.5215,35.4753 C77.9367677,35.143311 78.4976048,35.0580831 78.9927496,35.2517209 C79.4878944,35.4453587 79.8421225,35.888444 79.9219996,36.4140709 C80.0018767,36.9396978 79.7952677,37.468011 79.38,37.8 C77.5420245,39.7994553 75.3722884,41.4661878 72.9666,42.7266 C71.5437183,43.4937376 69.964023,43.9247595 68.3487,43.9866 C67.8421007,43.9914867 67.336698,43.9365057 66.843,43.8228 C66.5736926,43.7595344 66.3085808,43.6795801 66.0492,43.5834 L65.5641,43.3881 C64.9341,43.1298 64.3041,42.8904 63.7182,42.6006 C61.3036322,41.4849599 58.9965556,40.1500609 56.826,38.6127 C55.7487,37.8504 54.6966,37.044 53.676,36.1809 C53.172,35.7462 52.6743,35.3052 52.1892,34.8516 C51.7041,34.398 51.2442,33.9507 50.7087,33.3711 C49.5639794,32.1881061 49.5950061,30.3011206 50.778,29.1564 C51.9609939,28.0116794 53.8479794,28.0427061 54.9927,29.2257 L55.0683,29.3013 Z" id="Path" fill="#B55B52"></path>
                        <path d="M80.2116,31.6071 L79.1217,32.2371 C77.9247923,32.9247003 76.92805,33.9127564 76.23,35.1036 L75.2094,36.8361 L76.8411,39.3561 C79.9092,39.5136 81.6543,36.7983 81.6543,36.7983 L82.9584,35.7714 C83.5645954,35.2997933 83.7071404,34.4417823 83.286,33.7995 L82.1898,32.1048 C81.7681084,31.4386361 80.8983333,31.2198073 80.2116,31.6071 Z" id="Path" fill="#B55B52"></path>
                        <path d="M36.6093,11.5605 C38.3607,16.2351 39.1293,19.0638 42.3927,20.7459 C47.2941,23.2659 52.7814,19.2276 52.5294,14.112 C52.3026,9.5067 49.4802,2.6397 44.0244,2.2176 C38.5686,1.7955 34.8579,6.8922 36.6093,11.5605 Z" id="Path" fill="#B55B52"></path>
                        <path d="M48.3273,11.8503 C48.3273,11.8503 50.3307,16.2603 48.0123,18.7488 C45.6939,21.2373 39.6459,21.42 38.178,20.16 C36.7101,18.9 30.9141,13.9293 33.138,7.2261 C35.3619,0.5229 42.3864,1.6254 42.3864,1.6254 C42.2037,-0.4032 47.5839,0.3087 49.4613,2.205 C51.3387,4.1013 47.1051,5.7519 47.1051,5.7519 C47.1051,5.7519 51.3261,7.7553 48.3273,11.8503 Z" id="Path" fill="#263238"></path>
                        <path d="M31.1409,3.0051 C29.3832,0.3276 26.3655,-0.3276 22.9509,1.2285 C19.2087,2.9169 18.0054,2.8161 14.6979,1.8585 C19.0575,7.8939 24.0219,10.2501 28.098,9.702 C29.59838,9.53710257 30.9007988,8.59368452 31.5252041,7.21947589 C32.1496093,5.84526726 32.0035647,4.24370444 31.1409,3.0051 Z" id="Path" fill="#263238"></path>
                        <path d="M31.3614,5.2605 C30.0195,3.4209 29.6793,2.7405 32.5521,2.4318 C35.4249,2.1231 35.2863,3.0618 34.5051,4.9077 C33.7239,6.7536 32.1804,6.3945 31.3614,5.2605 Z" id="Path" fill="#4788D8"></path>
                        <path d="M32.9364,9.6957 C32.4261,11.8629 32.1237,12.5811 29.7864,11.2581 C27.4491,9.9351 28.3059,9.2925 30.366,8.2593 C32.4261,7.2261 33.2514,8.3601 32.9364,9.6957 Z" id="Path" fill="#4788D8"></path>
                        <path d="M31.9347,8.6373 C30.6747,8.5995 31.0842,7.2765 31.2165,6.7473 C31.3488,6.2181 31.4055,5.4306 32.6844,5.4873 C33.9633,5.544 34.1208,6.1488 34.0956,6.678 C34.0704,7.2072 34.1397,8.7003 31.9347,8.6373 Z" id="Path" fill="#4788D8"></path>
                        <path d="M45.3159,11.2203 C45.8641647,12.2962429 46.7491017,13.1634812 47.8359,13.6899 C49.2849,14.3577 50.0346,13.2426 49.644,11.8377 C49.2975,10.5777 48.1194,8.6877 46.6515,8.6184 C45.1836,8.5491 44.6607,9.9036 45.3159,11.2203 Z" id="Path" fill="#B55B52"></path>
                        <path d="M30.1455,56.763 C20.8341,63.441 22.1445,80.1927 12.9402,86.8203 C2.7342,94.1661 15.1704,97.8138 27.4932,99.6912 C44.2701,102.249 51.5844,108.3663 53.1342,105.714 C57.2166,98.7084 56.2401,65.3184 54.5769,58.0419 C43.47,53.0271 30.1455,56.763 30.1455,56.763 Z" id="Path" fill="#4788D8"></path>
                        <path d="M55.5093,65.7972 C50.8158,66.0366 37.4031,64.2978 28.0665,58.5963 C26.5424355,60.276853 25.2980978,62.1912186 24.381,64.2663 C36.0549,70.7742 51.6285,71.4483 55.8243,71.4987 C55.7424,69.4638 55.6353,67.5423 55.5093,65.7972 Z" id="Path" fill="#FFFFFF"></path>
                        <path d="M56.007,79.0146 C50.967,79.3863 32.1426,77.2191 21.8358,70.8246 C21.0357,73.1745 20.2608,75.537 19.3158,77.7546 C33.2136,84.1428 51.5088,84.6846 55.9566,84.7413 C56.0133,82.8513 56.0196,80.9235 56.007,79.0146 Z" id="Path" fill="#FFFFFF"></path>
                        <path d="M12.9402,86.8266 C12.4062215,87.2056861 11.8950362,87.6158965 11.4093,88.0551 C24.9921,94.9851 49.6062,98.4123 54.9675,99.0864 C55.2573,97.1964 55.4778,94.9977 55.6353,92.6667 C49.6629,92.4777 30.5802,89.0253 16.9911,82.4103 C15.9338972,84.1265875 14.5590297,85.625471 12.9402,86.8266 Z" id="Path" fill="#FFFFFF"></path>
                    </g>
                </g>
            </g>
        </g>
    </g>
</svg>