<?xml version="1.0" encoding="UTF-8"?>
<svg width="18px" height="18px" viewBox="0 0 18 18" version="1.1" xmlns="http://www.w3.org/2000/svg" xmlns:xlink="http://www.w3.org/1999/xlink">
    <!-- Generator: Sketch 57.1 (83088) - https://sketch.com -->
    <title>Facebook Logo_active hover</title>
    <desc>Created with Sketch.</desc>
    <g id="Facebook-Logo_active-hover" stroke="none" stroke-width="1" fill="none" fill-rule="evenodd">
        <g id="Facebook-Logo">
            <rect id="Rectangle" x="0" y="0" width="18" height="18"></rect>
        </g>
        <path d="M9,2 C5.13425,2 2,5.13425 2,9 C2,12.86575 5.13425,16 9,16 C12.86575,16 16,12.86575 16,9 C16,5.13425 12.86575,2 9,2 Z M10.75,6.66666667 L9.9625,6.66666667 C9.64866667,6.66666667 9.58333333,6.79558333 9.58333333,7.1205 L9.58333333,7.83333333 L10.75,7.83333333 L10.6280833,9 L9.58333333,9 L9.58333333,13.0833333 L7.83333333,13.0833333 L7.83333333,9 L6.66666667,9 L6.66666667,7.83333333 L7.83333333,7.83333333 L7.83333333,6.487 C7.83333333,5.45508333 8.37641667,4.91666667 9.60025,4.91666667 L10.75,4.91666667 L10.75,6.66666667 Z" id="Shape-Copy" fill="#2A5297" fill-rule="nonzero"></path>
    </g>
</svg>