<svg width="106" height="68" viewBox="0 0 106 68" fill="none" xmlns="http://www.w3.org/2000/svg">
<path d="M5.79688 13L2.40625 4.14062H2.35156C2.41536 4.84245 2.44727 5.67643 2.44727 6.64258V13H1.37402V3.00586H3.12402L6.28906 11.25H6.34375L9.53613 3.00586H11.2725V13H10.1104V6.56055C10.1104 5.82227 10.1423 5.02018 10.2061 4.1543H10.1514L6.7334 13H5.79688ZM18.457 13L18.2314 11.9336H18.1768C17.8031 12.403 17.4294 12.722 17.0557 12.8906C16.6865 13.0547 16.224 13.1367 15.668 13.1367C14.9251 13.1367 14.3418 12.9453 13.918 12.5625C13.4987 12.1797 13.2891 11.6351 13.2891 10.9287C13.2891 9.41569 14.499 8.62272 16.9189 8.5498L18.1904 8.50879V8.04395C18.1904 7.45605 18.0628 7.02311 17.8076 6.74512C17.557 6.46257 17.1536 6.32129 16.5977 6.32129C15.9733 6.32129 15.2669 6.5127 14.4785 6.89551L14.1299 6.02734C14.499 5.82682 14.9023 5.6696 15.3398 5.55566C15.7819 5.44173 16.224 5.38477 16.666 5.38477C17.5592 5.38477 18.2201 5.58301 18.6484 5.97949C19.0814 6.37598 19.2979 7.01172 19.2979 7.88672V13H18.457ZM15.8936 12.2002C16.5999 12.2002 17.1536 12.0065 17.5547 11.6191C17.9603 11.2318 18.1631 10.6895 18.1631 9.99219V9.31543L17.0283 9.36328C16.126 9.39518 15.4743 9.53646 15.0732 9.78711C14.6768 10.0332 14.4785 10.4183 14.4785 10.9424C14.4785 11.3525 14.6016 11.6647 14.8477 11.8789C15.0983 12.0931 15.4469 12.2002 15.8936 12.2002ZM26.7422 11.9951H26.6807C26.1566 12.7562 25.3727 13.1367 24.3291 13.1367C23.3493 13.1367 22.5859 12.8018 22.0391 12.1318C21.4967 11.4619 21.2256 10.5094 21.2256 9.27441C21.2256 8.03939 21.499 7.08008 22.0459 6.39648C22.5928 5.71289 23.3538 5.37109 24.3291 5.37109C25.3454 5.37109 26.1247 5.74023 26.667 6.47852H26.7559L26.708 5.93848L26.6807 5.41211V2.36328H27.8154V13H26.8926L26.7422 11.9951ZM24.4727 12.1865C25.2474 12.1865 25.8079 11.9769 26.1543 11.5576C26.5052 11.1338 26.6807 10.4525 26.6807 9.51367V9.27441C26.6807 8.21257 26.5029 7.45605 26.1475 7.00488C25.7965 6.54915 25.2337 6.32129 24.459 6.32129C23.7936 6.32129 23.2832 6.58105 22.9277 7.10059C22.5768 7.61556 22.4014 8.34473 22.4014 9.28809C22.4014 10.2451 22.5768 10.9674 22.9277 11.4551C23.2786 11.9427 23.7936 12.1865 24.4727 12.1865ZM33.3936 13.1367C32.2861 13.1367 31.4111 12.7995 30.7686 12.125C30.1305 11.4505 29.8115 10.514 29.8115 9.31543C29.8115 8.10775 30.1077 7.14844 30.7002 6.4375C31.2972 5.72656 32.097 5.37109 33.0996 5.37109C34.0384 5.37109 34.7812 5.68099 35.3281 6.30078C35.875 6.91602 36.1484 7.72949 36.1484 8.74121V9.45898H30.9873C31.0101 10.3385 31.2311 11.0062 31.6504 11.4619C32.0742 11.9176 32.6689 12.1455 33.4346 12.1455C34.2412 12.1455 35.0387 11.9769 35.8271 11.6396V12.6514C35.4261 12.8245 35.0456 12.9476 34.6855 13.0205C34.3301 13.098 33.8994 13.1367 33.3936 13.1367ZM33.0859 6.32129C32.4844 6.32129 32.0036 6.51725 31.6436 6.90918C31.2881 7.30111 31.0785 7.84342 31.0146 8.53613H34.9316C34.9316 7.82064 34.7721 7.27376 34.4531 6.89551C34.1341 6.5127 33.6784 6.32129 33.0859 6.32129ZM41.8975 3.00586H44.7207C46.0469 3.00586 47.0062 3.2041 47.5986 3.60059C48.1911 3.99707 48.4873 4.6237 48.4873 5.48047C48.4873 6.07292 48.321 6.56283 47.9883 6.9502C47.6602 7.33301 47.1794 7.58138 46.5459 7.69531V7.76367C48.0635 8.02344 48.8223 8.82096 48.8223 10.1562C48.8223 11.0495 48.5192 11.7467 47.9131 12.248C47.3115 12.7493 46.4684 13 45.3838 13H41.8975V3.00586ZM43.0596 7.28516H44.9736C45.7939 7.28516 46.3841 7.15755 46.7441 6.90234C47.1042 6.64258 47.2842 6.20736 47.2842 5.59668C47.2842 5.03613 47.0837 4.63281 46.6826 4.38672C46.2816 4.13607 45.6436 4.01074 44.7686 4.01074H43.0596V7.28516ZM43.0596 8.26953V12.0088H45.1445C45.9512 12.0088 46.5573 11.8538 46.9629 11.5439C47.373 11.2295 47.5781 10.7396 47.5781 10.0742C47.5781 9.45443 47.3685 8.9987 46.9492 8.70703C46.5345 8.41536 45.901 8.26953 45.0488 8.26953H43.0596ZM49.6152 5.50781H50.832L52.4727 9.78027C52.8327 10.7555 53.056 11.4596 53.1426 11.8926H53.1973C53.2565 11.6602 53.3796 11.2637 53.5664 10.7031C53.7578 10.138 54.3776 8.40625 55.4258 5.50781H56.6426L53.4229 14.0391C53.1038 14.8822 52.7301 15.4792 52.3018 15.8301C51.8779 16.1855 51.3561 16.3633 50.7363 16.3633C50.39 16.3633 50.0482 16.3245 49.7109 16.2471V15.3379C49.9616 15.3926 50.2419 15.4199 50.5518 15.4199C51.3311 15.4199 51.887 14.9824 52.2197 14.1074L52.6367 13.041L49.6152 5.50781Z" fill="#646464"/>
<g clip-path="url(#clip0)">
<path d="M42.0892 58.3393C39.8314 61.7311 37.0355 64.1603 33.7013 65.6341C30.3745 67.1078 26.7039 67.8411 22.6893 67.8411C19.2653 67.8411 16.1554 67.2635 13.3744 66.1154C10.5933 64.9601 8.20104 63.3456 6.1975 61.2645C4.19398 59.1835 2.65394 56.7248 1.59236 53.8735C0.530788 51.0221 0 47.8747 0 44.416C0 41.0908 0.545739 38.0174 1.64469 35.203C2.74365 32.3888 4.29116 29.9374 6.2947 27.8564C8.30572 25.7753 10.6681 24.146 13.3818 22.961C16.0956 21.7761 19.1008 21.1836 22.3978 21.1836C25.8218 21.1836 28.8419 21.7761 31.4585 22.961C34.0751 24.146 36.273 25.7086 38.0522 27.6564C39.8314 29.6042 41.1697 31.8259 42.0742 34.3218C42.9789 36.8102 43.4349 39.3356 43.4349 41.8906V45.9194H5.83118C5.83118 47.1414 6.07043 48.6966 6.55635 50.5853C7.04229 52.4737 7.93191 54.3178 9.22525 56.1174C10.5186 57.9097 12.2455 59.4502 14.4135 60.7313C16.5815 62.0125 19.3775 62.6569 22.8015 62.6569C25.7769 62.6569 28.6476 61.9533 31.4286 60.5463C34.2097 59.1391 36.3403 57.2209 37.828 54.7844L42.0892 58.3393ZM37.6037 40.7353C37.6037 38.7579 37.2 36.9064 36.3926 35.1809C35.5853 33.4553 34.4862 31.937 33.1033 30.6336C31.7127 29.3227 30.068 28.2859 28.1617 27.5231C26.2553 26.7603 24.2369 26.3678 22.1061 26.3678C18.944 26.3678 16.3124 27.0047 14.2117 28.2859C12.1109 29.5597 10.4513 31.0335 9.22525 32.6925C7.9992 34.3514 7.12453 35.9658 6.60868 37.5285C6.09284 39.0911 5.83118 40.1577 5.83118 40.7353H37.6037Z" fill="#2B3841"/>
<path d="M55.665 60.2119H48.0171V67.7882H55.665V60.2119Z" fill="#D81F27"/>
<path d="M72.3435 26.1008C72.3435 26.3548 72.3133 26.633 72.2529 26.9354H65.2391C65.2753 27.6975 65.4685 28.2479 65.8189 28.5866C66.1694 28.9132 66.6163 29.0765 67.1601 29.0765C67.6193 29.0765 67.9998 28.9616 68.3019 28.7317C68.604 28.5019 68.8033 28.2056 68.8999 27.8427H72.1803C72.0474 28.5563 71.7575 29.1974 71.3104 29.766C70.8634 30.3224 70.2954 30.7639 69.6068 31.0905C68.9181 31.405 68.1509 31.5623 67.305 31.5623C66.3142 31.5623 65.4323 31.3567 64.6591 30.9454C63.8978 30.522 63.2998 29.9172 62.8648 29.1309C62.4299 28.3447 62.2124 27.4253 62.2124 26.3729C62.2124 25.3085 62.4237 24.3891 62.8466 23.615C63.2816 22.8287 63.8858 22.2299 64.6591 21.8187C65.4323 21.3953 66.3142 21.1836 67.305 21.1836C68.3079 21.1836 69.1899 21.3892 69.9511 21.8005C70.7124 22.2118 71.2984 22.7924 71.7091 23.5424C72.1321 24.2803 72.3435 25.1331 72.3435 26.1008ZM69.208 25.629C69.2201 24.9637 69.039 24.4678 68.6643 24.1412C68.3019 23.8025 67.8488 23.6331 67.305 23.6331C66.7372 23.6331 66.266 23.8025 65.8915 24.1412C65.517 24.4799 65.3055 24.9758 65.2571 25.629H69.208Z" fill="#2B3841"/>
<path d="M102.212 21.8193C103.372 21.8193 104.29 22.2064 104.967 22.9806C105.656 23.7547 106 24.8192 106 26.174V32.0529H102.901V26.5369C102.901 25.8595 102.72 25.3333 102.357 24.9583C102.007 24.5712 101.536 24.3777 100.944 24.3777C100.315 24.3777 99.814 24.5773 99.4393 24.9765C99.077 25.3757 98.8957 25.9442 98.8957 26.6821V32.0529H95.7966V21.9282H98.8957V23.7789C99.1856 23.1741 99.6146 22.6963 100.182 22.3455C100.762 21.9947 101.439 21.8193 102.212 21.8193Z" fill="#2B3841"/>
<path d="M66.5062 39.2017C67.2794 39.2017 67.9439 39.3772 68.4997 39.7279C69.0555 40.0787 69.4604 40.5566 69.7141 41.1613V36.0264H72.8132V49.4533H69.7141V47.6208C69.4604 48.2257 69.0555 48.7034 68.4997 49.0543C67.9439 49.405 67.2794 49.5805 66.5062 49.5805C65.6725 49.5805 64.9234 49.3748 64.2588 48.9636C63.6064 48.5401 63.0868 47.9352 62.7002 47.1491C62.3257 46.3629 62.1384 45.4435 62.1384 44.3911C62.1384 43.3265 62.3257 42.4073 62.7002 41.6332C63.0868 40.8468 63.6064 40.2481 64.2588 39.8369C64.9234 39.4134 65.6725 39.2017 66.5062 39.2017ZM67.5029 41.9234C66.8385 41.9234 66.3007 42.1411 65.8899 42.5766C65.4912 43.0121 65.2919 43.6169 65.2919 44.3911C65.2919 45.1653 65.4912 45.77 65.8899 46.2055C66.3007 46.6411 66.8385 46.8588 67.5029 46.8588C68.1553 46.8588 68.6871 46.6349 69.0979 46.1874C69.5208 45.7398 69.7321 45.141 69.7321 44.3911C69.7321 43.629 69.5208 43.0303 69.0979 42.5948C68.6871 42.1472 68.1553 41.9234 67.5029 41.9234Z" fill="#2B3841"/>
<path d="M89.6624 44.1193C89.6624 44.3733 89.6322 44.6515 89.5717 44.954H82.5579C82.5941 45.7161 82.7874 46.2664 83.1377 46.6051C83.4882 46.9318 83.9352 47.095 84.479 47.095C84.9381 47.095 85.3187 46.9802 85.6208 46.7503C85.9229 46.5205 86.1222 46.2241 86.2188 45.8612H89.4991C89.3663 46.5748 89.0764 47.216 88.6292 47.7846C88.1823 48.3411 87.6143 48.7825 86.9256 49.109C86.237 49.4235 85.4697 49.5809 84.624 49.5809C83.6331 49.5809 82.7512 49.3752 81.9779 48.964C81.2166 48.5406 80.6186 47.9357 80.1837 47.1495C79.7487 46.3633 79.5312 45.4439 79.5312 44.3915C79.5312 43.3269 79.7427 42.4078 80.1655 41.6336C80.6004 40.8472 81.2046 40.2485 81.9779 39.8373C82.7512 39.4139 83.6331 39.2021 84.624 39.2021C85.6268 39.2021 86.5089 39.4079 87.27 39.8191C88.0312 40.2303 88.6172 40.811 89.028 41.5609C89.4509 42.2988 89.6624 43.1517 89.6624 44.1193ZM86.5269 43.6476C86.5391 42.9822 86.3578 42.4863 85.9833 42.1598C85.6208 41.8211 85.1676 41.6516 84.624 41.6516C84.056 41.6516 83.5849 41.8211 83.2103 42.1598C82.8358 42.4985 82.6243 42.9944 82.5759 43.6476H86.5269Z" fill="#2B3841"/>
<path d="M100.653 39.2021C101.934 39.2021 102.955 39.5226 103.716 40.1638C104.489 40.8049 104.973 41.6516 105.166 42.704H102.266C102.181 42.2928 101.988 41.9723 101.686 41.7424C101.396 41.5004 101.028 41.3794 100.581 41.3794C100.23 41.3794 99.9644 41.4581 99.7832 41.6154C99.6019 41.7606 99.5113 41.9723 99.5113 42.2505C99.5113 42.565 99.6743 42.8008 100.001 42.958C100.339 43.1154 100.865 43.2727 101.577 43.4299C102.351 43.6114 102.985 43.7988 103.48 43.9923C103.976 44.1738 104.405 44.4763 104.767 44.8995C105.13 45.3229 105.311 45.8914 105.311 46.6051C105.311 47.1857 105.154 47.6999 104.84 48.1474C104.525 48.595 104.072 48.9458 103.48 49.1998C102.888 49.4537 102.188 49.5809 101.378 49.5809C100.013 49.5809 98.9192 49.2785 98.0976 48.6736C97.2761 48.0689 96.7745 47.204 96.5933 46.0789H99.5837C99.6321 46.5143 99.8134 46.847 100.127 47.077C100.454 47.3067 100.871 47.4217 101.378 47.4217C101.728 47.4217 101.994 47.343 102.175 47.1857C102.357 47.0165 102.447 46.7987 102.447 46.5326C102.447 46.1818 102.278 45.9338 101.94 45.7886C101.614 45.6314 101.076 45.4681 100.327 45.2987C99.5777 45.1415 98.9615 44.9722 98.4781 44.7907C97.9949 44.6093 97.578 44.3188 97.2277 43.9198C96.8773 43.5084 96.7021 42.952 96.7021 42.2505C96.7021 41.3432 97.0464 40.6115 97.7351 40.055C98.4239 39.4864 99.3964 39.2021 100.653 39.2021Z" fill="#2B3841"/>
<path d="M72.3396 62.3908C72.3396 62.6448 72.3094 62.923 72.249 63.2255H65.2352C65.2714 63.9874 65.4648 64.5378 65.8151 64.8766C66.1655 65.2032 66.6126 65.3665 67.1562 65.3665C67.6154 65.3665 67.9959 65.2515 68.298 65.0218C68.6001 64.7918 68.7994 64.4956 68.8962 64.1326H72.1766C72.0435 64.8463 71.7536 65.4875 71.3067 66.0559C70.8595 66.6124 70.2917 67.0538 69.6029 67.3805C68.9142 67.695 68.147 67.8522 67.3013 67.8522C66.3105 67.8522 65.4284 67.6467 64.6552 67.2353C63.8941 66.812 63.2959 66.2071 62.8609 65.421C62.426 64.6346 62.2085 63.7154 62.2085 62.663C62.2085 61.5984 62.42 60.6791 62.8429 59.9049C63.2779 59.1187 63.8819 58.52 64.6552 58.1086C65.4284 57.6853 66.3105 57.4736 67.3013 57.4736C68.304 57.4736 69.1861 57.6792 69.9474 58.0906C70.7085 58.5018 71.2945 59.0825 71.7054 59.8324C72.1282 60.5703 72.3396 61.423 72.3396 62.3908ZM69.2043 61.9189C69.2163 61.2537 69.0351 60.7578 68.6605 60.4311C68.298 60.0924 67.845 59.9231 67.3013 59.9231C66.7335 59.9231 66.2621 60.0924 65.8876 60.4311C65.513 60.7698 65.3016 61.2657 65.2533 61.9189H69.2043Z" fill="#2B3841"/>
<path d="M102.212 57.6182C103.372 57.6182 104.29 58.0053 104.967 58.7795C105.656 59.5537 106 60.6181 106 61.9729V67.8517H102.901V62.3358C102.901 61.6584 102.72 61.1322 102.357 60.7573C102.007 60.3701 101.536 60.1766 100.944 60.1766C100.315 60.1766 99.814 60.3763 99.4393 60.7755C99.077 61.1745 98.8957 61.7431 98.8957 62.4811V67.8517H95.7966V57.7271H98.8957V59.5779C99.1856 58.973 99.6146 58.4953 100.182 58.1444C100.762 57.7936 101.439 57.6182 102.212 57.6182Z" fill="#2B3841"/>
<path d="M82.8511 21.832H86.7348V32.2004H82.8511V21.832Z" fill="#2B3841"/>
<path d="M82.8511 57.4736H86.7348V67.842H82.8511V57.4736Z" fill="#2B3841"/>
</g>
<defs>
<clipPath id="clip0">
<rect width="106" height="52" fill="white" transform="translate(0 16)"/>
</clipPath>
</defs>
</svg>
