<?xml version="1.0" encoding="UTF-8"?> <svg xmlns="http://www.w3.org/2000/svg" width="170" height="40" viewBox="0 0 170 40" fill="none"><path d="M0.079953 16.7566C3.29806 21.1599 6.51617 25.5831 9.75426 30.0263C12.9924 25.5831 16.2105 21.1599 19.4286 16.7566C19.4486 16.7566 19.4685 16.7765 19.4885 16.7765C19.4885 16.8761 19.4885 16.9758 19.4885 17.0754C19.4885 23.6106 19.4885 30.1458 19.4885 36.6611C19.4885 36.9201 19.4486 37.0197 19.1487 37.0197C18.0294 36.9998 16.93 36.9998 15.8107 37.0197C15.5509 37.0197 15.4909 36.96 15.4909 36.701C15.4909 34.1705 15.4909 31.6401 15.4909 29.1097C15.4909 29.03 15.4909 28.9503 15.4909 28.8706C15.4709 28.8706 15.4509 28.8507 15.4309 28.8507C13.552 31.4808 11.6531 34.0709 9.75426 36.701C7.85538 34.0709 5.9565 31.4608 4.05761 28.8706C4.03763 28.8706 4.01764 28.8906 3.99765 28.8906C3.99765 29.0101 3.99765 29.1097 3.99765 29.2293C3.99765 31.7198 3.99765 34.2303 3.99765 36.7209C3.99765 36.96 3.93768 37.0397 3.67784 37.0397C2.5585 37.0197 1.43915 37.0197 0.299824 37.0397C0.0199882 37.0397 0 36.94 0 36.7209C0 31.9789 0 27.2368 0 22.5148C0 20.6219 0 18.7092 0 16.8164C0.0399765 16.7765 0.0599647 16.7765 0.079953 16.7566Z" fill="#08749C"></path><path d="M47.0523 26.0016C47.0523 26.2208 47.0523 26.3403 47.0523 26.4598C47.0523 29.8669 47.0523 33.274 47.0523 36.6612C47.0523 36.9401 46.9924 37.0397 46.6925 37.0397C45.5932 37.0198 44.4938 37.0198 43.3945 37.0397C43.1546 37.0397 43.0547 36.9999 43.0547 36.7209C43.0547 30.1459 43.0547 23.5708 43.0547 16.9957C43.0547 16.936 43.0547 16.8762 43.0547 16.7168C47.0723 20.5423 51.03 24.308 55.0476 28.1335C55.0476 27.9542 55.0476 27.8546 55.0476 27.7549C55.0476 24.3279 55.0476 20.881 55.0476 17.454C55.0476 17.1551 55.1276 17.0954 55.4074 17.1153C56.5068 17.1352 57.5861 17.1352 58.6855 17.1153C58.9853 17.1153 59.0653 17.1751 59.0453 17.4739C59.0453 23.1524 59.0453 28.8309 59.0453 34.5093C59.0453 35.4059 59.0453 36.3025 59.0453 37.1991C59.0453 37.2589 59.0653 37.3187 58.9853 37.3984C55.0476 33.6127 51.09 29.847 47.0523 26.0016Z" fill="#08749C"></path><path d="M155.349 27.0772C155.349 23.8892 155.349 20.7213 155.349 17.5333C155.349 17.2544 155.389 17.1548 155.708 17.1548C156.808 17.1747 157.907 17.1747 159.006 17.1548C159.266 17.1548 159.346 17.2146 159.346 17.4935C159.326 19.9044 159.346 22.3152 159.326 24.7261C159.326 25.0449 159.406 25.1046 159.706 25.1046C161.705 25.0847 163.684 25.0847 165.683 25.1046C165.922 25.1046 166.002 25.0449 166.002 24.7858C165.982 22.3551 166.002 19.9243 165.982 17.4935C165.982 17.2345 166.042 17.1548 166.322 17.1548C167.441 17.1747 168.561 17.1747 169.7 17.1548C169.92 17.1548 170 17.1946 170 17.4337C170 23.8693 170 30.3049 170 36.7405C170 36.9796 169.94 37.0195 169.72 37.0195C168.601 36.9995 167.481 36.9995 166.342 37.0195C166.082 37.0195 166.002 36.9597 166.002 36.6807C166.022 34.25 166.002 31.8391 166.022 29.4083C166.022 29.1094 165.942 29.0497 165.643 29.0497C163.644 29.0696 161.665 29.0696 159.666 29.0497C159.406 29.0497 159.326 29.1294 159.326 29.3884C159.346 31.8192 159.326 34.23 159.346 36.6608C159.346 36.9597 159.246 37.0195 158.966 37.0195C157.867 36.9995 156.788 36.9995 155.688 37.0195C155.409 37.0195 155.329 36.9597 155.329 36.6807C155.349 33.4928 155.349 30.285 155.349 27.0772Z" fill="#08749C"></path><path d="M147.813 37.1591C144.375 37.1591 141.816 35.2265 141.077 32.4968C140.937 31.9589 140.937 31.9589 141.457 31.8393C142.536 31.6201 143.615 31.381 144.695 31.1619C144.795 31.142 144.915 31.0623 144.955 31.2615C145.354 32.9152 147.113 33.6126 148.552 32.716C148.692 32.6164 148.832 32.5167 148.952 32.3972C149.872 31.5404 149.772 30.2852 148.712 29.5878C148.033 29.1495 147.273 28.9503 146.494 28.751C145.194 28.3924 144.015 27.8345 143.016 26.918C140.557 24.6864 140.737 21.379 142.556 19.2072C144.175 17.2945 146.274 16.5772 148.712 17.1749C151.131 17.7727 152.61 19.3666 153.21 21.7775C153.27 22.0564 153.25 22.176 152.91 22.2557C151.811 22.4549 150.711 22.694 149.612 22.953C149.332 23.0128 149.292 22.9331 149.252 22.694C149.132 21.9568 148.692 21.4388 148.013 21.1399C147.093 20.7613 146.034 21.1399 145.514 22.0166C145.015 22.8932 145.214 23.9094 146.054 24.547C146.614 24.9654 147.273 25.2045 147.933 25.4037C149.012 25.7225 150.092 26.0214 151.031 26.659C152.31 27.5157 153.25 28.6315 153.53 30.1856C153.829 31.8792 153.37 33.3934 152.31 34.7084C151.031 36.3223 149.312 37.1193 147.813 37.1591Z" fill="#08749C"></path><path d="M118.271 27.0376C118.271 23.8497 118.271 20.6618 118.271 17.4739C118.271 17.175 118.35 17.1152 118.65 17.1152C122.388 17.1152 126.146 17.1152 129.884 17.1152C130.184 17.1152 130.263 17.1949 130.243 17.4739C130.223 18.5896 130.223 19.6855 130.243 20.8013C130.243 21.0403 130.164 21.1001 129.944 21.1001C127.505 21.1001 125.087 21.1001 122.648 21.0802C122.308 21.0802 122.248 21.1798 122.248 21.4986C122.268 22.5745 122.268 23.6505 122.248 24.7264C122.248 25.0252 122.308 25.1249 122.628 25.1249C124.387 25.1049 126.146 25.1249 127.885 25.1049C128.165 25.1049 128.245 25.1647 128.245 25.4636C128.225 26.5793 128.225 27.6951 128.245 28.8308C128.245 29.05 128.185 29.1097 127.965 29.1097C126.186 29.1097 124.387 29.1097 122.608 29.0898C122.308 29.0898 122.268 29.1695 122.268 29.4485C122.288 31.8593 122.268 34.2702 122.288 36.681C122.288 36.96 122.228 37.0596 121.928 37.0596C120.829 37.0397 119.75 37.0397 118.65 37.0596C118.35 37.0596 118.291 36.96 118.291 36.681C118.271 33.4533 118.271 30.2454 118.271 27.0376Z" fill="#08749C"></path><path d="M76.1352 29.1298C76.1352 31.6402 76.1352 34.1707 76.1352 36.6811C76.1352 36.9401 76.0953 37.0398 75.7955 37.0398C74.6961 37.0198 73.5967 37.0198 72.4974 37.0398C72.2176 37.0398 72.1376 36.9601 72.1376 36.6811C72.1376 31.6402 72.1376 26.5794 72.1376 21.5386C72.1376 21.1201 72.1376 21.1201 71.7179 21.1201C70.3587 21.1201 68.9994 21.1201 67.6402 21.1201C67.3204 21.1201 67.2205 21.0404 67.2405 20.7017C67.2605 19.6059 67.2605 18.53 67.2405 17.4341C67.2405 17.215 67.3005 17.1353 67.5203 17.1353C71.9177 17.1353 76.3151 17.1353 80.7126 17.1353C80.9324 17.1353 80.9924 17.195 80.9924 17.4341C80.9724 18.5499 80.9724 19.6657 80.9924 20.8014C80.9924 21.0604 80.8925 21.1201 80.6526 21.1201C79.2534 21.1201 77.8542 21.1201 76.4551 21.1002C76.1752 21.1002 76.0953 21.16 76.0953 21.4589C76.1353 24.0291 76.1352 26.5794 76.1352 29.1298Z" fill="#08749C"></path><path d="M65.5016 27.0972C65.5016 30.2851 65.5016 33.4531 65.5016 36.641C65.5016 36.9398 65.4416 37.0395 65.1218 37.0395C64.0024 37.0195 62.9031 37.0195 61.7837 37.0395C61.5639 37.0395 61.5039 36.9797 61.5039 36.7605C61.5039 30.3449 61.5039 23.9093 61.5039 17.4936C61.5039 17.2346 61.5839 17.1748 61.8237 17.1748C62.9431 17.1947 64.0424 17.1947 65.1618 17.1748C65.4416 17.1748 65.5016 17.2545 65.5016 17.5135C65.5016 20.7014 65.5016 23.9093 65.5016 27.0972Z" fill="#08749C"></path><path d="M136.14 0C140.597 0.0398489 144.915 0.836827 148.972 2.7695C149.172 2.86912 149.372 2.94882 149.552 3.10821C149.892 3.38716 149.872 3.76572 149.512 4.00481C149.052 4.30368 148.573 4.30368 148.073 4.08451C146.954 3.56647 145.834 3.06836 144.655 2.70972C142.676 2.09207 140.657 1.7135 138.598 1.53418C134.981 1.23532 131.423 1.57403 127.945 2.59018C126.685 2.94882 125.466 3.427 124.287 4.02474C123.887 4.22398 123.467 4.34353 123.028 4.18413C122.748 4.08451 122.488 3.96496 122.428 3.62625C122.368 3.28753 122.608 3.08829 122.868 2.94882C124.047 2.31124 125.326 1.85297 126.606 1.43456C129.084 0.637582 131.623 0.199244 134.221 0.0597733C134.821 0.0398489 135.48 0 136.14 0Z" fill="#08749C"></path><path d="M135.92 2.84937C139.818 2.88921 143.416 3.56664 146.794 5.2403C147.014 5.33992 147.213 5.43954 147.393 5.59894C147.733 5.8978 147.713 6.29629 147.333 6.53539C146.814 6.8741 146.294 6.7944 145.774 6.53539C145.195 6.23652 144.635 5.95758 144.035 5.73841C142.036 4.96136 139.938 4.52302 137.799 4.36362C134.661 4.14445 131.603 4.48317 128.644 5.53916C127.885 5.81811 127.145 6.1369 126.406 6.51546C126.006 6.71471 125.566 6.85418 125.106 6.71471C125.006 6.69478 124.927 6.65493 124.847 6.59516C124.407 6.33614 124.367 5.83803 124.807 5.55909C125.346 5.22037 125.946 4.96136 126.526 4.72226C129.244 3.60649 132.082 2.98884 135.041 2.90914C135.38 2.86929 135.72 2.84937 135.92 2.84937Z" fill="#08749C"></path><path d="M136.08 5.71829C139.018 5.73822 141.836 6.31603 144.475 7.65096C144.735 7.79043 144.995 7.90998 145.214 8.10922C145.534 8.36824 145.534 8.68703 145.234 8.94605C144.775 9.34454 144.255 9.30469 143.735 9.0656C143.156 8.80658 142.616 8.48779 142.036 8.2487C139.878 7.43179 137.639 7.05323 135.32 7.17278C132.922 7.29232 130.663 7.87013 128.544 9.02575C128.184 9.22499 127.785 9.28477 127.365 9.16522C127.065 9.08552 126.805 8.9062 126.745 8.58741C126.685 8.26862 126.905 8.06938 127.165 7.9299C128.464 7.17278 129.863 6.65474 131.323 6.2961C132.862 5.91754 134.461 5.69837 136.08 5.71829Z" fill="#08749C"></path><path d="M136.14 8.58748C138.299 8.54763 140.277 9.06566 142.176 10.042C142.456 10.1814 142.736 10.3408 142.976 10.56C143.336 10.8987 143.296 11.2972 142.876 11.5363C142.356 11.8352 141.837 11.7953 141.357 11.4765C139.678 10.3607 137.779 9.96226 135.8 10.0021C134.081 10.042 132.462 10.4205 130.983 11.3769C130.543 11.6558 130.083 11.8152 129.564 11.6558C129.264 11.5562 129.024 11.4167 128.964 11.098C128.904 10.7792 129.124 10.5799 129.364 10.4205C130.563 9.62355 131.902 9.12544 133.322 8.84649C134.261 8.66717 135.2 8.56755 136.14 8.58748Z" fill="#08749C"></path><path d="M139.858 14.3655C139.438 14.3655 139.078 14.246 138.858 13.967C137.919 12.8114 135.52 12.4926 133.981 13.4091C133.701 13.5685 133.482 13.8076 133.242 14.0268C132.822 14.4253 132.322 14.4651 131.803 14.2858C131.243 14.0866 131.123 13.6283 131.523 13.17C131.982 12.6321 132.562 12.2535 133.222 11.9945C135.281 11.2174 137.319 11.1975 139.318 12.1738C139.758 12.393 140.158 12.6919 140.497 13.0306C140.717 13.2298 140.917 13.449 140.817 13.7877C140.717 14.1065 140.438 14.226 140.138 14.3057C140.038 14.3456 139.918 14.3655 139.858 14.3655Z" fill="#08749C"></path><path d="M90.1869 16.9957C84.5902 17.0156 80.0928 21.4787 80.0728 27.0974C80.0528 32.6762 84.4902 37.0994 90.0869 37.1791C95.7036 37.2389 100.241 32.5567 100.261 27.197C100.301 21.7576 95.7436 16.9757 90.1869 16.9957ZM96.2033 27.1173C96.1833 30.4845 93.5049 33.1345 90.1269 33.1345C86.7289 33.1345 84.1104 30.4447 84.0905 27.0177C84.0705 23.9692 86.7089 20.9606 90.2668 21.0204C93.4849 21.0603 96.3233 23.8895 96.2033 27.1173Z" fill="#08749C"></path><path d="M31.2614 16.9758C25.6847 16.9958 21.1274 21.7178 21.2073 27.1771C21.2873 32.7361 25.6847 37.1593 31.3014 37.1593C36.7582 37.239 41.4154 32.6564 41.3955 27.0974C41.3955 21.5983 36.7782 16.9758 31.2614 16.9758ZM31.2414 33.1346C27.8834 33.1146 25.205 30.4248 25.225 27.0775C25.225 23.7701 28.0233 20.9607 31.3813 21.0205C34.6594 21.0803 37.3578 23.8099 37.3378 27.1373C37.3179 30.4846 34.6194 33.1346 31.2414 33.1346Z" fill="#08749C"></path><path d="M116.351 36.7408C114.932 34.5292 113.513 32.2977 112.074 30.0861C111.934 29.8669 111.954 29.8071 112.194 29.7075C112.834 29.4485 113.393 29.0699 113.853 28.5519C115.132 27.0775 115.672 25.364 115.552 23.4313C115.492 22.5347 115.392 21.658 114.932 20.881C113.633 18.6295 111.654 17.3344 109.056 17.195C106.777 17.0754 104.478 17.175 102.18 17.1551C101.94 17.1551 101.94 17.2547 101.94 17.4341C101.94 23.8697 101.94 30.3052 101.94 36.7408C101.94 36.96 102 37.0198 102.22 37.0198C103.319 36.9999 104.398 37.0198 105.498 37.0198C105.998 37.0198 105.938 37.0796 105.938 36.6014C105.938 33.9514 105.938 31.3015 105.938 28.6714C105.938 28.5718 105.898 28.4523 105.998 28.3327C106.137 28.5519 106.257 28.7312 106.377 28.9105C108.076 31.5406 109.775 34.1507 111.474 36.7807C111.554 36.9002 111.614 37.0397 111.794 37.0397C113.353 37.0397 114.892 37.0397 116.491 37.0397C116.451 36.9002 116.411 36.8205 116.351 36.7408ZM109.356 26.5595C108.816 26.679 108.276 26.5993 107.717 26.6192C107.237 26.6192 106.757 26.5993 106.277 26.6192C105.998 26.6391 105.938 26.5395 105.958 26.2805C105.978 25.4835 105.958 24.6866 105.958 23.8896C105.958 23.0727 105.958 22.2558 105.958 21.4189C105.958 21.2994 105.898 21.14 106.117 21.14C107.157 21.1599 108.196 21.0404 109.216 21.2396C110.595 21.4986 111.414 22.4749 111.454 23.8099C111.494 25.085 110.595 26.2606 109.356 26.5595Z" fill="#08749C"></path><path d="M139.058 39.1715C138.638 38.4742 138.179 37.8366 137.699 37.199C136.86 36.0434 136.54 34.7682 136.78 33.3735C136.959 32.198 137.379 31.1021 137.779 30.0063C138.399 28.3127 138.818 26.5594 138.918 24.7462C138.998 23.1324 138.958 21.5185 138.718 19.9245C138.519 18.5497 138.179 17.2148 137.519 15.9795C137.239 15.4615 136.899 15.0032 136.46 14.6246C136.16 14.3656 136.18 14.3656 135.94 14.6645C135.86 14.7641 135.82 14.9235 135.66 14.9235C135.6 14.6645 135.78 14.5449 135.88 14.3855C135.94 14.3058 135.96 14.2261 135.9 14.1464C135.82 14.0468 135.74 14.1464 135.68 14.1863C135.56 14.266 135.46 14.3656 135.36 14.4652C134.601 15.2224 134.121 16.1389 133.761 17.1351C133.222 18.6494 133.002 20.2035 132.902 21.7974C132.782 23.8895 132.862 25.9816 133.222 28.0338C133.541 29.8668 134.081 31.66 134.581 33.4532C134.821 34.3498 134.921 35.2265 134.721 36.143C134.581 36.8005 134.301 37.4182 134.001 38.0159C133.721 38.5738 133.462 39.1317 133.282 39.7294C133.262 39.8091 133.182 39.8888 133.262 39.9685C133.322 40.0283 133.422 39.9884 133.501 39.9685C133.741 39.8888 133.981 39.7693 134.181 39.6099C134.561 39.311 134.961 39.0121 135.34 38.6934C135.84 38.2949 136.32 38.255 136.86 38.5937C137.419 38.9324 137.979 39.2712 138.579 39.5103C138.798 39.59 139.018 39.6896 139.258 39.6497C139.258 39.4704 139.138 39.3309 139.058 39.1715ZM136.42 15.7802C136.28 15.7603 136.14 15.7404 136.14 15.5611C136.14 15.4017 136.28 15.3618 136.42 15.3618C136.56 15.3618 136.72 15.4017 136.72 15.5611C136.72 15.7603 136.56 15.7802 136.42 15.7802Z" fill="#08749C"></path></svg> 