<?xml version="1.0" encoding="UTF-8"?>
<svg width="359px" height="240px" viewBox="0 0 359 240" version="1.1" xmlns="http://www.w3.org/2000/svg" xmlns:xlink="http://www.w3.org/1999/xlink">
    <!-- Generator: Sketch 57.1 (83088) - https://sketch.com -->
    <title>Group 265</title>
    <desc>Created with Sketch.</desc>
    <defs>
        <polygon id="path-1" points="0.894350877 53.3448261 0.894350877 55.9717261 58.5432427 89.3345087 116.284509 33.6226435 116.284509 30.9957435 58.635617 0.260908696"></polygon>
        <linearGradient x1="1.82472327%" y1="49.9998634%" x2="49.0735936%" y2="49.9998634%" id="linearGradient-3">
            <stop stop-color="#DDE1E4" offset="0%"></stop>
            <stop stop-color="#BFC3CA" offset="100%"></stop>
        </linearGradient>
        <polygon id="path-4" points="0.857611111 53.5271478 0.857611111 56.1540478 58.5054532 89.5168304 116.247769 33.8049652 116.247769 31.1780652 58.5988772 0.442182609"></polygon>
        <linearGradient x1="1.82436248%" y1="50.000393%" x2="49.0732328%" y2="50.000393%" id="linearGradient-6">
            <stop stop-color="#DDE1E4" offset="0%"></stop>
            <stop stop-color="#BFC3CA" offset="100%"></stop>
        </linearGradient>
        <polygon id="path-7" points="0.28027193 53.3972174 0.28027193 56.0251652 57.9291637 89.3879478 115.67043 33.6760826 115.67043 31.0491826 58.021538 0.3133"></polygon>
        <linearGradient x1="1.82475538%" y1="49.9998981%" x2="49.0736257%" y2="49.9998981%" id="linearGradient-9">
            <stop stop-color="#DDE1E4" offset="0%"></stop>
            <stop stop-color="#BFC3CA" offset="100%"></stop>
        </linearGradient>
        <polygon id="path-10" points="0.243532164 53.580587 0.243532164 56.207487 57.892424 89.5692217 115.63369 33.8584043 115.63369 31.2315043 57.9847982 0.495621739"></polygon>
        <linearGradient x1="1.82439805%" y1="50.0004277%" x2="49.0732684%" y2="50.0004277%" id="linearGradient-12">
            <stop stop-color="#DDE1E4" offset="0%"></stop>
            <stop stop-color="#BFC3CA" offset="100%"></stop>
        </linearGradient>
    </defs>
    <g id="Webdesign-quick-fix" stroke="none" stroke-width="1" fill="none" fill-rule="evenodd">
        <g id="Labs---UI" transform="translate(-767.000000, -1785.000000)">
            <g id="Group-265" transform="translate(767.000000, 1784.000000)">
                <g id="Group-264">
                    <g id="Group-9" transform="translate(49.336257, 5.956891)">
                        <path d="M119.561591,233.372769 C49.1891933,231.967634 53.3691289,192.700352 25.9728102,152.70483 C-1.42455819,112.710356 -6.31199678,95.3751213 10.1054301,54.54553 C26.5207576,13.7169865 70.073126,-15.0091657 117.368752,9.09816913 C164.663328,33.2044561 194.912752,18.3127517 224.224787,38.3304213 C253.536822,58.3501865 261.610123,91.7286865 234.65888,127.108534 C207.708687,162.488382 206.340918,235.109017 119.561591,233.372769" id="Fill-1" fill="#CBDBF2"></path>
                        <polygon id="Stroke-3" stroke="#000000" stroke-width="0.5" points="98.376707 102.322942 43.0361222 155.718063 43.0518678 160.965577 44.7828357 162.021785 98.452286 129.037268"></polygon>
                        <path d="M100.108095,103.378941 L44.7675099,156.774063 L44.7832556,162.021576 L100.183674,130.092219 L100.108095,103.378941 Z M97.4943228,109.555876 L97.5489076,128.57811 L48.4519836,156.873606 L97.4943228,109.555876 Z" id="Fill-5" fill="#FFFFFF"></path>
                        <path d="M100.108095,103.378941 L44.7675099,156.774063 L44.7832556,162.021576 L100.183674,130.092219 L100.108095,103.378941 Z M97.4943228,109.555876 L97.5489076,128.57811 L48.4519836,156.873606 L97.4943228,109.555876 L97.4943228,109.555876 Z" id="Stroke-7" stroke="#000000" stroke-width="0.5"></path>
                    </g>
                    <g id="Group-12" transform="translate(34.640351, 78.256891)">
                        <mask id="mask-2" fill="white">
                            <use xlink:href="#path-1"></use>
                        </mask>
                        <g id="Clip-11"></g>
                        <polygon id="Fill-10" fill="url(#linearGradient-3)" mask="url(#mask-2)" points="0.894350877 53.3448261 0.894350877 55.9717261 58.5432427 89.3345087 116.284509 33.6226435 116.284509 30.9957435 58.635617 0.260908696"></polygon>
                    </g>
                    <g id="Group-65" transform="translate(34.640351, 61.491674)">
                        <polygon id="Fill-13" fill="#FFFFFF" points="58.635407 14.3985974 116.284299 47.76138 58.5430327 103.473245 0.894140936 70.1104626"></polygon>
                        <polygon id="Stroke-15" stroke="#000000" stroke-width="0.5" points="58.635407 14.3985974 116.284299 47.76138 58.5430327 103.473245 0.894140936 70.1104626"></polygon>
                        <path d="M15.1146348,59.8992926 L7.08332193,67.6490143 C6.26140088,68.440123 6.42830439,69.7970578 7.41607924,70.3691709 L15.8378833,75.2436578 C16.503398,75.62821 17.3442137,75.525523 17.8963599,74.9921796 L25.9213746,67.2497926 C26.7411962,66.4586839 26.5763921,65.102797 25.589667,64.5306839 L17.1741611,59.64991 C16.5086465,59.26431 15.666781,59.3659491 15.1146348,59.8992926" id="Fill-17" fill="#4788D8"></path>
                        <path d="M46.4561746,44.4786457 L37.9566921,39.5496717 C37.3100722,39.17455 36.4913003,39.2740935 35.9528003,39.7927674 L29.3585371,46.1562152 C28.5597096,46.9263674 28.7203149,48.2455804 29.6818471,48.8019761 L38.1802798,53.73095 C38.8268997,54.1060717 39.6467213,54.0075761 40.1841716,53.4878543 L46.7794845,47.1244065 C47.5772623,46.3542543 47.416657,45.0360891 46.4561746,44.4786457" id="Fill-19" fill="#4788D8"></path>
                        <path d="M35.910917,54.4401187 L27.628724,49.6379317 C26.9348673,49.2345187 26.056262,49.341397 25.4789228,49.8988404 L19.0673088,56.0852057 C18.2117971,56.9108926 18.3839491,58.3254578 19.4126626,58.9227187 L27.6948556,63.7259535 C28.3887123,64.1283187 29.2662678,64.0224883 29.8446567,63.4650448 L36.2562708,57.2776317 C37.1128322,56.4519448 36.9396304,55.0373796 35.910917,54.4401187" id="Fill-21" fill="#4788D8"></path>
                        <path d="M43.02615,76.0146483 L34.887767,83.8660091 C34.1078342,84.6193961 34.2652904,85.9071743 35.2047787,86.4509961 L45.4772173,92.3963613 C46.1101909,92.7610048 46.9079687,92.6646048 47.4328225,92.157457 L55.5628079,84.3134309 C56.3427406,83.5610917 56.1852845,82.2743613 55.2478956,81.7294917 L44.982805,75.7767917 C44.350881,75.4100526 43.5520535,75.5075004 43.02615,76.0146483" id="Fill-23" fill="#4788D8"></path>
                        <path d="M28.3691877,67.3240835 L19.881252,75.5138922 C19.2083895,76.1635443 19.3448515,77.2721443 20.1531263,77.7405226 L30.8349509,83.9216487 C31.3786994,84.2370443 32.0662579,84.1532183 32.5186819,83.7173226 L40.9982199,75.5348487 C41.6700327,74.8872922 41.5346205,73.7776443 40.7273953,73.3092661 L30.0539684,67.1197574 C29.5102199,66.8043617 28.8226614,66.88714 28.3691877,67.3240835" id="Fill-25" fill="#4788D8"></path>
                        <path d="M68.2539827,23.4801061 L59.712512,18.5364626 C59.0732401,18.1676278 58.2649652,18.2650757 57.7338132,18.7785104 L50.1549243,26.0902409 C49.3655442,26.8520104 49.52405,28.1555061 50.4740354,28.7056148 L59.0081582,33.6555452 C59.6484798,34.0254278 60.4567547,33.92798 60.9889564,33.4145452 L68.5741436,26.09548 C69.3645734,25.3347583 69.2039681,24.0302148 68.2539827,23.4801061" id="Fill-27" fill="#4788D8"></path>
                        <path d="M102.523262,57.5283765 L110.189277,50.1317722 C110.963961,49.38572 110.807554,48.1063243 109.875414,47.5666939 L102.370005,43.2245026 C101.743329,42.860907 100.94975,42.957307 100.429095,43.4602635 L92.7693789,50.8505809 C91.9957444,51.5976809 92.1511012,52.8760287 93.0821918,53.4156591 L100.580253,57.7651852 C101.207978,58.1287809 102.001557,58.0323809 102.523262,57.5283765" id="Fill-29" fill="#4788D8"></path>
                        <path d="M90.4998061,50.6039226 L98.24035,43.1350183 C98.9877418,42.4141139 98.8365839,41.1797748 97.9380342,40.6590052 L87.5427798,34.6434357 C86.9360488,34.2924139 86.1718617,34.3846226 85.668002,34.8708139 L77.9358558,42.3313357 C77.188464,43.05224 77.3396219,44.2865791 78.2371219,44.8073487 L88.6250284,50.8313009 C89.2307096,51.1823226 89.9969962,51.0890661 90.4998061,50.6039226" id="Fill-31" fill="#4788D8"></path>
                        <path d="M56.9799132,34.5037604 L48.2988313,29.4689561 C47.6900009,29.1168865 46.9216149,29.210143 46.4156558,29.69843 L39.6702348,36.2075257 C38.9196939,36.9305257 39.069802,38.1701039 39.9725506,38.6929691 L48.6536325,43.7277735 C49.2614132,44.0808909 50.0308488,43.9876343 50.5368079,43.4993474 L57.2822289,36.9902517 C58.0327699,36.2672517 57.881612,35.0276735 56.9799132,34.5037604" id="Fill-33" fill="#4788D8"></path>
                        <path d="M75.7290556,42.0248465 L83.4360088,34.5884248 C84.1907485,33.8612335 84.0374912,32.6153683 83.1294942,32.0893596 L72.7604825,26.0884596 C72.1495526,25.7342943 71.3769678,25.8285987 70.8689094,26.3189813 L63.1703538,33.7470204 C62.415614,34.4742117 62.5678216,35.7190291 63.474769,36.2450378 L73.835383,42.2543204 C74.4473626,42.6095335 75.2209971,42.5152291 75.7290556,42.0248465" id="Fill-35" fill="#4788D8"></path>
                        <path d="M49.8124047,94.9042283 L57.5833901,99.4025457 C58.1533813,99.731563 58.8745304,99.6435457 59.3479485,99.1877413 L67.7078199,91.1215761 C68.411124,90.4425848 68.2694135,89.2815935 67.4233491,88.7912109 L59.6576123,84.2866065 C59.0876211,83.9565413 58.3664719,84.0445587 57.8920041,84.5014109 L49.5268842,92.5728152 C48.8235801,93.2528543 48.9652906,94.4138457 49.8124047,94.9042283" id="Fill-37" fill="#4788D8"></path>
                        <path d="M67.5200272,54.6692783 L78.394998,60.9761435 C78.8957085,61.2663913 79.5286822,61.1899 79.9454161,60.7875348 L87.1065213,53.8781696 C87.7237494,53.2819565 87.5998839,52.2613739 86.8566909,51.8307174 L75.9827699,45.5238522 C75.4820594,45.2336043 74.848036,45.3100957 74.4323518,45.7124609 L67.2712465,52.6218261 C66.6529687,53.2180391 66.7778839,54.2386217 67.5200272,54.6692783" id="Fill-39" fill="#4788D8"></path>
                        <path d="M47.0313094,74.9392643 L57.3961222,80.9506426 C58.0060023,81.3048078 58.7775374,81.2105035 59.2855959,80.7211687 L66.0215696,74.2215035 C66.7752596,73.49536 66.623052,72.2515904 65.7182041,71.7266296 L55.3533912,65.7152513 C54.7424614,65.3610861 53.9698766,65.4543426 53.4628678,65.9447252 L46.7268942,72.4443904 C45.9732041,73.1715817 46.1254117,74.4143035 47.0313094,74.9392643" id="Fill-41" fill="#4788D8"></path>
                        <path d="M57.4135474,64.8855826 L67.8151,70.9179174 C68.4176322,71.2678913 69.1797199,71.1746348 69.6814801,70.691587 L76.448945,64.1615348 C77.192138,63.4437739 77.0420298,62.2157217 76.1487287,61.6980957 L65.747176,55.6657609 C65.1446439,55.315787 64.3825561,55.4090435 63.8807959,55.8931391 L57.1143807,62.4221435 C56.370138,63.1388565 56.5191965,64.3669087 57.4135474,64.8855826" id="Fill-43" fill="#4788D8"></path>
                        <path d="M38.7012497,57.3553804 L31.9138404,63.9042935 C31.1779953,64.6157674 31.3260041,65.8322935 32.2109076,66.3457283 L42.6387029,72.3927326 C43.2359865,72.739563 43.9907263,72.6473543 44.4882877,72.1684978 L51.2756971,65.6195848 C52.0125918,64.9081109 51.8635333,63.6915848 50.9775801,63.17815 L40.5508345,57.1311457 C39.9525012,56.7843152 39.1988111,56.8765239 38.7012497,57.3553804" id="Fill-45" fill="#4788D8"></path>
                        <path d="M62.0223936,83.6339157 L69.2664257,87.8356983 C69.9497854,88.2307287 70.8115953,88.1259461 71.3794871,87.5789809 L77.8372883,81.3465113 C78.6791538,80.5354939 78.5101509,79.1450287 77.497183,78.5571983 L70.2542006,74.3564635 C69.5708409,73.961433 68.7079813,74.0651678 68.1411392,74.6142287 L61.683338,80.8446026 C60.8414725,81.6566678 61.0104754,83.0460852 62.0223936,83.6339157" id="Fill-47" fill="#4788D8"></path>
                        <path d="M61.3017693,53.088423 L51.0051874,47.1168622 C50.3806114,46.7543143 49.5901816,46.8507143 49.0695266,47.3515752 L42.3891874,53.7978013 C41.6176523,54.5417578 41.7730091,55.8159143 42.7009506,56.3524013 L52.9975325,62.3239622 C53.6231582,62.6875578 54.413588,62.5911578 54.934243,62.090297 L61.6135325,55.6440709 C62.3850675,54.9001143 62.2297108,53.6259578 61.3017693,53.088423" id="Fill-49" fill="#4788D8"></path>
                        <path d="M82.616712,63.4243891 L90.206098,67.8252587 C90.8149284,68.1773283 91.5833143,68.0840717 92.0882237,67.5957848 L98.8346944,61.087737 C99.5852354,60.3636891 99.4340775,59.1241109 98.5323787,58.6012457 L90.9429927,54.2003761 C90.335212,53.8472587 89.5657763,53.941563 89.060867,54.4288022 L82.3143962,60.9378978 C81.5638553,61.6619457 81.7150132,62.9004761 82.616712,63.4243891" id="Fill-51" fill="#4788D8"></path>
                        <path d="M72.6496333,73.7215857 L79.5462123,77.7211378 C80.3030515,78.160177 81.2603848,78.0438683 81.8912591,77.437177 L88.0614404,71.4823813 C88.9946304,70.5822987 88.8077825,69.0388509 87.6835456,68.387103 L80.7880164,64.3885987 C80.0301275,63.9495596 79.0727942,64.0648204 78.4440193,64.6725596 L72.273838,70.6263074 C71.3385485,71.5274378 71.5274959,73.0708857 72.6496333,73.7215857" id="Fill-53" fill="#4788D8"></path>
                        <path d="M71.6112626,42.9897896 L61.4689877,37.1083417 C60.8108211,36.7248374 59.9784029,36.8264765 59.4304556,37.3556287 L52.8781807,43.6761157 C52.0667567,44.4598896 52.2305111,45.8021548 53.2067392,46.3690287 L63.349014,52.2504765 C64.0082304,52.6318852 64.8406485,52.5302461 65.3875462,52.0031896 L71.9387713,45.680607 C72.751245,44.896833 72.5885404,43.5556157 71.6112626,42.9897896" id="Fill-55" fill="#4788D8"></path>
                        <polygon id="Fill-57" fill="#FFFFFF" opacity="0.29906064" points="40.6130822 93.0960996 56.2558249 102.149317 37.0850149 35.1911343 26.8587635 45.0574648"></polygon>
                        <polygon id="Stroke-59" stroke="#000000" stroke-width="0.5" points="188.614716 0.865923478 133.274131 54.2610452 133.289877 59.5085583 135.020845 60.564767 188.690295 27.5802496"></polygon>
                        <path d="M190.346104,1.92192261 L135.005519,55.3170443 L135.021265,60.5645574 L190.421683,28.6352009 L190.346104,1.92192261 Z M187.732332,8.09885739 L187.785867,27.1210922 L138.689993,55.4165878 L187.732332,8.09885739 Z" id="Fill-61" fill="#FFFFFF"></path>
                        <path d="M190.346104,1.92192261 L135.005519,55.3170443 L135.021265,60.5645574 L190.421683,28.6352009 L190.346104,1.92192261 Z M187.732332,8.09885739 L187.785867,27.1210922 L138.689993,55.4165878 L187.732332,8.09885739 L187.732332,8.09885739 Z" id="Stroke-63" stroke="#000000" stroke-width="0.5"></path>
                    </g>
                    <g id="Group-68" transform="translate(110.219298, 32.152543)">
                        <mask id="mask-5" fill="white">
                            <use xlink:href="#path-4"></use>
                        </mask>
                        <g id="Clip-67"></g>
                        <polygon id="Fill-66" fill="url(#linearGradient-6)" mask="url(#mask-5)" points="0.857611111 53.5271478 0.857611111 56.1540478 58.5054532 89.5168304 116.247769 33.8049652 116.247769 31.1780652 58.5988772 0.442182609"></polygon>
                    </g>
                    <g id="Group-121" transform="translate(110.219298, 29.957884)">
                        <polygon id="Fill-69" fill="#FFFFFF" points="58.5985623 0.0102563198 116.247454 33.3730389 58.506188 89.0849041 0.857296199 55.7221215"></polygon>
                        <polygon id="Stroke-71" stroke="#000000" stroke-width="0.5" points="58.5985623 0.0102563198 116.247454 33.3730389 58.506188 89.0849041 0.857296199 55.7221215"></polygon>
                        <path d="M15.0766354,45.5118946 L7.04637222,53.2605685 C6.22445117,54.052725 6.39135468,55.408612 7.37807982,55.980725 L15.8009336,60.855212 C16.4664482,61.2397641 17.3062143,61.1370772 17.8594102,60.6037337 L25.8844249,52.8623946 C26.7042465,52.0702381 26.5394424,50.7143511 25.5516675,50.1422381 L17.1372114,45.2614641 C16.4716968,44.8758641 15.6298313,44.9775033 15.0766354,45.5118946" id="Fill-73" fill="#4788D8"></path>
                        <path d="M46.4192249,30.0901998 L37.9197424,25.1622737 C37.2720728,24.7861041 36.4543506,24.8856476 35.9158506,25.4043215 L29.3215874,31.7677694 C28.5227599,32.5379215 28.6833652,33.8571346 29.6438477,34.4135302 L38.1422804,39.3425041 C38.78995,39.7176259 39.6087219,39.6191302 40.1472219,39.1004563 L46.7425348,32.7370085 C47.5403126,31.9668563 47.3797073,30.6476433 46.4192249,30.0901998" id="Fill-75" fill="#4788D8"></path>
                        <path d="M35.8730225,40.0516728 L27.5918792,35.2494859 C26.8980225,34.8460728 26.0194173,34.9529511 25.4420781,35.5103946 L19.030464,41.6967598 C18.1739026,42.5224468 18.3471044,43.9380598 19.3758178,44.5342728 L27.6580108,49.3375076 C28.3518675,49.7398728 29.2294231,49.6340424 29.807812,49.0765989 L36.219426,42.8891859 C37.0759874,42.0634989 36.9027857,40.6489337 35.8730225,40.0516728" id="Fill-77" fill="#4788D8"></path>
                        <path d="M42.9893053,61.6263072 L34.8509222,69.4776681 C34.0709895,70.231055 34.2284456,71.5188333 35.1668842,72.062655 L45.4403725,78.0080202 C46.0722965,78.3726637 46.8700743,78.2762637 47.3959778,77.7691159 L55.5249135,69.9250898 C56.3058959,69.1727507 56.1484398,67.8860202 55.2110509,67.3411507 L44.9459602,61.3884507 C44.3140363,61.0227594 43.5141591,61.1191594 42.9893053,61.6263072" id="Fill-79" fill="#4788D8"></path>
                        <path d="M28.332343,52.9356376 L19.8433576,61.1254463 C19.1715447,61.7750985 19.306957,62.8836985 20.1162816,63.3520768 L30.7981061,69.5332028 C31.3418547,69.8485985 32.0283635,69.7647724 32.4818371,69.3288768 L40.9613751,61.1464028 C41.633188,60.4988463 41.4977757,59.3891985 40.6895009,58.9208202 L30.0171237,52.7313115 C29.4733751,52.4159159 28.7858167,52.499742 28.332343,52.9356376" id="Fill-81" fill="#4788D8"></path>
                        <path d="M68.217138,9.09166023 L59.6746175,4.14906458 C59.0363953,3.77918197 58.2270708,3.8766298 57.6969684,4.39006458 L50.1180795,11.701795 C49.3286994,12.4635646 49.4872053,13.7670602 50.4361409,14.3171689 L58.9713135,19.2670994 C59.6116351,19.636982 60.4188602,19.540582 60.951062,19.0260994 L68.5372988,11.7070341 C69.3266789,10.9463124 69.1671234,9.64176893 68.217138,9.09166023" id="Fill-83" fill="#4788D8"></path>
                        <path d="M102.486417,43.1409785 L110.152432,35.7443741 C110.926066,34.9972741 110.77071,33.7178785 109.838569,33.1792959 L102.33316,28.8360568 C101.705435,28.4724611 100.912906,28.5688611 100.392251,29.0718176 L92.7314845,36.4631828 C91.95785,37.209235 92.1132067,38.4875828 93.0442974,39.0272133 L100.543408,43.3767394 C101.171134,43.740335 101.964713,43.643935 102.486417,43.1409785" id="Fill-85" fill="#4788D8"></path>
                        <path d="M90.4629614,36.2154768 L98.2035053,28.7465724 C98.9508971,28.0256681 98.7997392,26.7913289 97.9011895,26.2705594 L87.5059351,20.2549898 C86.8992041,19.9039681 86.135017,19.9972246 85.6311573,20.4823681 L77.8990111,27.9428898 C77.1516193,28.6637941 77.3027772,29.8981333 78.2002772,30.4189028 L88.5881836,36.442855 C89.1938649,36.7938768 89.9601515,36.7016681 90.4629614,36.2154768" id="Fill-87" fill="#4788D8"></path>
                        <path d="M56.9429635,20.1163624 L48.2608319,15.0815581 C47.6530512,14.7284407 46.8846652,14.8216972 46.3787061,15.3099841 L39.6332851,21.8190798 C38.8827442,22.5420798 39.0328523,23.7816581 39.9356009,24.3055711 L48.6166827,29.3393276 C49.2244635,29.692445 49.9938991,29.5991885 50.4998582,29.1109015 L57.2452792,22.6018059 C57.9958202,21.8788059 57.8446623,20.6392276 56.9429635,20.1163624" id="Fill-89" fill="#4788D8"></path>
                        <path d="M75.6922108,27.6364007 L83.3981143,20.1999789 C84.1528541,19.4727876 84.0006465,18.2269224 83.0926494,17.7009137 L72.7236377,11.7000137 C72.1127079,11.3458485 71.3401231,11.4401528 70.8310149,11.9305355 L63.1335091,19.3585746 C62.3787693,20.0857659 62.5309769,21.3305833 63.4379243,21.8576398 L73.7985383,27.8658746 C74.4105178,28.2210876 75.1841523,28.1267833 75.6922108,27.6364007" id="Fill-91" fill="#4788D8"></path>
                        <path d="M49.7744053,80.5157824 L57.5464404,85.0140998 C58.1164316,85.3431172 58.836531,85.2550998 59.3109988,84.7992955 L67.6708702,76.7331302 C68.3741743,76.0541389 68.2324637,74.8931476 67.3863994,74.402765 L59.6206626,69.8981607 C59.0506713,69.5680955 58.3295222,69.6561128 57.8550544,70.112965 L49.4899345,78.1843694 C48.7866304,78.8644085 48.9272912,80.0264476 49.7744053,80.5157824" id="Fill-93" fill="#4788D8"></path>
                        <path d="M67.4831825,40.2809372 L78.3571035,46.5878024 C78.8588637,46.8780502 79.4918374,46.8015589 79.9085713,46.3991937 L87.0686269,39.4898285 C87.6869047,38.8936155 87.5630392,37.8730328 86.8198462,37.4423763 L75.9459251,31.1355111 C75.4441649,30.8452633 74.8111912,30.9217546 74.3944573,31.3241198 L67.2344018,38.233485 C66.616124,38.8296981 66.7399895,39.8502807 67.4831825,40.2809372" id="Fill-95" fill="#4788D8"></path>
                        <path d="M46.9933099,60.5518663 L57.3581228,66.5621968 C57.9690526,66.916362 58.7405877,66.8220576 59.2486462,66.3337707 L65.9846199,59.8330576 C66.7383099,59.1069141 66.5861023,57.8631446 65.6802047,57.3381837 L55.3164415,51.3268055 C54.7055117,50.9726402 53.9329269,51.0669446 53.4259181,51.5562794 L46.6899444,58.0559446 C45.9362544,58.7831359 46.088462,60.0258576 46.9933099,60.5518663" id="Fill-97" fill="#4788D8"></path>
                        <path d="M57.3765977,50.4972415 L67.7771006,56.5295763 C68.3796327,56.8795502 69.1427702,56.7862937 69.6445304,56.3032459 L76.4109456,49.7731937 C77.1551883,49.0554328 77.0050801,47.8273807 76.1117789,47.3097546 L65.7091766,41.2774198 C65.1066444,40.9284937 64.3456064,41.0207024 63.8438462,41.5047981 L57.0763813,48.0338024 C56.3331883,48.7515633 56.4822468,49.9796155 57.3765977,50.4972415" id="Fill-99" fill="#4788D8"></path>
                        <path d="M38.664405,42.9669346 L31.8769956,49.5158476 C31.1401009,50.2273215 31.2891594,51.4438476 32.1740629,51.9572824 L42.6018582,58.0042868 C43.1991418,58.3511172 43.9538816,58.2589085 44.451443,57.780052 L51.2388523,51.2311389 C51.9746974,50.519665 51.8266886,49.3031389 50.9407354,48.7897041 L40.5139898,42.7426998 C39.9156564,42.3958694 39.1619664,42.4880781 38.664405,42.9669346" id="Fill-101" fill="#4788D8"></path>
                        <path d="M61.9854439,69.2454698 L69.229476,73.4472524 C69.911786,73.8433307 70.7746456,73.7375002 71.3414877,73.190535 L77.8003386,66.9580655 C78.6422041,66.1470481 78.4721515,64.7565828 77.4602333,64.1687524 L70.2162012,59.9680176 C69.5338912,59.5729872 68.6710316,59.6777698 68.1031398,60.2257828 L61.6453386,66.4561568 C60.8034731,67.268222 60.9735257,68.6576394 61.9854439,69.2454698" id="Fill-103" fill="#4788D8"></path>
                        <path d="M61.2648196,38.6999772 L50.967188,32.7284163 C50.342612,32.3658685 49.5521822,32.4622685 49.0325769,32.9631294 L42.3522377,39.4093555 C41.5807026,40.153312 41.7360594,41.4274685 42.6629512,41.9639555 L52.9605827,47.9355163 C53.5862085,48.299112 54.3766383,48.202712 54.8962436,47.7018511 L61.5765827,41.255625 C62.3470681,40.5116685 62.1927611,39.2385598 61.2648196,38.6999772" id="Fill-105" fill="#4788D8"></path>
                        <path d="M82.5798673,49.0359433 L90.1682035,53.4368128 C90.7780836,53.7899302 91.5464696,53.6956259 92.0513789,53.2083868 L98.7978497,46.7003389 C99.5483906,45.9752433 99.3972327,44.735665 98.4944842,44.2127998 L90.906148,39.8119302 C90.2983673,39.4588128 89.5289316,39.5531172 89.0240222,40.0414041 L82.2775515,46.549452 C81.5270105,47.2734998 81.6781684,48.5130781 82.5798673,49.0359433" id="Fill-107" fill="#4788D8"></path>
                        <path d="M72.6127886,59.3331398 L79.5083178,63.332692 C80.2662067,63.7717311 81.2235401,63.6554224 81.8533646,63.0487311 L88.0245956,57.0949833 C88.9577857,56.1938528 88.7709377,54.650405 87.6467009,53.999705 L80.7511716,50.0001528 C79.9932827,49.5611137 79.0359494,49.6774224 78.4061249,50.2841137 L72.2359436,56.2389094 C71.3017038,57.138992 71.4896015,58.6824398 72.6127886,59.3331398" id="Fill-109" fill="#4788D8"></path>
                        <path d="M71.5743129,28.6013437 L61.432038,22.7198959 C60.7738713,22.3374394 59.9404035,22.4380307 59.3935058,22.9671828 L52.841231,29.2876698 C52.029807,30.0714437 52.1925117,31.4137089 53.1697895,31.9805828 L63.3120643,37.8620307 C63.970231,38.2434394 64.8036988,38.1418002 65.3505965,37.6147437 L71.9018216,31.2921611 C72.7142953,30.509435 72.5515906,29.1671698 71.5743129,28.6013437" id="Fill-111" fill="#4788D8"></path>
                        <polygon id="Fill-113" fill="#FFFFFF" opacity="0.29906064" points="40.5761325 78.7076537 56.2188751 87.7608711 37.0480652 20.8026885 26.8218137 30.6690189"></polygon>
                        <polygon id="Stroke-115" stroke="#000000" stroke-width="0.5" points="109.309517 112.953335 53.9689319 166.348456 53.9846775 171.595969 55.7156453 172.652178 109.385096 139.666613"></polygon>
                        <path d="M111.040904,114.008391 L55.7003196,167.403512 L55.7160652,172.652073 L111.116483,140.722717 L111.040904,114.008391 Z M108.427132,120.185325 L108.481717,139.208608 L59.3847933,167.503056 L108.427132,120.185325 Z" id="Fill-117" fill="#FFFFFF"></path>
                        <path d="M111.040904,114.008391 L55.7003196,167.403512 L55.7160652,172.652073 L111.116483,140.722717 L111.040904,114.008391 Z M108.427132,120.185325 L108.481717,139.208608 L59.3847933,167.503056 L108.427132,120.185325 L108.427132,120.185325 Z" id="Stroke-119" stroke="#000000" stroke-width="0.5"></path>
                    </g>
                    <g id="Group-124" transform="translate(107.070175, 112.835152)">
                        <mask id="mask-8" fill="white">
                            <use xlink:href="#path-7"></use>
                        </mask>
                        <g id="Clip-123"></g>
                        <polygon id="Fill-122" fill="url(#linearGradient-9)" mask="url(#mask-8)" points="0.28027193 53.3972174 0.28027193 56.0251652 57.9291637 89.3879478 115.67043 33.6760826 115.67043 31.0491826 58.021538 0.3133"></polygon>
                    </g>
                    <g id="Group-177" transform="translate(107.070175, 96.069935)">
                        <polygon id="Fill-125" fill="#FFFFFF" points="58.021433 14.451827 115.670325 47.8146096 57.9290588 103.526475 0.280166959 70.1626443"></polygon>
                        <polygon id="Stroke-127" stroke="#000000" stroke-width="0.5" points="58.021433 14.451827 115.670325 47.8146096 57.9290588 103.526475 0.280166959 70.1626443"></polygon>
                        <path d="M14.5005558,59.9524174 L6.46924298,67.7021391 C5.64732193,68.4932478 5.81422544,69.8501826 6.80200029,70.4212478 L15.2238044,75.2967826 C15.889319,75.6813348 16.7301348,75.5786478 17.282281,75.0453043 L25.3072956,67.3029174 C26.1271173,66.5107609 25.9623132,65.1559217 24.975588,64.5827609 L16.5600822,59.7030348 C15.8945675,59.3174348 15.052702,59.4190739 14.5005558,59.9524174" id="Fill-129" fill="#4788D8"></path>
                        <path d="M45.8420956,44.5317704 L37.3426132,39.6027965 C36.6959933,39.2276748 35.8772213,39.3261704 35.3387213,39.8458922 L28.7444582,46.20934 C27.9456307,46.9794922 28.106236,48.2987052 29.0677681,48.8551009 L37.5662009,53.7840748 C38.2128208,54.1591965 39.0326424,54.0607009 39.5700927,53.5409791 L46.1654056,47.1775313 C46.9631833,46.4073791 46.8025781,45.0881661 45.8420956,44.5317704" id="Fill-131" fill="#4788D8"></path>
                        <path d="M35.296838,54.4933483 L27.014645,49.6901135 C26.3207883,49.2877483 25.442183,49.3946265 24.8648439,49.9510222 L18.4532298,56.1373874 C17.5977181,56.9641222 17.7698702,58.3786874 18.7985836,58.9759483 L27.0807766,63.7781352 C27.7746333,64.1815483 28.6521889,64.0757178 29.2305778,63.5172265 L35.6421918,57.3308613 C36.4987532,56.5051743 36.3255515,55.0895613 35.296838,54.4933483" id="Fill-133" fill="#4788D8"></path>
                        <path d="M42.412176,76.0678778 L34.273793,83.9192387 C33.4938602,84.6715778 33.6513164,85.9604039 34.5908047,86.5031778 L44.8632433,92.4495909 C45.496217,92.8142343 46.2939947,92.7178343 46.8188485,92.2106865 L54.9477842,84.3666604 C55.7287667,83.6143213 55.5713105,82.326543 54.6339216,81.7827213 L44.368831,75.8289735 C43.736907,75.4632822 42.9380795,75.56073 42.412176,76.0678778" id="Fill-135" fill="#4788D8"></path>
                        <path d="M27.7552137,67.377313 L19.2672781,75.5671217 C18.5944155,76.2157261 18.7308775,77.3253739 19.5391523,77.7927043 L30.2209769,83.9748783 C30.7647254,84.2902739 31.4522839,84.2064478 31.9047079,83.7695043 L40.3842459,75.5870304 C41.0560588,74.9394739 40.9206465,73.8298261 40.1134213,73.3624957 L29.4399944,67.172987 C28.8962459,66.8575913 28.2086874,66.9403696 27.7552137,67.377313" id="Fill-137" fill="#4788D8"></path>
                        <path d="M67.6400088,23.5333357 L59.098538,18.5896922 C58.4592661,18.2198096 57.6509912,18.3183052 57.1198392,18.83174 L49.5409503,26.1434704 C48.7515702,26.90524 48.910076,28.2087357 49.8600614,28.7577965 L58.3941842,33.7087748 C59.0345058,34.0786574 59.8427807,33.9812096 60.3749825,33.4677748 L67.9601696,26.1487096 C68.7505994,25.3879878 68.5899942,24.0823965 67.6400088,23.5333357" id="Fill-139" fill="#4788D8"></path>
                        <path d="M101.909288,57.5815013 L109.575303,50.184897 C110.349987,49.4388448 110.19358,48.1594491 109.26144,47.6198187 L101.756031,43.2765796 C101.129355,42.9140317 100.335776,43.0104317 99.8151213,43.5133883 L92.155405,50.9037057 C91.3817705,51.6508057 91.5371272,52.9291535 92.4682178,53.4687839 L99.9662792,57.81831 C100.594004,58.1808578 101.387583,58.0844578 101.909288,57.5815013" id="Fill-141" fill="#4788D8"></path>
                        <path d="M89.8857272,50.6561043 L97.6262711,43.1872 C98.3736629,42.4673435 98.222505,41.2319565 97.3239553,40.7122348 L86.9287009,34.6956174 C86.3219699,34.3456435 85.5577827,34.4378522 85.0539231,34.9240435 L77.3217769,42.3845652 C76.5743851,43.1054696 76.725543,44.3398087 77.623043,44.8605783 L88.0109494,50.8845304 C88.6166307,51.2355522 89.3829173,51.1422957 89.8857272,50.6561043" id="Fill-143" fill="#4788D8"></path>
                        <path d="M56.3658342,34.55699 L47.6847523,29.5221857 C47.0759219,29.1690683 46.307536,29.2633726 45.8015769,29.7516596 L39.0561558,36.2597074 C38.3056149,36.9837552 38.4557231,38.2233335 39.3584716,38.7461987 L48.0395535,43.781003 C48.6473342,44.1341204 49.4167699,44.0408639 49.9227289,43.552577 L56.66815,37.0434813 C57.4186909,36.3204813 57.267533,35.0798552 56.3658342,34.55699" id="Fill-145" fill="#4788D8"></path>
                        <path d="M75.1150816,42.0779713 L82.8220348,34.6415496 C83.5767746,33.9143583 83.4235173,32.6674452 82.5155202,32.1424843 L72.1465085,26.1415843 C71.5355787,25.7874191 70.7629939,25.8817235 70.2549354,26.3721061 L62.5563798,33.7990974 C61.8016401,34.5273365 61.9538477,35.7721539 62.860795,36.2981626 L73.2214091,42.3074452 C73.8333886,42.6626583 74.6070231,42.5683539 75.1150816,42.0779713" id="Fill-147" fill="#4788D8"></path>
                        <path d="M49.1983257,94.9574578 L56.9693111,99.4547274 C57.5393023,99.7847926 58.2604515,99.6967752 58.7338696,99.239923 L67.0937409,91.1748057 C67.797045,90.4958143 67.6553345,89.334823 66.8092702,88.8433926 L59.0435333,84.3398361 C58.4735421,84.0097709 57.752393,84.0977883 57.2779251,84.5546404 L48.9128053,92.6260448 C48.2095012,93.3050361 48.3512117,94.4670752 49.1983257,94.9574578" id="Fill-149" fill="#4788D8"></path>
                        <path d="M66.9059482,54.7225078 L77.780919,61.029373 C78.2816295,61.318573 78.9146032,61.2420817 79.3313371,60.8407643 L86.4924424,53.9303513 C87.1096705,53.3351861 86.985805,52.3146035 86.242612,51.883947 L75.3686909,45.5770817 C74.8679804,45.2868339 74.233957,45.3633252 73.8182728,45.7656904 L66.6571675,52.6750557 C66.0388898,53.2702209 66.163805,54.2908035 66.9059482,54.7225078" id="Fill-151" fill="#4788D8"></path>
                        <path d="M46.4172304,74.9923891 L56.7820433,81.0027196 C57.3919234,81.3579326 58.1634585,81.2636283 58.671517,80.7742935 L65.4074906,74.2746283 C66.1611807,73.5484848 66.0089731,72.3047152 65.1041251,71.7797543 L54.7393123,65.7683761 C54.1283825,65.4142109 53.3557977,65.5074674 52.8487889,65.99785 L46.1128152,72.4964674 C45.3591251,73.2236587 45.5113327,74.4674283 46.4172304,74.9923891" id="Fill-153" fill="#4788D8"></path>
                        <path d="M56.7994684,64.9388122 L67.2010211,70.971147 C67.8035532,71.320073 68.5656409,71.2278643 69.0674012,70.7437687 L75.8348661,64.2147643 C76.5780591,63.4970035 76.4279509,62.2689513 75.5346497,61.7502774 L65.1330971,55.7189904 C64.5305649,55.3690165 63.7684772,55.462273 63.266717,55.9453209 L56.5003018,62.4743252 C55.7560591,63.1920861 55.9051175,64.4201383 56.7994684,64.9388122" id="Fill-155" fill="#4788D8"></path>
                        <path d="M38.0871708,57.40861 L31.2997614,63.957523 C30.5639164,64.6679491 30.7119251,65.8844752 31.5968287,66.39791 L42.024624,72.4459622 C42.6219076,72.7927926 43.3766474,72.7005839 43.8742088,72.2217274 L50.6616181,65.6728143 C51.3985129,64.9613404 51.2494544,63.7448143 50.3635012,63.2313796 L39.9367556,57.1833274 C39.3384222,56.8375448 38.5847322,56.9297535 38.0871708,57.40861" id="Fill-157" fill="#4788D8"></path>
                        <path d="M61.4083146,83.6871452 L68.6523468,87.88788 C69.3357064,88.2839583 70.1975164,88.1791757 70.7654082,87.6322104 L77.2232094,81.3997409 C78.0650749,80.5876757 77.8960719,79.1982583 76.8831041,78.6104278 L69.6401216,74.409693 C68.956762,74.0146626 68.0939023,74.1183974 67.5270602,74.6664104 L61.0692591,80.8978322 C60.2273936,81.7098974 60.3963965,83.0993148 61.4083146,83.6871452" id="Fill-159" fill="#4788D8"></path>
                        <path d="M60.6876904,53.1415478 L50.3911085,47.169987 C49.7665325,46.8074391 48.9761026,46.9027913 48.4554477,47.4047 L41.7751085,53.8509261 C41.0035734,54.5948826 41.1589301,55.8679913 42.0868716,56.4055261 L52.3834535,62.377087 C53.0090792,62.7396348 53.7995091,62.6432348 54.320164,62.1423739 L60.9994535,55.6961478 C61.7709886,54.9532391 61.6156319,53.6790826 60.6876904,53.1415478" id="Fill-161" fill="#4788D8"></path>
                        <path d="M82.002738,63.4765709 L89.592124,67.8774404 C90.2009544,68.2305578 90.9693404,68.1373013 91.4742497,67.6490143 L98.2207205,61.1409665 C98.9712614,60.4169187 98.8201035,59.1773404 97.9184047,58.6544752 L90.3290187,54.2536057 C89.721238,53.9004883 88.9518023,53.9937448 88.446893,54.4820317 L81.7004222,60.9911274 C80.9498813,61.7141274 81.1010392,62.9537057 82.002738,63.4765709" id="Fill-163" fill="#4788D8"></path>
                        <path d="M72.0356594,73.7747104 L78.9322383,77.7742626 C79.6890775,78.2133017 80.6464108,78.096993 81.2772851,77.4892539 L87.4474664,71.5355061 C88.3806564,70.6343757 88.1938085,69.0919757 87.0695716,68.4402278 L80.1740424,64.4417235 C79.4161535,64.0026843 78.4588202,64.1179452 77.8300453,64.7256843 L71.659864,70.6794322 C70.7245746,71.5805626 70.9135219,73.1240104 72.0356594,73.7747104" id="Fill-165" fill="#4788D8"></path>
                        <path d="M70.9971836,43.0419713 L60.8549088,37.1605235 C60.1967421,36.778067 59.364324,36.8797061 58.8163766,37.4078104 L52.2641018,43.7293452 C51.4526778,44.5131191 51.6164322,45.8553843 52.5926602,46.4212104 L62.7349351,52.3026583 C63.3941515,52.6851148 64.2265696,52.5834757 64.7734673,52.0553713 L71.3246924,45.7338365 C72.1371661,44.9500626 71.9744614,43.6088452 70.9971836,43.0419713" id="Fill-167" fill="#4788D8"></path>
                        <polygon id="Fill-169" fill="#FFFFFF" opacity="0.29906064" points="39.9990032 93.1493291 55.6417459 102.202547 36.470936 35.2443639 26.2446845 45.1106943"></polygon>
                        <polygon id="Stroke-171" stroke="#000000" stroke-width="0.5" points="188.000637 0.919153043 132.660052 54.3142748 132.675798 59.5617878 134.406766 60.6179965 188.076216 27.6334791"></polygon>
                        <path d="M189.732025,1.97515217 L134.39144,55.3702739 L134.407186,60.617787 L189.807604,28.6884304 L189.732025,1.97515217 Z M187.118253,8.15103913 L187.171788,27.1743217 L138.075914,55.4698174 L187.118253,8.15103913 Z" id="Fill-173" fill="#FFFFFF"></path>
                        <path d="M189.732025,1.97515217 L134.39144,55.3702739 L134.407186,60.617787 L189.807604,28.6884304 L189.732025,1.97515217 Z M187.118253,8.15103913 L187.171788,27.1743217 L138.075914,55.4698174 L187.118253,8.15103913 L187.118253,8.15103913 Z" id="Stroke-175" stroke="#000000" stroke-width="0.5"></path>
                    </g>
                    <g id="Group-180" transform="translate(182.649123, 66.730804)">
                        <mask id="mask-11" fill="white">
                            <use xlink:href="#path-10"></use>
                        </mask>
                        <g id="Clip-179"></g>
                        <polygon id="Fill-178" fill="url(#linearGradient-12)" mask="url(#mask-11)" points="0.243532164 53.580587 0.243532164 56.207487 57.892424 89.5692217 115.63369 33.8584043 115.63369 31.2315043 57.9847982 0.495621739"></polygon>
                    </g>
                    <g id="Group-263" transform="translate(0.000000, 0.717761)">
                        <polygon id="Fill-181" fill="#FFFFFF" points="240.633606 63.8817652 298.282498 97.2445478 240.541232 152.956413 182.89234 119.59363"></polygon>
                        <polygon id="Stroke-183" stroke="#000000" stroke-width="0.5" points="240.633606 63.8817652 298.282498 97.2445478 240.541232 152.956413 182.89234 119.59363"></polygon>
                        <path d="M197.111784,109.38246 L189.081521,117.132182 C188.2596,117.923291 188.426504,119.280226 189.413229,119.852339 L197.836082,124.726826 C198.501597,125.111378 199.341363,125.008691 199.894559,124.475347 L207.919574,116.73296 C208.739395,115.941852 208.574591,114.585965 207.586816,114.013852 L199.17236,109.133078 C198.506846,108.747478 197.66498,108.849117 197.111784,109.38246" id="Fill-185" fill="#4788D8"></path>
                        <path d="M228.454374,93.9618135 L219.954891,89.0328396 C219.307222,88.6577178 218.489499,88.7562135 217.950999,89.2759352 L211.356736,95.639383 C210.557909,96.4095352 210.718514,97.7287483 211.678996,98.2851439 L220.177429,103.214118 C220.825099,103.58924 221.643871,103.490744 222.182371,102.971022 L228.777684,96.6075743 C229.575461,95.8374222 229.414856,94.5182091 228.454374,93.9618135" id="Fill-187" fill="#4788D8"></path>
                        <path d="M217.908066,103.923287 L209.626923,99.1200517 C208.933066,98.7176865 208.054461,98.8245648 207.477122,99.3809604 L201.065508,105.568373 C200.208946,106.39406 200.382148,107.808626 201.410862,108.405887 L209.693055,113.208073 C210.386911,113.611487 211.264467,113.505656 211.842856,112.947165 L218.25447,106.7608 C219.111031,105.935113 218.93783,104.5195 217.908066,103.923287" id="Fill-189" fill="#4788D8"></path>
                        <path d="M225.024349,125.497816 L216.885966,133.349177 C216.106033,134.102564 216.263489,135.390342 217.201928,135.934164 L227.475416,141.879529 C228.10734,142.244173 228.905118,142.147773 229.431022,141.640625 L237.559957,133.796599 C238.34094,133.04426 238.183484,131.756481 237.246095,131.21266 L226.981004,125.25996 C226.34908,124.89322 225.549203,124.990668 225.024349,125.497816" id="Fill-191" fill="#4788D8"></path>
                        <path d="M210.367387,116.807251 L201.878401,124.99706 C201.206589,125.646712 201.342001,126.755312 202.151325,127.222643 L212.83315,133.404817 C213.376899,133.720212 214.063407,133.636386 214.516881,133.199443 L222.996419,125.018017 C223.668232,124.369412 223.53282,123.260812 222.724545,122.792434 L212.052168,116.602925 C211.508419,116.28753 210.820861,116.370308 210.367387,116.807251" id="Fill-193" fill="#4788D8"></path>
                        <path d="M250.252182,72.9632739 L241.709661,68.0196304 C241.071439,67.6507957 240.262115,67.7482435 239.732012,68.2616783 L232.153123,75.5734087 C231.363743,76.3351783 231.522249,77.6386739 232.471185,78.1877348 L241.006357,83.138713 C241.646679,83.5085957 242.453904,83.4111478 242.986106,82.897713 L250.572343,75.5786478 C251.361723,74.8179261 251.202167,73.5123348 250.252182,72.9632739" id="Fill-195" fill="#4788D8"></path>
                        <path d="M284.521461,107.011544 L292.187476,99.61494 C292.96111,98.8688878 292.805754,97.5894922 291.873613,97.0498617 L284.368204,92.7076704 C283.740479,92.3440748 282.947949,92.4404748 282.427294,92.9434313 L274.766528,100.333749 C273.992894,101.080849 274.148251,102.359197 275.079341,102.898827 L282.578452,107.248353 C283.206177,107.610901 283.999756,107.514501 284.521461,107.011544" id="Fill-197" fill="#4788D8"></path>
                        <path d="M272.498005,100.08709 L280.238549,92.6171383 C280.985941,91.8972817 280.834783,90.6618948 279.936233,90.142173 L269.540979,84.1266035 C268.934248,83.7755817 268.170061,83.8677904 267.666201,84.3539817 L259.934055,91.8145035 C259.186663,92.5354078 259.337821,93.769747 260.235321,94.2905165 L270.623227,100.314469 C271.228909,100.66549 271.995195,100.572234 272.498005,100.08709" id="Fill-199" fill="#4788D8"></path>
                        <path d="M238.978112,83.9869283 L230.295981,78.9521239 C229.6882,78.5990065 228.919814,78.6933109 228.413855,79.1815978 L221.668434,85.6896457 C220.917893,86.4136935 221.068001,87.6532717 221.97075,88.176137 L230.651832,93.2109413 C231.259612,93.5640587 232.029048,93.4708022 232.535007,92.9825152 L239.280428,86.4734196 C240.030969,85.7504196 239.879811,84.5108413 238.978112,83.9869283" id="Fill-201" fill="#4788D8"></path>
                        <path d="M257.727255,91.5080143 L265.433158,84.0715926 C266.187898,83.3444013 266.03569,82.0974883 265.127693,81.5725274 L254.758682,75.5716274 C254.147752,75.2174622 253.375167,75.3117665 252.866059,75.8021491 L245.168553,83.2301883 C244.413813,83.9573796 244.566021,85.202197 245.472968,85.7282057 L255.833582,91.7374883 C256.445562,92.0927013 257.219196,91.998397 257.727255,91.5080143" id="Fill-203" fill="#4788D8"></path>
                        <path d="M231.809554,144.387396 L239.581589,148.885713 C240.15158,149.214731 240.87168,149.126713 241.346148,148.669861 L249.706019,140.604744 C250.409323,139.925753 250.267613,138.764761 249.421548,138.273331 L241.655811,133.769774 C241.08582,133.439709 240.364671,133.527727 239.890203,133.984579 L231.525083,142.055983 C230.821779,142.734974 230.96244,143.897013 231.809554,144.387396" id="Fill-205" fill="#4788D8"></path>
                        <path d="M249.518226,104.152551 L260.392147,110.459416 C260.893908,110.749664 261.526881,110.672125 261.943615,110.270807 L269.103671,103.361442 C269.721949,102.765229 269.598083,101.744647 268.85489,101.31399 L257.980969,95.0071248 C257.479209,94.716877 256.846235,94.7933683 256.429501,95.1957335 L249.269446,102.105099 C248.651168,102.701312 248.775033,103.721894 249.518226,104.152551" id="Fill-207" fill="#4788D8"></path>
                        <path d="M229.028459,124.422432 L239.393272,130.43381 C240.004201,130.787976 240.775737,130.693671 241.283795,130.204337 L248.019769,123.704671 C248.773459,122.978528 248.621251,121.734758 247.715354,121.209797 L237.35159,115.198419 C236.740661,114.844254 235.968076,114.93751 235.461067,115.427893 L228.725093,121.92651 C227.971403,122.65475 228.123611,123.897471 229.028459,124.422432" id="Fill-209" fill="#4788D8"></path>
                        <path d="M239.411746,114.368855 L249.812249,120.40119 C250.414782,120.751164 251.177919,120.657907 251.679679,120.173812 L258.446094,113.644807 C259.190337,112.927047 259.040229,111.698994 258.146928,111.181368 L247.744325,105.149033 C247.141793,104.79906 246.380755,104.892316 245.878995,105.375364 L239.11153,111.904368 C238.368337,112.622129 238.517396,113.850181 239.411746,114.368855" id="Fill-211" fill="#4788D8"></path>
                        <path d="M220.699449,106.838548 L213.912039,113.387461 C213.175145,114.097887 213.324203,115.314413 214.209107,115.827848 L224.636902,121.8759 C225.234186,122.222731 225.988925,122.130522 226.486487,121.651666 L233.273896,115.102753 C234.009741,114.391279 233.861732,113.174753 232.975779,112.661318 L222.549034,106.614313 C221.9507,106.267483 221.19701,106.359692 220.699449,106.838548" id="Fill-213" fill="#4788D8"></path>
                        <path d="M244.020593,133.117083 L251.264625,137.318866 C251.946935,137.713897 252.809794,137.609114 253.376637,137.062149 L259.835487,130.829679 C260.677353,130.017614 260.5073,128.628197 259.495382,128.040366 L252.25135,123.839631 C251.56904,123.444601 250.70618,123.548336 250.138289,124.096349 L243.680487,130.32777 C242.838622,131.139836 243.008675,132.529253 244.020593,133.117083" id="Fill-215" fill="#4788D8"></path>
                        <path d="M243.299968,102.571591 L233.002337,96.60003 C232.377761,96.2374822 231.587331,96.3328343 231.067726,96.834743 L224.387387,103.280969 C223.615851,104.024926 223.771208,105.299082 224.6981,105.835569 L234.995732,111.80713 C235.621357,112.169678 236.411787,112.074326 236.931392,111.572417 L243.611732,105.126191 C244.382217,104.383282 244.22791,103.109126 243.299968,102.571591" id="Fill-217" fill="#4788D8"></path>
                        <path d="M264.614911,112.907557 L272.203247,117.308427 C272.813127,117.660496 273.581513,117.56724 274.086423,117.078953 L280.832894,110.570905 C281.583435,109.846857 281.431227,108.607279 280.529528,108.084413 L272.941192,103.683544 C272.333411,103.330427 271.563975,103.423683 271.059066,103.91197 L264.312595,110.421066 C263.562054,111.145113 263.713212,112.383644 264.614911,112.907557" id="Fill-219" fill="#4788D8"></path>
                        <path d="M254.647832,123.204753 L261.543362,127.204306 C262.301251,127.643345 263.258584,127.527036 263.888408,126.919297 L270.059639,120.965549 C270.99283,120.065467 270.805982,118.522019 269.681745,117.870271 L262.786215,113.871767 C262.028327,113.432727 261.070993,113.547988 260.441169,114.155727 L254.270987,120.109475 C253.336748,121.010606 253.524645,122.554053 254.647832,123.204753" id="Fill-221" fill="#4788D8"></path>
                        <path d="M253.609462,92.4729574 L243.467187,86.5915096 C242.80902,86.2080052 241.975552,86.3096443 241.428655,86.8377487 L234.87638,93.1592835 C234.064956,93.9430574 234.227661,95.2853226 235.204938,95.8521965 L245.347213,101.733644 C246.00538,102.115053 246.838848,102.013414 247.385745,101.486357 L253.93697,95.1637748 C254.749444,94.3800009 254.586739,93.0387835 253.609462,92.4729574" id="Fill-223" fill="#4788D8"></path>
                        <polygon id="Fill-225" fill="#FFFFFF" opacity="0.29906064" points="222.611281 142.579267 238.254024 151.632485 219.083214 84.6743022 208.856963 94.5406326"></polygon>
                        <path d="M195.111776,217.958304 C196.025022,219.205217 196.92777,220.45213 197.842066,221.688565" id="Stroke-227" stroke="#283238" stroke-linecap="round" stroke-linejoin="round"></path>
                        <path d="M186.861704,206.631723 L192.246704,214.018897" id="Stroke-229" stroke="#283238" stroke-linecap="round" stroke-linejoin="round"></path>
                        <path d="M175.230944,214.165069 L175.230944,239.428156" id="Stroke-231" stroke="#283238" stroke-linecap="round" stroke-linejoin="round"></path>
                        <path d="M155.884098,230.563967 C155.002344,233.517788 154.111142,236.473706 153.229388,239.428575" id="Stroke-233" stroke="#283238" stroke-linecap="round" stroke-linejoin="round"></path>
                        <path d="M158.550356,221.688041 L157.101759,226.498611" id="Stroke-235" stroke="#283238" stroke-linecap="round" stroke-linejoin="round"></path>
                        <path d="M308.63188,98.3127017 C306.783345,98.1555278 304.93586,97.9868278 303.098871,97.8097452" id="Stroke-237" stroke="#283238" stroke-linecap="round" stroke-linejoin="round"></path>
                        <path d="M348.152742,45.7536404 C339.177742,48.3208143 324.545867,52.7950317 325.783473,64.8240752 C326.455285,71.3310752 332.081718,76.1929883 336.458999,80.5414665 C340.500373,84.575597 346.285312,91.082597 340.069993,96.1121622 C336.815899,98.7422057 331.441396,98.637423 327.473502,98.878423 C322.576616,99.1351404 317.667133,99.0691274 312.777595,98.6793361" id="Stroke-239" stroke="#283238" stroke-linecap="round" stroke-linejoin="round"></path>
                        <path d="M358.681624,43.6784209 C356.655688,43.9403774 354.640249,44.3081643 352.645805,44.726247" id="Stroke-241" stroke="#283238" stroke-linecap="round" stroke-linejoin="round"></path>
                        <path d="M76.1083149,40.739583 C77.8676249,42.3710483 79.6290342,43.9867961 81.3872944,45.6172135" id="Stroke-243" stroke="#283238" stroke-linecap="round" stroke-linejoin="round"></path>
                        <path d="M53.9568602,20.3039357 L73.0573398,37.9336096" id="Stroke-245" stroke="#283238" stroke-linecap="round" stroke-linejoin="round"></path>
                        <path d="M74.8197988,9.81844478 C80.0767345,19.8084187 85.3315708,29.8015361 90.5843076,39.7967491" id="Stroke-247" stroke="#283238" stroke-linecap="round" stroke-linejoin="round"></path>
                        <path d="M70.1023079,0.853663913 C70.9662173,2.49665522 71.8238284,4.13231174 72.6961354,5.76901609" id="Stroke-249" stroke="#283238" stroke-linecap="round" stroke-linejoin="round"></path>
                        <path d="M96.3798482,21.3988091 L99.1153863,32.9458526" id="Stroke-251" stroke="#283238" stroke-linecap="round" stroke-linejoin="round"></path>
                        <path d="M92.1430184,3.48444087 L95.2942406,16.7907843" id="Stroke-253" stroke="#283238" stroke-linecap="round" stroke-linejoin="round"></path>
                        <path d="M9.52578158,88.6847517 C13.1294278,86.7462735 20.434343,83.3523648 23.1719804,88.3106778 C25.1401822,91.8387083 23.7860594,96.9761996 22.965188,100.657213 C21.4336646,107.520473 18.1638254,115.458804 19.8349599,122.549443 C20.9088108,127.142065 24.6846091,128.076726 28.8981354,126.75856" id="Stroke-255" stroke="#283238" stroke-linecap="round" stroke-linejoin="round"></path>
                        <path d="M0.525273684,94.8417778 C2.0043117,93.6755474 3.50119474,92.5491343 5.03481754,91.473017" id="Stroke-257" stroke="#283238" stroke-linecap="round" stroke-linejoin="round"></path>
                        <polygon id="Stroke-259" stroke="#283238" stroke-linecap="round" stroke-linejoin="round" points="88.5828301 191.256133 106.994701 204.395872 91.143067 212.527003"></polygon>
                        <polygon id="Stroke-261" stroke="#283238" stroke-linecap="round" stroke-linejoin="round" points="240.056477 24.0602874 243.836474 39.6938526 260.252851 26.616983"></polygon>
                    </g>
                </g>
            </g>
        </g>
    </g>
</svg>